<svg width="75" height="75" viewBox="0 0 75 75" fill="none" xmlns="http://www.w3.org/2000/svg">
<mask id="path-1-inside-1_1_885" fill="white">
<path fill-rule="evenodd" clip-rule="evenodd" d="M52.0203 6.95406C52.9591 7.89284 52.9591 9.41487 52.0203 10.3536L39.1997 23.1741C38.2609 24.1129 36.7391 24.1129 35.8003 23.1741L26.1848 13.5587C25.2461 12.62 25.2461 11.098 26.1848 10.1592C27.1236 9.22044 28.6456 9.22044 29.5844 10.1592L37.5 18.0748L48.6206 6.95406C49.5594 6.01531 51.0816 6.01531 52.0203 6.95406Z"/>
</mask>
<path d="M52.0203 6.95406L55.5559 3.41859L55.5558 3.41853L52.0203 6.95406ZM52.0203 10.3536L55.5558 13.8892L55.5558 13.8892L52.0203 10.3536ZM39.1997 23.1741L35.6642 19.6386L35.6641 19.6386L39.1997 23.1741ZM35.8003 23.1741L39.3359 19.6386L39.3358 19.6386L35.8003 23.1741ZM26.1848 13.5587L22.6493 17.0943L22.6493 17.0943L26.1848 13.5587ZM26.1848 10.1592L22.6493 6.62365L22.6492 6.62371L26.1848 10.1592ZM29.5844 10.1592L33.1199 6.62366L33.1199 6.62359L29.5844 10.1592ZM37.5 18.0748L33.9645 21.6103L37.5 25.1459L41.0355 21.6103L37.5 18.0748ZM48.6206 6.95406L45.0851 3.41853L45.0851 3.41855L48.6206 6.95406ZM48.4847 10.4895C47.4709 9.47574 47.4709 7.83199 48.4848 6.81809L55.5558 13.8892C58.4472 10.9978 58.4472 6.30994 55.5559 3.41859L48.4847 10.4895ZM48.4848 6.81807L35.6642 19.6386L42.7352 26.7097L55.5558 13.8892L48.4848 6.81807ZM35.6641 19.6386C36.678 18.6247 38.322 18.6247 39.3359 19.6386L32.2647 26.7096C35.1561 29.6011 39.8439 29.6011 42.7353 26.7096L35.6641 19.6386ZM39.3358 19.6386L29.7204 10.0232L22.6493 17.0943L32.2648 26.7097L39.3358 19.6386ZM29.7204 10.0232C30.7343 11.0371 30.7342 12.6809 29.7204 13.6947L22.6492 6.62371C19.758 9.51507 19.7579 14.2029 22.6493 17.0943L29.7204 10.0232ZM29.7204 13.6947C28.7065 14.7086 27.0627 14.7085 26.0489 13.6948L33.1199 6.62359C30.2285 3.73233 25.5407 3.73225 22.6493 6.62365L29.7204 13.6947ZM26.0489 13.6947L33.9645 21.6103L41.0355 14.5393L33.1199 6.62366L26.0489 13.6947ZM41.0355 21.6103L52.1562 10.4896L45.0851 3.41855L33.9644 14.5393L41.0355 21.6103ZM52.1562 10.4896C51.1423 11.5035 49.4986 11.5035 48.4848 10.4896L55.5558 3.41853C52.6645 0.527157 47.9765 0.527157 45.0851 3.41853L52.1562 10.4896Z" fill="white" mask="url(#path-1-inside-1_1_885)"/>
<path d="M50.2525 37.4319L50.2524 37.4321C50.2524 37.432 50.2525 37.432 50.2525 37.4319ZM50.2525 37.4319C50.2525 37.4319 50.2525 37.4319 50.2525 37.4319L50.2525 37.4319ZM24.7475 50.3884L24.7476 50.3883C24.7476 50.3883 24.7475 50.3884 24.7475 50.3884Z" stroke="white" stroke-width="5"/>
<path d="M9.71705 59.7343L12.0132 59.5113L9.71704 59.7343C9.28268 55.262 8.75 48.7835 8.75 43.9103C8.75 39.037 9.2827 32.5584 9.71707 28.0861L9.71705 59.7343ZM12.014 28.3091L9.71707 28.086C10.0067 25.1036 12.3978 22.7874 15.3885 22.5729C21.1662 22.1584 30.5814 21.5705 37.5 21.5705C44.4188 21.5705 53.8338 22.1584 59.6114 22.5729L12.014 28.3091Z" stroke="white" stroke-width="5"/>
</svg>
