<svg width="189" height="51" viewBox="0 0 189 51" fill="none" xmlns="http://www.w3.org/2000/svg">
<path d="M33.4655 24.6052C22.5847 18.41 10.7972 13.3007 4.10315 16.2092C-2.59094 19.1178 -2.45215 27.7271 14.8729 38.6681C33.2805 50.3023 46.4697 52.4546 53.2332 47.83C62.171 41.7172 47.691 32.7055 33.4655 24.6052Z" fill="#E0E0E0"/>
<path d="M138.512 49.7691L106.707 30.5581C105.81 30.0152 105.81 29.1377 106.707 28.619L153.284 0.406115C153.785 0.139144 154.34 0 154.903 0C155.465 0 156.02 0.139144 156.522 0.406115L188.327 19.6171C189.224 20.16 189.224 21.0374 188.327 21.5804L141.755 49.7691C141.253 50.0368 140.697 50.1764 140.134 50.1764C139.57 50.1764 139.014 50.0368 138.512 49.7691Z" fill="#E0E0E0"/>
</svg>
