<svg width="1" height="1" viewBox="0 0 1 1" fill="none" xmlns="http://www.w3.org/2000/svg">
<g clip-path="url(#clip0_1_1853)">
<path d="M0.142857 0.0714111C0.0714286 0.0714111 0 0.14284 0 0.214268V0.285697H0.285714L0.357143 0.214268H0.642857L0.714286 0.285697H1V0.214268C1 0.14284 0.928571 0.0714111 0.857143 0.0714111H0.142857ZM0 0.339268V0.374983C0 0.374983 0.0264554 0.428554 0.0714286 0.428554H0.214286C0.25474 0.427206 0.285714 0.374983 0.285714 0.374983V0.339268H0ZM0.714286 0.339268V0.374983C0.714286 0.374983 0.745265 0.428554 0.785714 0.428554H0.928571C0.969048 0.428554 1 0.374983 1 0.374983V0.339268H0.714286ZM0.107143 0.571411C0.0505448 0.571411 0 0.612378 0 0.678554C0 0.748476 0.0516041 0.785697 0.107143 0.785697H0.178571C0.178571 0.785697 0.214286 0.785697 0.214286 0.821411C0.214286 0.857125 0.178571 0.857125 0.178571 0.857125H0.0357143V0.928554H0.178571C0.23411 0.928554 0.285714 0.885477 0.285714 0.819179C0.285714 0.756627 0.233051 0.714268 0.178571 0.714268H0.107143C0.107143 0.714268 0.0714286 0.714268 0.0714286 0.678554C0.0714286 0.64284 0.107143 0.64284 0.107143 0.64284H0.25V0.571411H0.107143ZM0.464286 0.571411C0.357143 0.571411 0.357143 0.678554 0.357143 0.678554V0.821411C0.357143 0.821411 0.357143 0.928554 0.464286 0.928554H0.535714C0.642857 0.928554 0.642857 0.821411 0.642857 0.821411V0.678554C0.642857 0.678554 0.642857 0.571411 0.535714 0.571411H0.464286ZM0.821429 0.571411C0.764831 0.571411 0.714286 0.612378 0.714286 0.678554C0.714286 0.748476 0.76589 0.785697 0.821429 0.785697H0.892857C0.892857 0.785697 0.928571 0.785697 0.928571 0.821411C0.928571 0.857125 0.892857 0.857125 0.892857 0.857125H0.75V0.928554H0.892857C0.948396 0.928554 1 0.885477 1 0.819179C1 0.756627 0.947337 0.714268 0.892857 0.714268H0.821429C0.821429 0.714268 0.785714 0.714268 0.785714 0.678554C0.785714 0.64284 0.821429 0.64284 0.821429 0.64284H0.964286V0.571411H0.821429ZM0.428571 0.696411C0.428571 0.696411 0.428571 0.64284 0.482143 0.64284H0.517857C0.571429 0.64284 0.571429 0.696411 0.571429 0.696411V0.803554C0.571429 0.803554 0.571429 0.857125 0.517857 0.857125H0.482143C0.428571 0.857125 0.428571 0.803554 0.428571 0.803554V0.696411Z" fill="black"/>
</g>
<defs>
<clipPath id="clip0_1_1853">
<rect width="1" height="1" fill="white"/>
</clipPath>
</defs>
</svg>
