<svg width="77" height="66" viewBox="0 0 77 66" fill="none" xmlns="http://www.w3.org/2000/svg">
<path d="M1.91103 49.1071L3.14649 48.4186L2.02207 48.1373C1.91665 48.2707 1.85013 48.4331 1.83044 48.6051C1.81074 48.777 1.83872 48.9513 1.91103 49.1071Z" fill="#6B67F1"/>
<path opacity="0.5" d="M1.91103 49.1071L3.14649 48.4186L2.02207 48.1373C1.91665 48.2707 1.85013 48.4331 1.83044 48.6051C1.81074 48.777 1.83872 48.9513 1.91103 49.1071Z" fill="black"/>
<path d="M31.6176 64.5258C31.2289 64.732 30.7993 64.8394 30.3636 64.8394C29.9279 64.8394 29.4984 64.732 29.1097 64.5258L3.91921 49.3156L46.0915 24.2141L47.077 23.6177L72.2675 38.411C72.9569 38.8328 72.9569 39.5165 72.2675 39.9286L31.6176 64.5258Z" fill="#6B67F1"/>
<path d="M24.0198 34.5757L14.1962 40.5007L7.82457 36.6557L0.42106 41.131V46.3045C0.42106 46.9833 1.14291 47.9482 1.40666 47.7882C1.89452 47.9136 2.36893 48.0907 2.82258 48.3167C3.55992 48.7574 4.24489 49.288 4.86317 49.8974L27.4393 36.6557L24.0198 34.5757Z" fill="#6B67F1"/>
<path opacity="0.15" d="M24.0198 34.5757L14.1962 40.5007L7.82457 36.6557L0.42106 41.131V46.3045C0.42106 46.9833 1.14291 47.9482 1.40666 47.7882C1.89452 47.9136 2.36893 48.0907 2.82258 48.3167C3.55992 48.7574 4.24489 49.288 4.86317 49.8974L27.4393 36.6557L24.0198 34.5757Z" fill="black"/>
<path d="M4.50226 41.7565V47.3519L4.41435 47.2937C4.05075 47.0599 3.63723 46.925 3.21127 46.901C2.93424 46.871 2.65564 46.9393 2.42003 47.0949V40.4959L4.50226 41.7565Z" fill="#37474F"/>
<path d="M5.88116 49.2913C5.8616 48.938 5.73884 48.5994 5.5295 48.3216C5.424 48.1737 5.30799 48.0343 5.18246 47.9046L5.06215 47.7883L4.90946 47.6525L4.7799 47.5507C4.68735 47.478 4.59481 47.4149 4.50226 47.3519V41.7808L5.89042 42.6148V49.2913H5.88116Z" fill="#E0E0E0"/>
<path opacity="0.4" d="M0.444209 46.3045C0.444209 46.9833 1.16605 47.9482 1.4298 47.7882L2.42003 47.1143V42.8474L1.4298 41.0486L0.88843 40.8449L0.42571 41.1165L0.444209 46.3045Z" fill="black"/>
<path d="M30.3636 57.374V63.7791C30.0733 63.7884 29.7858 63.7165 29.5308 63.5706L26.4398 61.7039L5.88116 49.2913V42.5857L30.3636 57.374Z" fill="#EBEBEB"/>
<path d="M71.5595 33.2908V38.1394C71.5447 38.4439 71.4615 38.7405 71.3168 39.005C71.1721 39.2695 70.9699 39.4946 70.7267 39.6619L34.2875 61.7038L31.2012 63.5706C30.9447 63.7171 30.6556 63.789 30.3636 63.779V58.0964L71.5595 33.2908Z" fill="#F5F5F5"/>
<path d="M46.0915 15.889L3.91921 41.4026V42.0184C3.91921 42.3481 3.47963 42.4693 2.93825 42.1396C2.39687 41.8099 1.95729 41.4026 1.95729 40.8353L1.90176 40.2728L44.8699 14.2793L45.0457 14.1726C45.0886 14.258 45.1123 14.3525 45.1151 14.449V14.7205C45.1151 15.0259 45.5501 15.5544 46.0915 15.889Z" fill="#6B67F1"/>
<path opacity="0.1" d="M46.0915 15.889L3.91921 41.4026V42.0184C3.91921 42.3481 3.47963 42.4693 2.93825 42.1396C2.39687 41.8099 1.95729 41.4026 1.95729 40.8353L1.90176 40.2728L44.8699 14.2793L45.0457 14.1726C45.0886 14.258 45.1123 14.3525 45.1151 14.449V14.7205C45.1151 15.0259 45.5501 15.5544 46.0915 15.889Z" fill="black"/>
<path d="M29.1097 56.6127L4.54389 41.7807C4.19685 41.5868 3.87758 41.4316 3.73876 41.5092L3.91922 41.4025L46.0915 15.8889L46.5866 15.5883C46.8089 15.5186 47.0432 15.5011 47.2728 15.5372C47.5023 15.5732 47.7215 15.6619 47.9146 15.7968L72.2675 30.4979C72.9569 30.9198 72.9569 31.6034 72.2675 32.0155L31.6176 56.6127C31.2289 56.8189 30.7993 56.9264 30.3636 56.9264C29.9279 56.9264 29.4984 56.8189 29.1097 56.6127Z" fill="#6B67F1"/>
<path d="M45.0456 14.1483L44.8697 14.255L1.9016 40.2486C1.88123 40.2005 1.84934 40.1588 1.80905 40.1274C1.77203 40.1031 1.72113 40.0789 1.66561 40.0401L1.35558 39.8559L0.97616 39.6231C0.901584 39.5717 0.812664 39.548 0.723703 39.5559C0.634742 39.5639 0.550911 39.6029 0.485678 39.6668C0.467099 39.6771 0.451214 39.6921 0.439404 39.7104C0.387493 39.7663 0.343827 39.8301 0.309843 39.8995C0.262727 39.9782 0.225398 40.063 0.19878 40.1516C0.161882 40.2476 0.132479 40.3465 0.110863 40.4474C0.0877266 40.5589 0.064598 40.6704 0.0460892 40.7916C0.0332905 40.8604 0.0255613 40.9301 0.0229589 41.0001C0.0229589 41.0535 0.0229589 41.102 0.0229589 41.165C0.0229589 41.228 0.0229589 41.422 0.0229589 41.5577V40.2922C0.0681964 39.8765 0.205011 39.4774 0.422628 39.1265C0.640245 38.7756 0.932707 38.4825 1.27692 38.2703L41.9268 13.6732C42.263 13.4674 42.6399 13.3455 43.0282 13.3169C43.4166 13.2883 43.8061 13.3538 44.1664 13.5083L44.6754 13.8235L44.8929 13.9544C44.9591 14.0038 45.0118 14.0707 45.0456 14.1483Z" fill="#6B67F1"/>
<path d="M29.1097 64.5209L27.4069 63.493L4.88632 49.9168C4.86839 49.5639 4.74722 49.2253 4.53928 48.947C4.23608 48.5305 3.85705 48.1811 3.42412 47.9191C3.06053 47.6854 2.64702 47.5504 2.22106 47.5264C1.93588 47.5225 1.65753 47.618 1.4298 47.7979C1.10059 47.1134 0.94144 46.353 0.967082 45.5869H0C0 46.9833 0.439581 48.3846 0.980963 48.7094L1.46683 49.0101C1.74446 49.1749 1.96193 49.1846 1.96193 49.0101V48.7385C1.96193 48.4331 2.40152 48.4476 2.9429 48.7773C3.48428 49.107 3.92387 49.6161 3.92387 49.9216V50.1931C3.92387 50.3531 4.30329 50.7023 4.76139 50.9786L26.4444 64.07L29.1143 65.6846C29.5008 65.8916 29.9297 65.9965 30.3636 65.99V64.8215C29.9279 64.8364 29.4959 64.7328 29.1097 64.5209Z" fill="#6B67F1"/>
<path opacity="0.3" d="M29.1097 64.5209L27.4069 63.493L4.88632 49.9168C4.86839 49.5639 4.74722 49.2253 4.53928 48.947C4.23608 48.5305 3.85705 48.1811 3.42412 47.9191C3.06053 47.6854 2.64702 47.5504 2.22106 47.5264C1.93588 47.5225 1.65753 47.618 1.4298 47.7979C1.10059 47.1134 0.94144 46.353 0.967082 45.5869H0C0 46.9833 0.439581 48.3846 0.980963 48.7094L1.46683 49.0101C1.74446 49.1749 1.96193 49.1846 1.96193 49.0101V48.7385C1.96193 48.4331 2.40152 48.4476 2.9429 48.7773C3.48428 49.107 3.92387 49.6161 3.92387 49.9216V50.1931C3.92387 50.3531 4.30329 50.7023 4.76139 50.9786L26.4444 64.07L29.1143 65.6846C29.5008 65.8916 29.9297 65.9965 30.3636 65.99V64.8215C29.9279 64.8364 29.4959 64.7328 29.1097 64.5209Z" fill="black"/>
<path d="M29.1094 56.6176L27.4066 55.5945L10.7996 45.5821L4.54368 41.7953C4.08096 41.5238 3.73854 41.4268 3.71077 41.5674V41.868C3.71077 42.1977 3.24806 42.1977 2.73444 41.868C2.53332 41.7776 2.35714 41.6356 2.2221 41.4551C2.08707 41.2746 1.99751 41.0615 1.9617 40.8352V40.5104C1.96547 40.4391 1.95417 40.3677 1.92857 40.3015C1.90297 40.2353 1.86372 40.1758 1.81364 40.1273L1.67019 40.0401L1.36017 39.8558L0.980733 39.6231C0.906157 39.5717 0.817251 39.548 0.728291 39.5559C0.63933 39.5638 0.555484 39.6028 0.490252 39.6667C0.471672 39.6771 0.455787 39.6921 0.443977 39.7104C0.410705 39.7474 0.381237 39.7881 0.356059 39.8316C0.340562 39.8531 0.326642 39.8758 0.314416 39.8995C0.2673 39.9782 0.229985 40.0629 0.203368 40.1516C0.16647 40.2475 0.137066 40.3464 0.11545 40.4474C0.0923141 40.5589 0.0691855 40.6704 0.0506767 40.7916C0.037878 40.8604 0.0301347 40.9301 0.0275323 41.0001C0.0275323 41.0534 0.0275323 41.1019 0.0275323 41.165C0.0275323 41.228 0.0275323 41.4219 0.0275323 41.5577V45.5772H0.994614V41.5577C0.994614 41.451 0.994614 41.3492 0.994614 41.2474L1.01776 40.9904C1.01557 40.9825 1.01557 40.9741 1.01776 40.9662C1.10568 41.771 1.83677 42.4886 2.47532 42.8717C2.83134 43.102 3.23733 43.2338 3.65525 43.2547C3.97315 43.2586 4.28126 43.1395 4.52053 42.9202L4.60383 42.9735L4.77504 43.0753L26.4581 56.1667L29.128 57.7813C29.5083 57.9862 29.9311 58.0895 30.3588 58.0819V56.9134C29.9252 56.9265 29.4955 56.8248 29.1094 56.6176Z" fill="#6B67F1"/>
<path opacity="0.3" d="M29.1094 56.6176L27.4066 55.5945L10.7996 45.5821L4.54368 41.7953C4.08096 41.5238 3.73854 41.4268 3.71077 41.5674V41.868C3.71077 42.1977 3.24806 42.1977 2.73444 41.868C2.53332 41.7776 2.35714 41.6356 2.2221 41.4551C2.08707 41.2746 1.99751 41.0615 1.9617 40.8352V40.5104C1.96547 40.4391 1.95417 40.3677 1.92857 40.3015C1.90297 40.2353 1.86372 40.1758 1.81364 40.1273L1.67019 40.0401L1.36017 39.8558L0.980733 39.6231C0.906157 39.5717 0.817251 39.548 0.728291 39.5559C0.63933 39.5638 0.555484 39.6028 0.490252 39.6667C0.471672 39.6771 0.455787 39.6921 0.443977 39.7104C0.410705 39.7474 0.381237 39.7881 0.356059 39.8316C0.340562 39.8531 0.326642 39.8758 0.314416 39.8995C0.2673 39.9782 0.229985 40.0629 0.203368 40.1516C0.16647 40.2475 0.137066 40.3464 0.11545 40.4474C0.0923141 40.5589 0.0691855 40.6704 0.0506767 40.7916C0.037878 40.8604 0.0301347 40.9301 0.0275323 41.0001C0.0275323 41.0534 0.0275323 41.1019 0.0275323 41.165C0.0275323 41.228 0.0275323 41.4219 0.0275323 41.5577V45.5772H0.994614V41.5577C0.994614 41.451 0.994614 41.3492 0.994614 41.2474L1.01776 40.9904C1.01557 40.9825 1.01557 40.9741 1.01776 40.9662C1.10568 41.771 1.83677 42.4886 2.47532 42.8717C2.83134 43.102 3.23733 43.2338 3.65525 43.2547C3.97315 43.2586 4.28126 43.1395 4.52053 42.9202L4.60383 42.9735L4.77504 43.0753L26.4581 56.1667L29.128 57.7813C29.5083 57.9862 29.9311 58.0895 30.3588 58.0819V56.9134C29.9252 56.9265 29.4955 56.8248 29.1094 56.6176Z" fill="black"/>
<path d="M72.7811 31.2447V32.4326C72.7699 32.5927 72.7181 32.7468 72.6311 32.8789C72.544 33.011 72.4249 33.1164 72.286 33.1841L34.306 56.157L31.6407 57.7716C31.2536 57.9819 30.8228 58.0885 30.3868 58.0819V56.9134C30.8251 56.9231 31.2585 56.8146 31.6454 56.5983L33.3389 55.5703L72.286 32.0059C72.4259 31.937 72.5456 31.83 72.6327 31.6961C72.7198 31.5622 72.771 31.4063 72.7811 31.2447Z" fill="#6B67F1"/>
<path opacity="0.2" d="M72.7811 31.2447V32.4326C72.7699 32.5927 72.7181 32.7468 72.6311 32.8789C72.544 33.011 72.4249 33.1164 72.286 33.1841L34.306 56.157L31.6407 57.7716C31.2536 57.9819 30.8228 58.0885 30.3868 58.0819V56.9134C30.8251 56.9231 31.2585 56.8146 31.6454 56.5983L33.3389 55.5703L72.286 32.0059C72.4259 31.937 72.5456 31.83 72.6327 31.6961C72.7198 31.5622 72.771 31.4063 72.7811 31.2447Z" fill="black"/>
<path d="M72.7811 39.1528V40.3456C72.7691 40.5048 72.7169 40.6579 72.6299 40.7891C72.5429 40.9203 72.4243 41.0249 72.286 41.0923L34.2875 64.0797L31.6222 65.6943C31.2339 65.9008 30.8037 66.0057 30.3682 65.9998V64.8312C30.8066 64.8409 31.24 64.7324 31.6268 64.5161L33.3204 63.493L72.2675 39.9237C72.4125 39.8572 72.5371 39.75 72.6278 39.614C72.7184 39.478 72.7715 39.3184 72.7811 39.1528Z" fill="#6B67F1"/>
<path opacity="0.2" d="M72.7811 39.1528V40.3456C72.7691 40.5048 72.7169 40.6579 72.6299 40.7891C72.5429 40.9203 72.4243 41.0249 72.286 41.0923L34.2875 64.0797L31.6222 65.6943C31.2339 65.9008 30.8037 66.0057 30.3682 65.9998V64.8312C30.8066 64.8409 31.24 64.7324 31.6268 64.5161L33.3204 63.493L72.2675 39.9237C72.4125 39.8572 72.5371 39.75 72.6278 39.614C72.7184 39.478 72.7715 39.3184 72.7811 39.1528Z" fill="black"/>
<path d="M1.90176 36.1515L31.8582 53.9751L75.6639 27.6324L45.712 9.80394L1.90176 36.1515Z" fill="#6B67F1"/>
<path opacity="0.2" d="M1.90176 36.1515L31.8582 53.9751L75.6639 27.6324L45.712 9.80394L1.90176 36.1515Z" fill="white"/>
<path d="M32.159 52.7726L3.14186 35.4048C3.80818 33.4168 3.7619 31.0992 3.00304 28.4518L31.8582 45.6597C31.8582 45.6597 32.3487 47.3518 32.159 52.7726Z" fill="#F5F5F5"/>
<path d="M30.553 43.473C31.2667 43.9566 31.8613 44.6102 32.2883 45.3803C32.7153 46.1504 32.9626 47.0154 33.01 47.9046V53.0878C33.01 54.717 31.9088 55.3812 30.553 54.5667L1.90604 37.417V36.1515L30.2199 53.0006C31.0342 53.4854 31.6913 53.0927 31.6913 52.1133L31.6682 47.3131C31.6398 46.7789 31.4912 46.2593 31.2347 45.7967C30.9782 45.3341 30.6209 44.9416 30.1921 44.6512L1.91068 27.7973V26.3427L30.553 43.473Z" fill="#6B67F1"/>
<path opacity="0.4" d="M30.553 43.473C31.2667 43.9566 31.8613 44.6102 32.2883 45.3803C32.7153 46.1504 32.9626 47.0154 33.01 47.9046V53.0878C33.01 54.717 31.9088 55.3812 30.553 54.5667L1.90604 37.417V36.1515L30.2199 53.0006C31.0342 53.4854 31.6913 53.0927 31.6913 52.1133L31.6682 47.3131C31.6398 46.7789 31.4912 46.2593 31.2347 45.7967C30.9782 45.3341 30.6209 44.9416 30.1921 44.6512L1.91068 27.7973V26.3427L30.553 43.473Z" fill="white"/>
<path d="M1.90617 26.3427L45.7118 0L74.3588 17.1448C75.0731 17.629 75.6681 18.2832 76.0951 19.0543C76.5221 19.8253 76.7691 20.6912 76.8158 21.5813V26.7597C76.8485 27.0778 76.7987 27.3993 76.6716 27.6903C76.5446 27.9812 76.3451 28.2309 76.094 28.4131L32.2883 54.7606C32.5383 54.5763 32.737 54.3255 32.8638 54.0341C32.9907 53.7426 33.0412 53.421 33.0102 53.1024V47.9192C32.9627 47.0299 32.7154 46.165 32.2884 45.3948C31.8615 44.6247 31.2669 43.9712 30.5531 43.4875L1.90617 26.3427Z" fill="#6B67F1"/>
<path opacity="0.85" d="M1.90617 26.3427L45.7118 0L74.3588 17.1448C75.0731 17.629 75.6681 18.2832 76.0951 19.0543C76.5221 19.8253 76.7691 20.6912 76.8158 21.5813V26.7597C76.8485 27.0778 76.7987 27.3993 76.6716 27.6903C76.5446 27.9812 76.3451 28.2309 76.094 28.4131L32.2883 54.7606C32.5383 54.5763 32.737 54.3255 32.8638 54.0341C32.9907 53.7426 33.0412 53.421 33.0102 53.1024V47.9192C32.9627 47.0299 32.7154 46.165 32.2884 45.3948C31.8615 44.6247 31.2669 43.9712 30.5531 43.4875L1.90617 26.3427Z" fill="white"/>
<path d="M32.2932 45.4124C32.7357 46.1743 32.9842 47.0424 33.015 47.9337V53.1169C33.0461 53.4356 32.9955 53.7571 32.8687 54.0486C32.7418 54.34 32.5432 54.5908 32.2932 54.7751L76.0988 28.4276C76.3499 28.2455 76.5494 27.9958 76.6765 27.7048C76.8035 27.4138 76.8533 27.0923 76.8207 26.7742V21.5813C76.79 20.6884 76.5415 19.8187 76.0988 19.0552L32.2932 45.4124Z" fill="#6B67F1"/>
<path opacity="0.6" d="M32.2932 45.4124C32.7357 46.1743 32.9842 47.0424 33.015 47.9337V53.1169C33.0461 53.4356 32.9955 53.7571 32.8687 54.0486C32.7418 54.34 32.5432 54.5908 32.2932 54.7751L76.0988 28.4276C76.3499 28.2455 76.5494 27.9958 76.6765 27.7048C76.8035 27.4138 76.8533 27.0923 76.8207 26.7742V21.5813C76.79 20.6884 76.5415 19.8187 76.0988 19.0552L32.2932 45.4124Z" fill="white"/>
<path d="M70.3195 22.4928C71.1153 26.1196 71.1061 29.2518 70.3195 31.9089L68.2835 33.1405C69.0701 30.4834 69.0794 27.3512 68.2835 23.7244L70.3195 22.4928Z" fill="white"/>
<path d="M41.2237 40.0789C42.0196 43.7057 42.0103 46.8379 41.2237 49.4949L39.1877 50.7265C39.9743 48.0694 39.9882 44.9372 39.1877 41.3104L41.2237 40.0789Z" fill="white"/>
</svg>
