<svg width="73" height="75" viewBox="0 0 73 75" fill="none" xmlns="http://www.w3.org/2000/svg">
<path d="M66.6495 5.39287L66.6493 5.39276C65.8098 4.55245 64.6554 4.07958 63.3846 4.07958C61.9522 4.07958 60.4818 4.68571 59.3432 5.77365L59.3212 5.7946L59.2977 5.81371L53.8764 10.2141L53.6938 10.38C52.6886 11.3917 52.278 12.8204 52.5308 14.2959L52.5976 14.6854L52.3141 14.9607L39.638 27.2689L39.1447 27.7479L38.6248 27.298L36.4975 25.4572L36.1467 25.1536L36.2616 24.7042C37.7588 18.8491 37.5202 11.2385 32.6524 6.37072C29.0166 2.73484 24.385 0.75 19.6168 0.75C17.7206 0.75 15.8463 1.06667 14.0442 1.69098L66.6495 5.39287ZM66.6495 5.39287L70.2054 8.9507L70.2058 8.95106C71.165 9.9095 71.6442 11.2942 71.4881 12.768C71.3531 14.0317 70.7706 15.2684 69.8245 16.2568L69.8038 16.2783L69.785 16.3015L65.2044 21.9197C64.411 22.6985 63.3306 23.1364 62.1417 23.1364C61.8611 23.1364 61.5835 23.1132 61.3057 23.0658L60.9166 22.9994L60.6416 23.2826L49.0218 35.249L48.4684 35.8189L49.0691 36.3386L69.2102 53.7655L69.2179 53.7723L69.2259 53.7788C69.2471 53.7962 69.2683 53.8164 69.3222 53.8684C71.0264 55.5776 71.676 58.2103 71.4292 60.9292C71.1823 63.6491 70.048 66.3074 68.3824 67.973C66.4784 69.8763 63.3747 71.0942 60.2944 71.0942C57.7717 71.0942 55.6544 70.2914 54.2741 68.9153C54.2288 68.8681 54.1966 68.8343 54.1673 68.8008C54.1672 68.8007 54.1671 68.8006 54.167 68.8005L40.336 52.8194L39.5969 51.9654L39.0965 52.9779C38.6193 53.9435 37.9873 54.8452 37.1846 55.6471L37.1843 55.6474L21.6111 71.2214L21.611 71.2215C19.6577 73.1757 17.0633 74.25 14.3004 74.25C11.5374 74.25 8.94303 73.1757 6.98974 71.2215L6.98962 71.2214L4.37716 68.609C0.34613 64.5779 0.34613 58.0185 4.37714 53.9874L19.9512 38.4143L19.6694 38.1325L19.9512 38.4143C20.098 38.2676 20.2536 38.1321 20.4328 37.9763C20.4495 37.9617 20.4664 37.947 20.4836 37.9321L22.1125 36.5136L19.955 36.6173L19.9083 36.6196C19.5364 36.6375 19.1861 36.6544 18.8405 36.6544C13.7793 36.6544 9.63057 35.1041 6.77539 32.2472L6.77505 32.2468C1.31922 26.7946 -0.500484 20.1994 1.60109 14.1304C1.81891 13.5019 2.33136 13.0204 2.9727 12.8424L2.9734 12.8422C3.61368 12.6638 4.30004 12.8123 4.81058 13.2399L4.81088 13.2402L12.9163 20.0213L13.163 20.2277L13.4825 20.1913L19.1603 19.5434L19.7836 19.4723L19.8237 18.8462L20.1601 13.5945L20.1793 13.2953M66.6495 5.39287L20.1793 13.2953M20.1793 13.2953L19.9869 13.0653M20.1793 13.2953L19.9869 13.0653M19.9869 13.0653L13.1554 4.90044C13.1553 4.90034 13.1552 4.90023 13.1551 4.90012C12.7288 4.38922 12.5801 3.70289 12.7573 3.06188C12.9345 2.42121 13.4156 1.90887 14.0441 1.69101L19.9869 13.0653ZM65.5211 65.1136L65.521 65.1137C64.3228 66.3119 62.2266 67.0495 60.2925 67.0495C59.0984 67.0495 57.9159 66.7681 57.2077 66.126L57.1741 66.0955L57.1444 66.0612L27.7502 32.0982L27.7502 32.0982C27.2127 31.4771 26.3524 31.2429 25.577 31.5048L25.5763 31.505C23.4292 32.2277 21.1019 32.6088 18.8396 32.6088C15.0521 32.6088 11.7536 31.5056 9.63465 29.3857C7.84213 27.5932 5.2303 24.3373 4.83753 20.2102L4.66447 18.3918L6.06543 19.564L11.2312 23.886L11.2317 23.8864C11.6557 24.2418 12.2056 24.4072 12.7589 24.3445L65.5211 65.1136ZM65.5211 65.1136C66.641 63.9932 67.2414 62.3318 67.4134 60.8142C67.5004 60.0466 67.4822 59.2824 67.3494 58.6013C67.2188 57.9308 66.965 57.2804 66.5304 56.8048L66.5008 56.7723L66.4675 56.7435L32.4999 27.3494C31.879 26.812 31.6445 25.9525 31.9066 25.1749L31.9067 25.1746C32.7396 22.7008 33.1769 19.7096 32.9353 16.8539C32.6942 14.0044 31.7687 11.2091 29.7903 9.23021L29.7902 9.23014C27.0368 6.47674 23.5639 4.89774 19.9681 4.79957L18.3045 4.75416L19.3724 6.03056L23.798 11.3202L23.7982 11.3204C24.1309 11.7178 24.2981 12.2277 24.2651 12.7464C24.2651 12.7465 24.2651 12.7466 24.2651 12.7466L23.7098 21.4183L23.7097 21.4187C23.6477 22.3956 22.8946 23.187 21.9215 23.2984C21.9214 23.2984 21.9214 23.2984 21.9213 23.2984L12.7594 24.3444L65.5211 65.1136ZM9.84904 68.362L9.84928 68.3622C11.0377 69.5496 12.62 70.2053 14.3004 70.2053C15.9805 70.2053 17.564 69.5498 18.7517 68.362L18.2214 67.8317L18.7517 68.362L34.3249 52.7879C35.5712 51.5416 36.1777 49.8968 36.1589 48.2669L36.1557 47.9924L35.9761 47.7848L29.1025 39.8421L28.9423 39.657L28.7038 39.602C28.2452 39.4963 27.7622 39.4304 27.2611 39.4304C25.5818 39.4304 23.9983 40.086 22.8106 41.2737L23.341 41.8041L22.8106 41.2737L7.23669 56.8486C7.23665 56.8486 7.23661 56.8487 7.23656 56.8487C4.78203 59.3023 4.7824 63.2943 7.23647 65.7494L7.23658 65.7495L9.84904 68.362ZM61.7144 19.0032L62.2224 19.2001L62.5667 18.7779L66.8951 13.4702C67.2817 13.0692 67.4457 12.6241 67.471 12.308L67.4986 11.9627L67.2537 11.7178L63.8844 8.34854L63.6359 8.09999L63.2858 8.13198C62.9328 8.16424 62.5027 8.339 62.1146 8.71874L61.9288 8.88676L56.8238 13.0318L56.4129 13.3654L56.5896 13.8644C56.6279 13.9727 56.6805 14.0699 56.7173 14.1352L56.7214 14.1424L56.7257 14.1496L57.5406 15.5213L42.8006 29.8347L42.2136 30.4047L42.8324 30.94L44.8719 32.7042L45.4074 33.1674L45.9007 32.6594L60.0773 18.0579L61.4481 18.8722C61.4487 18.8725 61.4493 18.8729 61.4499 18.8732C61.5418 18.9283 61.6305 18.9706 61.7144 19.0032Z" stroke="white" stroke-width="1.5"/>
</svg>
