<svg width="27" height="57" viewBox="0 0 27 57" fill="none" xmlns="http://www.w3.org/2000/svg">
<path d="M8.09187 56.7719C8.05332 56.7792 8.01382 56.7792 7.97527 56.7719L4.63562 55.8726C4.59023 55.8592 4.54864 55.8344 4.5145 55.8003C4.48035 55.7663 4.45468 55.7239 4.43971 55.6771C4.40706 55.5891 1.50119 46.4836 7.70473 34.1377C12.1218 25.3401 19.039 19.6022 23.4421 21.1075C24.2706 21.3483 25.0241 21.8133 25.6267 22.4559C26.2293 23.0985 26.6598 23.896 26.8751 24.7683C27.2995 26.6695 26.6278 28.7467 25.084 30.3303C24.7388 30.6822 24.1977 31.1612 23.5168 31.7721C19.3189 35.5307 9.41653 44.338 8.34841 56.5031C8.34458 56.5468 8.33176 56.589 8.31083 56.627C8.28989 56.665 8.26134 56.6977 8.22714 56.723C8.18634 56.7502 8.14 56.767 8.09187 56.7719ZM4.93879 55.3056L7.79335 56.073C9.03872 43.8541 18.8991 35.0566 23.1296 31.2883C23.8013 30.6871 24.3377 30.213 24.6688 29.8709C26.0681 28.4388 26.6792 26.5718 26.3014 24.8807C26.112 24.1082 25.7295 23.4025 25.1934 22.8364C24.6572 22.2702 23.9867 21.8641 23.2509 21.6598C19.1043 20.2473 12.495 25.8387 8.20381 34.3919C2.56466 45.6479 4.59363 54.0984 4.93879 55.3252V55.3056Z" fill="#6B67F1"/>
<path d="M6.19348 56.2587H6.15617C6.11819 56.2593 6.08046 56.2522 6.04514 56.2375C6.00982 56.2229 5.97759 56.2011 5.9503 56.1734C5.92301 56.1457 5.9012 56.1127 5.8861 56.0762C5.871 56.0396 5.86292 56.0004 5.86232 55.9606C5.61511 41.7476 15.0044 28.0576 21.3198 25.2375C21.3551 25.216 21.3944 25.2027 21.435 25.1983C21.4755 25.1939 21.5166 25.1985 21.5553 25.2119C21.5941 25.2252 21.6297 25.2471 21.6598 25.2759C21.6899 25.3047 21.7139 25.3399 21.7301 25.3791C21.7464 25.4183 21.7545 25.4607 21.754 25.5035C21.7535 25.5462 21.7443 25.5884 21.7272 25.6272C21.71 25.666 21.6852 25.7005 21.6544 25.7285C21.6236 25.7565 21.5875 25.7774 21.5484 25.7898C15.3029 28.5806 6.20747 42.471 6.44069 55.9508C6.44158 56.0247 6.4171 56.0964 6.37172 56.1529C6.32634 56.2094 6.26308 56.247 6.19348 56.2587Z" fill="#6B67F1"/>
<path d="M4.75221 55.8726C4.71075 55.8823 4.66775 55.8823 4.62628 55.8726L2.36409 55.1346C2.31938 55.1209 2.27855 55.0959 2.2452 55.0618C2.21186 55.0277 2.18702 54.9856 2.17285 54.9391C2.13087 54.8022 -1.86178 41.2246 1.0814 22.9305C2.57865 13.6149 7.76069 4.52407 13.4045 1.31785C16.1191 -0.221728 18.7871 -0.412349 21.3338 0.745998C22.7751 1.40582 23.666 2.37354 24.0112 3.62475C24.944 7.08513 21.5204 12.2366 17.8869 17.6911C15.3495 21.5083 12.7235 25.4525 11.5248 28.9325C11.5149 28.9735 11.497 29.012 11.472 29.0454C11.4471 29.0787 11.4158 29.1062 11.3801 29.1261C11.3444 29.146 11.3051 29.1578 11.2647 29.1608C11.2244 29.1638 11.1839 29.1579 11.1459 29.1434C11.1079 29.129 11.0732 29.1064 11.044 29.077C11.0149 29.0477 10.9919 29.0123 10.9766 28.973C10.9613 28.9338 10.9541 28.8917 10.9553 28.8493C10.9565 28.807 10.9662 28.7654 10.9837 28.7272C12.2058 25.169 14.8551 21.1906 17.4158 17.3392C20.9654 12.0069 24.319 6.96783 23.4794 3.78116C23.1856 2.70101 22.416 1.8848 21.124 1.29829C18.7498 0.213259 16.2497 0.394095 13.6984 1.84569C8.16182 4.9835 3.1197 13.8935 1.63179 23.043C-1.12016 40.1494 2.23349 53.0818 2.65794 54.6165L4.77553 55.2861C4.84829 55.3098 4.9092 55.3626 4.945 55.433C4.98081 55.5035 4.98863 55.5859 4.96677 55.6624C4.95174 55.7141 4.92401 55.7607 4.88635 55.7976C4.84868 55.8345 4.80243 55.8604 4.75221 55.8726Z" fill="#6B67F1"/>
<path d="M4.19248 47.2217C4.15448 47.225 4.11623 47.2204 4.07992 47.2082C4.04361 47.196 4.00996 47.1764 3.98092 47.1505C3.95187 47.1246 3.92799 47.0929 3.91067 47.0573C3.89335 47.0217 3.88292 46.9829 3.87998 46.9431C2.17284 24.9491 13.8803 7.35398 17.3412 4.33348C17.3697 4.30403 17.4037 4.2811 17.4411 4.26614C17.4785 4.25118 17.5185 4.24453 17.5585 4.2466C17.5985 4.24867 17.6376 4.25941 17.6735 4.27816C17.7093 4.29691 17.741 4.32324 17.7666 4.3555C17.7922 4.38776 17.8111 4.42524 17.8222 4.46556C17.8332 4.50588 17.8362 4.54817 17.8308 4.58975C17.8255 4.63133 17.8119 4.67129 17.7911 4.7071C17.7702 4.74292 17.7425 4.77381 17.7097 4.79781C14.3 7.77432 2.78386 25.1446 4.45368 46.8942C4.4582 46.9339 4.45493 46.9741 4.44407 47.0124C4.43321 47.0507 4.41498 47.0863 4.39052 47.117C4.36606 47.1477 4.33589 47.1728 4.30183 47.1908C4.26777 47.2088 4.23056 47.2193 4.19248 47.2217Z" fill="#6B67F1"/>
</svg>
