<svg width="75" height="75" viewBox="0 0 75 75" fill="none" xmlns="http://www.w3.org/2000/svg">
<path d="M65.1772 50.9324C64.5335 50.4165 63.593 50.5201 63.077 51.1642C62.3943 52.0164 61.6557 52.8471 60.8824 53.6336C60.3038 54.2219 60.3119 55.168 60.9 55.7465C61.1909 56.0326 61.5693 56.1753 61.9475 56.1753C62.3342 56.1753 62.7205 56.0261 63.0129 55.7289C63.8568 54.8707 64.663 53.9635 65.4088 53.0327C65.9248 52.3886 65.8211 51.4485 65.1772 50.9324Z" fill="white"/>
<path d="M59.3084 57.1432C58.81 56.4856 57.8726 56.3564 57.215 56.8552C51.5653 61.1377 44.7186 63.6197 37.4156 64.0329C36.5918 64.0795 35.9618 64.7851 36.0083 65.6089C36.0533 66.4041 36.7121 67.0187 37.4987 67.0187C37.5271 67.0187 37.5557 67.018 37.5844 67.0162C45.4825 66.5693 52.8949 63.8791 59.0202 59.2364C59.6777 58.738 59.8068 57.8009 59.3084 57.1432Z" fill="white"/>
<path d="M73.9387 29.2893C73.9387 29.2892 73.9387 29.2892 73.9386 29.289C73.0865 26.0469 71.7318 22.941 69.9116 20.0571C67.3238 15.957 63.9152 12.4448 59.781 9.61777C53.2947 5.18281 45.59 2.83862 37.5 2.83862C35.2371 2.83862 32.965 3.02773 30.7466 3.40068C24.4591 4.45771 18.5238 7.01724 13.5833 10.8027C6.32124 16.3669 1.62158 24.166 0.350098 32.7635C0.117773 34.3339 0 35.9274 0 37.5C0 43.671 1.77671 49.73 5.13794 55.0221C8.38828 60.1397 13.0354 64.4299 18.5769 67.429C18.5773 67.4293 18.5777 67.4296 18.5782 67.4297C21.7223 69.1313 25.1089 70.395 28.6438 71.1863C31.5343 71.8334 34.5141 72.1613 37.5 72.1613C44.7523 72.1613 51.7893 70.2444 57.8502 66.6181C63.771 63.0756 68.4798 58.0897 71.4678 52.2001C73.8117 47.5798 75 42.634 75 37.5C75 34.7312 74.6429 31.9688 73.9387 29.2893ZM60.3738 13.7831C62.2466 15.3025 63.9234 16.9937 65.3919 18.8434L62.4385 18.1651C61.4914 17.9476 60.5181 18.1779 59.7686 18.7962C59.0188 19.4146 58.6081 20.3267 58.6419 21.2981C58.6434 21.3383 58.6233 21.3771 58.5894 21.3991L56.4199 22.816C56.3834 22.8397 56.337 22.8412 56.2992 22.8195L53.2433 21.0791C52.9714 20.9242 52.8312 20.6032 52.9027 20.2984L53.5903 17.3633C53.664 17.0489 53.9408 16.8233 54.2635 16.8144L56.8525 16.7423C58.5891 16.694 60.0346 15.4259 60.3738 13.7831ZM18.5618 60.662L18.125 63.7099C8.73633 57.8442 2.98799 47.9804 2.98799 37.5C2.98799 36.5728 3.03311 35.6375 3.12261 34.7047L5.12212 35.0278C5.62559 35.1093 6.14004 35.1506 6.65083 35.1506H7.66362C9.06753 35.1506 10.4619 35.6111 11.5897 36.4473L13.1243 37.5849C13.2555 37.6821 13.3411 37.8312 13.3585 37.9938L13.5665 39.9182C13.6 40.2295 13.3843 40.5122 13.075 40.5617C11.3303 40.8408 10.0362 42.3835 10.0648 44.1502L10.1741 50.9242C10.1865 51.6938 10.4398 52.424 10.9068 53.0357L13.3418 56.2262C14.4907 57.7317 16.0443 58.8537 17.8346 59.4711C18.3303 59.642 18.6362 60.1429 18.5618 60.662ZM28.187 68.0042C25.6595 67.3558 23.2225 66.4429 20.9181 65.2815L21.5194 61.0864C21.797 59.1509 20.6568 57.2836 18.8086 56.6463C17.5767 56.2215 16.5076 55.4492 15.717 54.4133L13.2822 51.223C13.2054 51.1225 13.1638 51.0024 13.1618 50.876L13.0525 44.1021C13.0478 43.8116 13.2606 43.5581 13.5473 43.5122C15.4288 43.2112 16.7421 41.4915 16.5374 39.597L16.3293 37.6725C16.2226 36.6837 15.703 35.7768 14.9039 35.1844L13.3693 34.0468C11.7302 32.8317 9.70386 32.1624 7.66362 32.1624H6.65083C6.29927 32.1624 5.94551 32.134 5.59893 32.0781L3.55811 31.7482C5.00669 24.4984 9.17183 17.9469 15.4005 13.1744C19.7908 9.81055 25.0381 7.49595 30.613 6.45869C31.4587 7.16226 32.1132 8.0646 32.5217 9.09702L32.6064 9.31133C32.8185 9.84731 32.9597 10.4095 33.0258 10.9823L33.1011 11.6341C33.2348 12.7936 33.0574 13.9713 32.5884 15.0399L31.776 16.8907C31.2441 18.1019 30.3715 19.1148 29.2522 19.8194L28.24 20.4567C27.2145 21.1023 26.6149 22.2554 26.6752 23.4658L26.8121 26.2002C26.8189 26.3398 26.7541 26.4326 26.6984 26.4859C26.6427 26.5391 26.5474 26.5993 26.4079 26.5865C26.2847 26.5748 26.1762 26.5027 26.1174 26.3937L24.8742 24.085C24.4438 23.2854 23.6952 22.6868 22.8204 22.4426L18.4264 21.2163C17.2717 20.894 16.0345 20.9898 14.9432 21.4858L13.8968 21.9614C11.6955 22.9621 10.4924 25.3985 11.0361 27.7544C11.2513 28.6874 11.7231 29.5386 12.4 30.2155L15.2549 33.0705C15.4159 33.2312 15.5701 33.4027 15.7138 33.58L17.671 35.9939C18.5353 37.0599 19.8166 37.6706 21.1885 37.6704C21.1932 37.6704 21.1978 37.6704 21.2024 37.6704L26.5346 37.6541C26.5362 37.6541 26.5377 37.6541 26.5395 37.6541C27.0853 37.6541 27.5949 37.9467 27.87 38.4185C28.5101 39.5161 29.59 40.2985 30.8328 40.5648L32.8307 40.9928C33.27 41.087 33.6453 41.3671 33.8603 41.7616L34.8252 43.5305C35.2121 44.2398 35.7973 44.8082 36.5175 45.1742L41.0522 47.4786C41.4252 47.6681 41.6407 48.0742 41.589 48.4893C41.5589 48.7298 41.4425 48.9507 41.2608 49.1113L39.5383 50.635C39.0527 51.0645 38.6757 51.6125 38.4479 52.2197L38.0723 53.221C37.9581 53.5262 37.7199 53.7727 37.4187 53.8975L35.584 54.6582C34.0213 55.3061 33.0113 56.8181 33.0113 58.51C33.0113 58.7001 32.9646 58.89 32.8762 59.0586L28.187 68.0042ZM37.5 69.1733C35.3925 69.1733 33.289 68.9971 31.223 68.6483L35.5226 60.4458C35.8345 59.8511 35.9994 59.1815 35.9994 58.5099C35.9994 58.0304 36.2856 57.6018 36.7285 57.4181L38.5633 56.6574C39.6259 56.2167 40.4667 55.3464 40.8703 54.2699L41.2458 53.2691C41.3027 53.1173 41.3969 52.9804 41.5182 52.873L43.2407 51.3493C43.9673 50.7065 44.4335 49.8223 44.554 48.8601C44.7618 47.1991 43.8987 45.5734 42.4062 44.8147L37.8713 42.5104C37.6915 42.419 37.5451 42.2769 37.4486 42.0997L36.4837 40.3307C35.8515 39.1713 34.7481 38.3479 33.4569 38.071L31.4591 37.643C31.0364 37.5525 30.669 37.2862 30.4512 36.9129C29.6421 35.5262 28.1442 34.6662 26.5395 34.6662C26.5348 34.6662 26.5302 34.6662 26.5255 34.6662L21.1935 34.6824C21.1919 34.6824 21.1904 34.6824 21.1887 34.6824C20.722 34.6824 20.286 34.4747 19.992 34.1122L18.0347 31.6982C17.8258 31.4406 17.6013 31.1913 17.3675 30.9576L14.5128 28.1029C14.2323 27.8226 14.0369 27.4698 13.9477 27.0831C13.7224 26.1065 14.221 25.0966 15.1333 24.6819L16.1796 24.2063C16.6321 24.0008 17.1448 23.9609 17.6235 24.0945L22.0175 25.3209C22.1137 25.3479 22.196 25.4136 22.2435 25.5017L23.4869 27.8105C24.0198 28.8002 25.0059 29.4545 26.1249 29.5612C27.0959 29.6539 28.0581 29.3201 28.7635 28.6458C29.469 27.9715 29.8455 27.0257 29.7968 26.051L29.66 23.3166C29.6534 23.1833 29.7193 23.0564 29.8323 22.9853L30.8445 22.348C32.4712 21.3238 33.7395 19.8521 34.5123 18.0919L35.3247 16.2411C36.0064 14.688 36.2641 12.9767 36.0697 11.2915L35.9944 10.6396C35.8985 9.80762 35.6934 8.99067 35.3851 8.21167L35.3002 7.99722C35.0139 7.27388 34.6431 6.59521 34.1994 5.97075H34.2013C35.2975 5.87495 36.4001 5.82676 37.5001 5.82676C44.7189 5.82676 51.5993 7.83916 57.4503 11.6542L57.4614 13.0383C57.4645 13.423 57.1541 13.7447 56.7696 13.7555L54.1808 13.8276C52.5029 13.8742 51.0639 15.0481 50.6813 16.6821L49.9937 19.6169C49.6225 21.2013 50.3508 22.8705 51.7646 23.6757L54.8205 25.4161C55.3 25.6892 55.8293 25.8251 56.3574 25.8251C56.9479 25.8251 57.537 25.6552 58.0538 25.3178L60.2232 23.9009C61.1273 23.3105 61.6655 22.2734 61.628 21.1946C61.6274 21.1791 61.626 21.1373 61.6701 21.1011C61.7146 21.0646 61.7547 21.0743 61.7697 21.0775L65.1204 21.847C65.2036 21.8662 65.2887 21.882 65.3742 21.8942L67.7429 22.2342C68.7729 23.9489 69.6248 25.7441 70.2894 27.5995L67.9751 27.04C67.8828 27.0178 67.7884 26.9986 67.6945 26.9835L65.1674 26.576C62.4233 26.1334 59.6328 27.0654 57.7053 29.07L57.325 29.4655C56.1977 30.638 55.435 32.1011 55.1191 33.6966L54.1556 38.5665C53.8195 40.2641 54.0062 42.0005 54.6951 43.5881C55.8979 46.3597 58.5097 48.2943 61.5111 48.6368L61.9793 48.6903C63.2628 48.8371 64.5844 48.684 65.8003 48.2483L67.3939 47.6775C67.6778 47.5757 67.9967 47.6649 68.1873 47.9001L68.3965 48.1584C68.4942 48.2791 68.5503 48.4309 68.555 48.5857L68.6306 51.1827C62.9084 62.1238 50.7338 69.1733 37.5 69.1733ZM70.6843 46.2352L70.5101 46.0199C69.7942 45.1355 68.7272 44.6482 67.6314 44.6482C67.2148 44.6482 66.7939 44.7187 66.3867 44.8646L64.7931 45.4353C64.0055 45.7175 63.1493 45.8166 62.3186 45.7215L61.8505 45.668C59.9067 45.4461 58.2152 44.1932 57.4364 42.3985C56.99 41.3705 56.8692 40.2459 57.0867 39.1465L58.0503 34.2767C58.2548 33.2434 58.7487 32.2959 59.479 31.5367L59.8592 31.1412C61.1074 29.8432 62.9143 29.2394 64.6917 29.5262L67.2186 29.9337C67.2365 29.9366 67.2545 29.9401 67.2725 29.9445L71.2605 30.9083C71.7595 33.0689 72.0119 35.2821 72.0119 37.4999C72.012 40.4923 71.5668 43.4151 70.6843 46.2352Z" fill="white"/>
</svg>
