<svg width="75" height="75" viewBox="0 0 75 75" fill="none" xmlns="http://www.w3.org/2000/svg">
<mask id="path-1-inside-1_1_892" fill="white">
<path d="M53.9062 51.3637L37.5 60.5922L21.0938 51.3637V41.6134L16.4062 39.0092V54.105L37.5 65.9702L58.5938 54.105V39.0092L53.9062 41.6134V51.3637Z"/>
</mask>
<path d="M53.9062 51.3637L56.3576 55.7216L58.9062 54.2879V51.3637H53.9062ZM37.5 60.5922L35.0487 64.9501L37.5 66.329L39.9513 64.9501L37.5 60.5922ZM21.0938 51.3637H16.0938V54.2879L18.6424 55.7216L21.0938 51.3637ZM21.0938 41.6134H26.0938V38.6714L23.522 37.2426L21.0938 41.6134ZM16.4062 39.0092L18.8345 34.6384L11.4062 30.5116V39.0092H16.4062ZM16.4062 54.105H11.4062V57.0293L13.9549 58.4629L16.4062 54.105ZM37.5 65.9702L35.0487 70.3281L37.5 71.707L39.9513 70.3281L37.5 65.9702ZM58.5938 54.105L61.0451 58.4629L63.5938 57.0293V54.105H58.5938ZM58.5938 39.0092H63.5938V30.5116L56.1655 34.6384L58.5938 39.0092ZM53.9062 41.6134L51.478 37.2426L48.9062 38.6714V41.6134H53.9062ZM51.4549 47.0058L35.0487 56.2343L39.9513 64.9501L56.3576 55.7216L51.4549 47.0058ZM39.9513 56.2343L23.5451 47.0058L18.6424 55.7216L35.0487 64.9501L39.9513 56.2343ZM26.0938 51.3637V41.6134H16.0938V51.3637H26.0938ZM23.522 37.2426L18.8345 34.6384L13.978 43.38L18.6655 45.9842L23.522 37.2426ZM11.4062 39.0092V54.105H21.4062V39.0092H11.4062ZM13.9549 58.4629L35.0487 70.3281L39.9513 61.6124L18.8576 49.7471L13.9549 58.4629ZM39.9513 70.3281L61.0451 58.4629L56.1424 49.7471L35.0487 61.6124L39.9513 70.3281ZM63.5938 54.105V39.0092H53.5938V54.105H63.5938ZM56.1655 34.6384L51.478 37.2426L56.3345 45.9842L61.022 43.38L56.1655 34.6384ZM48.9062 41.6134V51.3637H58.9062V41.6134H48.9062Z" fill="white" mask="url(#path-1-inside-1_1_892)"/>
<mask id="path-3-inside-2_1_892" fill="white">
<path d="M37.5 6.73492L4.6875 23.7488V27.8114L37.5 46.0401L65.625 30.4156V43.3594H70.3125V23.7488L37.5 6.73492ZM60.9375 27.6574L56.25 30.2615L37.5 40.6787L18.75 30.2615L14.0625 27.6574L10.8136 25.8525L37.5 12.0151L64.1864 25.8525L60.9375 27.6574Z"/>
</mask>
<path d="M37.5 6.73492L39.8016 2.29615L37.5 1.10274L35.1984 2.29615L37.5 6.73492ZM4.6875 23.7488L2.38592 19.31L-0.3125 20.7092V23.7488H4.6875ZM4.6875 27.8114H-0.3125V30.7534L2.25934 32.1822L4.6875 27.8114ZM37.5 46.0401L35.0718 50.4109L37.5 51.7598L39.9282 50.4109L37.5 46.0401ZM65.625 30.4156H70.625V21.9182L63.1968 26.0448L65.625 30.4156ZM65.625 43.3594H60.625V48.3594H65.625V43.3594ZM70.3125 43.3594V48.3594H75.3125V43.3594H70.3125ZM70.3125 23.7488H75.3125V20.7092L72.6141 19.31L70.3125 23.7488ZM60.9375 27.6574L63.3656 32.0283L63.3658 32.0282L60.9375 27.6574ZM56.25 30.2615L53.8219 25.8907L53.8217 25.8908L56.25 30.2615ZM37.5 40.6787L35.0717 45.0495L37.5 46.3986L39.9283 45.0495L37.5 40.6787ZM18.75 30.2615L21.1783 25.8908L21.1781 25.8907L18.75 30.2615ZM14.0625 27.6574L11.6342 32.0282L11.6344 32.0283L14.0625 27.6574ZM10.8136 25.8525L8.51204 21.4137L0.244644 25.7005L8.38536 30.2232L10.8136 25.8525ZM37.5 12.0151L39.8016 7.57633L37.5 6.38292L35.1984 7.57633L37.5 12.0151ZM64.1864 25.8525L66.6146 30.2232L74.7553 25.7005L66.488 21.4137L64.1864 25.8525ZM35.1984 2.29615L2.38592 19.31L6.98908 28.1876L39.8016 11.1737L35.1984 2.29615ZM-0.3125 23.7488V27.8114H9.6875V23.7488H-0.3125ZM2.25934 32.1822L35.0718 50.4109L39.9282 41.6692L7.11566 23.4406L2.25934 32.1822ZM39.9282 50.4109L68.0532 34.7864L63.1968 26.0448L35.0718 41.6692L39.9282 50.4109ZM60.625 30.4156V43.3594H70.625V30.4156H60.625ZM65.625 48.3594H70.3125V38.3594H65.625V48.3594ZM75.3125 43.3594V23.7488H65.3125V43.3594H75.3125ZM72.6141 19.31L39.8016 2.29615L35.1984 11.1737L68.0109 28.1876L72.6141 19.31ZM58.5094 23.2866L53.8219 25.8907L58.6781 34.6323L63.3656 32.0283L58.5094 23.2866ZM53.8217 25.8908L35.0717 36.308L39.9283 45.0495L58.6783 34.6322L53.8217 25.8908ZM39.9283 36.308L21.1783 25.8908L16.3217 34.6322L35.0717 45.0495L39.9283 36.308ZM21.1781 25.8907L16.4906 23.2866L11.6344 32.0283L16.3219 34.6323L21.1781 25.8907ZM16.4908 23.2867L13.2419 21.4817L8.38536 30.2232L11.6342 32.0282L16.4908 23.2867ZM13.1152 30.2912L39.8016 16.4539L35.1984 7.57633L8.51204 21.4137L13.1152 30.2912ZM35.1984 16.4539L61.8848 30.2912L66.488 21.4137L39.8016 7.57633L35.1984 16.4539ZM61.7581 21.4817L58.5092 23.2867L63.3658 32.0282L66.6146 30.2232L61.7581 21.4817Z" fill="white" mask="url(#path-3-inside-2_1_892)"/>
</svg>
