<svg width="69" height="69" viewBox="0 0 69 69" fill="none" xmlns="http://www.w3.org/2000/svg">
<path d="M47.0912 6.16971C47.0912 4.43124 45.682 3.0219 43.9434 3.0219H25.0566C23.3181 3.0219 21.9088 4.43124 21.9088 6.16971V21.9088H6.16971C4.43124 21.9088 3.0219 23.3181 3.0219 25.0566V43.9434C3.0219 45.682 4.43124 47.0912 6.16971 47.0912H21.9088V62.8303C21.9088 64.5688 23.3181 65.9781 25.0566 65.9781H43.9434C45.682 65.9781 47.0912 64.5688 47.0912 62.8303V47.0912H62.8303C64.5688 47.0912 65.9781 45.682 65.9781 43.9434V25.0566C65.9781 23.3181 64.5688 21.9088 62.8303 21.9088H47.0912V6.16971Z" stroke="white" stroke-width="6" stroke-linecap="round" stroke-linejoin="round"/>
</svg>
