<svg width="25" height="25" viewBox="0 0 25 25" fill="none" xmlns="http://www.w3.org/2000/svg">
<mask id="mask0_1_867" style="mask-type:luminance" maskUnits="userSpaceOnUse" x="1" y="1" width="23" height="23">
<path fill-rule="evenodd" clip-rule="evenodd" d="M1.0253 1.04198H23.0618V23.4314H1.0253V1.04198Z" fill="white"/>
</mask>
<g mask="url(#mask0_1_867)">
<path fill-rule="evenodd" clip-rule="evenodd" d="M6.26286 20.4951C6.85753 20.4951 7.41836 20.7243 8.012 20.967C11.6487 22.6753 15.9498 21.8982 18.7519 19.0524C22.4491 15.2941 22.4491 9.18052 18.7519 5.42427C16.9617 3.60552 14.581 2.60448 12.0465 2.60448C9.51097 2.60448 7.12923 3.60656 5.3401 5.42531C2.53696 8.27114 1.77415 12.6409 3.44024 16.3003C3.68016 16.9034 3.91187 17.4909 3.91187 18.1014C3.91187 18.7107 3.70579 19.3243 3.52432 19.8659C3.37462 20.3118 3.14803 20.9847 3.29363 21.1326C3.43614 21.2826 4.10258 21.0461 4.54243 20.893C5.07045 20.7097 5.66922 20.4993 6.26286 20.4951ZM12.0209 23.4316C10.4542 23.4316 8.87734 23.0951 7.40195 22.4014C6.96723 22.2243 6.56019 22.0576 6.26798 22.0576C5.93169 22.0597 5.47954 22.218 5.04277 22.3711C4.14666 22.6836 3.03115 23.0732 2.20579 22.2378C1.38351 21.4014 1.76287 20.2711 2.0684 19.3618C2.21912 18.9139 2.37394 18.4514 2.37394 18.1014C2.37394 17.8139 2.23758 17.4472 2.02842 16.9191C0.108053 12.7055 0.995953 7.62739 4.25329 4.3201C6.33258 2.20656 9.09983 1.04198 12.0455 1.04198C14.9911 1.04198 17.7594 2.20552 19.8387 4.31906C24.1367 8.68573 24.1367 15.7899 19.8387 20.1566C17.7317 22.2982 14.8948 23.4316 12.0209 23.4316Z" fill="white"/>
</g>
<path fill-rule="evenodd" clip-rule="evenodd" d="M16.0932 13.7115C15.5273 13.7115 15.0638 13.2458 15.0638 12.6698C15.0638 12.0937 15.518 11.6281 16.084 11.6281H16.0932C16.6592 11.6281 17.1185 12.0937 17.1185 12.6698C17.1185 13.2458 16.6592 13.7115 16.0932 13.7115Z" fill="white"/>
<path fill-rule="evenodd" clip-rule="evenodd" d="M11.9831 13.7115C11.4171 13.7115 10.9537 13.2458 10.9537 12.6698C10.9537 12.0937 11.4069 11.6281 11.9738 11.6281H11.9831C12.549 11.6281 13.0084 12.0937 13.0084 12.6698C13.0084 13.2458 12.549 13.7115 11.9831 13.7115Z" fill="white"/>
<path fill-rule="evenodd" clip-rule="evenodd" d="M7.87247 13.7115C7.30651 13.7115 6.84308 13.2458 6.84308 12.6698C6.84308 12.0937 7.29728 11.6281 7.86324 11.6281H7.87247C8.43843 11.6281 8.89776 12.0937 8.89776 12.6698C8.89776 13.2458 8.43843 13.7115 7.87247 13.7115Z" fill="white"/>
</svg>
