<svg width="75" height="72" viewBox="0 0 75 72" fill="none" xmlns="http://www.w3.org/2000/svg">
<path d="M68.2088 7.20168L68.2087 7.20171C64.8606 9.71374 61.4838 10.4764 57.7916 10.1243C54.2479 9.78643 50.4023 8.4145 46.0812 6.79331C37.3966 3.53566 27.7945 0.0457196 18.2563 7.2017L68.2088 7.20168ZM68.2088 7.20168C69.1159 6.52102 70.3306 6.4116 71.3444 6.91838C72.3591 7.42568 73 8.46268 73 9.59685V39.3407C73 40.283 72.5564 41.1704 71.8028 41.7359C67.6452 44.8552 63.5184 45.9267 59.5153 45.9267C54.1197 45.9267 48.9065 43.993 43.9778 42.1443C39.6567 40.5231 35.8111 39.1512 32.2674 38.8133C28.5752 38.4612 25.1984 39.2239 21.8503 41.7359L21.8502 41.736M68.2088 7.20168L21.8502 41.736M21.8502 41.736C20.9433 42.4165 19.7291 42.5264 18.7146 42.0192C17.6999 41.5119 17.059 40.4749 17.059 39.3407V9.59685C17.059 8.65457 17.5026 7.7672 18.2562 7.20175L21.8502 41.736Z" stroke="white" stroke-width="4"/>
<path d="M2 4.99427C2 3.34051 3.34051 2 4.99427 2C6.64804 2 7.98855 3.34051 7.98855 4.99427V66.1005C7.98855 67.7542 6.64804 69.0947 4.99427 69.0947C3.3405 69.0947 2 67.7542 2 66.1005V4.99427Z" stroke="white" stroke-width="4"/>
</svg>
