<svg width="62" height="70" viewBox="0 0 62 70" fill="none" xmlns="http://www.w3.org/2000/svg">
<path d="M3.58122 59.2026C3.10954 59.2032 2.64261 59.3014 2.20719 59.4914C1.77177 59.6814 1.3764 59.9596 1.04373 60.31C0.711067 60.6604 0.447645 61.0761 0.268548 61.5333C0.0894511 61.9906 -0.00179936 62.4803 2.68791e-05 62.9746C2.68791e-05 66.5429 3.58585 69.9173 3.58585 69.9173C3.58585 69.9173 7.17629 66.5235 7.18092 62.9746C7.18153 62.4791 7.08884 61.9883 6.90815 61.5303C6.72746 61.0724 6.46234 60.6564 6.12795 60.306C5.79357 59.9556 5.39649 59.6778 4.95948 59.4884C4.52247 59.2991 4.05411 59.202 3.58122 59.2026ZM3.58122 64.5357C3.23714 64.5357 2.90079 64.4288 2.6147 64.2285C2.3286 64.0282 2.10562 63.7435 1.97395 63.4104C1.84227 63.0773 1.80782 62.7107 1.87495 62.3571C1.94207 62.0035 2.10777 61.6787 2.35107 61.4237C2.59437 61.1688 2.90435 60.9952 3.24182 60.9248C3.57929 60.8545 3.92909 60.8906 4.24698 61.0286C4.56486 61.1665 4.83657 61.4002 5.02773 61.7C5.21889 61.9998 5.32092 62.3522 5.32092 62.7128C5.32337 62.9542 5.28003 63.1937 5.19341 63.4175C5.10679 63.6412 4.97862 63.8447 4.81634 64.0161C4.65406 64.1875 4.4609 64.3234 4.24808 64.4159C4.03526 64.5085 3.80701 64.5558 3.57659 64.5551L3.58122 64.5357Z" fill="#6B67F1"/>
<path d="M56.4478 0C55.7186 0 54.9966 0.150485 54.323 0.442865C53.6494 0.735245 53.0373 1.16379 52.5217 1.70404C52.0062 2.24429 51.5972 2.88565 51.3182 3.59152C51.0391 4.29739 50.8955 5.05393 50.8955 5.81796C50.8955 11.3305 56.4478 16.5472 56.4478 16.5472C56.4478 16.5472 62 11.3353 62 5.8228C62.0006 5.05837 61.8574 4.30131 61.5787 3.59488C61.2999 2.88846 60.8911 2.24651 60.3754 1.70575C59.8598 1.16499 59.2475 0.73601 58.5736 0.443328C57.8996 0.150645 57.1773 -2.65428e-07 56.4478 0ZM56.4478 8.24211C55.9157 8.24307 55.3953 8.07856 54.9525 7.7694C54.5097 7.46025 54.1645 7.02037 53.9604 6.50545C53.7564 5.99054 53.7028 5.42377 53.8064 4.8769C53.9099 4.33003 54.1661 3.82766 54.5423 3.43342C54.9185 3.03919 55.3979 2.77082 55.9198 2.66228C56.4417 2.55375 56.9826 2.60994 57.474 2.82374C57.9654 3.03754 58.3852 3.39934 58.6802 3.86331C58.9753 4.32728 59.1323 4.87256 59.1313 5.43009C59.1344 5.80141 59.0672 6.16968 58.9337 6.51365C58.8002 6.85762 58.6031 7.17048 58.3536 7.43417C58.1041 7.69787 57.8072 7.90717 57.4801 8.05C57.153 8.19283 56.8021 8.26636 56.4478 8.26635V8.24211Z" fill="#6B67F1"/>
<path d="M50.9742 14.9764C50.9263 14.9588 50.8848 14.926 50.8554 14.8825C50.8261 14.8391 50.8103 14.7872 50.8103 14.734C50.8103 14.6808 50.8261 14.6289 50.8554 14.5854C50.8848 14.542 50.9263 14.5092 50.9742 14.4916C51.386 14.4625 51.7978 14.4479 52.2049 14.4382C52.2692 14.4382 52.3309 14.4646 52.3767 14.5118C52.4226 14.5589 52.4489 14.6231 52.4502 14.6904C52.4508 14.7239 52.445 14.7572 52.4332 14.7883C52.4214 14.8195 52.4037 14.8478 52.3813 14.8718C52.3589 14.8957 52.3322 14.9147 52.3027 14.9277C52.2732 14.9406 52.2415 14.9473 52.2096 14.9473C51.807 14.9473 51.4045 14.9764 51.002 15.0006L50.9742 14.9764Z" fill="#455A64"/>
<path d="M6.90332 53.1228C6.87418 53.1275 6.84454 53.1275 6.81541 53.1228C6.75479 53.0988 6.70568 53.0507 6.6788 52.989C6.65193 52.9272 6.64947 52.8568 6.67197 52.7931C6.95421 51.9786 7.26421 51.1544 7.59735 50.3399C7.60947 50.3087 7.62743 50.2804 7.65015 50.2567C7.67287 50.2329 7.69991 50.2141 7.72966 50.2015C7.75941 50.1888 7.79128 50.1825 7.82339 50.183C7.85549 50.1834 7.88719 50.1906 7.9166 50.2041C7.97667 50.2299 8.02452 50.2796 8.04968 50.3423C8.07483 50.405 8.07522 50.4756 8.05078 50.5387C7.7269 51.3435 7.42152 52.1628 7.12541 52.9628C7.10786 53.0097 7.07733 53.0499 7.03775 53.0784C6.99817 53.107 6.95135 53.1224 6.90332 53.1228ZM8.83735 48.2745C8.80225 48.2734 8.76769 48.2651 8.73556 48.2503C8.7063 48.2357 8.68007 48.2153 8.6584 48.1901C8.63673 48.1649 8.62003 48.1354 8.60928 48.1034C8.59852 48.0714 8.59392 48.0375 8.59574 48.0036C8.59756 47.9697 8.60577 47.9366 8.61989 47.906C8.97616 47.1255 9.35556 46.3303 9.75347 45.5546C9.78471 45.4961 9.83656 45.4526 9.89794 45.4336C9.95932 45.4146 10.0254 45.4215 10.082 45.4528C10.1105 45.4681 10.1358 45.4892 10.1564 45.515C10.177 45.5407 10.1925 45.5704 10.2019 45.6025C10.2114 45.6345 10.2147 45.6683 10.2116 45.7017C10.2085 45.7351 10.199 45.7675 10.1838 45.797C9.79048 46.5679 9.41108 47.3485 9.05944 48.1291C9.04137 48.1755 9.01072 48.2154 8.97125 48.2439C8.93178 48.2723 8.88524 48.288 8.83735 48.289V48.2745ZM11.197 43.6492C11.1529 43.6477 11.1099 43.6343 11.0721 43.6104C11.0446 43.5935 11.0205 43.5709 11.0013 43.5441C10.9822 43.5173 10.9683 43.4867 10.9606 43.4542C10.9528 43.4217 10.9513 43.3879 10.9562 43.3548C10.961 43.3217 10.9721 43.2899 10.9888 43.2614C11.4099 42.5147 11.8587 41.7584 12.3167 41.0263C12.3325 40.9942 12.3545 40.966 12.3814 40.9435C12.4082 40.9209 12.4393 40.9045 12.4726 40.8954C12.5059 40.8863 12.5406 40.8846 12.5746 40.8904C12.6086 40.8963 12.641 40.9096 12.6697 40.9294C12.6984 40.9493 12.7228 40.9752 12.7414 41.0056C12.7599 41.036 12.7721 41.0701 12.7772 41.1058C12.7824 41.1415 12.7802 41.1778 12.7711 41.2126C12.7619 41.2473 12.7458 41.2797 12.7239 41.3075C12.2612 42.0347 11.8263 42.762 11.4099 43.5232C11.3898 43.5646 11.3595 43.5995 11.322 43.6242C11.2845 43.649 11.2413 43.6627 11.197 43.6638V43.6492ZM13.9315 39.2567C13.8814 39.257 13.8326 39.24 13.7927 39.2082C13.7405 39.1691 13.705 39.1102 13.6937 39.0441C13.6825 38.9779 13.6964 38.9098 13.7326 38.8543C14.1953 38.1464 14.7227 37.4385 15.2363 36.7452C15.2558 36.7184 15.2802 36.696 15.3081 36.6792C15.336 36.6625 15.3668 36.6517 15.3987 36.6477C15.4306 36.6436 15.463 36.6463 15.4939 36.6555C15.5248 36.6648 15.5536 36.6805 15.5787 36.7016C15.63 36.7429 15.6637 36.8038 15.6724 36.871C15.681 36.9382 15.664 37.0063 15.625 37.0604C15.1114 37.744 14.6117 38.4518 14.1305 39.15C14.1103 39.1866 14.0813 39.2171 14.0464 39.2384C14.0115 39.2596 13.9719 39.271 13.9315 39.2712V39.2567ZM17.0084 35.1211C16.9511 35.1211 16.8956 35.1006 16.8511 35.0629C16.8265 35.0414 16.8063 35.015 16.7915 34.9853C16.7768 34.9555 16.7679 34.923 16.7653 34.8896C16.7627 34.8562 16.7665 34.8226 16.7765 34.7907C16.7864 34.7589 16.8024 34.7294 16.8233 34.7041C17.3554 34.0399 17.9153 33.3757 18.4844 32.726C18.5302 32.6792 18.5916 32.653 18.6556 32.653C18.7195 32.653 18.7809 32.6792 18.8267 32.726C18.8495 32.7499 18.8676 32.7782 18.88 32.8094C18.8923 32.8406 18.8987 32.874 18.8987 32.9078C18.8987 32.9416 18.8923 32.975 18.88 33.0062C18.8676 33.0374 18.8495 33.0658 18.8267 33.0896C18.2669 33.7296 17.7117 34.389 17.1796 35.0289C17.16 35.0585 17.1345 35.0833 17.105 35.1017C17.0755 35.1201 17.0425 35.1317 17.0084 35.1356V35.1211ZM20.3906 31.2424C20.3589 31.243 20.3274 31.2368 20.298 31.2243C20.2685 31.2118 20.2418 31.1933 20.2194 31.1697C20.1966 31.1458 20.1785 31.1175 20.1662 31.0863C20.1539 31.0551 20.1475 31.0217 20.1475 30.9879C20.1475 30.9541 20.1539 30.9207 20.1662 30.8895C20.1785 30.8583 20.1966 30.8299 20.2194 30.8061C20.8024 30.1952 21.4085 29.5795 22.0239 28.9831C22.0473 28.9605 22.0747 28.943 22.1046 28.9315C22.1344 28.92 22.1662 28.9147 22.198 28.9161C22.2298 28.9174 22.261 28.9253 22.2899 28.9393C22.3188 28.9533 22.3447 28.9731 22.3663 28.9977C22.3879 29.0222 22.4046 29.0509 22.4156 29.0822C22.4266 29.1135 22.4316 29.1467 22.4303 29.1801C22.429 29.2134 22.4214 29.2461 22.4081 29.2764C22.3947 29.3066 22.3758 29.3338 22.3524 29.3564C21.7463 29.9479 21.1402 30.5588 20.5618 31.1697C20.5424 31.1995 20.5171 31.2245 20.4875 31.2429C20.4579 31.2613 20.4249 31.2727 20.3906 31.2764V31.2424ZM24.0551 27.6789C24.0054 27.6782 23.9572 27.6616 23.9167 27.6315C23.8762 27.6014 23.8454 27.5591 23.8283 27.5102C23.8113 27.4613 23.8088 27.4082 23.8212 27.3578C23.8336 27.3074 23.8603 27.2622 23.8978 27.228C24.5363 26.6608 25.1887 26.0984 25.8411 25.5602C25.8924 25.5265 25.9539 25.5139 26.0136 25.5248C26.0733 25.5358 26.127 25.5695 26.1644 25.6195C26.2018 25.6695 26.2201 25.7322 26.216 25.7956C26.2118 25.859 26.1854 25.9185 26.1418 25.9626C25.4941 26.4959 24.8463 27.0535 24.217 27.6207C24.1766 27.6699 24.1209 27.7025 24.0597 27.7129L24.0551 27.6789ZM27.9879 24.4354C27.9497 24.4359 27.9119 24.4264 27.8779 24.4077C27.844 24.3891 27.815 24.362 27.7936 24.3287C27.7749 24.3018 27.7615 24.2711 27.7541 24.2387C27.7468 24.2062 27.7457 24.1726 27.7508 24.1396C27.756 24.1067 27.7673 24.0752 27.7842 24.0469C27.8011 24.0186 27.8232 23.9941 27.8491 23.9748C28.5247 23.4609 29.2372 22.9567 29.9173 22.4767C29.9439 22.4538 29.9747 22.4369 30.0079 22.4273C30.0411 22.4177 30.0758 22.4155 30.1098 22.4208C30.1438 22.4262 30.1764 22.439 30.2054 22.4584C30.2344 22.4778 30.2592 22.5034 30.2781 22.5335C30.2971 22.5636 30.3097 22.5976 30.3153 22.6331C30.3209 22.6687 30.3193 22.7051 30.3106 22.74C30.3019 22.7749 30.2863 22.8075 30.2647 22.8356C30.2432 22.8638 30.2163 22.8868 30.1857 22.9033C29.4963 23.3882 28.7976 23.873 28.1314 24.3869C28.0947 24.4318 28.0437 24.4611 27.9879 24.4693V24.4354ZM32.1521 21.5264C32.1104 21.5264 32.0694 21.5153 32.033 21.4941C31.9966 21.4729 31.9659 21.4423 31.9439 21.4052C31.9271 21.3763 31.9159 21.3441 31.911 21.3107C31.9061 21.2772 31.9075 21.243 31.9153 21.2101C31.923 21.1772 31.9369 21.1462 31.9561 21.119C31.9753 21.0917 31.9995 21.0687 32.0272 21.0513C32.7444 20.6053 33.48 20.1689 34.2157 19.7568C34.2436 19.7407 34.2743 19.7305 34.306 19.7269C34.3376 19.7232 34.3697 19.7263 34.4003 19.7357C34.4308 19.7452 34.4593 19.7609 34.484 19.782C34.5087 19.8031 34.5292 19.8292 34.5442 19.8586C34.5743 19.9187 34.581 19.9886 34.5629 20.0537C34.5448 20.1188 34.5032 20.174 34.447 20.2077C33.7206 20.6149 32.9896 21.0464 32.277 21.4925C32.2509 21.5334 32.2139 21.5655 32.1706 21.5846L32.1521 21.5264ZM36.5661 19.0538C36.5118 19.0522 36.4596 19.0318 36.4175 18.9957C36.3755 18.9597 36.3461 18.91 36.3339 18.8545C36.3217 18.799 36.3275 18.7409 36.3502 18.6892C36.373 18.6375 36.4115 18.5952 36.4597 18.569C37.2231 18.1908 37.9958 17.8272 38.7731 17.4975C38.8334 17.4732 38.9003 17.4742 38.9598 17.5004C39.0193 17.5266 39.0668 17.576 39.0924 17.6381C39.1169 17.7011 39.1165 17.7717 39.0913 17.8344C39.0661 17.8971 39.0183 17.9468 38.9582 17.9726C38.2041 18.2975 37.436 18.6562 36.6818 19.0296C36.6559 19.0645 36.6227 19.0927 36.5847 19.112L36.5661 19.0538ZM41.193 17.0611C41.1419 17.0609 41.0921 17.044 41.0506 17.0127C41.0092 16.9814 40.9781 16.9373 40.9617 16.8866C40.9507 16.8551 40.9459 16.8216 40.9474 16.7882C40.9489 16.7547 40.9568 16.7219 40.9706 16.6916C40.9844 16.6614 41.0038 16.6343 41.0277 16.612C41.0516 16.5897 41.0795 16.5726 41.1097 16.5618C41.9102 16.2709 42.7152 15.9994 43.5111 15.7667C43.5432 15.7495 43.5786 15.74 43.6147 15.7388C43.6508 15.7376 43.6867 15.7448 43.7198 15.7599C43.7529 15.7749 43.7825 15.7974 43.8063 15.8258C43.8302 15.8542 43.8478 15.8877 43.8578 15.9241C43.8679 15.9604 43.8702 15.9986 43.8645 16.036C43.8588 16.0733 43.8454 16.1089 43.8251 16.1402C43.8047 16.1715 43.7781 16.1977 43.747 16.2169C43.7159 16.2361 43.6812 16.2479 43.6452 16.2515C42.8587 16.4842 42.0629 16.7363 41.2717 17.0369C41.2596 17.0698 41.2387 17.0985 41.2115 17.1193L41.193 17.0611ZM46.0049 15.6357C45.9492 15.6357 45.8952 15.6154 45.8521 15.5782C45.8091 15.5411 45.7797 15.4895 45.769 15.4321C45.7552 15.3659 45.7668 15.2967 45.8015 15.2395C45.8362 15.1823 45.891 15.1417 45.9541 15.1267C46.7869 14.9424 47.6197 14.7873 48.434 14.6418C48.466 14.6364 48.4987 14.6377 48.5302 14.6458C48.5617 14.6539 48.5913 14.6686 48.6172 14.689C48.6431 14.7093 48.6649 14.735 48.6811 14.7644C48.6973 14.7938 48.7077 14.8263 48.7117 14.86C48.7162 14.8934 48.7145 14.9275 48.7065 14.9602C48.6985 14.9929 48.6844 15.0237 48.6651 15.0507C48.6458 15.0777 48.6215 15.1005 48.5938 15.1177C48.5661 15.1349 48.5354 15.1462 48.5034 15.1509C47.703 15.2673 46.8794 15.4224 46.0558 15.6067L46.0049 15.6357Z" fill="#455A64"/>
<path d="M5.75588 56.8511H5.6911C5.6286 56.833 5.57549 56.7897 5.54341 56.7306C5.51132 56.6715 5.50287 56.6016 5.5199 56.536C5.63095 56.1255 5.74662 55.7134 5.86692 55.2997C5.89272 55.2448 5.93637 55.2013 5.99 55.1772C6.04364 55.153 6.10374 55.1497 6.15951 55.1678C6.21528 55.1859 6.26305 55.2243 6.29423 55.276C6.32541 55.3277 6.33796 55.3894 6.3296 55.45C6.20931 55.8572 6.09364 56.2645 5.98722 56.6717C5.97102 56.723 5.94009 56.7677 5.89867 56.7998C5.85726 56.832 5.80738 56.8499 5.75588 56.8511Z" fill="#455A64"/>
</svg>
