<svg width="150" height="150" viewBox="0 0 150 150" fill="none" xmlns="http://www.w3.org/2000/svg">
<path d="M35.3834 9.36366L23.5331 0.360962C22.7724 -0.216874 21.6731 -0.0870342 21.0775 0.650968L1.41123 25.0219C0.815695 25.7599 0.949513 26.8266 1.71012 27.4044L13.5604 36.4071C14.321 36.9849 15.4204 36.8551 16.0159 36.1171L35.6823 11.7462C36.2778 11.0082 36.144 9.94149 35.3834 9.36366Z" fill="#F5F5F5"/>
<path d="M13.9638 33.1408C13.9437 33.1603 12.02 31.7303 9.66652 29.9419C7.31308 28.1536 5.41959 26.6844 5.43637 26.6616C5.45316 26.6388 7.37687 28.0721 9.73366 29.8605C12.0905 31.6488 13.9806 33.1179 13.9638 33.1408Z" fill="#E0E0E0"/>
<path d="M31.7875 10.0974C31.7674 10.1202 29.8437 8.68693 27.4902 6.89858C25.1368 5.11023 23.2399 3.64111 23.2601 3.61831C23.2802 3.59551 25.2006 5.02879 27.5574 6.81714C29.9142 8.60549 31.8043 10.0746 31.7875 10.0974Z" fill="#E0E0E0"/>
<path d="M9.45837 29.6488C9.43487 29.6292 13.5072 24.5476 18.5498 18.2997C23.5924 12.0519 27.7017 6.99633 27.7252 7.01261C27.7487 7.0289 23.6797 12.1106 18.6337 18.3616C13.5878 24.6127 9.48187 29.665 9.45837 29.6488Z" fill="#E0E0E0"/>
<path d="M20.7085 8.56961L21.7795 7.17542L23.1224 8.15266C23.2167 8.22075 23.2962 8.30624 23.3564 8.40423C23.4166 8.50221 23.4563 8.61076 23.4731 8.72365C23.4899 8.83653 23.4836 8.95154 23.4546 9.06206C23.4255 9.17258 23.3742 9.27644 23.3037 9.36769C23.1619 9.55229 22.9505 9.6748 22.7157 9.70839C22.481 9.74197 22.2421 9.68388 22.0514 9.54685L20.7085 8.56961Z" fill="#EBEBEB"/>
<path d="M22.0212 7.35131L20.9503 8.74225L19.6074 7.76501C19.4143 7.62928 19.2846 7.42474 19.2468 7.1963C19.2091 6.96787 19.2663 6.73423 19.4059 6.54671C19.4761 6.45521 19.5642 6.37804 19.6652 6.31965C19.7662 6.26126 19.8781 6.22279 19.9944 6.20645C20.1108 6.19011 20.2293 6.19621 20.3432 6.22442C20.4571 6.25262 20.5641 6.30237 20.6582 6.37081L22.0212 7.35131Z" fill="#E0E0E0"/>
<path d="M27.6446 13.7099L28.7156 12.3157L30.0585 13.2929C30.249 13.4311 30.3753 13.6368 30.4099 13.8651C30.4445 14.0934 30.3845 14.3257 30.2431 14.5112C30.1002 14.6955 29.888 14.8175 29.6527 14.8504C29.4175 14.8834 29.1783 14.8247 28.9875 14.6871L27.6446 13.7099Z" fill="#EBEBEB"/>
<path d="M28.9573 12.4883L27.8864 13.8825L26.5435 12.9053C26.4492 12.8372 26.3696 12.7517 26.3095 12.6537C26.2493 12.5558 26.2096 12.4472 26.1928 12.3343C26.1759 12.2214 26.1822 12.1064 26.2113 11.9959C26.2404 11.8854 26.2916 11.7815 26.3622 11.6903C26.4324 11.5988 26.5205 11.5216 26.6215 11.4632C26.7224 11.4048 26.8343 11.3663 26.9507 11.35C27.067 11.3337 27.1855 11.3398 27.2994 11.368C27.4133 11.3962 27.5204 11.4459 27.6144 11.5144L28.9573 12.4883Z" fill="#E0E0E0"/>
<path d="M17.7038 12.4135L18.7748 11.0193L20.1177 11.9965C20.3081 12.1347 20.4345 12.3404 20.4691 12.5687C20.5037 12.797 20.4437 13.0293 20.3023 13.2148C20.1594 13.3991 19.9472 13.5211 19.7119 13.554C19.4766 13.587 19.2375 13.5283 19.0467 13.3907L17.7038 12.4135Z" fill="#EBEBEB"/>
<path d="M19.0131 11.1918L17.9455 12.586L16.6026 11.6088C16.5083 11.5407 16.4288 11.4552 16.3686 11.3572C16.3084 11.2592 16.2688 11.1507 16.2519 11.0378C16.2351 10.9249 16.2414 10.8099 16.2704 10.6994C16.2995 10.5889 16.3508 10.485 16.4213 10.3938C16.4915 10.3023 16.5796 10.2251 16.6806 10.1667C16.7816 10.1083 16.8935 10.0698 17.0098 10.0535C17.1261 10.0372 17.2447 10.0433 17.3586 10.0715C17.4725 10.0997 17.5795 10.1494 17.6736 10.2179L19.0131 11.1918Z" fill="#E0E0E0"/>
<path d="M24.7977 17.6645L25.8687 16.2736L27.2116 17.2508C27.4018 17.3884 27.5281 17.5935 27.5627 17.8213C27.5973 18.0491 27.5374 18.2808 27.3962 18.4658C27.326 18.5577 27.2378 18.6352 27.1366 18.694C27.0354 18.7527 26.9233 18.7915 26.8067 18.8081C26.6901 18.8248 26.5712 18.8189 26.4569 18.7909C26.3426 18.7629 26.2351 18.7134 26.1406 18.645L24.7977 17.6645Z" fill="#EBEBEB"/>
<path d="M26.1204 16.4462L25.0528 17.8404L23.7099 16.8631C23.6156 16.795 23.5361 16.7095 23.4759 16.6116C23.4157 16.5136 23.3761 16.405 23.3592 16.2921C23.3424 16.1793 23.3487 16.0643 23.3778 15.9537C23.4068 15.8432 23.4581 15.7393 23.5286 15.6481C23.6704 15.4635 23.8819 15.341 24.1166 15.3074C24.3513 15.2738 24.5902 15.3319 24.7809 15.4689L26.1204 16.4462Z" fill="#E0E0E0"/>
<path d="M14.7058 16.2541L15.7767 14.8599L17.1196 15.8371C17.214 15.9052 17.2935 15.9907 17.3537 16.0887C17.4138 16.1867 17.4535 16.2952 17.4703 16.4081C17.4872 16.521 17.4809 16.636 17.4518 16.7465C17.4227 16.857 17.3715 16.9609 17.3009 17.0521C17.1591 17.2367 16.9477 17.3592 16.713 17.3928C16.4782 17.4264 16.2394 17.3683 16.0487 17.2313L14.7058 16.2541Z" fill="#EBEBEB"/>
<path d="M16.0084 15.0423L14.9374 16.4365L13.5945 15.4592C13.4999 15.3914 13.4201 15.3061 13.3596 15.2082C13.2991 15.1103 13.2592 15.0018 13.242 14.8889C13.2248 14.776 13.2308 14.6609 13.2597 14.5503C13.2885 14.4397 13.3395 14.3356 13.4099 14.2442C13.5515 14.0624 13.7609 13.9418 13.9932 13.9083C14.2255 13.8748 14.4621 13.931 14.652 14.065L16.0084 15.0423Z" fill="#E0E0E0"/>
<path d="M21.9507 21.6223L23.0183 20.2281L24.3612 21.2054C24.4555 21.2735 24.5351 21.359 24.5953 21.457C24.6554 21.5549 24.6951 21.6635 24.7119 21.7764C24.7288 21.8893 24.7225 22.0043 24.6934 22.1148C24.6643 22.2253 24.6131 22.3292 24.5425 22.4204C24.4007 22.605 24.1893 22.7275 23.9546 22.7611C23.7198 22.7947 23.4809 22.7366 23.2903 22.5996L21.9507 21.6223Z" fill="#EBEBEB"/>
<path d="M23.2601 20.404L22.1891 21.7982L20.8462 20.821C20.7508 20.7536 20.67 20.6685 20.6085 20.5707C20.547 20.4729 20.506 20.3643 20.4879 20.2511C20.4699 20.1379 20.475 20.0223 20.503 19.9111C20.5311 19.7998 20.5816 19.695 20.6515 19.6027C20.7939 19.4179 21.0059 19.2953 21.2412 19.2617C21.4765 19.2282 21.7159 19.2863 21.9071 19.4235L23.2601 20.404Z" fill="#E0E0E0"/>
<path d="M11.2881 20.2021L12.3557 18.8079L13.6986 19.7851C13.7929 19.8532 13.8724 19.9387 13.9326 20.0367C13.9928 20.1347 14.0324 20.2432 14.0493 20.3561C14.0661 20.469 14.0598 20.584 14.0308 20.6945C14.0017 20.805 13.9504 20.9089 13.8799 21.0001C13.8097 21.0916 13.7216 21.1688 13.6206 21.2272C13.5196 21.2856 13.4077 21.3241 13.2914 21.3404C13.1751 21.3567 13.0565 21.3506 12.9426 21.3224C12.8287 21.2942 12.7217 21.2445 12.6276 21.176L11.2881 20.2021Z" fill="#EBEBEB"/>
<path d="M12.5974 18.9804L11.5264 20.3746L10.1835 19.3974C9.99412 19.2583 9.8691 19.0521 9.83576 18.8238C9.80243 18.5956 9.86348 18.3638 10.0056 18.1791C10.1485 17.9948 10.3608 17.8729 10.596 17.8399C10.8313 17.8069 11.0704 17.8656 11.2612 18.0032L12.5974 18.9804Z" fill="#E0E0E0"/>
<path d="M18.6002 25.4889L19.6711 24.0947L21.014 25.072C21.1086 25.1398 21.1884 25.2251 21.2489 25.323C21.3094 25.4209 21.3494 25.5294 21.3665 25.6423C21.3837 25.7552 21.3777 25.8702 21.3489 25.9809C21.3201 26.0915 21.269 26.1956 21.1987 26.287C21.1285 26.3785 21.0404 26.4557 20.9394 26.5141C20.8384 26.5725 20.7266 26.6109 20.6102 26.6273C20.4939 26.6436 20.3753 26.6375 20.2614 26.6093C20.1475 26.5811 20.0405 26.5313 19.9464 26.4629L18.6002 25.4889Z" fill="#EBEBEB"/>
<path d="M19.9129 24.2706L18.8419 25.6616L17.499 24.6843C17.3091 24.5457 17.1834 24.3397 17.1494 24.1115C17.1154 23.8832 17.1759 23.6512 17.3177 23.466C17.3879 23.3745 17.476 23.2974 17.577 23.239C17.678 23.1806 17.7898 23.1421 17.9062 23.1258C18.0225 23.1094 18.1411 23.1155 18.255 23.1437C18.3689 23.1719 18.4759 23.2217 18.57 23.2901L19.9129 24.2706Z" fill="#E0E0E0"/>
<path d="M8.27328 24.6485L9.33418 23.2543L10.6771 24.2315C10.867 24.3702 10.9927 24.5761 11.0267 24.8044C11.0606 25.0326 11.0001 25.2647 10.8584 25.4498C10.7882 25.5413 10.7001 25.6185 10.5991 25.6769C10.4981 25.7353 10.3862 25.7737 10.2699 25.7901C10.1535 25.8064 10.035 25.8003 9.92111 25.7721C9.80721 25.7439 9.70016 25.6941 9.60612 25.6257L8.27328 24.6485Z" fill="#EBEBEB"/>
<path d="M9.58595 23.4269L8.51499 24.8146L7.17208 23.8373C6.98228 23.7003 6.856 23.496 6.82078 23.269C6.78556 23.042 6.84426 22.8107 6.98408 22.6256C7.05426 22.5341 7.14237 22.4569 7.24336 22.3985C7.34434 22.3401 7.45621 22.3017 7.57256 22.2853C7.6889 22.269 7.80743 22.2751 7.92133 22.3033C8.03524 22.3315 8.14229 22.3812 8.23633 22.4497L9.58595 23.4269Z" fill="#E0E0E0"/>
<path d="M15.2329 29.678L16.3038 28.2838L17.6467 29.2611C17.7413 29.3289 17.8211 29.4142 17.8816 29.5121C17.9421 29.6099 17.9821 29.7184 17.9992 29.8313C18.0164 29.9442 18.0104 30.0593 17.9816 30.17C17.9528 30.2806 17.9017 30.3846 17.8314 30.4761C17.7612 30.5676 17.6731 30.6448 17.5721 30.7032C17.4711 30.7615 17.3592 30.8 17.2429 30.8164C17.1266 30.8327 17.008 30.8266 16.8941 30.7984C16.7802 30.7702 16.6732 30.7204 16.5791 30.652L15.2329 29.678Z" fill="#EBEBEB"/>
<path d="M16.5456 28.4565L15.4746 29.8506L14.1317 28.8734C13.9417 28.7348 13.8161 28.5288 13.7821 28.3005C13.7481 28.0723 13.8086 27.8402 13.9504 27.6551C14.0206 27.5636 14.1087 27.4864 14.2097 27.4281C14.3107 27.3697 14.4225 27.3312 14.5389 27.3148C14.6552 27.2985 14.7738 27.3046 14.8877 27.3328C15.0016 27.361 15.1086 27.4108 15.2027 27.4792L16.5456 28.4565Z" fill="#E0E0E0"/>
<path d="M148.815 91.0911L127.248 98.2217C127.03 98.2934 126.8 98.3228 126.571 98.3082C126.342 98.2937 126.117 98.2354 125.911 98.1368C125.705 98.0382 125.521 97.9011 125.37 97.7335C125.218 97.5658 125.102 97.3709 125.029 97.1597L109.985 54.311C109.91 54.0999 109.879 53.8766 109.894 53.6539C109.908 53.4312 109.968 53.2135 110.069 53.0132C110.171 52.8129 110.312 52.634 110.484 52.4866C110.657 52.3393 110.858 52.2264 111.076 52.1545L132.643 45.0272C133.082 44.8822 133.562 44.9123 133.978 45.1108C134.394 45.3093 134.712 45.66 134.862 46.0859L149.906 88.9379C149.98 89.1487 150.011 89.3718 149.996 89.5943C149.982 89.8167 149.922 90.0342 149.821 90.2342C149.72 90.4342 149.578 90.6129 149.406 90.7599C149.233 90.907 149.032 91.0195 148.815 91.0911Z" fill="#EBEBEB"/>
<path d="M120.936 58.0864C121.059 58.4358 121.073 58.8128 120.975 59.1696C120.877 59.5265 120.673 59.8472 120.387 60.0912C120.101 60.3352 119.748 60.4915 119.37 60.5404C118.993 60.5892 118.609 60.5284 118.268 60.3657C117.926 60.2029 117.642 59.9455 117.451 59.626C117.261 59.3065 117.172 58.9393 117.196 58.5708C117.22 58.2023 117.357 57.8491 117.588 57.5559C117.819 57.2627 118.135 57.0426 118.495 56.9235C118.978 56.7639 119.506 56.7968 119.964 57.0148C120.421 57.2329 120.771 57.6183 120.936 58.0864Z" fill="#FAFAFA"/>
<path d="M131.511 54.5912C131.634 54.94 131.647 55.3162 131.549 55.6723C131.451 56.0283 131.247 56.3482 130.961 56.5914C130.676 56.8347 130.323 56.9904 129.946 57.0389C129.57 57.0875 129.187 57.0266 128.846 56.8639C128.505 56.7013 128.222 56.4443 128.032 56.1254C127.841 55.8065 127.753 55.44 127.777 55.0722C127.802 54.7045 127.938 54.352 128.169 54.0594C128.399 53.7668 128.715 53.5471 129.074 53.4283C129.313 53.3493 129.565 53.3167 129.817 53.3325C130.069 53.3482 130.315 53.4118 130.541 53.5198C130.767 53.6278 130.97 53.778 131.136 53.9618C131.303 54.1457 131.43 54.3595 131.511 54.5912Z" fill="#FAFAFA"/>
<path d="M124.283 67.6276C124.406 67.9764 124.419 68.3526 124.321 68.7087C124.223 69.0647 124.018 69.3846 123.733 69.6278C123.448 69.8711 123.095 70.0268 122.718 70.0753C122.342 70.1239 121.959 70.0629 121.618 69.9003C121.277 69.7377 120.994 69.4807 120.803 69.1618C120.613 68.8429 120.525 68.4764 120.549 68.1086C120.573 67.7409 120.71 67.3884 120.94 67.0958C121.171 66.8032 121.486 66.5835 121.846 66.4647C122.085 66.3853 122.337 66.3524 122.589 66.3679C122.841 66.3834 123.087 66.447 123.313 66.555C123.54 66.6631 123.742 66.8134 123.909 66.9975C124.075 67.1815 124.202 67.3957 124.283 67.6276Z" fill="#FAFAFA"/>
<path d="M134.862 64.1323C134.984 64.4811 134.997 64.8573 134.9 65.2134C134.802 65.5694 134.597 65.8893 134.312 66.1326C134.027 66.3758 133.673 66.5316 133.297 66.5801C132.92 66.6286 132.538 66.5677 132.197 66.4051C131.856 66.2425 131.572 65.9855 131.382 65.6665C131.192 65.3476 131.103 64.9811 131.128 64.6134C131.152 64.2456 131.288 63.8932 131.519 63.6005C131.75 63.3079 132.065 63.0883 132.425 62.9694C132.663 62.8904 132.916 62.8579 133.167 62.8736C133.419 62.8893 133.665 62.953 133.892 63.061C134.118 63.169 134.32 63.3192 134.487 63.503C134.653 63.6868 134.781 63.9006 134.862 64.1323Z" fill="#FAFAFA"/>
<path d="M127.634 77.1719C127.756 77.5207 127.769 77.8969 127.671 78.2529C127.573 78.609 127.369 78.9289 127.084 79.1721C126.798 79.4154 126.445 79.5711 126.069 79.6196C125.692 79.6681 125.309 79.6072 124.969 79.4446C124.628 79.282 124.344 79.025 124.154 78.7061C123.964 78.3872 123.875 78.0207 123.9 77.6529C123.924 77.2852 124.06 76.9327 124.291 76.6401C124.522 76.3475 124.837 76.1278 125.196 76.0089C125.435 75.93 125.688 75.8974 125.939 75.9131C126.191 75.9289 126.437 75.9925 126.663 76.1005C126.89 76.2085 127.092 76.3587 127.258 76.5425C127.425 76.7264 127.552 76.9402 127.634 77.1719Z" fill="#FAFAFA"/>
<path d="M138.212 73.6766C138.335 74.0254 138.348 74.4017 138.25 74.7577C138.152 75.1137 137.948 75.4336 137.662 75.6769C137.377 75.9202 137.024 76.0759 136.647 76.1244C136.271 76.1729 135.888 76.112 135.547 75.9494C135.206 75.7868 134.923 75.5298 134.733 75.2108C134.542 74.8919 134.454 74.5254 134.478 74.1577C134.503 73.7899 134.639 73.4375 134.87 73.1449C135.101 72.8522 135.416 72.6326 135.775 72.5137C136.014 72.4347 136.266 72.4022 136.518 72.4179C136.77 72.4336 137.016 72.4973 137.242 72.6053C137.468 72.7133 137.671 72.8635 137.837 73.0473C138.004 73.2311 138.131 73.445 138.212 73.6766Z" fill="#FAFAFA"/>
<path d="M130.984 86.7065C131.107 87.0553 131.12 87.4316 131.022 87.7876C130.924 88.1437 130.719 88.4635 130.434 88.7068C130.149 88.9501 129.796 89.1058 129.419 89.1543C129.043 89.2028 128.66 89.1419 128.319 88.9793C127.978 88.8167 127.695 88.5597 127.505 88.2408C127.314 87.9218 127.226 87.5553 127.25 87.1876C127.274 86.8199 127.411 86.4674 127.642 86.1748C127.872 85.8821 128.187 85.6625 128.547 85.5436C128.786 85.4647 129.038 85.4321 129.29 85.4478C129.541 85.4635 129.788 85.5272 130.014 85.6352C130.24 85.7432 130.442 85.8934 130.609 86.0772C130.775 86.261 130.903 86.4749 130.984 86.7065Z" fill="#FAFAFA"/>
<path d="M141.563 83.2178C141.685 83.5666 141.699 83.9428 141.601 84.2988C141.503 84.6549 141.298 84.9748 141.013 85.218C140.728 85.4613 140.374 85.617 139.998 85.6655C139.621 85.714 139.239 85.6531 138.898 85.4905C138.557 85.3279 138.273 85.0709 138.083 84.752C137.893 84.4331 137.804 84.0666 137.829 83.6988C137.853 83.3311 137.989 82.9786 138.22 82.686C138.451 82.3934 138.766 82.1737 139.126 82.0548C139.364 81.9759 139.617 81.9433 139.868 81.959C140.12 81.9748 140.366 82.0384 140.593 82.1464C140.819 82.2544 141.021 82.4046 141.188 82.5884C141.354 82.7723 141.482 82.9861 141.563 83.2178Z" fill="#FAFAFA"/>
<path d="M119.905 57.0864C119.701 57.6377 119.449 58.1716 119.153 58.6826C118.904 59.2169 118.608 59.7292 118.267 60.2136C118.472 59.6623 118.723 59.1284 119.019 58.6174C119.267 58.0828 119.564 57.5705 119.905 57.0864Z" fill="#E0E0E0"/>
<path d="M130.262 53.5781C130.059 54.1305 129.809 54.6655 129.514 55.1775C129.262 55.7107 128.966 56.2227 128.628 56.7086C128.832 56.1564 129.082 55.6215 129.376 55.1091C129.629 54.5765 129.925 54.0645 130.262 53.5781Z" fill="#E0E0E0"/>
<path d="M123.353 66.6274C123.177 67.2034 122.952 67.7645 122.682 68.305C122.461 68.8691 122.192 69.414 121.876 69.9338C122.054 69.3582 122.278 68.7972 122.547 68.2562C122.769 67.6925 123.038 67.1477 123.353 66.6274Z" fill="#E0E0E0"/>
<path d="M133.801 63.1094C133.66 63.6674 133.469 64.2124 133.23 64.7381C133.038 65.2834 132.799 65.8119 132.515 66.318C132.657 65.7601 132.848 65.2151 133.086 64.6892C133.279 64.1446 133.519 63.6162 133.801 63.1094Z" fill="#E0E0E0"/>
<path d="M126.388 76.1295C126.035 77.1721 125.586 78.1817 125.045 79.1459C125.398 78.1033 125.848 77.0937 126.388 76.1295Z" fill="#E0E0E0"/>
<path d="M137.222 72.7938C136.779 73.8219 136.242 74.8095 135.617 75.7451C135.815 75.2217 136.061 74.7169 136.353 74.2369C136.6 73.7328 136.89 73.25 137.222 72.7938Z" fill="#E0E0E0"/>
<path d="M130.024 85.8075C129.805 86.3505 129.539 86.8747 129.228 87.3743C128.963 87.8975 128.652 88.3977 128.298 88.8695C128.783 87.8032 129.36 86.7788 130.024 85.8075Z" fill="#E0E0E0"/>
<path d="M140.579 82.0027C140.404 82.6148 140.179 83.2128 139.908 83.791C139.685 84.3875 139.413 84.9659 139.095 85.5207C139.271 84.9086 139.495 84.3106 139.767 83.7324C139.989 83.1356 140.261 82.5572 140.579 82.0027Z" fill="#E0E0E0"/>
<path d="M144.437 88.3353C144.437 88.3744 141.21 89.4787 137.202 90.8045C133.193 92.1302 129.927 93.1726 129.913 93.1336C129.9 93.0945 133.14 91.9902 137.152 90.6644C141.163 89.3386 144.423 88.2897 144.437 88.3353Z" fill="#E0E0E0"/>
<path d="M130.061 49.9655C130.061 50.0014 126.835 51.1089 122.823 52.4347C118.811 53.7605 115.551 54.8029 115.538 54.7638C115.524 54.7247 118.764 53.6204 122.776 52.2946C126.788 50.9688 130.048 49.9265 130.061 49.9655Z" fill="#E0E0E0"/>
<path d="M123.007 54.2784C122.989 54.2832 122.969 54.2832 122.95 54.2784H122.93L123.078 54.2328C123.078 54.2556 123.078 54.2882 123.024 54.3012C122.971 54.3142 122.944 54.3012 122.934 54.2784L123.081 54.2328C123.081 54.2328 123.081 54.2491 123.081 54.2523C123.072 54.2618 123.06 54.269 123.047 54.2735C123.035 54.278 123.021 54.2797 123.007 54.2784Z" fill="#E0E0E0"/>
<path d="M136.682 90.8076C136.641 90.8076 133.579 82.2014 129.839 71.556C126.1 60.9106 123.105 52.2652 123.145 52.2522C123.185 52.2392 126.247 60.8584 129.984 71.5071C133.72 82.1558 136.722 90.7946 136.682 90.8076Z" fill="#E0E0E0"/>
<path d="M56.7619 146.995L57.9135 130.217L91.71 132.401C92.2679 132.437 92.7882 132.687 93.1565 133.095C93.5247 133.503 93.7107 134.037 93.6736 134.578L92.8022 147.274C92.765 147.815 92.5078 148.32 92.087 148.677C91.6662 149.034 91.1163 149.215 90.5584 149.179L56.7619 146.995Z" fill="#F5F5F5"/>
<path d="M67.336 137.086L66.6124 147.63L82.1489 148.634L82.8726 138.09L67.336 137.086Z" fill="#E0E0E0"/>
<path d="M54.7673 129.244L53.477 148.044C53.4511 148.42 53.7451 148.746 54.1336 148.772L58.7296 149.069C59.1181 149.094 59.454 148.808 59.4799 148.431L60.7702 129.632C60.7961 129.255 60.5021 128.929 60.1136 128.904L55.5176 128.607C55.1291 128.582 54.7932 128.867 54.7673 129.244Z" fill="#EBEBEB"/>
<path d="M59.5453 147.51C58.5369 147.536 57.5278 147.501 56.5238 147.406C55.5205 147.371 54.5205 147.276 53.5291 147.123C54.5375 147.097 55.5466 147.132 56.5506 147.227C57.5538 147.262 58.5539 147.357 59.5453 147.51Z" fill="#E0E0E0"/>
<path d="M59.656 145.882C58.6532 145.909 57.6496 145.874 56.6513 145.777C55.6481 145.742 54.648 145.647 53.6566 145.494C54.6595 145.471 55.6628 145.506 56.6614 145.598C57.6646 145.634 58.6647 145.728 59.656 145.882Z" fill="#E0E0E0"/>
<path d="M59.7702 144.256C58.7618 144.282 57.7527 144.247 56.7487 144.152C55.7455 144.116 54.7454 144.022 53.754 143.869C54.7624 143.843 55.7715 143.878 56.7755 143.973C57.7788 144.008 58.7788 144.103 59.7702 144.256Z" fill="#E0E0E0"/>
<path d="M59.881 142.628C58.8726 142.653 57.8635 142.618 56.8595 142.523C55.8563 142.488 54.8562 142.393 53.8648 142.24C54.8732 142.216 55.8822 142.251 56.8863 142.344C57.8896 142.38 58.8896 142.474 59.881 142.628Z" fill="#E0E0E0"/>
<path d="M59.9918 141.002C58.989 141.027 57.9855 140.992 56.987 140.898C55.9827 140.862 54.9815 140.768 53.989 140.614C54.9974 140.589 56.0065 140.624 57.0105 140.719C58.0093 140.755 59.0048 140.849 59.9918 141.002Z" fill="#E0E0E0"/>
<path d="M60.1059 139.373C59.0975 139.399 58.0884 139.364 57.0844 139.269C56.0812 139.234 55.0811 139.139 54.0897 138.986C55.0981 138.962 56.1071 138.997 57.1113 139.09C58.1145 139.126 59.1145 139.22 60.1059 139.373Z" fill="#E0E0E0"/>
<path d="M60.2167 137.748C59.2083 137.773 58.1992 137.738 57.1952 137.644C56.192 137.608 55.1919 137.513 54.2005 137.36C55.209 137.335 56.218 137.369 57.2221 137.464C58.2253 137.5 59.2253 137.595 60.2167 137.748Z" fill="#E0E0E0"/>
<path d="M60.3275 136.119C59.3191 136.145 58.31 136.11 57.306 136.015C56.3028 135.979 55.3027 135.885 54.3113 135.731C55.3197 135.708 56.3287 135.743 57.3328 135.836C58.3361 135.871 59.3361 135.966 60.3275 136.119Z" fill="#E0E0E0"/>
<path d="M60.4383 134.494C59.4355 134.519 58.432 134.484 57.4335 134.389C56.4303 134.354 55.4302 134.259 54.4389 134.106C55.4473 134.08 56.4564 134.115 57.4604 134.21C58.458 134.246 59.4525 134.341 60.4383 134.494Z" fill="#E0E0E0"/>
<path d="M60.5524 132.865C59.544 132.89 58.5349 132.855 57.5309 132.761C56.5277 132.725 55.5276 132.63 54.5362 132.477C55.5447 132.454 56.5536 132.489 57.5578 132.581C58.561 132.617 59.561 132.712 60.5524 132.865Z" fill="#E0E0E0"/>
<path d="M60.6632 131.239C59.6548 131.265 58.6457 131.23 57.6417 131.135C56.6385 131.1 55.6384 131.005 54.647 130.852C55.6555 130.826 56.6645 130.861 57.6686 130.956C58.6718 130.992 59.6719 131.086 60.6632 131.239Z" fill="#E0E0E0"/>
<path d="M60.774 129.611C59.7712 129.635 58.7677 129.601 57.7693 129.506C56.765 129.471 55.7638 129.376 54.7713 129.223C55.7797 129.197 56.7888 129.232 57.7928 129.327C58.7915 129.363 59.7871 129.458 60.774 129.611Z" fill="#E0E0E0"/>
<path d="M89.487 145.888L88.5122 145.825C88.2456 145.808 87.9971 145.689 87.8212 145.494C87.6452 145.299 87.5564 145.044 87.5741 144.785L87.795 141.567L90.8098 141.762L90.589 144.98C90.5801 145.111 90.5443 145.238 90.4836 145.355C90.423 145.472 90.3388 145.576 90.236 145.66C90.1332 145.745 90.014 145.809 89.8853 145.848C89.7566 145.887 89.6212 145.901 89.487 145.888Z" fill="#EBEBEB"/>
<path d="M88.7372 138.559L89.7444 138.627C90.0115 138.645 90.2602 138.766 90.4359 138.962C90.6116 139.158 90.6997 139.414 90.681 139.673L90.4484 142.898L87.4269 142.693L87.6595 139.468C87.6782 139.209 87.8023 138.967 88.0044 138.797C88.2065 138.626 88.4701 138.541 88.7372 138.559Z" fill="#E0E0E0"/>
<path d="M82.4174 135.57L82.1634 136.49C82.0939 136.741 81.9244 136.955 81.6921 137.086C81.4598 137.216 81.1837 137.251 80.9246 137.184L77.7006 136.345L78.4862 133.501L81.7102 134.34C81.841 134.374 81.9634 134.433 82.0703 134.514C82.1771 134.594 82.2661 134.695 82.3321 134.81C82.398 134.925 82.4396 135.051 82.4542 135.182C82.4689 135.312 82.4564 135.444 82.4174 135.57Z" fill="#EBEBEB"/>
<path d="M74.9796 134.3L75.2323 133.384C75.3014 133.134 75.4702 132.92 75.7015 132.791C75.9328 132.661 76.2077 132.626 76.4657 132.693L79.6763 133.527L78.8948 136.359L75.6842 135.525C75.5539 135.491 75.432 135.432 75.3256 135.352C75.2192 135.271 75.1305 135.171 75.0648 135.057C74.999 134.943 74.9576 134.817 74.943 134.687C74.9284 134.557 74.9408 134.425 74.9796 134.3Z" fill="#E0E0E0"/>
<path d="M91.851 134.071L92.1148 134.981C92.1869 135.229 92.1542 135.496 92.0239 135.721C91.8936 135.947 91.6763 136.113 91.4198 136.183L88.2291 137.053L87.4133 134.239L90.604 133.368C90.7335 133.333 90.8689 133.323 91.0023 133.339C91.1357 133.356 91.2644 133.398 91.3807 133.463C91.497 133.529 91.5985 133.616 91.6793 133.721C91.7601 133.825 91.8185 133.944 91.851 134.071Z" fill="#EBEBEB"/>
<path d="M82.7082 137.051L82.4444 136.141C82.3723 135.892 82.405 135.626 82.5353 135.401C82.6656 135.175 82.8829 135.009 83.1393 134.939L86.343 134.065L87.1588 136.88L83.968 137.75C83.838 137.788 83.7015 137.799 83.5668 137.784C83.4321 137.769 83.302 137.727 83.1843 137.662C83.0665 137.597 82.9637 137.509 82.8818 137.404C82.8 137.299 82.7409 137.179 82.7082 137.051Z" fill="#E0E0E0"/>
<path d="M84.1037 145.725L83.199 145.367C82.9517 145.269 82.7546 145.08 82.651 144.841C82.5475 144.602 82.546 144.333 82.6469 144.093L83.9021 141.107L86.6999 142.214L85.4446 145.2C85.3437 145.44 85.1487 145.632 84.9025 145.732C84.6562 145.833 84.379 145.834 84.1316 145.736L84.1037 145.725Z" fill="#EBEBEB"/>
<path d="M86.2844 138.023L87.189 138.381C87.4363 138.479 87.6334 138.668 87.737 138.907C87.8405 139.146 87.842 139.415 87.7412 139.655L86.4859 142.641L83.6881 141.534L84.9434 138.548C84.9943 138.427 85.0697 138.317 85.1652 138.225C85.2608 138.132 85.3744 138.059 85.4995 138.01C85.6245 137.962 85.7584 137.937 85.8933 137.94C86.0281 137.942 86.1611 137.97 86.2844 138.023Z" fill="#E0E0E0"/>
<path d="M130.947 17.6482L133.217 20.4496C133.258 20.5023 133.277 20.5684 133.269 20.6341C133.261 20.6998 133.226 20.7599 133.173 20.8015L130.256 23.0002C130.039 23.1643 129.791 23.2852 129.526 23.3562C129.261 23.4271 128.984 23.4467 128.711 23.4137C128.438 23.3807 128.175 23.2959 127.936 23.164C127.697 23.0321 127.487 22.8558 127.318 22.6452C127.149 22.4345 127.024 22.1936 126.951 21.9362C126.878 21.6787 126.858 21.4098 126.892 21.1448C126.926 20.8798 127.013 20.6239 127.149 20.3917C127.285 20.1596 127.467 19.9556 127.684 19.7916L130.602 17.5928C130.656 17.559 130.722 17.5459 130.785 17.5561C130.849 17.5664 130.907 17.5992 130.947 17.6482Z" fill="#EBEBEB"/>
<path d="M132.646 20.8666L130.39 18.0554C130.369 18.0293 130.354 17.9995 130.345 17.9677C130.336 17.9359 130.334 17.9027 130.338 17.8701C130.343 17.8374 130.354 17.8059 130.371 17.7773C130.388 17.7488 130.41 17.7237 130.437 17.7036L133.351 15.5048C133.568 15.3408 133.816 15.2198 134.081 15.1489C134.346 15.0779 134.623 15.0584 134.896 15.0914C135.169 15.1243 135.432 15.2092 135.671 15.3411C135.91 15.4729 136.12 15.6492 136.289 15.8599C136.458 16.0705 136.583 16.3115 136.656 16.5689C136.729 16.8263 136.749 17.0952 136.715 17.3602C136.681 17.6252 136.594 17.8811 136.458 18.1133C136.322 18.3455 136.14 18.5494 135.923 18.7134L133.009 20.9057C132.955 20.947 132.887 20.9661 132.819 20.9588C132.751 20.9515 132.689 20.9183 132.646 20.8666Z" fill="#E0E0E0"/>
<path d="M1.71991 84.3481L5.17452 85.5664C5.23943 85.5898 5.29212 85.6373 5.32106 85.6983C5.35 85.7594 5.35284 85.8291 5.32896 85.8921L4.06663 89.2571C3.97289 89.5083 3.82902 89.7391 3.64326 89.9364C3.4575 90.1336 3.23349 90.2934 2.98404 90.4065C2.73459 90.5197 2.46459 90.584 2.1895 90.5958C1.9144 90.6076 1.63961 90.5667 1.38083 90.4754C0.858469 90.291 0.432872 89.913 0.197463 89.4244C-0.037947 88.9358 -0.0639319 88.3766 0.125213 87.8694L1.38754 84.5045C1.39848 84.4728 1.41581 84.4436 1.43853 84.4185C1.46125 84.3935 1.4889 84.3731 1.51986 84.3585C1.55081 84.3439 1.58445 84.3355 1.6188 84.3337C1.65315 84.3319 1.68753 84.3368 1.71991 84.3481Z" fill="#EBEBEB"/>
<path d="M4.93283 86.2082L1.48158 84.9899C1.44888 84.979 1.41881 84.9618 1.39316 84.9393C1.36752 84.9169 1.34686 84.8896 1.33242 84.8591C1.31797 84.8287 1.31006 84.7957 1.30915 84.7621C1.30825 84.7286 1.31437 84.6953 1.32714 84.6641L2.58947 81.2959C2.68317 81.0447 2.82706 80.8139 3.01288 80.6168C3.19871 80.4197 3.42281 80.2601 3.67234 80.1473C3.92187 80.0344 4.19192 79.9704 4.46699 79.959C4.74206 79.9476 5.01674 79.989 5.27527 80.0809C5.53416 80.1718 5.772 80.3114 5.97515 80.4917C6.1783 80.672 6.34276 80.8894 6.45911 81.1316C6.57545 81.3737 6.64138 81.6357 6.65313 81.9026C6.66487 82.1695 6.62219 82.436 6.52753 82.6868L5.2652 86.0551C5.24168 86.1179 5.19361 86.1691 5.1314 86.1978C5.06919 86.2264 4.99785 86.2302 4.93283 86.2082Z" fill="#E0E0E0"/>
<path d="M146.646 148.905C146.646 148.954 114.47 148.989 74.8006 148.989C35.1313 148.989 2.95537 148.954 2.95537 148.905C2.95537 148.856 35.1246 148.82 74.8174 148.82C114.51 148.82 146.646 148.859 146.646 148.905Z" fill="#263238"/>
<path d="M119.214 4.99951H38.314C36.4413 4.99951 34.9232 6.47251 34.9232 8.28956V114.076C34.9232 115.893 36.4413 117.366 38.314 117.366H119.214C121.086 117.366 122.605 115.893 122.605 114.076V8.28956C122.605 6.47251 121.086 4.99951 119.214 4.99951Z" fill="#455A64"/>
<path d="M116.729 10.3091H40.7916V109.646H116.729V10.3091Z" fill="white"/>
<path d="M116.733 109.646C116.733 108.968 116.699 69.126 116.652 10.2928L116.733 10.3678H40.8017L40.889 10.2831C40.889 47.3302 40.889 81.6574 40.889 109.636L40.8151 109.564L116.756 109.636L40.8151 109.704H40.7446V109.636C40.7446 81.6737 40.7446 47.3465 40.7278 10.2831V10.1984H40.8252H116.756H116.833V10.2765C116.766 69.1162 116.733 108.968 116.733 109.646Z" fill="#263238"/>
<path d="M56.7789 26.9808L55.0096 24.3977H53.0523V26.9808H50.9272V17.7101H54.9022C55.632 17.6933 56.3566 17.8334 57.024 18.1205C57.5918 18.3662 58.0728 18.7683 58.4071 19.2769C58.7427 19.8155 58.9117 20.4362 58.8939 21.0653C58.9144 21.6976 58.7428 22.3218 58.4004 22.8601C58.0631 23.366 57.578 23.763 57.0072 24.0003L59.0685 26.9808H56.7789ZM56.2417 19.8763C55.824 19.5709 55.3063 19.4228 54.7847 19.4594H53.0523V22.6908H54.7847C55.3077 22.7258 55.826 22.574 56.2417 22.264C56.5627 21.9446 56.7423 21.5162 56.7423 21.0702C56.7423 20.6241 56.5627 20.1957 56.2417 19.8763Z" fill="#00A9FF"/>
<path d="M61.4287 33.3883L59.3271 30.3524L57.2623 33.4014H54.9492L58.1722 28.9354L55.1103 24.6192H57.4L59.4143 27.4663L61.3716 24.6062H63.5471L60.5256 28.8409L63.7721 33.3818L61.4287 33.3883Z" fill="#00A9FF"/>
<path d="M90.3615 19.9252H77.3286V23.0556H90.3615V19.9252Z" fill="#E0E0E0"/>
<path d="M109.474 21.9024C109.474 21.9513 105.909 21.9871 101.511 21.9871C97.1129 21.9871 93.5509 21.9513 93.5509 21.9024C93.5509 21.8536 97.1129 21.8177 101.511 21.8177C105.909 21.8177 109.474 21.8568 109.474 21.9024Z" fill="#263238"/>
<path d="M109.176 25.6583C109.176 25.7039 102.045 25.743 93.2521 25.743C84.4594 25.743 77.3286 25.7039 77.3286 25.6583C77.3286 25.6127 84.4561 25.5703 93.2521 25.5703C102.048 25.5703 109.176 25.6094 109.176 25.6583Z" fill="#263238"/>
<path d="M109.176 29.336C109.176 29.3816 102.045 29.4207 93.2521 29.4207C84.4594 29.4207 77.3286 29.3816 77.3286 29.336C77.3286 29.2904 84.4561 29.2513 93.2521 29.2513C102.048 29.2513 109.176 29.2872 109.176 29.336Z" fill="#263238"/>
<path d="M114.144 39.1475C114.144 39.1931 98.3014 39.2322 78.7656 39.2322C59.2297 39.2322 43.3835 39.1931 43.3835 39.1475C43.3835 39.1019 59.2196 39.0596 78.7656 39.0596C98.3115 39.0596 114.144 39.0921 114.144 39.1475Z" fill="#263238"/>
<path d="M114.144 94.6743C114.144 94.7199 98.3014 94.759 78.7656 94.759C59.2297 94.759 43.3835 94.7199 43.3835 94.6743C43.3835 94.6287 59.2196 94.5896 78.7656 94.5896C98.3115 94.5896 114.144 94.6254 114.144 94.6743Z" fill="#263238"/>
<path d="M71.0439 44.7601H49.2116V48.7342H71.0439V44.7601Z" fill="#E0E0E0"/>
<path d="M58.6623 100.342H49.2116V104.316H58.6623V100.342Z" fill="#E0E0E0"/>
<path d="M90.3951 100.342H80.9444V104.316H90.3951V100.342Z" fill="#E0E0E0"/>
<path d="M74.5018 103.095C74.5018 103.144 71.5508 103.18 67.9115 103.18C64.2723 103.18 61.3179 103.144 61.3179 103.095C61.3179 103.046 64.2689 103.01 67.9115 103.01C71.5542 103.01 74.5018 103.049 74.5018 103.095Z" fill="#263238"/>
<path d="M108.437 103.095C108.437 103.144 105.486 103.18 101.847 103.18C98.2074 103.18 95.253 103.144 95.253 103.095C95.253 103.046 98.204 103.01 101.847 103.01C105.489 103.01 108.437 103.049 108.437 103.095Z" fill="#263238"/>
<path d="M107.655 54.7182C107.655 54.7638 94.7192 54.8029 78.7823 54.8029C62.8454 54.8029 49.9099 54.7638 49.9099 54.7182C49.9099 54.6726 62.8387 54.6335 78.7823 54.6335C94.7259 54.6335 107.655 54.6694 107.655 54.7182Z" fill="#263238"/>
<path d="M108.776 59.2527C108.776 59.3015 95.5921 59.3374 79.3329 59.3374C63.0737 59.3374 49.8864 59.3015 49.8864 59.2527C49.8864 59.2038 63.067 59.168 79.3329 59.168C95.5988 59.168 108.776 59.2071 108.776 59.2527Z" fill="#263238"/>
<path d="M78.4332 63.7903C78.4332 63.8359 71.8899 63.875 63.8224 63.875C55.7549 63.875 49.2116 63.8359 49.2116 63.7903C49.2116 63.7447 55.7516 63.7056 63.8224 63.7056C71.8933 63.7056 78.4332 63.7414 78.4332 63.7903Z" fill="#263238"/>
<path d="M108.343 80.2405C108.343 80.2405 108.279 80.2666 108.148 80.3057L107.578 80.475C106.84 80.6879 106.09 80.8576 105.332 80.9832C104.784 81.0768 104.229 81.1279 103.673 81.1363C103.008 81.149 102.344 81.069 101.702 80.8985C100.963 80.6934 100.282 80.3268 99.7115 79.8268C99.0681 79.2565 98.6451 78.4898 98.5129 77.6541C98.4439 77.2026 98.5007 76.7415 98.6774 76.3185C98.8753 75.8787 99.1993 75.5033 99.6107 75.237C99.8234 75.0941 100.063 74.9937 100.316 74.9417C100.569 74.8896 100.83 74.8871 101.085 74.9341C101.342 74.9955 101.584 75.1062 101.796 75.2598C102.004 75.4281 102.177 75.6325 102.307 75.8625C102.554 76.339 102.677 76.8667 102.666 77.4C102.668 77.9456 102.566 78.4869 102.364 78.9961C101.925 80.0503 101.203 80.9707 100.272 81.6608C99.297 82.3962 98.1387 82.8682 96.9149 83.0289C96.2874 83.1157 95.6498 83.108 95.0247 83.0061C94.7073 82.9565 94.3941 82.8835 94.0881 82.7878C93.7821 82.6786 93.4838 82.5502 93.195 82.4035C92.619 82.0917 92.106 81.6811 91.6809 81.1917C91.2415 80.692 90.9339 80.0961 90.7845 79.4554C90.6205 78.7973 90.7051 78.1038 91.0229 77.501C91.3384 76.8909 91.8614 76.4053 92.5034 76.1263C92.8284 75.9836 93.1853 75.9231 93.5408 75.9504C93.8933 75.9844 94.2303 76.108 94.5178 76.3087C95.0637 76.7287 95.4403 77.3213 95.582 77.9831C95.7364 78.6167 95.7728 79.272 95.6895 79.918C95.6238 80.5507 95.4783 81.1732 95.2564 81.7715C94.8445 82.9521 94.1169 84.0054 93.148 84.8238C92.2064 85.6076 91.0287 86.075 89.7908 86.1561C88.6472 86.2691 87.4996 85.9833 86.5535 85.35C85.6073 84.7167 84.9245 83.7772 84.6273 82.6999C84.3235 81.7381 84.3637 80.705 84.7415 79.7682C84.9191 79.3212 85.2242 78.9326 85.6211 78.6476C85.8195 78.5068 86.0497 78.4141 86.2925 78.3772C86.5312 78.343 86.7748 78.3878 86.9841 78.5043C87.1757 78.6254 87.336 78.7877 87.4525 78.9786C87.5689 79.1696 87.6384 79.384 87.6556 79.6053C87.7117 80.0101 87.6946 80.4212 87.6052 80.8203C87.4725 81.5483 87.247 82.2573 86.9338 82.9312C86.6624 83.5163 86.3246 84.0703 85.9266 84.5827C85.5941 85.0169 85.2185 85.4184 84.8052 85.7815C84.2418 86.2916 83.6065 86.7215 82.9185 87.0584C82.742 87.1496 82.5605 87.2312 82.3746 87.3027L82.1832 87.3744L82.3679 87.2864C82.4887 87.2278 82.6768 87.1561 82.905 87.0291C83.5814 86.6776 84.2059 86.2393 84.7616 85.7261C85.6432 84.9201 86.3547 83.9553 86.8565 82.8856C87.17 82.2197 87.3956 81.5182 87.528 80.7975C87.61 80.4084 87.6247 80.0088 87.5716 79.6151C87.5553 79.4124 87.4918 79.2159 87.386 79.0405C87.2802 78.865 87.1347 78.7151 86.9606 78.602C86.7745 78.4989 86.558 78.4599 86.3462 78.4912C86.1282 78.5291 85.9223 78.6161 85.7453 78.7453C85.3687 79.0161 85.0798 79.3857 84.9127 79.8105C84.5491 80.7215 84.5148 81.7252 84.8153 82.6575C85.1071 83.7 85.7707 84.6081 86.688 85.2201C87.6053 85.8322 88.7167 86.1084 89.8243 85.9997C91.0248 85.9157 92.1655 85.4588 93.0775 84.6967C94.0233 83.8967 94.7324 82.8668 95.1322 81.7129C95.348 81.1257 95.49 80.5154 95.5552 79.8952C95.6353 79.2686 95.5989 78.6331 95.4477 78.0189C95.3148 77.3952 94.9578 76.8376 94.4406 76.4455C94.1765 76.261 93.8664 76.1483 93.5423 76.1191C93.2183 76.0899 92.892 76.1453 92.5974 76.2794C91.9911 76.5447 91.4978 77.005 91.2008 77.5824C90.9029 78.1482 90.8243 78.799 90.9792 79.4164C91.1414 80.0206 91.4318 80.5854 91.8318 81.0746C92.2319 81.5637 92.7328 81.9664 93.3025 82.2569C93.5818 82.3979 93.87 82.5219 94.1653 82.6282C95.0514 82.9084 95.9916 82.9897 96.9149 82.866C97.5141 82.7851 98.0999 82.6285 98.6573 82.4002C99.2019 82.1748 99.7152 81.8836 100.185 81.5337C101.095 80.859 101.801 79.9588 102.229 78.9277C102.426 78.4364 102.527 77.914 102.528 77.387C102.54 76.8782 102.425 76.3741 102.192 75.9178C102.071 75.7047 101.912 75.514 101.722 75.3543C101.529 75.204 101.306 75.0932 101.068 75.0285C100.832 74.9846 100.589 74.9868 100.354 75.0349C100.119 75.083 99.8957 75.1761 99.698 75.3087C99.3071 75.5582 98.9992 75.9124 98.8117 76.3283C98.6412 76.7311 98.5844 77.1707 98.6472 77.6019C98.7747 78.4112 99.1819 79.1544 99.8021 79.7095C100.359 80.2012 101.024 80.5632 101.746 80.7682C102.377 80.9405 103.031 81.0239 103.686 81.0158C104.239 81.0122 104.79 80.9665 105.335 80.879C106.092 80.7587 106.841 80.6 107.581 80.4034L108.158 80.2503L108.343 80.2405Z" fill="#263238"/>
<path d="M91.4325 4.04504H66.0919V13.4461H91.4325V4.04504Z" fill="#E0E0E0"/>
<path d="M91.4325 13.4428C91.4325 13.4428 91.4325 13.3842 91.4325 13.2734C91.4325 13.1627 91.4325 12.9965 91.4325 12.7848C91.4325 12.3516 91.4325 11.7261 91.4325 10.9183C91.4325 9.28954 91.4123 6.95393 91.3989 4.04501L91.4593 4.10364L66.1221 4.1297L66.2094 4.04501C66.2094 7.32854 66.2094 10.5046 66.2094 13.4428L66.1255 13.3614L84.2547 13.4005L89.5356 13.4233H90.9558H91.3251H91.4526C91.4135 13.4265 91.3742 13.4265 91.3351 13.4233H90.9759H89.5759L84.3117 13.4461L66.1121 13.4819H66.0281V13.4005C66.0281 10.4687 66.0281 7.28619 66.0281 4.00266L66.1154 3.91797L91.4526 3.94403H91.5131V4.00266C91.5131 6.93439 91.4896 9.27976 91.4795 10.9118C91.4795 11.7131 91.4795 12.3353 91.4795 12.7653C91.4795 12.9705 91.4795 13.1301 91.4795 13.2441C91.4795 13.3581 91.4325 13.4428 91.4325 13.4428Z" fill="#263238"/>
<path d="M121.782 148.761H105.372C105.02 148.761 104.682 148.627 104.43 148.388C104.179 148.148 104.035 147.823 104.029 147.481L103.633 104.538H122.709L123.105 147.455C123.106 147.798 122.967 148.127 122.72 148.372C122.472 148.616 122.135 148.756 121.782 148.761Z" fill="#00A9FF"/>
<g opacity="0.3">
<path d="M119.368 114.069V147.129C119.368 147.129 122.054 147.996 122.185 145.716C122.316 143.435 122.245 114.063 122.245 114.063L119.368 114.069Z" fill="white"/>
</g>
<path d="M120.909 102.359H105.466C105.199 102.359 104.942 102.462 104.754 102.645C104.565 102.828 104.459 103.077 104.459 103.336V104.297H121.916V103.32C121.912 103.063 121.804 102.819 121.615 102.639C121.427 102.459 121.173 102.359 120.909 102.359Z" fill="#FAFAFA"/>
<path d="M120.909 102.359C120.965 102.351 121.021 102.351 121.077 102.359C121.243 102.379 121.4 102.44 121.534 102.538C121.644 102.617 121.737 102.718 121.807 102.833C121.877 102.948 121.922 103.076 121.94 103.209C121.94 103.535 121.94 103.86 121.94 104.277V104.316H121.896C118.697 104.339 112.516 104.359 105.446 104.359H104.355V103.365C104.349 103.203 104.382 103.043 104.45 102.895C104.518 102.747 104.62 102.616 104.747 102.512C104.875 102.409 105.026 102.335 105.187 102.297C105.342 102.27 105.5 102.26 105.657 102.267H106.55H109.944L115.652 102.287L119.489 102.313H120.53H120.798H120.889H120.798H120.53H119.489L115.652 102.339L109.944 102.359H106.55H105.657C105.513 102.35 105.369 102.359 105.227 102.385C105.092 102.418 104.966 102.479 104.858 102.564C104.375 102.919 104.569 103.603 104.522 104.193L104.435 104.108H105.442C112.523 104.108 118.703 104.124 121.893 104.15L121.849 104.193C121.849 103.792 121.849 103.43 121.849 103.134C121.836 103.007 121.797 102.884 121.734 102.772C121.672 102.66 121.586 102.562 121.483 102.482C121.306 102.393 121.108 102.351 120.909 102.359Z" fill="#263238"/>
<path d="M123.84 103.831H102.518C102.029 103.831 101.632 104.216 101.632 104.691V113.203C101.632 113.678 102.029 114.063 102.518 114.063H123.84C124.33 114.063 124.726 113.678 124.726 113.203V104.691C124.726 104.216 124.33 103.831 123.84 103.831Z" fill="#FAFAFA"/>
<path d="M123.84 114.069C123.84 114.069 123.9 114.069 124.008 114.043C124.169 114.01 124.317 113.934 124.434 113.822C124.827 113.535 124.669 112.844 124.693 112.053C124.693 110.424 124.676 108.095 124.666 105.212C124.666 105.033 124.666 104.851 124.666 104.665C124.66 104.491 124.595 104.324 124.481 104.189C124.362 104.052 124.201 103.956 124.021 103.916C123.827 103.895 123.632 103.89 123.437 103.899H120.906H115.319H102.525C102.397 103.899 102.27 103.928 102.156 103.984C102.042 104.041 101.944 104.124 101.87 104.225C101.798 104.322 101.751 104.433 101.733 104.551C101.726 104.683 101.726 104.816 101.733 104.948V109.737C101.733 110.773 101.733 111.792 101.733 112.792V113.167C101.733 113.279 101.758 113.39 101.806 113.493C101.854 113.594 101.924 113.684 102.011 113.758C102.098 113.831 102.2 113.885 102.31 113.916C102.425 113.947 102.544 113.958 102.662 113.949H103.777L114.228 113.965L121.278 113.994H123.192H123.692H123.86H123.692H123.192L121.278 114.011L114.228 114.037L103.777 114.056H102.662C102.529 114.065 102.395 114.052 102.266 114.017C102.133 113.98 102.009 113.915 101.904 113.827C101.799 113.74 101.714 113.631 101.655 113.509C101.598 113.385 101.569 113.251 101.568 113.115V112.74C101.568 111.741 101.568 110.723 101.568 109.685C101.568 108.646 101.568 107.587 101.568 106.515V104.886C101.568 104.746 101.568 104.619 101.568 104.466C101.591 104.316 101.65 104.174 101.739 104.049C101.829 103.926 101.949 103.825 102.087 103.756C102.226 103.687 102.379 103.651 102.535 103.652H115.329H120.916H123.447C123.652 103.642 123.858 103.649 124.062 103.675C124.27 103.726 124.456 103.84 124.592 104C124.722 104.158 124.796 104.352 124.804 104.554V105.105C124.804 107.984 124.78 110.317 124.773 111.945C124.773 112.346 124.773 112.704 124.773 113.017C124.784 113.151 124.762 113.286 124.711 113.412C124.66 113.537 124.58 113.649 124.478 113.74C124.354 113.853 124.199 113.926 124.031 113.952C123.977 114.003 123.911 114.043 123.84 114.069Z" fill="#263238"/>
<path d="M102.975 113.893C102.924 113.893 102.887 111.714 102.887 109.03C102.887 106.346 102.924 104.163 102.975 104.163C103.025 104.163 103.062 106.342 103.062 109.03C103.062 111.717 103.022 113.893 102.975 113.893Z" fill="#263238"/>
<path d="M104.72 113.893C104.67 113.893 104.633 111.714 104.633 109.03C104.633 106.346 104.67 104.163 104.72 104.163C104.771 104.163 104.808 106.342 104.808 109.03C104.808 111.717 104.767 113.893 104.72 113.893Z" fill="#263238"/>
<path d="M106.466 113.893C106.419 113.893 106.379 111.714 106.379 109.03C106.379 106.346 106.419 104.163 106.466 104.163C106.513 104.163 106.554 106.342 106.554 109.03C106.554 111.717 106.513 113.893 106.466 113.893Z" fill="#263238"/>
<path d="M108.212 113.893C108.165 113.893 108.125 111.714 108.125 109.03C108.125 106.346 108.165 104.163 108.212 104.163C108.259 104.163 108.299 106.342 108.299 109.03C108.299 111.717 108.262 113.893 108.212 113.893Z" fill="#263238"/>
<path d="M109.961 113.893C109.911 113.893 109.874 111.714 109.874 109.03C109.874 106.346 109.911 104.163 109.961 104.163C110.012 104.163 110.048 106.342 110.048 109.03C110.048 111.717 110.008 113.893 109.961 113.893Z" fill="#263238"/>
<path d="M111.707 113.893C111.657 113.893 111.62 111.714 111.62 109.03C111.62 106.346 111.657 104.163 111.707 104.163C111.757 104.163 111.794 106.342 111.794 109.03C111.794 111.717 111.754 113.893 111.707 113.893Z" fill="#263238"/>
<path d="M113.453 113.893C113.406 113.893 113.365 111.714 113.365 109.03C113.365 106.346 113.406 104.163 113.453 104.163C113.5 104.163 113.54 106.342 113.54 109.03C113.54 111.717 113.5 113.893 113.453 113.893Z" fill="#263238"/>
<path d="M115.198 113.893C115.151 113.893 115.111 111.714 115.111 109.03C115.111 106.346 115.151 104.163 115.198 104.163C115.245 104.163 115.286 106.342 115.286 109.03C115.286 111.717 115.249 113.893 115.198 113.893Z" fill="#263238"/>
<path d="M116.944 113.893C116.897 113.893 116.857 111.714 116.857 109.03C116.857 106.346 116.897 104.163 116.944 104.163C116.991 104.163 117.035 106.342 117.035 109.03C117.035 111.717 116.995 113.893 116.944 113.893Z" fill="#263238"/>
<path d="M118.693 113.893C118.643 113.893 118.606 111.714 118.606 109.03C118.606 106.346 118.643 104.163 118.693 104.163C118.744 104.163 118.781 106.342 118.781 109.03C118.781 111.717 118.74 113.893 118.693 113.893Z" fill="#263238"/>
<path d="M120.439 113.893C120.392 113.893 120.352 111.714 120.352 109.03C120.352 106.346 120.392 104.163 120.439 104.163C120.486 104.163 120.526 106.342 120.526 109.03C120.526 111.717 120.486 113.893 120.439 113.893Z" fill="#263238"/>
<path d="M122.185 113.893C122.138 113.893 122.098 111.714 122.098 109.03C122.098 106.346 122.138 104.163 122.185 104.163C122.232 104.163 122.272 106.342 122.272 109.03C122.272 111.717 122.235 113.893 122.185 113.893Z" fill="#263238"/>
<path d="M123.931 113.893C123.884 113.893 123.843 111.714 123.843 109.03C123.843 106.346 123.884 104.163 123.931 104.163C123.978 104.163 124.018 106.342 124.018 109.03C124.018 111.717 123.981 113.893 123.931 113.893Z" fill="#263238"/>
<path d="M121.651 121.77H105.137V134.601H121.651V121.77Z" fill="white"/>
<path d="M107.974 125.855L107.588 125.314H107.165V125.855H106.695V123.92H107.557C107.714 123.916 107.87 123.946 108.014 124.008C108.137 124.057 108.242 124.141 108.316 124.249C108.388 124.361 108.424 124.491 108.42 124.623C108.424 124.755 108.386 124.884 108.313 124.995C108.238 125.101 108.133 125.184 108.011 125.233L108.457 125.855H107.974ZM107.856 124.373C107.765 124.309 107.653 124.277 107.541 124.285H107.165V124.959H107.541C107.653 124.966 107.765 124.935 107.856 124.871C107.89 124.839 107.918 124.8 107.936 124.757C107.955 124.714 107.964 124.668 107.964 124.622C107.964 124.575 107.955 124.529 107.936 124.487C107.918 124.444 107.89 124.405 107.856 124.373Z" fill="#263238"/>
<path d="M108.981 127.19L108.524 126.555L108.078 127.19H107.578L108.276 126.259L107.604 125.36H108.101L108.534 125.952L108.961 125.36H109.434L108.763 126.242L109.464 127.19H108.981Z" fill="#263238"/>
<path d="M120.439 123.917H111.009V125.307H120.439V123.917Z" fill="#E0E0E0"/>
<path d="M119.368 128.76C119.368 128.806 116.615 128.845 113.218 128.845C109.82 128.845 107.067 128.806 107.067 128.76C107.067 128.715 109.82 128.676 113.218 128.676C116.615 128.676 119.368 128.728 119.368 128.76Z" fill="#263238"/>
<path d="M119.368 130.207C119.368 130.256 116.615 130.291 113.218 130.291C109.82 130.291 107.067 130.256 107.067 130.207C107.067 130.158 109.82 130.122 113.218 130.122C116.615 130.122 119.368 130.161 119.368 130.207Z" fill="#263238"/>
<path d="M112.55 132.021H106.178V133.213H112.55V132.021Z" fill="#E0E0E0"/>
<path d="M121.275 134.204C121.275 134.204 121.275 134.125 121.275 133.976C121.275 133.826 121.275 133.604 121.275 133.324C121.275 132.748 121.275 131.917 121.258 130.858C121.258 128.734 121.235 125.711 121.221 122.063L121.292 122.135H105.462C105.442 122.151 105.627 121.975 105.55 122.053V125.285C105.55 126.347 105.55 127.389 105.55 128.405C105.55 130.441 105.55 132.383 105.55 134.191L105.473 134.116L116.887 134.155L120.13 134.174H120.996H121.299C121.299 134.174 121.278 134.174 121.228 134.174H121.013H120.164L116.938 134.194L105.469 134.233H105.392V134.155C105.392 132.347 105.392 130.405 105.392 128.369C105.392 127.353 105.392 126.311 105.392 125.249V122.017C105.315 122.089 105.499 121.91 105.479 121.929H121.309H121.383V122.001C121.383 125.666 121.352 128.708 121.346 130.842C121.346 131.891 121.329 132.718 121.325 133.292C121.325 133.565 121.325 133.777 121.325 133.943C121.325 134.109 121.275 134.204 121.275 134.204Z" fill="#263238"/>
<path d="M104.72 145.259C104.67 145.259 104.633 138.562 104.633 130.301C104.633 122.04 104.67 115.343 104.72 115.343C104.771 115.343 104.808 122.04 104.808 130.301C104.808 138.562 104.767 145.259 104.72 145.259Z" fill="white"/>
<path d="M121.668 148.064C121.668 148.11 118.066 148.149 113.611 148.149C109.155 148.149 105.553 148.11 105.553 148.064C105.553 148.019 109.155 147.979 113.611 147.979C118.066 147.979 121.668 148.019 121.668 148.064Z" fill="#263238"/>
<path d="M138.035 148.742H124.74C124.455 148.742 124.181 148.633 123.979 148.438C123.776 148.243 123.661 147.979 123.659 147.703L123.323 112.916H138.766L139.085 147.683C139.089 147.958 138.981 148.224 138.784 148.422C138.587 148.62 138.318 148.735 138.035 148.742Z" fill="#455A64"/>
<g opacity="0.3">
<path d="M136.077 120.63V147.419C136.077 147.419 138.253 148.12 138.36 146.273C138.468 144.426 138.407 120.63 138.407 120.63H136.077Z" fill="white"/>
</g>
<path d="M137.135 111.137H124.992C124.724 111.137 124.468 111.24 124.279 111.424C124.091 111.607 123.984 111.856 123.984 112.115V112.698H138.132V112.115C138.132 111.857 138.027 111.61 137.84 111.427C137.654 111.244 137.4 111.14 137.135 111.137Z" fill="#FAFAFA"/>
<path d="M137.135 111.137C137.183 111.131 137.231 111.131 137.279 111.137C137.422 111.149 137.56 111.194 137.682 111.268C137.884 111.387 138.038 111.57 138.118 111.786C138.164 111.923 138.185 112.068 138.179 112.212C138.179 112.366 138.179 112.538 138.179 112.695V112.766H138.135C135.52 112.792 130.608 112.809 124.992 112.809H123.897V112.724C123.897 112.476 123.897 112.252 123.897 111.991C123.936 111.735 124.069 111.502 124.273 111.335C124.476 111.168 124.735 111.079 125.002 111.085H125.713H128.416L132.962 111.102L136.007 111.128L136.833 111.144C136.928 111.142 137.023 111.148 137.118 111.16C137.023 111.167 136.928 111.167 136.833 111.16L136.007 111.177L132.962 111.203L128.416 111.222H125.018C124.796 111.217 124.579 111.29 124.407 111.427C124.232 111.567 124.118 111.766 124.088 111.984C124.068 112.199 124.088 112.457 124.088 112.695L124.001 112.61H125.008C130.625 112.61 135.537 112.626 138.152 112.652L138.108 112.695C138.108 112.525 138.108 112.369 138.108 112.212C138.119 112.076 138.103 111.939 138.061 111.809C137.993 111.603 137.855 111.426 137.669 111.307C137.507 111.21 137.324 111.152 137.135 111.137Z" fill="#263238"/>
<path d="M139.535 112.343H122.598C122.108 112.343 121.712 112.728 121.712 113.203V119.773C121.712 120.248 122.108 120.633 122.598 120.633H139.535C140.025 120.633 140.422 120.248 140.422 119.773V113.203C140.422 112.728 140.025 112.343 139.535 112.343Z" fill="#FAFAFA"/>
<path d="M139.532 120.63C139.71 120.617 139.882 120.559 140.029 120.46C140.199 120.338 140.318 120.16 140.364 119.959C140.386 119.827 140.391 119.694 140.381 119.561C140.381 119.418 140.381 119.262 140.381 119.102C140.381 117.799 140.364 115.913 140.354 113.594C140.354 113.45 140.354 113.297 140.354 113.154C140.345 113.014 140.298 112.879 140.217 112.763C140.133 112.642 140.018 112.545 139.883 112.483C139.747 112.42 139.597 112.395 139.448 112.408H137.407H132.908H122.598C122.391 112.409 122.192 112.487 122.043 112.627C121.894 112.766 121.807 112.956 121.799 113.157C121.799 113.594 121.799 114.027 121.799 114.46V117.014C121.799 117.852 121.799 118.673 121.799 119.477C121.781 119.666 121.8 119.858 121.856 120.04C121.927 120.208 122.053 120.348 122.215 120.438C122.384 120.519 122.574 120.553 122.762 120.535H123.36L131.78 120.555L137.457 120.581H139.001H139.401H139.539H139.401H139.001L137.457 120.597L131.78 120.623L123.36 120.643H122.762C122.553 120.679 122.337 120.659 122.138 120.584C121.942 120.476 121.79 120.307 121.705 120.105C121.663 120.001 121.641 119.891 121.638 119.78V119.477C121.638 118.673 121.638 117.852 121.638 117.014V113.17C121.647 112.926 121.754 112.694 121.935 112.524C122.117 112.354 122.359 112.259 122.611 112.258H132.921H137.42H139.461C139.633 112.25 139.803 112.284 139.957 112.357C140.111 112.431 140.243 112.541 140.341 112.678C140.432 112.814 140.484 112.97 140.492 113.131C140.492 113.287 140.492 113.431 140.492 113.577C140.492 115.897 140.469 117.776 140.462 119.086C140.462 119.245 140.462 119.411 140.462 119.545C140.468 119.681 140.459 119.818 140.435 119.952C140.383 120.165 140.25 120.351 140.062 120.473C139.949 120.548 139.819 120.595 139.683 120.61C139.634 120.625 139.583 120.632 139.532 120.63Z" fill="#263238"/>
<path d="M122.809 120.493C122.762 120.493 122.722 118.731 122.722 116.555C122.722 114.379 122.762 112.613 122.809 112.613C122.856 112.613 122.897 114.375 122.897 116.555C122.897 118.734 122.843 120.493 122.809 120.493Z" fill="#263238"/>
<path d="M124.209 120.493C124.162 120.493 124.122 118.731 124.122 116.555C124.122 114.379 124.162 112.613 124.209 112.613C124.256 112.613 124.297 114.375 124.297 116.555C124.297 118.734 124.26 120.493 124.209 120.493Z" fill="#263238"/>
<path d="M125.626 120.493C125.576 120.493 125.539 118.731 125.539 116.555C125.539 114.379 125.576 112.613 125.626 112.613C125.676 112.613 125.713 114.375 125.713 116.555C125.713 118.734 125.673 120.493 125.626 120.493Z" fill="#263238"/>
<path d="M127.04 120.493C126.992 120.493 126.952 118.731 126.952 116.555C126.952 114.379 126.992 112.613 127.04 112.613C127.087 112.613 127.127 114.375 127.127 116.555C127.127 118.734 127.09 120.493 127.04 120.493Z" fill="#263238"/>
<path d="M128.456 120.493C128.406 120.493 128.369 118.731 128.369 116.555C128.369 114.379 128.406 112.613 128.456 112.613C128.507 112.613 128.544 114.375 128.544 116.555C128.544 118.734 128.517 120.493 128.456 120.493Z" fill="#263238"/>
<path d="M129.86 120.493C129.813 120.493 129.772 118.731 129.772 116.555C129.772 114.379 129.813 112.613 129.86 112.613C129.907 112.613 129.947 114.375 129.947 116.555C129.947 118.734 129.92 120.493 129.86 120.493Z" fill="#263238"/>
<path d="M131.286 120.493C131.236 120.493 131.199 118.731 131.199 116.555C131.199 114.379 131.236 112.613 131.286 112.613C131.337 112.613 131.374 114.375 131.374 116.555C131.374 118.734 131.333 120.493 131.286 120.493Z" fill="#263238"/>
<path d="M132.7 120.493C132.653 120.493 132.613 118.731 132.613 116.555C132.613 114.379 132.653 112.613 132.7 112.613C132.747 112.613 132.787 114.375 132.787 116.555C132.787 118.734 132.747 120.493 132.7 120.493Z" fill="#263238"/>
<path d="M134.117 120.493C134.066 120.493 134.026 118.731 134.026 116.555C134.026 114.379 134.066 112.613 134.117 112.613C134.167 112.613 134.204 114.375 134.204 116.555C134.204 118.734 134.164 120.493 134.117 120.493Z" fill="#263238"/>
<path d="M135.53 120.493C135.483 120.493 135.443 118.731 135.443 116.555C135.443 114.379 135.483 112.613 135.53 112.613C135.577 112.613 135.617 114.375 135.617 116.555C135.617 118.734 135.567 120.493 135.53 120.493Z" fill="#263238"/>
<path d="M136.943 120.493C136.896 120.493 136.856 118.731 136.856 116.555C136.856 114.379 136.896 112.613 136.943 112.613C136.99 112.613 137.031 114.375 137.031 116.555C137.031 118.734 136.994 120.493 136.943 120.493Z" fill="#263238"/>
<path d="M138.36 120.493C138.31 120.493 138.273 118.731 138.273 116.555C138.273 114.379 138.31 112.613 138.36 112.613C138.411 112.613 138.447 114.375 138.447 116.555C138.447 118.734 138.407 120.493 138.36 120.493Z" fill="#263238"/>
<path d="M139.774 120.493C139.727 120.493 139.686 118.731 139.686 116.555C139.686 114.379 139.727 112.613 139.774 112.613C139.821 112.613 139.861 114.375 139.861 116.555C139.861 118.734 139.824 120.493 139.774 120.493Z" fill="#263238"/>
<path d="M137.927 126.874H124.548V137.269H137.927V126.874Z" fill="white"/>
<path d="M126.838 130.184L126.529 129.747H126.193V130.184H125.831V128.617H126.502C126.63 128.614 126.757 128.637 126.875 128.686C126.974 128.727 127.058 128.796 127.117 128.884C127.174 128.975 127.204 129.079 127.204 129.186C127.204 129.292 127.174 129.396 127.117 129.487C127.057 129.573 126.971 129.64 126.872 129.679L127.234 130.184H126.838ZM126.744 128.982C126.67 128.932 126.58 128.908 126.489 128.914H126.183V129.458H126.502C126.594 129.464 126.684 129.439 126.758 129.386C126.787 129.361 126.811 129.33 126.826 129.295C126.841 129.26 126.848 129.222 126.845 129.184C126.847 129.145 126.839 129.107 126.823 129.072C126.806 129.037 126.782 129.006 126.751 128.982H126.744Z" fill="#263238"/>
<path d="M127.664 131.265L127.295 130.751L126.932 131.265H126.526L127.09 130.51L126.553 129.783H126.956L127.291 130.262L127.627 129.783H128.01L127.51 130.497L128.077 131.265H127.664Z" fill="#263238"/>
<path d="M136.943 128.614H129.306V129.741H136.943V128.614Z" fill="#E0E0E0"/>
<path d="M136.077 132.536C136.077 132.585 133.848 132.621 131.095 132.621C128.342 132.621 126.113 132.585 126.113 132.536C126.113 132.487 128.342 132.451 131.095 132.451C133.848 132.451 136.077 132.49 136.077 132.536Z" fill="#263238"/>
<path d="M136.077 133.712C136.077 133.757 133.848 133.796 131.095 133.796C128.342 133.796 126.113 133.757 126.113 133.712C126.113 133.666 128.342 133.627 131.095 133.627C133.848 133.627 136.077 133.663 136.077 133.712Z" fill="#263238"/>
<path d="M130.555 135.178H125.391V136.142H130.555V135.178Z" fill="#E0E0E0"/>
<path d="M137.622 136.95C137.622 136.95 137.622 136.881 137.622 136.761C137.622 136.64 137.622 136.455 137.622 136.233C137.622 135.761 137.622 135.086 137.605 134.233C137.605 132.51 137.581 130.063 137.568 127.112L137.638 127.184H124.817L124.904 127.099V128.402C124.904 128.842 124.904 129.275 124.904 129.705V132.233C124.904 133.881 124.904 135.451 124.904 136.92L124.827 136.842L134.07 136.881L136.702 136.901H137.403H137.585H137.648H137.42H136.749L134.133 136.92L124.841 136.959H124.76V136.884C124.76 135.415 124.76 133.845 124.76 132.197V127.05C124.683 127.125 124.867 126.946 124.851 126.965H137.672H137.746V127.099C137.746 130.067 137.716 132.533 137.709 134.265C137.709 135.112 137.692 135.78 137.689 136.246C137.689 136.464 137.689 136.637 137.689 136.764C137.672 136.828 137.649 136.89 137.622 136.95Z" fill="#263238"/>
<path d="M124.209 145.905C124.162 145.905 124.122 140.478 124.122 133.787C124.122 127.096 124.162 121.669 124.209 121.669C124.256 121.669 124.297 127.093 124.297 133.787C124.297 140.481 124.26 145.905 124.209 145.905Z" fill="white"/>
<path d="M137.941 148.175C137.941 148.224 135.02 148.26 131.421 148.26C127.822 148.26 124.904 148.224 124.904 148.175C124.904 148.126 127.822 148.09 131.421 148.09C135.02 148.09 137.941 148.129 137.941 148.175Z" fill="#263238"/>
<path d="M30.589 134.829L28.3631 142.5C28.3631 142.5 35.457 147.328 35.185 148.784L20.0774 145.015L23.0553 132.923L30.589 134.829Z" fill="#455A64"/>
<path d="M23.8509 140.686C23.6927 140.696 23.544 140.763 23.4331 140.873C23.3223 140.983 23.257 141.129 23.25 141.282C23.2506 141.436 23.3118 141.584 23.421 141.695C23.5302 141.807 23.6792 141.873 23.8375 141.882C24.0057 141.873 24.1642 141.803 24.2818 141.686C24.3993 141.569 24.4672 141.413 24.472 141.25C24.4418 140.94 24.096 140.618 23.8006 140.693" fill="#E0E0E0"/>
<g opacity="0.6">
<path d="M20.0774 145.015L20.4131 143.81L34.7755 147.865C34.7755 147.865 35.3764 148.322 35.1817 148.774L20.0774 145.015Z" fill="white"/>
</g>
<path d="M28.6283 142.484C28.6048 142.559 28.2288 142.484 27.8058 142.644C27.3828 142.803 27.1108 143.051 27.0504 143.005C26.99 142.96 27.2082 142.562 27.7218 142.396C28.2355 142.23 28.6585 142.409 28.6283 142.484Z" fill="#263238"/>
<path d="M30.0485 143.53C30.0485 143.608 29.7127 143.65 29.377 143.901C29.0413 144.152 28.8936 144.458 28.8197 144.435C28.7459 144.413 28.8197 143.989 29.2192 143.689C29.6187 143.39 30.0653 143.461 30.0485 143.53Z" fill="#263238"/>
<path d="M30.4849 145.641C30.4144 145.641 30.4043 145.25 30.6931 144.895C30.9818 144.54 31.3645 144.465 31.3846 144.533C31.4048 144.602 31.1329 144.764 30.8978 145.061C30.6628 145.357 30.5487 145.667 30.4849 145.641Z" fill="#263238"/>
<path d="M28.9406 140.683C28.8902 140.741 28.578 140.556 28.155 140.481C27.732 140.406 27.3727 140.455 27.3492 140.38C27.3257 140.305 27.7051 140.126 28.202 140.22C28.6988 140.315 28.9909 140.634 28.9406 140.683Z" fill="#263238"/>
<path d="M25.2912 136.637L24.9555 144.611C24.9555 144.611 33.0129 147.644 33.0733 149.126L17.4923 149.006L17.5259 136.556L25.2912 136.637Z" fill="#455A64"/>
<path d="M20.1278 143.904C19.976 143.95 19.8469 144.049 19.7646 144.181C19.6824 144.313 19.6527 144.469 19.6813 144.621C19.7166 144.771 19.8108 144.901 19.9437 144.984C20.0766 145.068 20.2378 145.098 20.393 145.067C20.554 145.018 20.6909 144.914 20.7776 144.773C20.8642 144.633 20.8946 144.466 20.863 144.305C20.8094 144.155 20.6972 144.03 20.5503 143.959C20.4035 143.888 20.2337 143.875 20.0774 143.924" fill="#E0E0E0"/>
<g opacity="0.6">
<path d="M17.4755 149.006L17.5292 147.751L32.4489 148.335C32.4489 148.335 33.1405 148.641 33.0565 149.126L17.4755 149.006Z" fill="white"/>
</g>
<path d="M25.1938 144.536C25.1938 144.611 24.8111 144.644 24.4318 144.882C24.0524 145.119 23.8543 145.439 23.7838 145.409C23.7133 145.38 23.8308 144.944 24.2941 144.66C24.7574 144.377 25.2106 144.465 25.1938 144.536Z" fill="#263238"/>
<path d="M26.8221 145.22C26.8221 145.292 26.5099 145.419 26.248 145.738C25.9862 146.058 25.9123 146.39 25.8351 146.39C25.7579 146.39 25.7142 145.957 26.0466 145.569C26.379 145.181 26.8221 145.149 26.8221 145.22Z" fill="#263238"/>
<path d="M27.7353 147.172C27.6648 147.188 27.5641 146.81 27.7622 146.396C27.9602 145.983 28.3161 145.82 28.3497 145.885C28.3832 145.95 28.1583 146.168 28.0139 146.507C27.8696 146.846 27.7991 147.165 27.7353 147.172Z" fill="#263238"/>
<path d="M25.0696 142.709C25.0394 142.777 24.6903 142.67 24.2605 142.709C23.8308 142.748 23.4917 142.869 23.4548 142.803C23.4179 142.738 23.7402 142.478 24.2471 142.445C24.7541 142.412 25.1133 142.65 25.0696 142.709Z" fill="#263238"/>
<path d="M15.6525 78.2729V84.5794L17.3546 109.147C17.3546 109.147 16.2938 121.066 15.6424 127.796C15.0784 133.637 16.0017 143.813 16.0017 143.813H25.919L29.4777 109.88L31.6801 88.7066L35.5208 79.0841L15.6525 78.2729Z" fill="#263238"/>
<path d="M41.7686 79.3707L39.8684 113.649L29.8369 139.315L29.3736 140.859L23.4514 139.435L27.8561 78.7029L41.7686 79.3707Z" fill="#263238"/>
<path d="M31.6465 88.9672C31.6501 89.0149 31.6501 89.0628 31.6465 89.1105C31.6465 89.2147 31.6465 89.3515 31.6465 89.5274C31.6465 89.9053 31.6196 90.4461 31.5961 91.1366C31.5559 92.5308 31.4551 94.5472 31.3141 97.0392C31.0153 102.023 30.458 108.9 29.5851 116.47C28.7123 124.04 27.7823 130.874 27.0907 135.819C26.755 138.282 26.4562 140.279 26.2581 141.683C26.1574 142.367 26.0768 142.901 26.0231 143.272C25.9929 143.448 25.9727 143.598 25.956 143.686C25.9503 143.734 25.9402 143.78 25.9257 143.826V143.683C25.9257 143.582 25.956 143.445 25.9761 143.269C26.0231 142.895 26.0902 142.36 26.1775 141.673C26.3588 140.282 26.624 138.282 26.9531 135.81C27.6245 130.861 28.5343 124.027 29.3938 116.457C30.2532 108.887 30.8408 102.023 31.1731 97.0424C31.3309 94.5537 31.4518 92.5373 31.5089 91.1431C31.5458 90.4526 31.5726 89.9151 31.5928 89.5372C31.5928 89.3613 31.6129 89.2115 31.6196 89.1203C31.6228 89.0684 31.6318 89.0171 31.6465 88.9672Z" fill="#455A64"/>
<path d="M32.2743 80.3935C32.2717 80.4909 32.2395 80.5853 32.1819 80.665C32.1242 80.7447 32.0436 80.8061 31.9502 80.8416C31.8567 80.8771 31.7546 80.885 31.6565 80.8645C31.5584 80.8439 31.4687 80.7958 31.3987 80.726C31.3287 80.6563 31.2814 80.5681 31.2627 80.4724C31.2441 80.3767 31.255 80.2779 31.294 80.1881C31.333 80.0984 31.3983 80.0219 31.4819 79.968C31.5655 79.9142 31.6637 79.8854 31.764 79.8854C31.832 79.8858 31.8993 79.8993 31.9619 79.9252C32.0245 79.951 32.0812 79.9887 32.1286 80.036C32.1761 80.0832 32.2134 80.1392 32.2384 80.2006C32.2635 80.262 32.2756 80.3275 32.2743 80.3935Z" fill="#455A64"/>
<path d="M40.9931 85.182C40.7291 84.9987 40.4939 84.7793 40.2948 84.5305C39.7819 83.942 39.3611 83.2834 39.0459 82.576C38.7287 81.8696 38.5184 81.1225 38.4214 80.3577C38.3652 80.0435 38.3573 79.7229 38.3979 79.4065C38.4282 79.4065 38.4483 79.7681 38.549 80.3414C38.6845 81.0844 38.9099 81.8093 39.2205 82.5011C39.5327 83.1881 39.9283 83.8366 40.3989 84.4328C40.7547 84.9018 41.0132 85.1592 40.9931 85.182Z" fill="#455A64"/>
<path d="M39.808 47.3497C39.808 47.3497 41.7048 48.0729 42.5844 50.7701C43.1955 52.6464 46.0558 66.6144 46.0558 66.6144L42.0674 69.165L40.4459 56.0863L39.808 47.3497Z" fill="#E0E0E0"/>
<path d="M24.6399 40.6785L23.391 42.8284C23.391 42.8284 15.0415 46.9458 15.0717 47.3498C15.0717 47.3498 15.5384 62.7185 15.6257 73.9926C15.6592 78.2501 15.4981 82.1623 15.4108 84.0419C15.1792 88.977 14.9979 108.147 14.9979 108.147L45.2132 107.453L39.808 47.3498L35.5443 45.5419L35.0004 44.4636L33.0431 42.9196L24.6399 40.6785Z" fill="#E0E0E0"/>
<path d="M37.8708 107.613C37.8753 107.57 37.8753 107.526 37.8708 107.483C37.8708 107.388 37.8708 107.261 37.854 107.102C37.8339 106.753 37.807 106.258 37.7701 105.626C37.6929 104.339 37.5787 102.489 37.4344 100.212C37.149 95.632 36.7629 89.319 36.3231 82.3448C35.8833 75.3706 35.5342 69.0576 35.2622 64.4743C35.138 62.1941 35.0339 60.3471 34.9634 59.0572C34.9265 58.4252 34.8996 57.9333 34.8795 57.5848C34.8795 57.4252 34.8594 57.2981 34.8526 57.2037C34.8501 57.1599 34.8445 57.1164 34.8359 57.0734C34.8321 57.1167 34.8321 57.1603 34.8359 57.2037C34.8359 57.2981 34.8359 57.4252 34.8359 57.588C34.8359 57.9333 34.8627 58.4285 34.8862 59.0604C34.9332 60.3406 35.0172 62.1941 35.1279 64.4809C35.3495 69.0413 35.7054 75.3771 36.1351 82.3578C36.5648 89.3386 36.9811 95.6483 37.3001 100.219C37.4612 102.499 37.5955 104.342 37.6862 105.632C37.7365 106.261 37.7768 106.756 37.8037 107.102L37.8372 107.486C37.8435 107.529 37.8548 107.572 37.8708 107.613Z" fill="#263238"/>
<path d="M33.0431 42.9196L33.7448 47.6266L35.0004 57.0733L29.5281 47.9589L24.7776 41.9196L32.6067 47.2423L32.7041 42.8316" fill="#00A9FF"/>
<path d="M23.3541 43.1151C23.3922 43.2422 23.4428 43.3655 23.5052 43.4832C23.6227 43.7405 23.7771 44.0826 23.9718 44.5028L25.6706 48.086L25.6907 48.1316H25.7445H26.8859L26.8322 47.9818L25.9929 48.6496L25.9157 48.7114L25.9862 48.7799L27.5775 50.2913L32.6973 55.1091L34.2618 56.5522L34.6949 56.9398C34.7422 56.988 34.7951 57.0306 34.8527 57.0669C34.8157 57.0098 34.7705 56.9583 34.7184 56.9137L34.3122 56.5033L32.7846 55.0179L27.7051 50.1643C27.1579 49.6431 26.6207 49.1382 26.1104 48.6561V48.7831L26.9464 48.1121L27.131 47.9622H26.8893H25.7478L25.8217 48.0078C25.1066 46.5615 24.5023 45.3367 24.0625 44.4507C23.851 44.037 23.6831 43.7015 23.5555 43.4506C23.4975 43.3339 23.4302 43.2217 23.3541 43.1151Z" fill="#263238"/>
<path d="M35.0004 57.0635C35.0526 56.8711 35.0896 56.6751 35.1112 56.4772C35.1716 56.07 35.2488 55.5293 35.3428 54.8745C35.5308 53.5194 35.7793 51.6464 36.0411 49.5779L36.2829 47.6494V47.5745L36.2056 47.555L34.8325 47.2292V47.3856L36.209 47.1478L36.303 47.1315L36.2627 47.0501L35.3563 45.1379C35.2522 44.9327 35.1683 44.7601 35.0978 44.62C35.0727 44.5565 35.0376 44.4971 34.9937 44.4441C35.0077 44.5106 35.0303 44.5752 35.0608 44.6363C35.1213 44.7796 35.1951 44.962 35.2824 45.1705C35.4973 45.6591 35.786 46.3139 36.1318 47.1054L36.1855 47.011L34.8057 47.2292L34.4095 47.2911L34.799 47.3856L36.1687 47.7113L36.1016 47.6201C36.021 48.2325 35.9404 48.8808 35.8531 49.5453C35.5913 51.617 35.363 53.4901 35.2085 54.8484C35.138 55.4999 35.0776 56.0505 35.034 56.4772C35.0071 56.6715 34.9959 56.8675 35.0004 57.0635Z" fill="#263238"/>
<path d="M30.3304 82.2144H30.1357L29.5549 82.2503L27.3257 82.4066L19.3421 83.0028H19.2616V83.0809C19.3891 84.537 19.5301 86.1201 19.6779 87.788C19.7517 88.6262 19.8278 89.4829 19.9062 90.3581C19.9464 90.7979 19.9834 91.2376 20.0237 91.6839C20.0377 91.9149 20.0748 92.144 20.1345 92.368C20.2053 92.5993 20.3117 92.8189 20.45 93.0195C20.9019 93.6113 21.5764 94.0058 22.3267 94.1172C23.0327 94.2021 23.7439 94.2391 24.4552 94.228C25.7979 94.2315 27.1368 94.0895 28.447 93.8045C28.7578 93.7315 29.062 93.6346 29.3568 93.5146C29.5037 93.4569 29.6452 93.3872 29.7798 93.3061C29.8481 93.2618 29.9122 93.2117 29.9712 93.1563C30.0254 93.0986 30.0759 93.0376 30.1223 92.9739C30.4085 92.4629 30.5855 91.9012 30.6427 91.3223C30.7749 90.3059 30.8276 89.2812 30.8005 88.257C30.7702 86.3807 30.6326 84.8693 30.5285 83.8269C30.4782 83.3057 30.4278 82.905 30.3909 82.6314C30.3909 82.5011 30.3573 82.4001 30.3472 82.3056C30.3453 82.2699 30.3374 82.2347 30.3237 82.2014C30.3237 82.2014 30.3237 82.2372 30.3237 82.3089C30.3237 82.3806 30.3237 82.4913 30.3506 82.6347C30.3774 82.9213 30.411 83.322 30.4547 83.8334C30.5386 84.8758 30.6561 86.3873 30.6695 88.257C30.6848 89.274 30.6253 90.2908 30.4916 91.2995C30.4322 91.8556 30.2599 92.3948 29.9846 92.8859C29.8112 93.1151 29.5664 93.2841 29.2863 93.368C29.0001 93.4831 28.7049 93.5757 28.4034 93.6449C27.1058 93.9226 25.7806 94.0603 24.4519 94.0553C23.7518 94.0655 23.0518 94.0285 22.357 93.9446C21.6532 93.8408 21.0199 93.4721 20.5944 92.9185C20.4708 92.7369 20.3736 92.5395 20.3057 92.3321C20.2502 92.1186 20.2153 91.9005 20.2016 91.6806C20.1613 91.2344 20.121 90.7914 20.0841 90.3516C20.0035 89.4786 19.9263 88.6186 19.8491 87.7847C19.6947 86.1136 19.5503 84.5272 19.416 83.0777L19.3455 83.1624L27.272 82.4913L29.5146 82.2926L30.1122 82.2372C30.1854 82.2346 30.2583 82.227 30.3304 82.2144Z" fill="#263238"/>
<g opacity="0.3">
<path d="M20.1513 92.1595C21.004 94.316 23.2299 94.4398 25.6269 94.114C27.8797 93.7883 30.0484 93.3355 30.2163 92.7101C30.1559 93.8534 29.2897 94.7297 28.202 95.189C27.0975 95.5985 25.9119 95.76 24.7339 95.6613C23.5018 95.6059 22.4376 95.6613 21.4203 94.9805C20.4031 94.2997 20.1479 93.1433 20.1513 92.1595Z" fill="black"/>
</g>
<path d="M43.0041 82.8822C43.0011 82.8551 43.0011 82.8278 43.0041 82.8008L42.9738 82.5662C42.9515 82.3491 42.9179 82.0461 42.8731 81.6574C42.7925 80.8495 42.6784 79.7029 42.5374 78.3087C42.2621 75.4812 41.8928 71.5723 41.5034 67.2561C41.1139 62.94 40.7782 59.0277 40.5533 56.1807C40.4425 54.7637 40.3619 53.6171 40.3149 52.8255C40.288 52.4281 40.278 52.1219 40.2712 51.9102C40.2712 51.8157 40.2712 51.7375 40.2712 51.6724C40.2664 51.6454 40.2664 51.6179 40.2712 51.5909C40.3518 52.5095 40.9125 58.7346 41.6779 67.2268C42.0607 71.5397 42.4098 75.4421 42.6616 78.2859C42.7791 79.6899 42.8765 80.83 42.9436 81.6378C42.9738 82.0222 42.9973 82.3284 43.0141 82.5499C43.0141 82.6444 43.0141 82.7226 43.0141 82.7877C43.0155 82.8195 43.0121 82.8513 43.0041 82.8822Z" fill="#263238"/>
<path d="M47.382 66.9239C47.5108 67.3752 47.5585 67.8446 47.523 68.3116C47.4525 69.025 47.4189 70.7775 45.4616 71.3769C43.5043 71.9762 42.5542 71.4029 41.9533 70.5983L41.6545 67.1128L43.7494 65.7708L47.382 66.9239Z" fill="#E0E0E0"/>
<g opacity="0.3">
<path d="M31.0288 69.165C31.0288 69.165 26.0231 73.9633 22.1354 74.6539C18.2477 75.3445 16.8578 74.0024 15.8238 70.6244L31.0288 69.165Z" fill="black"/>
</g>
<path d="M15.1624 47.2325C15.1624 47.2325 11.983 50.0926 12.8895 56.8649C13.7288 63.1583 15.2396 71.9209 17.2136 72.9405C19.1877 73.9601 23.5018 73.4487 26.6475 71.7189C29.7933 69.9892 38.9082 65.3115 38.9082 65.3115L35.1347 58.7966L22.978 63.357C22.978 63.357 21.4068 52.9331 20.4635 51.122" fill="#E0E0E0"/>
<path d="M20.4131 51.0014C20.4131 51.0014 20.4467 51.0698 20.5071 51.2033C20.534 51.2685 20.5743 51.3499 20.6146 51.4509C20.6549 51.5519 20.6884 51.6757 20.7354 51.8092C20.9134 52.3499 21.1249 53.1611 21.3565 54.2165C21.8265 56.3241 22.3939 59.3991 22.9915 63.2299L22.9042 63.1778L35.0541 58.5847L35.1213 58.5587L35.1582 58.6206C36.35 60.6793 37.6191 62.8553 38.9351 65.1355L38.9787 65.2137L38.8982 65.256L31.1026 69.3311L27.2787 71.328C26.6509 71.6537 26.0265 71.9957 25.3785 72.2661C24.732 72.5312 24.068 72.7543 23.391 72.9339C22.0724 73.2923 20.7036 73.4462 19.3355 73.3899C18.6685 73.3612 18.0114 73.2235 17.3916 72.9827L17.1633 72.885C17.0894 72.8492 17.0189 72.7971 16.9451 72.7515C16.8203 72.6488 16.7077 72.533 16.6094 72.4062C16.4095 72.1562 16.2374 71.8865 16.0957 71.6016C15.5719 70.5061 15.1625 69.3624 14.8737 68.1878C14.5681 67.0574 14.3264 65.9466 14.1082 64.8684C13.6785 62.7152 13.3595 60.6956 13.101 58.8486C12.8425 57.0016 12.5974 55.3208 12.6679 53.8321C12.7011 52.5598 12.9343 51.2998 13.3595 50.0958C13.6351 49.3374 14.0231 48.6219 14.5111 47.9719C14.6393 47.8039 14.7783 47.644 14.9274 47.4931C14.9783 47.4424 15.0321 47.3946 15.0885 47.3497L14.9408 47.5061C14.7985 47.6606 14.6652 47.8227 14.5413 47.9915C14.0687 48.6462 13.6934 49.3623 13.4267 50.1186C13.0101 51.3174 12.7837 52.5706 12.7552 53.8354C12.6948 55.3142 12.9365 56.9853 13.2118 58.8291C13.4871 60.6728 13.8128 62.6924 14.2492 64.8423C14.4674 65.914 14.7125 67.0216 15.0214 68.1487C15.3088 69.3119 15.7148 70.4446 16.2333 71.5299C16.3689 71.8022 16.532 72.0608 16.7201 72.3019C16.8194 72.4222 16.9319 72.5314 17.0559 72.6277C17.1179 72.6702 17.1829 72.7083 17.2506 72.7417L17.4655 72.8362C18.0701 73.0656 18.7102 73.1944 19.359 73.2173C20.708 73.2708 22.0573 73.118 23.3574 72.7645C24.0247 72.5883 24.6796 72.3707 25.3181 72.113C25.9627 71.8426 26.5737 71.5071 27.2049 71.1814L31.0288 69.1813L38.8277 65.1094L38.7907 65.2267L35.0239 58.7118L35.128 58.7476L22.9646 63.3081L22.8874 63.3374V63.2592C22.3066 59.4317 21.7594 56.3534 21.3129 54.2425C21.0947 53.1871 20.8932 52.3728 20.7254 51.832C20.6851 51.6985 20.6481 51.5779 20.6146 51.4737L20.5172 51.2229C20.4501 51.073 20.4131 51.0014 20.4131 51.0014Z" fill="#263238"/>
<path d="M24.7775 58.8063H30.8105V56.8583H24.7775V58.8063Z" fill="white"/>
<path d="M26.0264 57.715C26.6488 57.6273 27.2784 57.5978 27.9065 57.6271C28.5358 57.5978 29.1665 57.6272 29.7899 57.715C29.1661 57.7987 28.5357 57.8271 27.9065 57.7997C27.2785 57.827 26.6492 57.7987 26.0264 57.715Z" fill="#263238"/>
<g opacity="0.3">
<path d="M34.6949 56.9463L25.8149 49.9558L26.0265 49.3467H25.2543L23.9718 44.5028L25.8183 48.0209L26.8859 47.972L26.1104 48.6626L34.6949 56.9463Z" fill="black"/>
</g>
<path d="M23.7267 48.9785L24.0625 48.8482C24.0625 48.832 23.3339 47.1478 22.6188 45.3627C22.362 44.8142 22.2578 44.21 22.3167 43.6102C22.3569 43.4216 22.4645 43.2527 22.6206 43.1335C22.7766 43.0143 22.971 42.9524 23.1694 42.9587L23.4044 42.8382L23.5253 42.6297C22.9042 42.4994 22.0716 43.0043 21.9709 43.5614C21.9054 44.2238 22.0212 44.8912 22.3066 45.4963C22.9949 47.2912 23.7167 48.9622 23.7267 48.9785Z" fill="#455A64"/>
<path d="M23.203 52.9136L23.6495 52.7442C23.2836 51.8288 22.7833 50.2099 22.9982 49.7538C23.1041 49.591 23.2445 49.452 23.4101 49.3458C23.5756 49.2397 23.7625 49.1689 23.9584 49.1382C24.1982 49.0767 24.4494 49.07 24.6923 49.1186C24.9352 49.1672 25.1632 49.2698 25.3583 49.4183C25.8686 49.8385 26.6408 51.3174 26.896 51.8549L27.3291 51.6594C27.2921 51.578 26.3655 49.6333 25.6672 49.0535C25.4159 48.8584 25.1213 48.7227 24.8067 48.6571C24.492 48.5915 24.166 48.5978 23.8543 48.6756C23.5838 48.7211 23.3273 48.8253 23.1041 48.9804C22.8808 49.1355 22.6966 49.3375 22.5651 49.5714C22.2025 50.3271 23.0318 52.5031 23.203 52.9136Z" fill="#455A64"/>
<path d="M28.024 59.9758C28.5746 59.9758 29.1185 59.6891 29.6388 59.1223L29.4575 58.966C28.8868 59.5946 28.2959 59.8422 27.7118 59.7087C25.3248 59.1647 23.5051 52.7312 23.4884 52.666L23.2567 52.7246C23.3339 52.995 25.13 59.3601 27.6547 59.9334C27.7756 59.962 27.8996 59.9762 28.024 59.9758Z" fill="#263238"/>
<path d="M29.1789 59.3861C29.2274 59.4332 29.2918 59.4617 29.3602 59.4665C29.4287 59.4713 29.4966 59.452 29.5516 59.4121L30.0686 59.0375C30.1072 59.0141 30.1405 58.9833 30.1664 58.9471C30.1924 58.9108 30.2104 58.8698 30.2195 58.8265C30.2286 58.7832 30.2286 58.7386 30.2194 58.6954C30.2102 58.6522 30.192 58.6112 30.166 58.575C30.1385 58.5332 30.1016 58.498 30.0581 58.4721C30.0146 58.4463 29.9655 58.4304 29.9147 58.4257C29.8639 58.421 29.8126 58.4276 29.7648 58.445C29.717 58.4624 29.6739 58.4901 29.6389 58.5261L29.1722 58.9952C29.1198 59.0479 29.0911 59.1187 29.0923 59.192C29.0936 59.2652 29.1247 59.335 29.1789 59.3861Z" fill="#263238"/>
<path d="M27.0101 60.1875C27.3207 60.2106 27.6324 60.1581 27.9167 60.0346C28.2011 59.9112 28.4492 59.7207 28.6384 59.4807C30.1055 57.4838 27.3391 51.9396 27.2216 51.7051L27.0068 51.8061C27.0336 51.8647 29.8302 57.461 28.4437 59.3471C28.0811 59.839 27.4365 60.0344 26.5569 59.9269L26.5267 60.155C26.6869 60.1766 26.8484 60.1875 27.0101 60.1875Z" fill="#263238"/>
<path d="M27.0537 60.0605C27.0491 60.1267 27.0202 60.1891 26.9721 60.2363C26.924 60.2836 26.8601 60.3125 26.7919 60.3178L26.1473 60.3699C26.1026 60.3768 26.057 60.3749 26.0132 60.3642C25.9693 60.3536 25.9281 60.3345 25.892 60.308C25.856 60.2815 25.8258 60.2483 25.8033 60.2102C25.7808 60.1722 25.7665 60.1301 25.7612 60.0865C25.7528 60.0376 25.7561 59.9875 25.7707 59.94C25.7854 59.8925 25.811 59.8488 25.8456 59.8124C25.8803 59.776 25.923 59.7477 25.9707 59.7297C26.0183 59.7117 26.0695 59.7045 26.1204 59.7087L26.7919 59.764C26.8667 59.7707 26.9359 59.8054 26.9848 59.8607C27.0337 59.916 27.0584 59.9877 27.0537 60.0605Z" fill="#263238"/>
<path d="M38.5423 53.2588C39.4842 53.2588 40.2478 52.5179 40.2478 51.604C40.2478 50.6901 39.4842 49.9492 38.5423 49.9492C37.6004 49.9492 36.8368 50.6901 36.8368 51.604C36.8368 52.5179 37.6004 53.2588 38.5423 53.2588Z" fill="#263238"/>
<path d="M38.5423 53.2588C39.4842 53.2588 40.2478 52.5179 40.2478 51.604C40.2478 50.6901 39.4842 49.9492 38.5423 49.9492C37.6004 49.9492 36.8368 50.6901 36.8368 51.604C36.8368 52.5179 37.6004 53.2588 38.5423 53.2588Z" fill="#263238"/>
<path d="M37.2833 51.604C37.2827 51.8465 37.3562 52.0838 37.4947 52.2857C37.6331 52.4876 37.8302 52.6451 38.061 52.7382C38.2918 52.8313 38.5459 52.8558 38.7911 52.8087C39.0363 52.7615 39.2615 52.6448 39.4382 52.4733C39.615 52.3018 39.7353 52.0833 39.7839 51.8454C39.8325 51.6075 39.8072 51.361 39.7112 51.137C39.6153 50.9131 39.453 50.7218 39.2449 50.5875C39.0368 50.4532 38.7922 50.3818 38.5423 50.3825C38.2084 50.3825 37.8882 50.5111 37.6521 50.7402C37.416 50.9693 37.2833 51.28 37.2833 51.604Z" fill="#E0E0E0"/>
<path d="M34.9232 44.3953C35.0843 44.62 36.867 48.2717 37.8406 50.1121L38.126 49.9688C37.9816 49.6984 35.3898 44.5093 35.1884 44.2194L33.3016 42.7307L33.2345 43.0793L34.9232 44.3953Z" fill="#455A64"/>
<path d="M34.2081 51.5649C35.4436 52.7604 38.5725 55.8713 38.5725 55.8713L39.4085 55.3827L35.0038 50.8222C34.9144 50.7298 34.7941 50.6712 34.6644 50.6569C34.5346 50.6425 34.4038 50.6734 34.2954 50.744C34.2276 50.7876 34.1706 50.8453 34.1285 50.9128C34.0864 50.9803 34.0603 51.056 34.0519 51.1345C34.0436 51.213 34.0532 51.2923 34.0803 51.3667C34.1073 51.4411 34.1509 51.5088 34.2081 51.5649Z" fill="#263238"/>
<path d="M35.0978 58.663L36.1486 55.7899C36.2576 55.4799 36.4604 55.209 36.7305 55.0126C37.0006 54.8162 37.3255 54.7034 37.6627 54.6888H37.8205C38.4517 54.7572 41.6646 54.9625 41.6646 54.9625L42.9067 56.3143C43.0089 56.4268 43.0653 56.5716 43.0653 56.7215C43.0653 56.8714 43.0089 57.0162 42.9067 57.1287L43.266 59.5718L42.571 60.0409L42.6415 61.7478C42.6415 61.7478 42.0137 62.1517 41.7351 62.0181L41.453 61.8813L41.0367 61.4741L39.8483 63.1029L38.2066 64.0247L35.0978 58.663Z" fill="#FFBF9D"/>
<path d="M42.9269 57.2655C42.7865 57.0998 42.6363 56.9421 42.477 56.7932C42.2983 56.6443 42.0951 56.5254 41.8761 56.4414C41.5907 56.376 41.2995 56.3378 41.0065 56.3274C40.2353 56.2862 39.4686 56.186 38.7135 56.0277C39.4856 56.0099 40.258 56.0513 41.0233 56.1515C41.3312 56.1613 41.6367 56.2072 41.9331 56.2883C42.1685 56.385 42.3827 56.5243 42.5643 56.6987C42.7463 56.8437 42.8737 57.043 42.9269 57.2655Z" fill="#FF9A6C"/>
<path d="M42.8564 59.5099C42.7845 59.2971 42.6982 59.0893 42.5979 58.8877C42.3112 58.4263 41.874 58.071 41.3557 57.8779C40.8282 57.6937 40.2712 57.6021 39.7106 57.6075C39.4755 57.623 39.2394 57.6165 39.0056 57.588C39.2328 57.5144 39.4712 57.4792 39.7106 57.4837C40.2916 57.4401 40.8755 57.5178 41.4228 57.7117C41.9798 57.9173 42.4389 58.3152 42.712 58.829C42.838 59.0337 42.8889 59.2736 42.8564 59.5099Z" fill="#FF9A6C"/>
<path d="M42.5408 61.6045C42.4246 61.3992 42.3667 61.1676 42.3729 60.9334C42.3593 60.6933 42.306 60.4568 42.2151 60.2331C42.1531 60.1048 42.0594 59.9933 41.9422 59.9086C41.8251 59.8239 41.6882 59.7687 41.5437 59.7477C40.9903 59.6327 40.4294 59.5544 39.8651 59.5132C39.6253 59.5039 39.3896 59.4508 39.1701 59.3568C39.4067 59.3514 39.6435 59.3623 39.8785 59.3894C40.4532 59.3939 41.0258 59.4561 41.5873 59.5751C41.7565 59.6159 41.916 59.6878 42.0573 59.7868C42.1887 59.8864 42.2906 60.0179 42.3528 60.1679C42.4445 60.4098 42.4889 60.6661 42.4837 60.9237C42.5005 61.3471 42.571 61.5947 42.5408 61.6045Z" fill="#FF9A6C"/>
<path d="M44.2933 56.2166L30.4345 70.1031L30.9683 70.6276L40.8957 69.5429L54.2542 57.1938L54.2408 56.6009L44.2933 56.2166Z" fill="#455A64"/>
<g opacity="0.3">
<path d="M46.8884 62.6924C46.5619 62.4035 46.1766 62.1841 45.7574 62.0483C45.3382 61.9125 44.8944 61.8634 44.4544 61.9041C43.5731 61.9918 42.7387 62.332 42.0574 62.8814C41.4804 63.2915 41.06 63.8758 40.8622 64.5427C40.5802 65.7089 41.5706 67.3409 42.6617 67.9077C44.0449 66.8294 45.3911 65.1746 46.7743 64.0997C46.9987 63.9588 47.1678 63.7489 47.2544 63.5036C47.266 63.3497 47.2388 63.1953 47.175 63.054C47.1112 62.9126 47.0129 62.7885 46.8884 62.6924Z" fill="black"/>
</g>
<path d="M54.2005 57.1678C54.1402 57.1719 54.0796 57.1719 54.0192 57.1678H53.4888L51.5013 57.145L44.5853 57.0277L44.6491 57.0017L41.1777 60.4969L33.9764 67.6862L31.7808 69.8491L31.1765 70.4322C31.1083 70.502 31.0354 70.5673 30.9583 70.6277C31.0175 70.5524 31.0838 70.4826 31.1563 70.4192L31.7371 69.8133L33.8925 67.6113C35.7356 65.7512 38.2569 63.2006 41.0535 60.3862C42.2789 59.1549 43.4573 57.9757 44.5316 56.9007L44.5585 56.8746H44.5853L51.4912 57.0668L53.4754 57.1352L54.0058 57.1613C54.0708 57.1565 54.1361 57.1587 54.2005 57.1678Z" fill="#263238"/>
<path d="M45.5254 61.2396C45.5254 61.2396 46.8683 61.2657 47.3081 61.4774C47.7479 61.6892 48.9498 62.927 48.9498 62.927C48.9498 62.927 48.9498 63.7739 48.6141 63.8065C48.657 63.996 48.6806 64.1891 48.6846 64.3831C48.7182 64.8587 48.7886 65.129 48.1239 65.5362C48.1239 65.5362 48.1944 66.3148 47.9493 66.5135C47.7836 66.6486 47.6087 66.7727 47.4256 66.8848C47.4256 66.8848 47.3887 67.7415 46.2036 67.7318L45.0923 68.2073C45.0923 68.2073 42.6214 67.9826 42.8832 67.6992C43.1451 67.4158 43.7393 66.0118 43.7393 66.0118C43.7393 66.0118 42.0607 64.8163 42.0809 64.445C42.101 64.0736 42.2554 64.0378 42.2554 64.0378C42.2554 64.0378 42.1883 63.3277 42.7792 63.2593C42.7792 63.2593 43.2358 62.3765 43.689 62.3439C44.1422 62.3113 47.2175 63.3928 47.2175 63.3928L46.0659 62.4449C46.0659 62.4449 44.911 62.2755 44.948 61.9009C44.9849 61.5263 45.5254 61.2396 45.5254 61.2396Z" fill="#FFBF9D"/>
<path d="M45.324 65.7056C44.7909 65.4876 44.2698 65.2429 43.7628 64.9727C43.2297 64.7512 42.7087 64.5033 42.2017 64.23C42.7768 64.3339 43.331 64.5263 43.8434 64.8C44.3827 65.0248 44.8823 65.3304 45.324 65.7056Z" fill="#FF9A6C"/>
<path d="M46.9354 64.6698C46.2467 64.5151 45.5728 64.3037 44.9211 64.0378C44.2516 63.827 43.6023 63.56 42.9806 63.2397C43.6694 63.3944 44.3433 63.6058 44.9949 63.8717C45.6644 64.0825 46.3137 64.3495 46.9354 64.6698Z" fill="#FF9A6C"/>
<path d="M25.0528 34.6522C24.6061 33.1748 24.2893 31.6634 24.1061 30.1341C23.923 28.5974 24.1353 27.0406 24.7238 25.6029C24.8212 25.3879 25.6135 23.9742 25.8485 23.9937C26.0197 24.0165 25.5128 25.3619 25.5866 25.5117C26.3387 26.9255 26.473 28.59 26.2581 30.1699C26.0339 31.7024 25.6342 33.2057 25.0663 34.6522" fill="#263238"/>
<path d="M25.2107 28.7789C25.2845 24.9156 27.6648 21.7428 31.6398 21.9383L32.0057 21.9774C33.786 22.1556 35.4316 22.9786 36.614 24.2823C37.7964 25.5859 38.4286 27.2742 38.3845 29.0102C38.3006 32.3556 38.1629 36.0496 37.9481 37.8282C37.5016 41.5059 33.6407 41.6916 33.6407 41.6916L32.7611 47.3661L24.6399 41.887L25.2107 28.7789Z" fill="#FFBF9D"/>
<path d="M33.6273 41.7046C31.8737 41.5197 30.2113 40.8517 28.8365 39.7794C28.8365 39.7794 29.5952 42.9294 33.4191 42.9848L33.6273 41.7046Z" fill="#FF9A6C"/>
<path d="M36.9241 32.0755C36.9105 32.2127 36.8421 32.3392 36.7335 32.4281C36.625 32.517 36.4849 32.5611 36.3433 32.5511C36.2738 32.5495 36.2053 32.5343 36.1419 32.5066C36.0786 32.4788 36.0216 32.439 35.9743 32.3895C35.927 32.34 35.8905 32.2818 35.8668 32.2184C35.8431 32.1549 35.8328 32.0875 35.8364 32.0202C35.85 31.8828 35.9183 31.7559 36.0267 31.6665C36.1352 31.5771 36.2752 31.5322 36.4172 31.5413C36.4868 31.5434 36.5554 31.5589 36.6188 31.5871C36.6822 31.6152 36.7392 31.6553 36.7864 31.705C36.8336 31.7548 36.8701 31.8132 36.8937 31.8768C36.9174 31.9404 36.9277 32.008 36.9241 32.0755Z" fill="#263238"/>
<path d="M37.3941 30.4402C37.3202 30.4988 36.9409 30.1633 36.3567 30.1144C35.7725 30.0656 35.316 30.2969 35.2589 30.2219C35.2018 30.147 35.3126 30.0688 35.514 29.9581C35.785 29.8127 36.0962 29.7535 36.4037 29.7887C36.7067 29.8185 36.9923 29.9405 37.2195 30.1373C37.384 30.2806 37.431 30.4109 37.3941 30.4402Z" fill="#263238"/>
<path d="M31.9319 31.8475C31.9182 31.9849 31.8499 32.1117 31.7415 32.2011C31.6331 32.2905 31.493 32.3354 31.3511 32.3263C31.2814 32.3242 31.2128 32.3087 31.1494 32.2806C31.086 32.2525 31.0291 32.2123 30.9819 32.1626C30.9346 32.1128 30.8981 32.0544 30.8745 31.9908C30.8508 31.9272 30.8405 31.8596 30.8441 31.7921C30.8618 31.6576 30.9318 31.5348 31.0398 31.4488C31.1478 31.3628 31.2856 31.3201 31.4249 31.3295C31.4933 31.3312 31.5606 31.346 31.6231 31.3729C31.6855 31.3998 31.7419 31.4385 31.789 31.4866C31.8361 31.5347 31.8729 31.5913 31.8974 31.6532C31.922 31.7152 31.9337 31.7812 31.9319 31.8475Z" fill="#263238"/>
<path d="M31.6532 30.0819C31.5793 30.1438 31.2 29.8083 30.6158 29.7562C30.0316 29.7041 29.5751 29.9386 29.518 29.8604C29.4609 29.7822 29.5717 29.7106 29.7731 29.5998C30.0441 29.4545 30.3553 29.3952 30.6628 29.4304C30.9658 29.4602 31.2514 29.5822 31.4786 29.779C31.6431 29.9256 31.6901 30.0559 31.6532 30.0819Z" fill="#263238"/>
<path d="M33.2748 34.6489C33.5926 34.5852 33.9177 34.5622 34.2417 34.5805C34.3894 34.5805 34.5337 34.5805 34.5774 34.4697C34.606 34.3212 34.5872 34.1678 34.5237 34.0299L34.2047 32.8833C33.7616 31.2546 33.4594 29.919 33.5333 29.9027C33.6071 29.8864 34.0134 31.2057 34.4565 32.8345C34.5606 33.2351 34.6613 33.6195 34.7587 33.9843C34.8282 34.1706 34.8282 34.3746 34.7587 34.5609C34.7319 34.6094 34.6941 34.6513 34.6482 34.6835C34.6022 34.7157 34.5493 34.7373 34.4935 34.7466C34.4076 34.7574 34.3208 34.7574 34.2349 34.7466C33.912 34.7524 33.5895 34.7195 33.2748 34.6489Z" fill="#263238"/>
<path d="M31.5156 34.8639C31.6096 34.8639 31.5458 35.4828 32.0393 35.9747C32.5328 36.4665 33.2143 36.4665 33.211 36.5545C33.2076 36.6424 33.0465 36.6587 32.7611 36.6359C32.3898 36.6034 32.0424 36.4441 31.7808 36.1864C31.5282 35.9405 31.3848 35.6084 31.3813 35.2613C31.3846 35.0007 31.4719 34.8573 31.5156 34.8639Z" fill="#263238"/>
<path d="M31.8714 27.7822C31.7976 27.9288 31.2235 27.7822 30.5285 27.8082C29.8336 27.8343 29.2629 27.9418 29.1856 27.8082C29.1521 27.7366 29.2662 27.603 29.5214 27.4825C29.8334 27.3287 30.1785 27.2483 30.5285 27.248C30.8777 27.2461 31.2225 27.3231 31.5357 27.4727C31.7909 27.577 31.905 27.7105 31.8714 27.7822Z" fill="#263238"/>
<path d="M37.3572 28.5314C37.2397 28.6487 36.8536 28.476 36.3702 28.4206C35.8867 28.3653 35.4704 28.4206 35.3899 28.2708C35.3563 28.2024 35.4335 28.0786 35.6249 27.9744C35.8801 27.8503 36.1685 27.806 36.4507 27.8473C36.7339 27.8748 37.0008 27.9889 37.2128 28.1731C37.3673 28.3359 37.4109 28.4728 37.3572 28.5314Z" fill="#263238"/>
<path d="M25.2241 31.5381C25.1603 31.5022 22.696 30.5217 22.5047 33.0495C22.3133 35.5773 24.9689 35.2418 24.979 35.1701C24.989 35.0985 25.2241 31.5381 25.2241 31.5381Z" fill="#FFBF9D"/>
<path d="M24.2538 34.1538C24.2538 34.1538 24.2068 34.1831 24.1262 34.2125C24.0157 34.2467 23.896 34.2397 23.7905 34.1929C23.5253 34.0756 23.3238 33.6359 23.344 33.1798C23.3552 32.9626 23.4147 32.7504 23.5186 32.5577C23.5473 32.4778 23.5962 32.4062 23.6607 32.3494C23.7251 32.2925 23.8032 32.2521 23.8879 32.2319C23.9411 32.2216 23.9963 32.2301 24.0437 32.2558C24.0911 32.2814 24.1275 32.3226 24.1464 32.372C24.1766 32.4437 24.1464 32.4925 24.1699 32.499C24.1934 32.5055 24.2269 32.4599 24.2135 32.3557C24.2039 32.2918 24.1719 32.2332 24.1229 32.1896C24.0896 32.1609 24.0508 32.139 24.0088 32.125C23.9667 32.111 23.9222 32.1053 23.8778 32.1081C23.7689 32.12 23.6652 32.1594 23.5768 32.2222C23.4885 32.2851 23.4186 32.3693 23.3742 32.4665C23.2476 32.6768 23.1751 32.9137 23.1627 33.157C23.1426 33.6685 23.3742 34.1636 23.7435 34.2972C23.812 34.3218 23.8853 34.3311 23.958 34.3243C24.0306 34.3176 24.1008 34.2949 24.1632 34.2581C24.2471 34.2157 24.2639 34.1603 24.2538 34.1538Z" fill="#FF9A6C"/>
<path d="M36.9644 24.6974C37.4008 24.4986 36.2224 23.0947 35.2153 22.5735C33.6944 21.7852 31.3309 21.2119 29.8437 21.5181C28.071 21.8894 26.5703 22.6386 25.5967 24.124C24.6522 25.6355 24.1389 27.3634 24.1095 29.1308C24.052 29.6677 24.1435 30.2098 24.3747 30.7009C24.7104 31.2807 25.3819 31.6781 25.2946 32.4469C25.2756 32.5857 25.2851 32.7269 25.3225 32.8622C25.36 32.9975 25.4246 33.1242 25.5128 33.2352C25.9593 33.7596 26.5703 33.3329 26.8725 32.8866C27.5104 31.9289 27.6514 30.753 27.7789 29.6292C27.915 28.83 27.915 28.0146 27.7789 27.2154C27.6782 26.7854 27.5003 26.3749 27.4432 25.9384C27.3918 25.7235 27.3892 25.5003 27.4356 25.2843C27.482 25.0683 27.5762 24.8647 27.7118 24.6876C27.7805 24.6169 27.8558 24.5526 27.9367 24.4954C28.321 24.2109 28.7763 24.0308 29.256 23.9736C29.7356 23.9163 30.2224 23.984 30.6662 24.1696C32.0997 24.7658 34.5572 25.6746 35.2455 25.2316C36.2325 24.5964 36.4877 24.1566 36.4877 24.1566L36.9644 24.6974Z" fill="#263238"/>
</svg>
