<svg width="60" height="76" viewBox="0 0 60 76" fill="none" xmlns="http://www.w3.org/2000/svg">
<path d="M40.482 33.7434C40.6233 33.7914 40.7686 33.8141 40.91 33.8141C41.466 33.8141 41.9846 33.4647 42.1726 32.9087C42.5899 31.6848 43.9246 31.0275 45.1485 31.4421C47.7645 32.3274 50.6191 30.9235 51.5057 28.3062C51.7431 27.6102 51.3697 26.8515 50.6724 26.6142C49.9724 26.3782 49.2178 26.7515 48.9805 27.4489C48.5645 28.6742 47.2298 29.3315 46.0045 28.9155C43.3926 28.0342 40.5353 29.4355 39.6473 32.0514C39.4113 32.7474 39.7847 33.5061 40.482 33.7434Z" fill="white"/>
<path d="M43.6366 24.4529C43.7779 24.5009 43.9232 24.5236 44.0646 24.5236C44.6206 24.5236 45.1392 24.1743 45.3272 23.6183C45.5285 23.025 45.9485 22.545 46.5112 22.2677C47.0738 21.9903 47.7098 21.9503 48.3031 22.1517C50.9191 23.037 53.7723 21.633 54.6603 19.0144C54.8977 18.3184 54.523 17.5598 53.827 17.3224C53.1297 17.0824 52.3724 17.4598 52.1364 18.1571C51.7204 19.3837 50.3884 20.041 49.1605 19.625C47.8911 19.1944 46.5325 19.2824 45.3325 19.8757C44.1326 20.4677 43.2339 21.493 42.8033 22.761C42.5646 23.4583 42.9393 24.2156 43.6366 24.4529Z" fill="white"/>
<path d="M46.7885 15.1624C46.9311 15.2104 47.0751 15.2331 47.2178 15.2331C47.7738 15.2331 48.2925 14.8838 48.4804 14.3278C48.7871 13.4238 49.7751 12.9372 50.6777 13.2438C51.791 13.6211 52.9843 13.5438 54.039 13.0252C55.0923 12.5052 55.8803 11.6065 56.2589 10.4932C56.4963 9.79722 56.1229 9.03857 55.4256 8.80125C54.7256 8.56259 53.971 8.93858 53.7337 9.6359C53.5843 10.0746 53.2737 10.4292 52.859 10.6332C52.4444 10.8372 51.975 10.8679 51.535 10.7172C49.2391 9.94255 46.7338 11.1745 45.9552 13.4691C45.7192 14.1678 46.0912 14.9251 46.7885 15.1624Z" fill="white"/>
<path d="M56.4469 33.6447C56.215 33.4861 55.9536 33.3954 55.687 33.3607C58.3362 24.7516 59.7895 16.3171 59.9975 8.28395C60.0629 5.75735 58.8282 2.38409 56.339 0.82279C55.1443 0.0721407 53.187 -0.546512 50.6457 0.761459C46.6632 2.81608 43.8152 8.85994 41.5273 13.7185C41.3953 13.9985 41.266 14.2718 41.138 14.5425C40.6326 12.2185 39.0967 10.2306 36.9127 9.19327C36.3981 6.71866 34.4354 4.78003 31.9688 4.27738C31.9422 4.13872 31.9088 4.00272 31.8675 3.86539C31.3595 2.12943 29.8275 0.822791 28.0556 0.612129C27.0569 0.493465 26.0676 0.700127 25.2223 1.19478C24.5023 0.793458 23.6944 0.580129 22.865 0.580129C20.5464 0.580129 18.5985 2.19743 18.0905 4.36138C15.5559 5.05203 13.6972 7.37864 13.6772 10.0826C10.7853 10.8292 8.67869 13.4425 8.67869 16.5504C8.67869 17.3744 8.83336 18.1904 9.13069 18.9597C8.38004 19.8864 7.96405 21.0463 7.96405 22.2636C7.96405 22.9943 8.11471 23.6983 8.3987 24.3489C7.06673 22.8956 5.19211 21.7077 3.08682 21.785C2.35084 21.809 1.77218 22.4236 1.79485 23.1596C1.81752 23.8809 2.4095 24.4516 3.12682 24.4516C3.17215 24.4529 3.21349 24.4489 3.25615 24.4489C4.50546 24.4489 5.66676 25.2756 6.51208 26.2355C4.39746 26.8449 1.84818 27.8368 0.658876 30.0795C-0.0571079 31.4328 -0.141106 33.0927 0.336217 34.994C0.105556 35.3793 -0.0211082 35.8273 0.00289122 36.3047L2.27217 68.5533C2.47883 72.5972 5.81209 75.7638 9.86 75.7638H47.2872C51.3351 75.7638 54.6683 72.5972 54.8737 68.5773L57.2003 35.2073C57.2003 35.1993 57.2016 35.1913 57.2016 35.1833C57.2389 34.5687 56.9549 33.994 56.4469 33.6447ZM42.2259 18.3557C42.7539 17.3704 43.3299 16.1491 43.9392 14.8545C45.9432 10.5986 48.6898 4.7707 51.8671 3.13074C53.027 2.53342 54.0257 2.52142 54.9217 3.08007C56.467 4.05072 57.3763 6.5 57.3323 8.21462C57.1283 16.0971 55.6883 24.3929 53.051 32.8727C52.9644 33.1514 52.7724 33.714 52.499 34.486L50.2271 35.4953C50.1778 35.518 50.1298 35.542 50.0831 35.5713C49.4271 35.9647 48.6911 36.1593 47.9551 36.1673C47.2192 36.1593 46.4845 35.9647 45.8285 35.5713L44.8779 35.0007C43.7846 34.3447 42.5593 34.0167 41.334 34.0167C41.3193 34.0167 41.3046 34.0194 41.2886 34.0194C40.0487 34.0114 38.806 34.3354 37.6994 35.0007L36.7501 35.5713C36.2207 35.8887 35.6354 36.0433 35.0434 36.11C35.0768 35.994 35.1154 35.8807 35.1501 35.766C35.5154 34.5247 35.9074 33.3007 36.3181 32.0861C36.4741 31.6248 36.6367 31.1661 36.7994 30.7088C37.1421 29.7448 37.5007 28.7928 37.8714 27.8475C38.0367 27.4249 38.198 26.9982 38.3687 26.5795C39.5313 23.7436 40.814 20.993 42.2259 18.3557ZM25.229 21.5183C25.385 21.3183 25.537 21.1237 25.681 20.9343C25.681 20.9317 25.6823 20.9303 25.6836 20.929C25.789 20.789 25.881 20.6437 25.9583 20.4983C26.2863 19.881 26.3636 19.1877 26.2116 18.5104L31.7768 17.2931C31.8142 17.4637 31.8542 17.6331 31.9182 17.7904C32.1675 18.4011 32.6128 18.909 33.2328 19.2637C33.4355 19.3757 33.6475 19.4877 33.8661 19.6037C34.0461 19.6984 34.2261 19.797 34.4074 19.8957C34.4941 19.9424 34.5821 19.989 34.6688 20.037C34.8274 20.1264 34.9808 20.225 35.1354 20.3224C35.2674 20.4037 35.3981 20.4877 35.5261 20.577C35.6741 20.6797 35.8154 20.793 35.9567 20.9077C36.0807 21.009 36.1994 21.1197 36.3167 21.233C36.4434 21.357 36.5687 21.4837 36.6847 21.6223C36.8901 21.8676 37.0874 22.1223 37.2487 22.4276C36.6834 23.6756 36.1514 24.9489 35.6368 26.2329C35.5568 26.4315 35.4714 26.6249 35.3928 26.8235C33.9315 27.1942 32.5195 27.8875 30.7755 29.1288C28.5782 30.6901 26.9423 31.1048 24.2463 30.7141L23.437 27.0089C22.8877 24.5036 24.0783 22.9863 25.229 21.5183ZM31.8408 13.4212C31.8755 13.4145 31.9102 13.4105 31.9448 13.4105C32.1968 13.4105 32.4328 13.5905 32.4875 13.8438C32.5302 14.0358 32.4582 14.1865 32.4102 14.2598C32.3635 14.3318 32.2582 14.4585 32.0675 14.4998L24.7023 16.1118C24.409 16.1758 24.1103 15.9811 24.0463 15.6905C23.9823 15.3985 24.1757 15.0985 24.4677 15.0345L28.3809 14.1785L31.8408 13.4212ZM27.5316 34.0434C27.4303 34.05 27.3276 34.0527 27.2263 34.0634C26.4996 34.1367 25.7823 34.3207 25.101 34.6274L24.8463 33.4607C25.2303 33.4927 25.613 33.5247 25.9716 33.5247C28.2969 33.5247 30.1689 32.8327 32.3208 31.3021C32.9981 30.8194 33.5981 30.4541 34.1688 30.1515C34.0461 30.4995 33.9248 30.8461 33.8061 31.1954C33.7208 31.4461 33.6288 31.6928 33.5461 31.9448C33.1541 33.1314 32.7808 34.3274 32.4328 35.534L31.5462 35.0034C30.4529 34.3474 29.2276 34.0194 28.0023 34.0194C27.9863 34.0194 27.9689 34.022 27.9529 34.022C27.8116 34.0194 27.6716 34.0354 27.5316 34.0434ZM11.584 20.2557L12.4573 19.5357L11.8906 18.5584C11.536 17.9451 11.348 17.2518 11.348 16.5504C11.348 14.3905 13.0399 12.6292 15.1999 12.5385L16.8185 12.4705L16.4412 10.8946C16.3772 10.6306 16.3452 10.3706 16.3452 10.1239C16.3452 8.40662 17.6865 6.95999 19.3985 6.82932L20.6304 6.73599V5.40935C20.6691 4.21071 21.6571 3.24674 22.8664 3.24674C23.5624 3.24674 24.061 3.56406 24.3557 3.83072L25.2903 4.6747L26.1863 3.78939C26.597 3.38407 27.1609 3.19474 27.7423 3.2614C28.4569 3.3454 29.1022 3.90272 29.3102 4.6187C29.3809 4.8587 29.4009 5.09069 29.3729 5.32669L29.2169 6.81599H30.7182C32.6342 6.81599 34.2368 8.31329 34.3688 10.2252L34.4288 11.1012L35.2568 11.3919C37.3407 12.1239 38.7113 14.0958 38.6647 16.3024C38.6447 17.2451 38.3407 18.1531 37.79 18.949C36.8981 18.1917 35.9367 17.6811 35.1288 17.2558C34.9194 17.1451 34.7168 17.0384 34.5128 16.9251C34.4554 16.8931 34.3861 16.8371 34.3621 16.6971C34.3301 16.5051 34.4021 16.2744 34.5474 16.1051C35.1288 15.4305 35.3621 14.5105 35.1741 13.6425L35.0128 12.9079C34.8514 12.1665 34.4088 11.5332 33.7688 11.1226C33.1301 10.7132 32.3702 10.5759 31.6302 10.7386L31.2729 10.8172C31.2689 10.8186 31.2649 10.8172 31.2609 10.8186L27.3476 11.6745L23.529 12.5079C22.789 12.6692 22.1557 13.1105 21.7451 13.7518C21.3344 14.3905 21.1984 15.1518 21.3597 15.8918L21.4397 16.2544C21.4397 16.2558 21.4397 16.2571 21.4397 16.2584C21.4397 16.2598 21.4411 16.2611 21.4411 16.2638L21.5197 16.6251C21.7131 17.5131 22.3304 18.2611 23.169 18.6211C23.377 18.7104 23.5504 18.8797 23.6104 19.0517C23.645 19.1504 23.625 19.201 23.5477 19.329C23.5477 19.329 23.5477 19.329 23.5477 19.3304C23.4157 19.5077 23.273 19.6877 23.1277 19.873C22.981 20.0597 22.829 20.2557 22.6744 20.4583C22.6224 20.5263 22.573 20.597 22.521 20.6663C22.4104 20.817 22.2997 20.9703 22.1904 21.1303C22.1304 21.217 22.0731 21.3063 22.0144 21.397C21.9131 21.553 21.8157 21.7143 21.7197 21.8796C21.6637 21.9756 21.6091 22.0703 21.5557 22.1703C21.4557 22.357 21.3651 22.553 21.2757 22.753C21.2371 22.8383 21.1957 22.9196 21.1611 23.009C21.0437 23.2996 20.9397 23.6036 20.8571 23.9236C20.8438 23.9743 20.8384 24.0289 20.8264 24.0809C20.7624 24.3529 20.7104 24.6343 20.6771 24.9276C20.6638 25.0449 20.6611 25.1676 20.6531 25.2889C20.6424 25.4462 20.6224 25.5956 20.6224 25.7596C20.6171 25.7529 20.6118 25.7462 20.6064 25.7396C20.5878 25.7156 20.5691 25.6942 20.5518 25.6702C20.3198 25.3649 20.0878 25.0836 19.8544 24.8169C19.7811 24.7329 19.7064 24.6516 19.6318 24.5716C19.4358 24.3596 19.2398 24.1609 19.0425 23.9743C18.9785 23.9143 18.9145 23.8489 18.8491 23.7903C18.5998 23.5676 18.3491 23.3636 18.0971 23.1823C18.0265 23.1316 17.9545 23.089 17.8838 23.041C17.6945 22.9143 17.5052 22.797 17.3132 22.693C17.2198 22.6423 17.1278 22.593 17.0332 22.5476C16.8345 22.4503 16.6345 22.3676 16.4332 22.2956C16.3665 22.2716 16.2999 22.2396 16.2332 22.2183C16.0145 22.149 15.7945 22.093 15.5732 22.0516C15.5479 22.0463 15.5225 22.049 15.4972 22.045C15.4519 22.037 15.4079 22.0196 15.3625 22.013C15.2079 21.9903 15.0612 21.9996 14.9092 21.989C14.8026 21.9823 14.6972 21.9596 14.5906 21.9596C14.5586 21.9596 14.5252 21.9676 14.4919 21.9676C14.2852 21.9703 14.0852 21.9943 13.8839 22.0196C13.7839 22.033 13.6839 22.041 13.5839 22.0596C13.3213 22.1076 13.0666 22.1743 12.8146 22.2543C12.7759 22.2663 12.7386 22.2756 12.6999 22.289C12.036 22.5143 11.4066 22.833 10.8173 23.2183C10.696 22.9183 10.632 22.5956 10.632 22.2636C10.6333 21.4837 10.98 20.7517 11.584 20.2557ZM3.01749 31.3261C3.58148 30.2635 4.95078 29.4528 7.32806 28.7728C8.44003 28.4555 9.47201 27.8622 10.3093 27.0622C10.6893 26.6982 11.0453 26.3902 11.3893 26.1102C12.4639 25.2369 13.3906 24.7622 14.2292 24.6543C14.2479 24.6516 14.2666 24.6489 14.2852 24.6476C14.5506 24.6183 14.8079 24.6263 15.0572 24.6703C15.1225 24.6823 15.1892 24.7049 15.2559 24.7222C15.3799 24.7529 15.5025 24.7836 15.6265 24.8329C15.7065 24.8636 15.7865 24.9102 15.8679 24.9476C15.9839 25.0036 16.0985 25.0542 16.2145 25.1249C16.3052 25.1796 16.3959 25.2502 16.4865 25.3129C16.5945 25.3889 16.7025 25.4582 16.8118 25.5462C16.9132 25.6276 17.0145 25.7262 17.1158 25.8182C17.2172 25.9102 17.3185 25.9942 17.4198 26.0969C17.5318 26.2102 17.6452 26.3422 17.7585 26.4689C17.8505 26.5715 17.9425 26.6662 18.0358 26.7769C18.1625 26.9289 18.2905 27.1022 18.4185 27.2702C18.4998 27.3769 18.5798 27.4729 18.6611 27.5862C18.8065 27.7888 18.9531 28.0142 19.0998 28.2382C19.1638 28.3368 19.2291 28.4248 19.2931 28.5262C19.5051 28.8608 19.7184 29.2168 19.9331 29.5955C20.9144 31.3274 21.2397 33.886 20.8131 36.114C20.7424 36.1073 20.6731 36.0967 20.6024 36.086C20.0944 35.9993 19.6051 35.8367 19.1598 35.57L18.2091 34.9994C17.1158 34.3434 15.8905 34.0154 14.6652 34.0154C14.6506 34.0154 14.6359 34.018 14.6199 34.018C13.3799 34.01 12.1373 34.334 11.0306 34.9994L10.568 35.2767C9.76134 35.7607 8.85736 36.0047 7.95338 36.0127C7.04807 36.0047 6.14542 35.762 5.33877 35.2767L3.54548 34.1994C3.54548 34.1994 3.54414 34.1994 3.54414 34.198C3.30815 34.058 3.05349 33.962 2.79216 33.914C2.58283 32.8594 2.6575 32.0061 3.01749 31.3261ZM52.2177 68.4159C52.0831 71.0399 49.9191 73.0958 47.2925 73.0958H9.864C7.23606 73.0958 5.07344 71.0399 4.93745 68.3906L2.71883 36.8686L3.8788 37.5646C5.13611 38.3193 6.54808 38.6899 7.95604 38.6819C9.36535 38.6899 10.776 38.3193 12.0333 37.5646L12.4959 37.2873C13.1519 36.8926 13.8866 36.698 14.6226 36.69C15.3585 36.698 16.0932 36.8926 16.7505 37.2873L17.7012 37.858C18.9038 38.5793 20.2664 38.8886 21.6131 38.8153C21.7331 38.8099 21.8531 38.8099 21.9744 38.7993C21.9891 38.7979 22.0024 38.7899 22.0184 38.7886C22.929 38.6859 23.8224 38.3993 24.6463 37.93C24.7237 37.902 24.8063 37.9006 24.8783 37.858L25.829 37.2873C26.485 36.8926 27.2196 36.698 27.9556 36.69C28.6916 36.698 29.4262 36.8926 30.0835 37.2873L31.0342 37.858C32.0435 38.4619 33.1661 38.7753 34.2955 38.8219C34.3181 38.8233 34.3421 38.8259 34.3648 38.8259C34.7541 38.8379 35.1434 38.8259 35.5301 38.7713C35.7514 38.7433 35.9661 38.6873 36.1834 38.6379C36.2887 38.6126 36.3941 38.5899 36.4981 38.5593C37.0901 38.3953 37.67 38.1806 38.21 37.8566L39.1607 37.286C39.8167 36.8913 40.5513 36.6966 41.2873 36.6886C42.0233 36.6966 42.7579 36.8913 43.4152 37.286L44.3659 37.8566C45.4672 38.5166 46.7032 38.8406 47.9378 38.8353C47.9578 38.8353 47.9791 38.8393 47.9991 38.8393C49.1964 38.8393 50.3951 38.5273 51.4697 37.9006L54.0857 36.738C54.1417 36.7126 54.1817 36.6646 54.2337 36.6326L54.4377 36.542L52.2177 68.4159Z" fill="white"/>
<path d="M8.00138 57.3375H17.3345C18.0705 57.3375 18.6678 56.7415 18.6678 56.0042C18.6678 55.2669 18.0705 54.6709 17.3345 54.6709H8.00138C7.26539 54.6709 6.66807 55.2669 6.66807 56.0042C6.66807 56.7415 7.26539 57.3375 8.00138 57.3375Z" fill="white"/>
<path d="M8.00138 62.6707H20.0011C20.7371 62.6707 21.3344 62.0748 21.3344 61.3374C21.3344 60.6001 20.7371 60.0041 20.0011 60.0041H8.00138C7.26539 60.0041 6.66807 60.6001 6.66807 61.3374C6.66807 62.0748 7.26539 62.6707 8.00138 62.6707Z" fill="white"/>
<path d="M22.6677 65.3373H8.00138C7.26539 65.3373 6.66807 65.9333 6.66807 66.6706C6.66807 67.408 7.26539 68.0039 8.00138 68.0039H22.6677C23.4037 68.0039 24.001 67.408 24.001 66.6706C24.001 65.9333 23.4037 65.3373 22.6677 65.3373Z" fill="white"/>
<path d="M30.6675 65.3373H28.0009C27.2649 65.3373 26.6676 65.9333 26.6676 66.6706C26.6676 67.408 27.2649 68.0039 28.0009 68.0039H30.6675C31.4035 68.0039 32.0008 67.408 32.0008 66.6706C32.0008 65.9333 31.4035 65.3373 30.6675 65.3373Z" fill="white"/>
</svg>
