<svg width="35" height="84" viewBox="0 0 35 84" fill="none" xmlns="http://www.w3.org/2000/svg">
<path fill-rule="evenodd" clip-rule="evenodd" d="M30.1843 31.3725C32.84 28.0449 34.4497 23.6854 34.4497 18.9132C34.4497 8.46774 26.7379 0 17.2248 0C7.71183 0 0 8.46774 0 18.9132C0 23.4617 1.46227 27.6351 3.89878 30.8977C4.19705 31.5153 4.64932 32.193 5.27548 32.9343C15.6598 45.2279 16.0904 84 16.0904 84C16.0904 84 16.3786 78.6848 17.1681 71.3876C17.9576 78.6848 18.2457 84 18.2457 84C18.2457 84 18.6763 45.2279 29.0607 32.9343C29.5302 32.3785 29.9019 31.8584 30.1843 31.3725Z" fill="#00A1FF"/>
</svg>
