<svg width="61" height="75" viewBox="0 0 61 75" fill="none" xmlns="http://www.w3.org/2000/svg">
<path d="M53.8946 9.81942H41.5265V1.63491C41.5265 0.731981 40.7947 0 39.8916 0H20.2522C19.3491 0 18.6173 0.731981 18.6173 1.63491V9.81957H6.24916C2.80327 9.81957 0 12.6228 0 16.0687V73.3651C0 74.268 0.731835 75 1.63491 75C4.20468 75 56.8421 75 58.5088 75C59.4119 75 60.1437 74.268 60.1437 73.3651V16.0686C60.1437 12.623 57.3402 9.81942 53.8946 9.81942ZM21.8871 3.26967H38.2567C38.2567 5.64506 38.2567 17.2668 38.2567 19.6391H21.8871C21.8871 17.2655 21.8871 5.64418 21.8871 3.26967ZM28.437 71.7301H19.7181V63.0112H28.437V71.7301ZM40.4257 71.7301H31.7068V63.0112H40.4257V71.7301ZM43.6953 71.7301V61.3763C43.6953 60.4733 42.9635 59.7414 42.0604 59.7414C38.5332 59.7414 21.6451 59.7414 18.0832 59.7414C17.1801 59.7414 16.4483 60.4733 16.4483 61.3763V71.7301H3.26982V16.0686C3.26982 14.4256 4.60649 13.0892 6.24916 13.0892H18.6173V21.274C18.6173 22.177 19.3491 22.9089 20.2522 22.9089H39.8916C40.7947 22.9089 41.5265 22.177 41.5265 21.274V13.0892H53.8946C55.5373 13.0892 56.8739 14.4258 56.8739 16.0686V71.7301H43.6953Z" fill="white"/>
<path d="M17.7843 28.2471H10.0765C9.43929 28.2471 8.92293 28.7635 8.92293 29.4007V37.1086C8.92293 37.7458 9.43929 38.2621 10.0765 38.2621H17.7843C18.4215 38.2621 18.9379 37.7458 18.9379 37.1086V29.4007C18.9379 28.7635 18.4215 28.2471 17.7843 28.2471Z" fill="white"/>
<path d="M33.9259 28.2471H26.2179C25.5807 28.2471 25.0643 28.7635 25.0643 29.4007V37.1086C25.0643 37.7458 25.5807 38.2621 26.2179 38.2621H33.9257C34.5629 38.2621 35.0793 37.7458 35.0793 37.1086V29.4007C35.0794 28.7635 34.5629 28.2471 33.9259 28.2471Z" fill="white"/>
<path d="M50.067 28.2471H42.3591C41.7219 28.2471 41.2055 28.7635 41.2055 29.4007V37.1086C41.2055 37.7458 41.7219 38.2621 42.3591 38.2621H50.067C50.7042 38.2621 51.2205 37.7458 51.2205 37.1086V29.4007C51.2205 28.7635 50.7042 28.2471 50.067 28.2471Z" fill="white"/>
<path d="M17.7843 44.3884H10.0765C9.43929 44.3884 8.92293 44.9047 8.92293 45.5419V53.2498C8.92293 53.887 9.43929 54.4033 10.0765 54.4033H17.7843C18.4215 54.4033 18.9379 53.887 18.9379 53.2498V45.5419C18.9379 44.905 18.4215 44.3884 17.7843 44.3884Z" fill="white"/>
<path d="M33.9259 44.3884H26.2179C25.5807 44.3884 25.0643 44.9047 25.0643 45.5419V53.2498C25.0643 53.887 25.5807 54.4033 26.2179 54.4033H33.9257C34.5629 54.4033 35.0793 53.887 35.0793 53.2498V45.5419C35.0794 44.905 34.5629 44.3884 33.9259 44.3884Z" fill="white"/>
<path d="M50.067 44.3884H42.3591C41.7219 44.3884 41.2055 44.9047 41.2055 45.5419V53.2498C41.2055 53.887 41.7219 54.4033 42.3591 54.4033H50.067C50.7042 54.4033 51.2205 53.887 51.2205 53.2498V45.5419C51.2205 44.905 50.7042 44.3884 50.067 44.3884Z" fill="white"/>
<path d="M33.2012 6.41078C32.2981 6.41078 31.5663 7.14276 31.5663 8.04569V9.81991H28.5772V8.04554C28.5772 7.14262 27.8453 6.41063 26.9422 6.41063C26.0392 6.41063 25.3073 7.14262 25.3073 8.04554V14.8634C25.3073 15.7663 26.0393 16.4983 26.9422 16.4983C27.8453 16.4983 28.5772 15.7663 28.5772 14.8634V13.0893H31.5663V14.8635C31.5663 15.7664 32.298 16.4984 33.2012 16.4984C34.1044 16.4984 34.8361 15.7664 34.8361 14.8635V8.04554C34.8361 7.14276 34.1043 6.41078 33.2012 6.41078Z" fill="white"/>
</svg>
