<svg width="25" height="35" viewBox="0 0 25 35" fill="none" xmlns="http://www.w3.org/2000/svg">
<g clip-path="url(#clip0_1_872)">
<path d="M5 32.9651L5 16.686C5 15.5622 3.88067 14.6512 2.5 14.6512C1.11933 14.6512 0 15.5622 0 16.686L0 24.8256L0 32.9651C0 34.0889 1.11933 35 2.5 35C3.88067 35 5 34.0889 5 32.9651Z" fill="white"/>
<path d="M10 10.5814L10 26.8604C10 27.9842 11.1193 28.8953 12.5 28.8953C13.8807 28.8953 15 27.9842 15 26.8604V10.5814C15 9.45757 13.8807 8.54649 12.5 8.54649C11.1193 8.54649 10 9.45757 10 10.5814Z" fill="white"/>
<path d="M20 4.43331V21.2333C20 22.3931 21.1193 23.3333 22.5 23.3333C23.8807 23.3333 25 22.3931 25 21.2333V4.43331C25 3.27355 23.8807 2.33331 22.5 2.33331C21.1193 2.33331 20 3.27355 20 4.43331Z" fill="white"/>
</g>
<defs>
<clipPath id="clip0_1_872">
<rect y="35" width="35" height="25" transform="rotate(-90 0 35)" fill="white"/>
</clipPath>
</defs>
</svg>
