<svg width="75" height="71" viewBox="0 0 75 71" fill="none" xmlns="http://www.w3.org/2000/svg">
<path d="M75 69.5084V67.4918C75 67.0663 74.655 66.7213 74.2294 66.7213H72.0336V11.0964C72.0336 10.6708 71.6884 10.3258 71.263 10.3258H63.6999C63.2743 10.3258 62.9293 9.98074 62.9293 9.55522V0.770582C62.9293 0.34499 62.5843 0 62.1587 0H12.6873C12.2617 0 11.9167 0.34499 11.9167 0.770582V9.55522C11.9167 9.98074 11.5717 10.3258 11.1461 10.3258H3.58306C3.15746 10.3258 2.81247 10.6708 2.81247 11.0964V66.7212H0.770583C0.34499 66.7212 0 67.0662 0 67.4918V69.5083C0 69.9339 0.34499 70.2789 0.770583 70.2789H74.2294C74.655 70.279 75 69.934 75 69.5084ZM10.9584 65.0117C10.9584 65.4372 10.6134 65.7823 10.1878 65.7823H6.17322C5.74762 65.7823 5.40264 65.4372 5.40264 65.0117V58.3111C5.40264 57.8855 5.74762 57.5405 6.17322 57.5405H10.1877C10.6133 57.5405 10.9583 57.8855 10.9583 58.3111L10.9584 65.0117ZM10.9584 53.8252C10.9584 54.2508 10.6134 54.5958 10.1878 54.5958H6.17322C5.74762 54.5958 5.40264 54.2508 5.40264 53.8252V47.1247C5.40264 46.6991 5.74762 46.3541 6.17322 46.3541H10.1877C10.6133 46.3541 10.9583 46.6991 10.9583 47.1247L10.9584 53.8252ZM10.9584 42.6388C10.9584 43.0643 10.6134 43.4094 10.1878 43.4094H6.17322C5.74762 43.4094 5.40264 43.0643 5.40264 42.6388V35.9382C5.40264 35.5126 5.74762 35.1676 6.17322 35.1676H10.1877C10.6133 35.1676 10.9583 35.5126 10.9583 35.9382L10.9584 42.6388ZM10.9584 26.3661C10.9584 26.7916 10.6134 27.1367 10.1878 27.1367H6.17322C5.74762 27.1367 5.40264 26.7916 5.40264 26.3661V19.6654C5.40264 19.2399 5.74762 18.8948 6.17322 18.8948H10.1877C10.6133 18.8948 10.9583 19.2399 10.9583 19.6654L10.9584 26.3661ZM30.4033 19.6653C30.4033 19.2398 30.7483 18.8948 31.1739 18.8948H35.1884C35.614 18.8948 35.959 19.2398 35.959 19.6653V26.3659C35.959 26.7915 35.614 27.1365 35.1884 27.1365H31.1739C30.7483 27.1365 30.4033 26.7915 30.4033 26.3659V19.6653ZM30.4033 35.9382C30.4033 35.5126 30.7483 35.1676 31.1739 35.1676H35.1884C35.614 35.1676 35.959 35.5126 35.959 35.9382V42.6388C35.959 43.0643 35.614 43.4094 35.1884 43.4094H31.1739C30.7483 43.4094 30.4033 43.0643 30.4033 42.6388V35.9382ZM30.4033 47.1247C30.4033 46.6991 30.7483 46.3541 31.1739 46.3541H35.1884C35.614 46.3541 35.959 46.6991 35.959 47.1247V53.8252C35.959 54.2508 35.614 54.5958 35.1884 54.5958H31.1739C30.7483 54.5958 30.4033 54.2508 30.4033 53.8252V47.1247ZM19.2919 65.0117C19.2919 65.4372 18.9469 65.7823 18.5213 65.7823H14.5068C14.0812 65.7823 13.7362 65.4372 13.7362 65.0117V58.3111C13.7362 57.8855 14.0812 57.5405 14.5068 57.5405H18.5213C18.9469 57.5405 19.2919 57.8855 19.2919 58.3111V65.0117ZM19.2919 53.8252C19.2919 54.2508 18.9469 54.5958 18.5213 54.5958H14.5068C14.0812 54.5958 13.7362 54.2508 13.7362 53.8252V47.1247C13.7362 46.6991 14.0812 46.3541 14.5068 46.3541H18.5213C18.9469 46.3541 19.2919 46.6991 19.2919 47.1247V53.8252ZM19.2919 42.6388C19.2919 43.0643 18.9469 43.4094 18.5213 43.4094H14.5068C14.0812 43.4094 13.7362 43.0643 13.7362 42.6388V35.9382C13.7362 35.5126 14.0812 35.1676 14.5068 35.1676H18.5213C18.9469 35.1676 19.2919 35.5126 19.2919 35.9382V42.6388ZM19.2919 26.3661C19.2919 26.7916 18.9469 27.1367 18.5213 27.1367H14.5068C14.0812 27.1367 13.7362 26.7916 13.7362 26.3661V19.6654C13.7362 19.2399 14.0812 18.8948 14.5068 18.8948H18.5213C18.9469 18.8948 19.2919 19.2399 19.2919 19.6654V26.3661ZM27.6254 65.0117C27.6254 65.4372 27.2803 65.7823 26.8548 65.7823H22.8402C22.4146 65.7823 22.0697 65.4372 22.0697 65.0117V58.3111C22.0697 57.8855 22.4146 57.5405 22.8402 57.5405H26.8548C27.2803 57.5405 27.6254 57.8855 27.6254 58.3111V65.0117ZM27.6254 53.8252C27.6254 54.2508 27.2803 54.5958 26.8548 54.5958H22.8402C22.4146 54.5958 22.0697 54.2508 22.0697 53.8252V47.1247C22.0697 46.6991 22.4146 46.3541 22.8402 46.3541H26.8548C27.2803 46.3541 27.6254 46.6991 27.6254 47.1247V53.8252ZM27.6254 42.6388C27.6254 43.0643 27.2803 43.4094 26.8548 43.4094H22.8402C22.4146 43.4094 22.0697 43.0643 22.0697 42.6388V35.9382C22.0697 35.5126 22.4146 35.1676 22.8402 35.1676H26.8548C27.2803 35.1676 27.6254 35.5126 27.6254 35.9382V42.6388ZM27.6254 26.3661C27.6254 26.7916 27.2803 27.1367 26.8548 27.1367H22.8402C22.4146 27.1367 22.0697 26.7916 22.0697 26.3661V19.6654C22.0697 19.2399 22.4146 18.8948 22.8402 18.8948H26.8548C27.2803 18.8948 27.6254 19.2399 27.6254 19.6654V26.3661ZM44.2924 66.7213H30.4033V58.1068C30.4033 57.6812 30.7483 57.3362 31.1739 57.3362H43.5218C43.9474 57.3362 44.2924 57.6812 44.2924 58.1068V66.7213ZM44.2924 53.8252C44.2924 54.2508 43.9474 54.5958 43.5218 54.5958H39.5074C39.0818 54.5958 38.7368 54.2508 38.7368 53.8252V47.1247C38.7368 46.6991 39.0818 46.3541 39.5074 46.3541H43.5218C43.9474 46.3541 44.2924 46.6991 44.2924 47.1247V53.8252ZM44.2924 42.6388C44.2924 43.0643 43.9474 43.4094 43.5218 43.4094H39.5074C39.0818 43.4094 38.7368 43.0643 38.7368 42.6388V35.9382C38.7368 35.5126 39.0818 35.1676 39.5074 35.1676H43.5218C43.9474 35.1676 44.2924 35.5126 44.2924 35.9382V42.6388ZM44.2924 26.3661C44.2924 26.7916 43.9474 27.1367 43.5218 27.1367H39.5074C39.0818 27.1367 38.7368 26.7916 38.7368 26.3661V19.6654C38.7368 19.2399 39.0818 18.8948 39.5074 18.8948H43.5218C43.9474 18.8948 44.2924 19.2399 44.2924 19.6654V26.3661ZM52.626 65.0117C52.626 65.4372 52.2811 65.7823 51.8555 65.7823H47.841C47.4154 65.7823 47.0704 65.4372 47.0704 65.0117V58.3111C47.0704 57.8855 47.4154 57.5405 47.841 57.5405H51.8555C52.2811 57.5405 52.626 57.8855 52.626 58.3111V65.0117ZM52.626 53.8252C52.626 54.2508 52.2811 54.5958 51.8555 54.5958H47.841C47.4154 54.5958 47.0704 54.2508 47.0704 53.8252V47.1247C47.0704 46.6991 47.4154 46.3541 47.841 46.3541H51.8555C52.2811 46.3541 52.626 46.6991 52.626 47.1247V53.8252ZM52.626 42.6388C52.626 43.0643 52.2811 43.4094 51.8555 43.4094H47.841C47.4154 43.4094 47.0704 43.0643 47.0704 42.6388V35.9382C47.0704 35.5126 47.4154 35.1676 47.841 35.1676H51.8555C52.2811 35.1676 52.626 35.5126 52.626 35.9382V42.6388ZM52.626 26.3661C52.626 26.7916 52.2811 27.1367 51.8555 27.1367H47.841C47.4154 27.1367 47.0704 26.7916 47.0704 26.3661V19.6654C47.0704 19.2399 47.4154 18.8948 47.841 18.8948H51.8555C52.2811 18.8948 52.626 19.2399 52.626 19.6654V26.3661ZM60.9596 65.0117C60.9596 65.4372 60.6146 65.7823 60.189 65.7823H56.1744C55.749 65.7823 55.4038 65.4372 55.4038 65.0117V58.3111C55.4038 57.8855 55.749 57.5405 56.1744 57.5405H60.189C60.6146 57.5405 60.9596 57.8855 60.9596 58.3111V65.0117ZM60.9596 53.8252C60.9596 54.2508 60.6146 54.5958 60.189 54.5958H56.1744C55.749 54.5958 55.4038 54.2508 55.4038 53.8252V47.1247C55.4038 46.6991 55.749 46.3541 56.1744 46.3541H60.189C60.6146 46.3541 60.9596 46.6991 60.9596 47.1247V53.8252ZM60.9596 42.6388C60.9596 43.0643 60.6146 43.4094 60.189 43.4094H56.1744C55.749 43.4094 55.4038 43.0643 55.4038 42.6388V35.9382C55.4038 35.5126 55.749 35.1676 56.1744 35.1676H60.189C60.6146 35.1676 60.9596 35.5126 60.9596 35.9382V42.6388ZM60.9596 26.3661C60.9596 26.7916 60.6146 27.1367 60.189 27.1367H56.1744C55.749 27.1367 55.4038 26.7916 55.4038 26.3661V19.6654C55.4038 19.2399 55.749 18.8948 56.1744 18.8948H60.189C60.6146 18.8948 60.9596 19.2399 60.9596 19.6654V26.3661ZM69.2931 65.0117C69.2931 65.4372 68.9482 65.7823 68.5226 65.7823H64.508C64.0824 65.7823 63.7374 65.4372 63.7374 65.0117V58.3111C63.7374 57.8855 64.0824 57.5405 64.508 57.5405H68.5226C68.9482 57.5405 69.2931 57.8855 69.2931 58.3111V65.0117ZM69.2931 53.8252C69.2931 54.2508 68.9482 54.5958 68.5226 54.5958H64.508C64.0824 54.5958 63.7374 54.2508 63.7374 53.8252V47.1247C63.7374 46.6991 64.0824 46.3541 64.508 46.3541H68.5226C68.9482 46.3541 69.2931 46.6991 69.2931 47.1247V53.8252ZM69.2931 42.6388C69.2931 43.0643 68.9482 43.4094 68.5226 43.4094H64.508C64.0824 43.4094 63.7374 43.0643 63.7374 42.6388V35.9382C63.7374 35.5126 64.0824 35.1676 64.508 35.1676H68.5226C68.9482 35.1676 69.2931 35.5126 69.2931 35.9382V42.6388ZM69.2931 26.3661C69.2931 26.7916 68.9482 27.1367 68.5226 27.1367H64.508C64.0824 27.1367 63.7374 26.7916 63.7374 26.3661V19.6654C63.7374 19.2399 64.0824 18.8948 64.508 18.8948H68.5226C68.9482 18.8948 69.2931 19.2399 69.2931 19.6654V26.3661Z" fill="white"/>
</svg>
