<svg width="49" height="33" viewBox="0 0 49 33" fill="none" xmlns="http://www.w3.org/2000/svg">
<path opacity="0.2" d="M47.9454 31.4061L43.8547 26.5351L13.0442 7.83037L12.1703 7.31893L10.7758 6.4665L10.6781 6.40805C10.6833 6.40577 10.6888 6.4046 10.6944 6.4046C10.7 6.4046 10.7055 6.40577 10.7107 6.40805L9.3533 5.58972L3.77506 2.23359C2.70125 1.46397 1.09285 3.0227 0.465301 4.59603C0.367139 4.83046 0.293871 5.07548 0.246819 5.32669C0.163356 5.60818 0.163091 5.90955 0.246053 6.19121C0.329014 6.47287 0.491324 6.72165 0.711672 6.90489L5.24399 9.63753L6.47586 10.3828L7.48923 10.9965L7.58686 11.0501L8.76294 11.7613C8.77625 11.7783 8.79192 11.793 8.80942 11.8051L9.79491 12.3896L41.1353 31.4109L47.0947 32.6482L48.7171 32.9843C48.7531 32.9931 48.7907 32.9923 48.8264 32.9821C48.8621 32.9719 48.8948 32.9526 48.9216 32.9258C48.9634 32.8789 48.9867 32.8171 48.9867 32.7529C48.9867 32.6887 48.9634 32.6269 48.9216 32.58L47.9454 31.4061Z" fill="black"/>
<path d="M5.68097 7.55756L6.23879 7.89366L6.90353 8.29308L41.8884 29.5112C41.6792 29.0241 41.8419 28.0499 42.3207 27.1049C42.8785 26.0089 43.7153 25.1565 44.3475 25.1078L9.53925 3.99199L8.25626 3.22236C9.0651 3.77766 6.49446 8.09824 5.68097 7.55756Z" fill="#455A64"/>
<path d="M9.48812 3.96281L8.24231 3.21754C7.88902 2.9886 7.21499 3.65594 6.62927 4.5376C5.84367 5.71151 5.20682 7.25561 5.69956 7.56249L6.62927 8.11291L6.95931 8.30287C6.49446 8.00087 7.12666 6.4519 7.91226 5.28286C8.47474 4.4353 9.12088 3.78746 9.48347 3.94333C9.48347 3.94333 9.47417 3.95793 9.48812 3.96281Z" fill="#EBEBEB"/>
<path d="M9.17664 3.78254C8.35385 3.24673 5.78786 7.5868 6.61065 8.12261L7.85646 8.87275C7.03367 8.34181 9.59966 4.00174 10.4178 4.53268L9.17664 3.78254Z" fill="#6B67F1"/>
<path d="M11.6032 5.2487L10.376 4.50831C9.57177 3.97737 7.05691 8.14207 7.74025 8.80453L7.78208 8.83863L9.02324 9.57416C8.21904 9.0286 10.7897 4.70802 11.6032 5.2487Z" fill="#EBEBEB"/>
<path d="M8.26096 3.2224C7.90767 2.98859 7.23828 3.66078 6.64792 4.54243C5.87161 5.69199 5.25336 7.20688 5.67638 7.54298L0.465368 4.39631C0.269014 4.23066 0.125239 4.00649 0.0530322 3.75341C-0.019175 3.50033 -0.0164152 3.23025 0.0609481 2.97885C0.349157 1.3909 2.12025 -0.620823 3.24054 0.182893L8.26096 3.2224Z" fill="#F28F8F"/>
<path d="M47.6665 29.7255C47.2342 30.3344 47.2807 30.6315 47.2807 30.6315L41.893 29.5209C41.3584 28.6685 41.7117 27.2803 42.4508 26.2915L42.6879 26.4279L47.6665 29.7255Z" fill="#F28F8F"/>
<path d="M48.7403 30.9335L47.276 30.6315C47.276 30.6315 47.2063 30.3344 47.6618 29.7255L48.9402 30.5731C48.9785 30.614 49 30.6691 49 30.7265C49 30.7839 48.9785 30.839 48.9402 30.88C48.9147 30.9071 48.8826 30.9264 48.8474 30.9359C48.8121 30.9453 48.7751 30.9445 48.7403 30.9335Z" fill="#37474F"/>
<path d="M44.3475 25.1176L48.043 29.5015C47.8958 29.5266 47.7612 29.604 47.6619 29.7206L42.6972 26.4279L42.4602 26.2915C42.673 25.9624 42.9525 25.6866 43.2787 25.4837C43.6049 25.2808 43.9699 25.1558 44.3475 25.1176Z" fill="#FFA8A7"/>
<path d="M47.6665 29.7255C47.7098 29.6609 47.7667 29.6075 47.8328 29.5695C47.8988 29.5315 47.9724 29.5099 48.0477 29.5063L48.9448 30.5731L47.6665 29.7255Z" fill="#455A64"/>
<path opacity="0.2" d="M42.4509 26.3159L0.586167 1.69779C0.337092 2.10308 0.159195 2.55178 0.0608805 3.0227C-0.0171476 3.27404 -0.0202433 3.54433 0.0520071 3.79756C0.124257 4.05079 0.268422 4.27495 0.465301 4.44017L5.68096 7.58197L6.23879 7.91807L6.90352 8.29313L41.8884 29.5112C41.2376 28.4591 41.9581 26.8906 42.4509 26.3159Z" fill="black"/>
</svg>
