<svg width="75" height="75" viewBox="0 0 75 75" fill="none" xmlns="http://www.w3.org/2000/svg">
<path d="M23.4375 51.5625C25.9239 51.5625 28.3085 50.5748 30.0666 48.8166C31.8248 47.0585 32.8125 44.6739 32.8125 42.1875C32.8125 39.7011 31.8248 37.3165 30.0666 35.5584C28.3085 33.8002 25.9239 32.8125 23.4375 32.8125C20.9511 32.8125 18.5665 33.8002 16.8084 35.5584C15.0502 37.3165 14.0625 39.7011 14.0625 42.1875C14.0625 44.6739 15.0502 47.0585 16.8084 48.8166C18.5665 50.5748 20.9511 51.5625 23.4375 51.5625ZM23.4375 37.5C24.6807 37.5 25.873 37.9939 26.7521 38.8729C27.6311 39.752 28.125 40.9443 28.125 42.1875C28.125 43.4307 27.6311 44.623 26.7521 45.5021C25.873 46.3811 24.6807 46.875 23.4375 46.875C22.1943 46.875 21.002 46.3811 20.1229 45.5021C19.2439 44.623 18.75 43.4307 18.75 42.1875C18.75 40.9443 19.2439 39.752 20.1229 38.8729C21.002 37.9939 22.1943 37.5 23.4375 37.5ZM35.1562 56.25H11.7188C8.61074 56.25 5.63003 57.4846 3.43234 59.6823C1.23465 61.88 0 64.8607 0 67.9688C0 69.8336 0.740794 71.622 2.05941 72.9406C3.37802 74.2592 5.16645 75 7.03125 75H39.8438C41.7086 75 43.497 74.2592 44.8156 72.9406C46.1342 71.622 46.875 69.8336 46.875 67.9688C46.875 64.8607 45.6404 61.88 43.4427 59.6823C41.245 57.4846 38.2643 56.25 35.1562 56.25ZM39.8438 70.3125H7.03125C6.40965 70.3125 5.81351 70.0656 5.37397 69.626C4.93443 69.1865 4.6875 68.5904 4.6875 67.9688C4.6875 66.1039 5.42829 64.3155 6.74691 62.9969C8.06552 61.6783 9.85395 60.9375 11.7188 60.9375H35.1562C37.0211 60.9375 38.8095 61.6783 40.1281 62.9969C41.4467 64.3155 42.1875 66.1039 42.1875 67.9688C42.1875 68.5904 41.9406 69.1865 41.501 69.626C41.0615 70.0656 40.4654 70.3125 39.8438 70.3125ZM75 11.7188V35.1562C75 38.2643 73.7654 41.245 71.5677 43.4427C69.37 45.6404 66.3893 46.875 63.2812 46.875H50.1891L41.5031 55.5656C41.2851 55.7831 41.0263 55.9555 40.7415 56.073C40.4568 56.1904 40.1517 56.2505 39.8438 56.25C39.5364 56.2513 39.2319 56.1907 38.9484 56.0719C38.5198 55.8947 38.1534 55.5944 37.8956 55.2089C37.6377 54.8234 37.5001 54.37 37.5 53.9062V44.5312C37.5 43.9096 37.7469 43.3135 38.1865 42.874C38.626 42.4344 39.2221 42.1875 39.8438 42.1875C40.4654 42.1875 41.0615 42.4344 41.501 42.874C41.9406 43.3135 42.1875 43.9096 42.1875 44.5312V48.2484L47.5594 42.8719C47.7774 42.6544 48.0362 42.482 48.321 42.3645C48.6057 42.2471 48.9108 42.187 49.2188 42.1875H63.2812C65.1461 42.1875 66.9345 41.4467 68.2531 40.1281C69.5717 38.8095 70.3125 37.0211 70.3125 35.1562V11.7188C70.3125 9.85395 69.5717 8.06552 68.2531 6.74691C66.9345 5.42829 65.1461 4.6875 63.2812 4.6875H30.4688C28.6039 4.6875 26.8155 5.42829 25.4969 6.74691C24.1783 8.06552 23.4375 9.85395 23.4375 11.7188V25.7812C23.4375 26.4029 23.1906 26.999 22.751 27.4385C22.3115 27.8781 21.7154 28.125 21.0938 28.125C20.4721 28.125 19.876 27.8781 19.4365 27.4385C18.9969 26.999 18.75 26.4029 18.75 25.7812V11.7188C18.75 8.61074 19.9846 5.63003 22.1823 3.43234C24.38 1.23465 27.3607 0 30.4688 0L63.2812 0C66.3893 0 69.37 1.23465 71.5677 3.43234C73.7654 5.63003 75 8.61074 75 11.7188ZM49.2188 9.375V21.0938H60.9375C61.5591 21.0938 62.1552 21.3407 62.5948 21.7802C63.0343 22.2198 63.2812 22.8159 63.2812 23.4375C63.2812 24.0591 63.0343 24.6552 62.5948 25.0948C62.1552 25.5343 61.5591 25.7812 60.9375 25.7812H49.2188V37.5C49.2188 38.1216 48.9718 38.7177 48.5323 39.1573C48.0927 39.5968 47.4966 39.8438 46.875 39.8438C46.2534 39.8438 45.6573 39.5968 45.2177 39.1573C44.7782 38.7177 44.5312 38.1216 44.5312 37.5V25.7812H32.8125C32.1909 25.7812 31.5948 25.5343 31.1552 25.0948C30.7157 24.6552 30.4688 24.0591 30.4688 23.4375C30.4688 22.8159 30.7157 22.2198 31.1552 21.7802C31.5948 21.3407 32.1909 21.0938 32.8125 21.0938H44.5312V9.375C44.5312 8.7534 44.7782 8.15726 45.2177 7.71772C45.6573 7.27818 46.2534 7.03125 46.875 7.03125C47.4966 7.03125 48.0927 7.27818 48.5323 7.71772C48.9718 8.15726 49.2188 8.7534 49.2188 9.375Z" fill="white"/>
</svg>
