<svg width="24" height="31" viewBox="0 0 24 31" fill="none" xmlns="http://www.w3.org/2000/svg">
<path opacity="0.3" d="M4.52013 28.5321C8.65371 31.0336 15.365 31.0336 19.5032 28.5321C23.6414 26.0306 23.6414 21.9669 19.5032 19.4654C15.365 16.9639 8.65371 16.9639 4.52013 19.4654C0.386549 21.9669 0.381905 26.0258 4.52013 28.5321Z" fill="#6B67F1"/>
<path d="M9.60581 6.04778C7.74802 5.82877 4.49689 5.51243 1.76594 9.4545C-1.31799 13.9708 -0.0268248 20.5069 3.0571 23.7189C6.93524 27.7486 13.8091 29.1794 18.5046 26.0209C23.6971 22.5315 25.3506 14.4526 22.8611 10.3451C20.3717 6.23757 15.4857 6.40792 14.1667 6.73399C12.1835 7.24986 11.0595 6.21811 9.60581 6.04778Z" fill="#6B67F1"/>
<path opacity="0.1" d="M16.1174 24.5901C10.8784 26.4833 4.47368 24.4538 1.02284 20.5702C1.50932 21.7497 2.19891 22.8254 3.05712 23.7433C6.93525 27.7729 13.8091 29.2038 18.5046 26.0452C22.4431 23.3977 24.3427 18.1173 23.9433 13.927C23.9619 15.0805 21.8858 22.512 16.1174 24.5901Z" fill="black"/>
<g opacity="0.1">
<path d="M7.40433 7.42989C6.22927 7.10868 4.31575 7.91656 3.13141 9.44959C1.65911 11.3671 1.03211 14.3163 1.03211 16.5648C1.03211 21.0714 4.69659 24.0936 5.1471 23.787C5.59762 23.4804 3.12676 20.098 5.45364 16.0246C7.78052 11.9511 9.33178 7.9555 7.40433 7.42989Z" fill="white"/>
</g>
<g opacity="0.1">
<path d="M6.3686 7.97014C5.08209 8.18428 3.34505 9.97036 2.74127 11.3476C2.13749 12.7249 2.16071 13.7372 2.31862 13.9368C2.60658 14.3018 5.48615 12.2139 6.49865 11.2211C7.87341 9.81463 8.44004 7.64407 6.3686 7.97014Z" fill="white"/>
</g>
<path opacity="0.2" d="M10.9202 10.1407C10.3582 9.48369 9.79625 9.09921 9.33644 9.85842C8.87664 10.6176 10.4 12.2091 12.4111 11.9609C14.4221 11.7127 15.2953 10.5252 15.365 9.85842C15.365 9.85842 14.2689 11.1384 12.9545 11.0751C12.1933 11.0211 11.4739 10.6907 10.9202 10.1407Z" fill="black"/>
<path d="M12.4947 11.4499C12.7707 9.58156 12.7801 7.68059 12.5225 5.80935C12.0581 3.08397 10.8366 1.01072 10.4511 0.738186C9.82454 0.355763 9.12835 0.115352 8.40755 0.0325014C7.42293 -0.128101 6.14104 0.358577 6.39649 0.811184C6.65194 1.26379 8.02206 1.81374 9.46649 3.79938C10.9109 5.78501 12.0209 9.35233 11.7051 11.3088C11.8123 11.4049 11.9423 11.4688 12.0813 11.4936C12.2203 11.5185 12.3632 11.5034 12.4947 11.4499Z" fill="#37474F"/>
<path d="M10.3861 0.694341L10.2978 0.635943C9.71507 0.32843 9.08701 0.126052 8.44004 0.0373269C7.76905 -0.0776481 7.08131 0.0751693 6.51259 0.465603C6.42434 0.601872 6.60549 0.840336 7.46471 1.12747C8.31089 1.41637 9.2112 1.4865 10.0888 1.33188C10.4604 1.24915 10.6647 0.923078 10.3861 0.694341Z" fill="#455A64"/>
<path opacity="0.1" d="M11.7423 7.97984C11.3475 5.52213 9.31322 3.17149 7.84557 2.0278C8.44992 2.55009 8.99392 3.14463 9.4665 3.79931C10.9156 5.78981 12.0209 9.35226 11.7051 11.3087C11.8123 11.4048 11.9423 11.4687 12.0813 11.4935C12.2203 11.5184 12.3632 11.5033 12.4947 11.4498C12.4947 11.4498 12.6108 10.7442 12.6758 9.7124C12.4715 10.6468 12.1092 10.2429 11.7423 7.97984Z" fill="black"/>
<path d="M12.6851 7.32287C13.4617 7.59279 14.2922 7.64497 15.0939 7.47421C15.8957 7.30345 16.6409 6.91569 17.2553 6.34952C18.9087 4.72402 18.421 2.13978 18.421 2.13978C17.7642 1.89479 17.0609 1.8182 16.3701 1.91642C15.6792 2.01464 15.0208 2.28481 14.45 2.70433C13.0381 3.75068 12.4761 6.18405 12.6851 7.32287Z" fill="#6B67F1"/>
<path opacity="0.3" d="M12.6851 7.32287C13.4617 7.59279 14.2922 7.64497 15.0939 7.47421C15.8957 7.30345 16.6409 6.91569 17.2553 6.34952C18.9087 4.72402 18.421 2.13978 18.421 2.13978C17.7642 1.89479 17.0609 1.8182 16.3701 1.91642C15.6792 2.01464 15.0208 2.28481 14.45 2.70433C13.0381 3.75068 12.4761 6.18405 12.6851 7.32287Z" fill="black"/>
<path d="M18.421 2.12517C17.7642 1.88017 17.0609 1.80359 16.37 1.9018C15.6792 2.00002 15.0208 2.27019 14.45 2.68971C13.0566 3.74579 12.4761 6.1743 12.6851 7.32285C14.371 3.93073 18.421 2.12517 18.421 2.12517Z" fill="#6B67F1"/>
</svg>
