<svg width="75" height="68" viewBox="0 0 75 68" fill="none" xmlns="http://www.w3.org/2000/svg">
<path d="M54.3906 13.25V14.25H55.3906H70.698C72.5227 14.25 73.9983 15.7279 74 17.5507V63.5646C74 65.3858 72.5214 66.8644 70.7002 66.8644H4.29984C2.47861 66.8644 1 65.3858 1 63.5646V17.5498C1 15.7286 2.47861 14.25 4.29984 14.25H19.6073H20.6073V13.25V4.29984C20.6073 2.47861 22.0859 1 23.9071 1H51.0907C52.912 1 54.3906 2.47861 54.3906 4.29984V13.25ZM28.2091 7.60183H27.2091V8.60183V13.2521V14.2521H28.2091H46.7952H47.7952V13.2521V8.60183V7.60183H46.7952H28.2091ZM66.3982 60.2669H67.3981L67.3982 59.2669L67.4003 21.8497L67.4004 20.8496H66.4003H8.59968H7.59968V21.8496V59.2669V60.2669H8.59968H66.3982ZM32.7584 44.4343H31.7584H24.8792V36.9445H32.7605H33.7605V35.9445V28.0697H41.2481V35.9445V36.9445H42.2481H50.1251V44.4343H42.2459H41.2459V45.4343V53.3113H33.7584V45.4343H32.7605V44.4343H32.7584Z" stroke="white" stroke-width="2"/>
</svg>
