<svg width="36" height="32" viewBox="0 0 36 32" fill="none" xmlns="http://www.w3.org/2000/svg">
<path d="M1.69674 22.9682C3.8597 27.5697 8.94241 31.4662 17.8371 31.4711C21.8033 31.4711 25.0034 30.6928 27.5307 29.425C29.2359 31.618 32.6695 32.4306 35.1968 31.4075C35.2693 31.376 35.3312 31.3226 35.3748 31.2542C35.4184 31.1858 35.4416 31.1055 35.4416 31.0232C35.4416 30.941 35.4184 30.8606 35.3748 30.7922C35.3312 30.7238 35.2693 30.6705 35.1968 30.639C32.6555 29.5229 31.9267 27.6382 31.7258 26.3067C32.6359 25.3219 33.3954 24.1958 33.9775 22.9682C35.1405 20.5549 35.6671 17.8599 35.5028 15.1618C35.3386 12.4638 34.4894 9.86068 33.0432 7.6218C30.1749 3.03502 23.8682 0.156649 17.8278 0.156649C11.7874 0.156649 5.49476 3.03502 2.62639 7.6218C1.18092 9.86113 0.332597 12.4644 0.169156 15.1625C0.00571502 17.8605 0.533091 20.5553 1.69674 22.9682Z" fill="white"/>
<path d="M32.875 31.9998C30.8335 31.9998 28.7313 31.1236 27.5073 29.6159C24.8025 30.9474 21.5604 31.618 17.8651 31.6229H17.8371C7.18115 31.6131 3.07014 26.2431 1.57523 23.0367C0.398615 20.6006 -0.135189 17.8793 0.0290833 15.1544C0.193356 12.4295 1.04973 9.80016 2.50955 7.53858C5.31251 3.03012 11.493 0 17.8418 0C24.1905 0 30.357 3.03012 33.1786 7.53858C34.6385 9.80016 35.4948 12.4295 35.6591 15.1544C35.8234 17.8793 35.2896 20.6006 34.113 23.0367C33.5369 24.2577 32.7854 25.3787 31.8846 26.3606C32.1042 27.6823 32.8703 29.4494 35.2575 30.497C35.3585 30.5408 35.4444 30.6157 35.5036 30.7119C35.5629 30.8082 35.5927 30.921 35.5892 31.0355C35.5902 31.1482 35.5579 31.2585 35.4969 31.3514C35.4359 31.4442 35.349 31.5151 35.2482 31.5544C34.49 31.8545 33.6855 32.0055 32.875 31.9998ZM27.5727 29.2536L27.6475 29.3515C29.2685 31.4418 32.6321 32.2886 35.122 31.3096C35.1672 31.291 35.206 31.2587 35.2335 31.2169C35.2609 31.175 35.2758 31.1254 35.2762 31.0746C35.2767 31.0218 35.2624 30.9699 35.235 30.9255C35.2076 30.8811 35.1683 30.8461 35.122 30.825C32.5667 29.704 31.7772 27.7851 31.5623 26.3753V26.3018L31.609 26.2431C32.52 25.2558 33.2767 24.1242 33.8514 22.8899C35.0016 20.4988 35.5214 17.8291 35.3572 15.1569C35.1929 12.4848 34.3505 9.90706 32.917 7.69033C30.2028 3.34831 23.9989 0.308397 17.8371 0.308397C11.6752 0.308397 5.47602 3.34831 2.7478 7.71481C1.31432 9.93154 0.471911 12.5092 0.307651 15.1814C0.143392 17.8536 0.66325 20.5232 1.81348 22.9144C3.28971 26.0522 7.33532 31.3243 17.8231 31.3292C21.5277 31.3292 24.7651 30.6439 27.4559 29.2977L27.5727 29.2536Z" fill="#455A64"/>
<path d="M8.16222 19.6542L8.13886 13.7114C8.13886 12.5611 9.07318 11.4009 10.9652 10.5149C14.7398 8.7673 20.8737 8.74282 24.6623 10.461C26.5777 11.3324 27.526 12.4778 27.5073 13.6282V19.5514C27.5073 20.6969 26.573 22.4542 24.7044 23.3354C20.9297 25.0829 14.7959 25.1123 11.0072 23.3892C9.11522 22.5326 8.16689 20.7997 8.15755 19.664L8.16222 19.6542Z" fill="#263238"/>
<path d="M17.795 5.27702L31.8426 13.6967L17.8558 22.2339L3.80825 13.8142L17.795 5.27702Z" fill="#455A64"/>
<path d="M31.8426 13.6967V14.3037L17.8605 22.8409L17.8558 22.2339L31.8426 13.6967Z" fill="#37474F"/>
<path d="M3.80825 13.8142V14.4212L17.8604 22.8409L17.8558 22.2339L3.80825 13.8142Z" fill="#263238"/>
<path opacity="0.1" d="M26.3488 17.6569L17.8605 23.7514L9.35348 17.7401L17.8605 22.8409L26.3488 17.6569Z" fill="black"/>
<path d="M10.5821 16.3891L16.8047 12.5317C16.839 12.5095 16.8771 12.4947 16.9169 12.4881C16.9567 12.4815 16.9973 12.4832 17.0364 12.4933C17.0756 12.5033 17.1124 12.5214 17.1448 12.5465C17.1772 12.5715 17.2045 12.6031 17.2251 12.6394C17.2602 12.7047 17.2728 12.7807 17.2609 12.8546C17.249 12.9286 17.2133 12.996 17.1597 13.0457L17.113 13.08L10.8858 16.9423" fill="#E0E0E0"/>
<path d="M9.66179 21.9108C9.80623 21.989 9.96641 22.0297 10.129 22.0297C10.2915 22.0297 10.4517 21.989 10.5961 21.9108L11.395 26.0032C11.395 26.9823 8.92835 27.0116 8.92368 26.0032L9.66179 21.9108Z" fill="#6B67F1"/>
<path opacity="0.15" d="M9.6291 24.9116L9.48428 26.62L9.33479 26.5564L9.6291 24.9116Z" fill="black"/>
<path opacity="0.15" d="M10.811 26.6396L10.4513 23.1199L10.9512 26.5759L10.811 26.6396Z" fill="black"/>
<path opacity="0.15" d="M10.2551 26.7326C10.2038 26.7375 10.1522 26.7375 10.1009 26.7326L10.1663 24.1822L10.2551 26.7326Z" fill="black"/>
<path d="M10.1523 21.8374C10.2333 21.8361 10.3105 21.8015 10.3673 21.7411C10.4241 21.6806 10.456 21.5992 10.456 21.5143L10.4513 17.7695C10.4547 17.6012 10.4995 17.4366 10.5813 17.2917C10.6631 17.1468 10.7793 17.0264 10.9184 16.9422L10.6148 16.3891C10.3828 16.5294 10.1903 16.7314 10.0566 16.9746C9.92287 17.2179 9.85277 17.4937 9.85332 17.7744L9.88135 21.5192C9.88091 21.598 9.90838 21.6742 9.95843 21.7329C10.0085 21.7917 10.0776 21.8289 10.1523 21.8374Z" fill="#E0E0E0"/>
<path d="M10.8204 21.5143C10.821 21.4224 10.8041 21.3313 10.7707 21.2464C10.7373 21.1614 10.688 21.0843 10.6258 21.0196C10.5636 20.9548 10.4897 20.9038 10.4084 20.8693C10.3271 20.8349 10.24 20.8179 10.1523 20.8192C10.02 20.8192 9.89066 20.8604 9.78071 20.9375C9.67075 21.0146 9.58513 21.1243 9.53471 21.2525C9.48428 21.3807 9.47133 21.5217 9.49749 21.6576C9.52364 21.7935 9.58773 21.9182 9.68163 22.0159C9.77552 22.1136 9.89499 22.1799 10.0249 22.2064C10.1548 22.2328 10.2892 22.2182 10.4112 22.1645C10.5332 22.1108 10.6372 22.0203 10.7101 21.9045C10.7829 21.7888 10.8213 21.653 10.8204 21.5143Z" fill="#6B67F1"/>
<path opacity="0.15" d="M9.48895 21.5584C9.51756 21.6301 9.5604 21.6947 9.61462 21.7477C9.66884 21.8008 9.73321 21.8411 9.80345 21.8661C9.87369 21.8911 9.94821 21.9002 10.022 21.8927C10.0959 21.8852 10.1674 21.8614 10.2317 21.8227C10.3098 21.7699 10.3741 21.6975 10.4185 21.612C10.463 21.5264 10.4863 21.4306 10.4863 21.3332C10.4863 21.2358 10.463 21.14 10.4185 21.0545C10.3741 20.969 10.3098 20.8965 10.2317 20.8437C10.3576 20.8607 10.4762 20.9148 10.5737 20.9998C10.6713 21.0848 10.7437 21.1972 10.7825 21.3237C10.8214 21.4503 10.825 21.5858 10.793 21.7145C10.761 21.8431 10.6948 21.9595 10.6019 22.0502C10.5091 22.1408 10.3936 22.2018 10.2689 22.2262C10.1441 22.2505 10.0154 22.2371 9.89765 22.1876C9.77992 22.1381 9.67808 22.0544 9.60405 21.9465C9.53002 21.8385 9.48686 21.7107 9.47961 21.578L9.48895 21.5584Z" fill="black"/>
</svg>
