<svg width="75" height="58" viewBox="0 0 75 58" fill="none" xmlns="http://www.w3.org/2000/svg">
<path d="M73.75 30H72.5V26.25C72.5 25.5 72 25 71.25 25H70V16.25C70 15.5 69.5 15 68.75 15H61.25C60.5 15 60 15.5 60 16.25V25H58.75C58 25 57.5 25.5 57.5 26.25V30H55V3.75C55 3 54.5 2.5 53.75 2.5H41.25C40.5 2.5 40 3 40 3.75V30H35V27.5H30V30H25V25H36.25C37 25 37.5 24.5 37.5 23.75V1.25C37.5 0.5 37 0 36.25 0H3.75C3 0 2.5 0.5 2.5 1.25V23.75C2.5 24.5 3 25 3.75 25H15V30H1.25C0.5 30 0 30.5 0 31.25V37.5V57.5H2.5V38.75H5V57.5H7.5V38.75H67.5V57.5H70V38.75H72.5V57.5H75V37.5V31.25C75 30.5 74.5 30 73.75 30ZM62.5 17.5H63.75V21.25H66.25V17.5H67.5V25H62.5V17.5ZM60 27.5H61.25H68.75H70V30H60V27.5ZM52.5 5V8.75H42.5V5H52.5ZM42.5 11.25H46.25V22.5H48.75V11.25H52.5V30H42.5V11.25ZM35 2.5V16.25H5V2.5H35ZM5 18.75H35V22.5H23.75H16.25H5V18.75ZM17.5 25H22.5V30H17.5V25ZM68.75 36.25H6.25H2.5V32.5H16.25H23.75H41.25H53.75H58.75H71.25H72.5V36.25H68.75Z" fill="white"/>
<path d="M48.75 25H46.25V27.5H48.75V25Z" fill="white"/>
</svg>
