<svg width="41" height="89" viewBox="0 0 41 89" fill="none" xmlns="http://www.w3.org/2000/svg">
<path d="M5.88631 1.58776C5.83872 1.55979 5.7831 1.55073 5.72965 1.56226C5.6762 1.57378 5.62851 1.60511 5.59532 1.65049C5.56213 1.69588 5.54567 1.75229 5.54895 1.80936C5.55224 1.86644 5.57505 1.92036 5.61321 1.96124L5.94186 2.2183L5.05777 2.61117C2.53973 0.627411 0.563248 -0.45905 0.0864872 0.186036C-0.390274 0.831123 1.14648 2.54327 3.65063 4.55128L3.53028 5.55044L3.20627 5.29337C3.15868 5.2654 3.10305 5.25634 3.0496 5.26786C2.99615 5.27939 2.94847 5.31071 2.91528 5.3561C2.88209 5.40149 2.86562 5.4579 2.86891 5.51497C2.87219 5.57205 2.89502 5.62597 2.93318 5.66685L3.47012 6.08882L2.84985 11.2689L3.09517 11.4629L5.84928 6.17612C8.03868 7.65546 10.2558 8.90683 10.2558 8.90683L10.4549 11.395L10.6771 11.5745L11.3621 9.72167C11.3621 9.72167 11.9129 10.1194 12.1583 9.78473C12.4036 9.45006 11.8852 9.00383 11.8852 9.00383L13.3941 7.81067L13.172 7.63121L10.8344 8.11623C10.8344 8.11623 9.08014 6.22463 7.13144 4.42032L11.251 0.195735L11.0057 0.00172526L6.42324 2.03399L5.88631 1.58776Z" fill="#455A64"/>
<path d="M13.6765 11.0264L13.9218 11.2204C14.0838 11.3514 14.3245 11.5308 14.6161 11.7782C14.9078 12.0256 15.2595 12.336 15.653 12.6997C16.0464 13.0635 16.4954 13.4709 16.949 13.9511C17.4027 14.4313 17.9072 14.9212 18.4163 15.5032C18.9255 16.0852 19.4532 16.6721 19.9762 17.3172C20.4993 17.9623 21.0408 18.6316 21.5546 19.3398C22.0684 20.0479 22.5776 20.7949 23.0914 21.4981C23.6052 22.2014 24.0773 22.9872 24.5217 23.7438C24.966 24.5005 25.4104 25.2426 25.8131 25.9749C26.2158 26.7073 26.5768 27.43 26.9286 28.1236C27.2804 28.8172 27.5535 29.4817 27.8312 30.0928C28.1089 30.704 28.3172 31.286 28.5209 31.7904C28.7246 32.2949 28.8727 32.7605 28.9838 33.1194C29.2384 33.8615 29.3772 34.2883 29.3772 34.2883C29.3772 34.2883 29.1782 33.8906 28.8495 33.1825C28.6829 32.8284 28.4978 32.3967 28.2432 31.9165L27.4239 30.2965C27.1045 29.7145 26.7759 29.0694 26.4102 28.4049C26.0445 27.7404 25.6511 27.042 25.2206 26.3339C25.0077 25.9798 24.7901 25.6209 24.5726 25.2523L23.8875 24.1609C23.4247 23.4189 22.934 22.7059 22.4526 21.9638C21.9712 21.2217 21.4667 20.5087 20.9483 19.8103L20.2123 18.7868L19.4578 17.7877C18.9533 17.1378 18.4673 16.5072 17.9951 15.9203C17.523 15.3334 17.0694 14.7805 16.6343 14.2858C16.1992 13.7911 15.8057 13.3157 15.4586 12.9277C15.1114 12.5397 14.7782 12.1953 14.5328 11.914L13.6765 11.0264Z" fill="#EBEBEB"/>
<path d="M35.8204 47.5586C35.802 47.4995 35.7619 47.4504 35.709 47.4222C35.656 47.394 35.5946 47.389 35.5381 47.4083C35.4816 47.4276 35.4348 47.4696 35.4079 47.5251C35.3809 47.5805 35.3762 47.645 35.3946 47.7041L35.5242 48.1164L34.5984 47.9078C33.6033 44.7794 32.5664 42.7035 31.8212 42.9654C31.076 43.2273 31.4092 45.5361 32.3905 48.6742L31.7518 49.426L31.6222 49.0137C31.6128 48.9847 31.598 48.9579 31.5787 48.9349C31.5594 48.9119 31.536 48.8931 31.5098 48.8796C31.4836 48.866 31.455 48.8581 31.4259 48.8561C31.3967 48.8542 31.3675 48.8583 31.3398 48.8682C31.3113 48.8769 31.2849 48.8917 31.2621 48.9116C31.2392 48.9314 31.2205 48.956 31.2071 48.9837C31.1937 49.0114 31.1858 49.0417 31.1839 49.0727C31.1821 49.1037 31.1863 49.1348 31.1963 49.1641L31.4046 49.8286L28.0904 53.7088L28.1876 54.0143L33.3116 51.2836C34.3068 53.8058 35.4548 56.1339 35.4548 56.1339L34.2698 58.302L34.3531 58.5784L35.9223 57.4677C35.9223 57.4677 36.1583 58.1225 36.5425 57.9916C36.9267 57.8606 36.7415 57.1816 36.7415 57.1816L38.6301 57.0991L38.5468 56.8226L36.362 55.8186C36.362 55.8186 35.95 53.2189 35.3205 50.5706L41 49.5521L40.9028 49.2465L36.0287 48.1843L35.8204 47.5586Z" fill="#6B67F1"/>
<path d="M37.1813 59.9268C37.1813 59.9268 37.1813 60.0335 37.2553 60.2372C37.3294 60.4409 37.3803 60.7223 37.459 61.1297C37.5377 61.5371 37.6256 61.9833 37.7136 62.5266C37.8015 63.0698 37.908 63.6809 37.9728 64.3551C38.0376 65.0293 38.1255 65.7568 38.1857 66.528C38.2459 67.2992 38.2875 68.1189 38.3061 68.9532C38.3246 69.7874 38.3477 70.675 38.3061 71.5626C38.2644 72.4502 38.2459 73.3572 38.2135 74.2594C38.1811 75.1615 38.0839 76.0588 37.9821 76.9464C37.8802 77.834 37.7691 78.6974 37.6488 79.5316C37.5284 80.3659 37.3618 81.171 37.2276 81.9325C37.0933 82.694 36.8989 83.3876 36.7647 84.0618C36.6305 84.736 36.4268 85.3131 36.2787 85.837C36.1305 86.3608 35.9778 86.807 35.8621 87.1902C35.6121 87.9371 35.464 88.3591 35.464 88.3591C35.464 88.3591 35.5473 87.9177 35.7186 87.1514C35.8019 86.7682 35.913 86.3026 36.0056 85.7642C36.0981 85.2258 36.2139 84.6244 36.3388 83.9648C36.4638 83.3051 36.5703 82.5873 36.6814 81.8258C36.7925 81.0643 36.9082 80.2689 36.9961 79.4346C37.0424 79.0175 37.0933 78.5955 37.1396 78.1687C37.1859 77.7419 37.2229 77.3053 37.2646 76.864C37.3572 75.9909 37.3988 75.0985 37.4636 74.206C37.5284 73.3136 37.5747 72.426 37.584 71.5432C37.584 71.1067 37.6118 70.6702 37.621 70.2385C37.6303 69.8068 37.621 69.38 37.621 68.9629C37.621 68.1238 37.621 67.3138 37.621 66.5377C37.621 65.7617 37.584 65.039 37.5423 64.3697C37.5007 63.7003 37.4683 63.0843 37.4405 62.5411C37.4127 61.9979 37.3525 61.5226 37.3201 61.1297C37.2276 60.373 37.1813 59.9268 37.1813 59.9268Z" fill="#EBEBEB"/>
</svg>
