<svg width="25" height="25" viewBox="0 0 25 25" fill="none" xmlns="http://www.w3.org/2000/svg">
<mask id="mask0_1_870" style="mask-type:luminance" maskUnits="userSpaceOnUse" x="2" y="1" width="22" height="23">
<path fill-rule="evenodd" clip-rule="evenodd" d="M2.05058 1.04188H23.0688V23.4429H2.05058V1.04188Z" fill="white"/>
</mask>
<g mask="url(#mask0_1_870)">
<path fill-rule="evenodd" clip-rule="evenodd" d="M14.0637 15.9284C15.2981 15.9284 16.3029 16.942 16.3029 18.1878V21.392C16.3029 21.6597 16.5141 21.8743 16.7848 21.8805H18.739C20.279 21.8805 21.5308 20.6243 21.5308 19.0805V9.99303C21.5237 9.46178 21.2745 8.96178 20.847 8.62949L14.0873 3.1524C13.1799 2.4222 11.9106 2.4222 11.0001 3.15449L4.28652 8.6274C3.84257 8.97011 3.59343 9.47011 3.5883 10.0107V19.0805C3.5883 20.6243 4.84018 21.8805 6.38016 21.8805H8.35282C8.63067 21.8805 8.85623 21.6566 8.85623 21.3816C8.85623 21.3212 8.86341 21.2607 8.87571 21.2034V18.1878C8.87571 16.9493 9.87435 15.9368 11.0996 15.9284H14.0637ZM18.739 23.443H16.7663C15.6365 23.4159 14.765 22.5149 14.765 21.392V18.1878C14.765 17.8034 14.4502 17.4909 14.0637 17.4909H11.1047C10.7264 17.493 10.4136 17.8066 10.4136 18.1878V21.3816C10.4136 21.4597 10.4034 21.5347 10.3819 21.6055C10.2711 22.6368 9.40374 23.443 8.35282 23.443H6.38016C3.99227 23.443 2.05037 21.4857 2.05037 19.0805V10.0034C2.06062 8.96803 2.5302 8.02011 3.34121 7.39615L10.0415 1.93261C11.5169 0.745111 13.5726 0.745111 15.0449 1.93053L21.7933 7.39928C22.5859 8.01282 23.0554 8.95865 23.0688 9.98157V19.0805C23.0688 21.4857 21.1269 23.443 18.739 23.443Z" fill="white"/>
</g>
</svg>
