<svg width="25" height="25" viewBox="0 0 25 25" fill="none" xmlns="http://www.w3.org/2000/svg">
<mask id="mask0_1_868" style="mask-type:luminance" maskUnits="userSpaceOnUse" x="2" y="2" width="20" height="22">
<path fill-rule="evenodd" clip-rule="evenodd" d="M2.05057 2.08385H21.8231V23.6682H2.05057V2.08385Z" fill="white"/>
</mask>
<g mask="url(#mask0_1_868)">
<path fill-rule="evenodd" clip-rule="evenodd" d="M7.38432 18.1672C7.61911 18.1672 7.8539 18.1974 8.08357 18.2599C8.77666 18.4495 9.37851 18.9203 9.73531 19.5526C9.96702 19.9495 10.0952 20.413 10.0993 20.8859C10.0993 21.563 10.6345 22.1057 11.2927 22.1057H12.5774C13.2326 22.1057 13.7678 21.5661 13.7708 20.9005C13.7667 20.1651 14.0497 19.4661 14.5675 18.9401C15.0781 18.4214 15.7917 18.1099 16.5053 18.1307C16.9728 18.1422 17.4229 18.2703 17.8197 18.4995C18.3908 18.8318 19.1198 18.6339 19.4499 18.0609L20.1307 16.9078C20.2824 16.6422 20.3265 16.3089 20.2455 16.0016C20.1656 15.6943 19.9646 15.4276 19.6939 15.2703C19.0603 14.8995 18.6082 14.3016 18.4205 13.5849C18.2349 12.8818 18.3364 12.1141 18.6984 11.4818C18.9342 11.0651 19.2797 10.7141 19.6939 10.4724C20.2496 10.1422 20.4444 9.40365 20.1215 8.82865C20.1081 8.80573 20.0958 8.78177 20.0856 8.75677L19.4848 7.69844C19.1577 7.12031 18.4298 6.92135 17.8587 7.25156C17.2414 7.6224 16.5073 7.72865 15.8019 7.5401C15.0976 7.35469 14.507 6.90156 14.1389 6.26198C13.9031 5.86198 13.7749 5.39635 13.7708 4.9224C13.7801 4.56615 13.657 4.24635 13.4335 4.01198C13.211 3.77865 12.8983 3.64635 12.5774 3.64635H11.2927C10.9749 3.64635 10.6775 3.7724 10.453 3.99948C10.2295 4.2276 10.1075 4.53073 10.1095 4.85365C10.088 6.37656 8.86279 7.6026 7.37919 7.6026C6.90346 7.5974 6.44516 7.46719 6.04734 7.22552C5.48856 6.9026 4.75856 7.10156 4.43149 7.67969L3.73737 8.83906C3.41953 9.39948 3.61434 10.1401 4.18029 10.4745C5.02001 10.9682 5.54393 11.8891 5.54393 12.8766C5.54393 13.8641 5.02001 14.7839 4.17824 15.2786C3.61536 15.6099 3.42056 16.3464 3.7466 16.9193L4.39355 18.0526C4.5535 18.3453 4.81495 18.5568 5.11741 18.6432C5.41884 18.7286 5.75104 18.6922 6.02786 18.5359C6.4349 18.2932 6.90859 18.1672 7.38432 18.1672ZM12.5774 23.6682H11.2927C9.78657 23.6682 8.56135 22.4245 8.56135 20.8943C8.5593 20.7057 8.50599 20.5099 8.40654 20.3401C8.24557 20.0547 7.98514 19.8505 7.68473 19.7693C7.38637 19.688 7.05931 19.7328 6.79068 19.8911C6.1468 20.2557 5.38911 20.3443 4.69602 20.1464C4.00395 19.9474 3.4062 19.4641 3.05556 18.8234L2.41475 17.7016C1.66526 16.3807 2.11127 14.688 3.40928 13.9255C3.77736 13.7099 4.006 13.3078 4.006 12.8766C4.006 12.4453 3.77736 12.0422 3.40928 11.8266C2.11024 11.0599 1.66526 9.36302 2.41373 8.04219L3.10887 6.88281C3.8481 5.57656 5.51932 5.11615 6.82247 5.87656C6.99984 5.98385 7.19259 6.03802 7.38842 6.0401C8.02718 6.0401 8.56135 5.50469 8.57161 4.84635C8.56751 4.12031 8.84946 3.42344 9.36313 2.8974C9.87885 2.3724 10.5637 2.08385 11.2927 2.08385H12.5774C13.3115 2.08385 14.0251 2.3901 14.5367 2.9224C15.0473 3.45781 15.3293 4.19219 15.3078 4.93698C15.3098 5.10469 15.3641 5.29844 15.4626 5.46823C15.6256 5.74948 15.8829 5.9474 16.1885 6.02865C16.494 6.10573 16.8139 6.06406 17.0856 5.90052C18.398 5.13906 20.0682 5.59531 20.8177 6.91823L21.4564 8.04219C21.4728 8.0724 21.4872 8.10156 21.4995 8.13177C22.1782 9.4349 21.725 11.0755 20.4639 11.8245C20.2804 11.9318 20.1317 12.0818 20.0292 12.263C19.8703 12.5432 19.8262 12.8766 19.9062 13.1828C19.9882 13.4953 20.184 13.7547 20.4598 13.9151C21.0822 14.2786 21.5466 14.8911 21.7322 15.5984C21.9178 16.3047 21.8163 17.0714 21.4544 17.7036L20.7736 18.8557C20.0241 20.1641 18.3539 20.6172 17.0548 19.8547C16.8816 19.7536 16.6816 19.6984 16.4827 19.6932H16.4766C16.1803 19.6932 15.8758 19.8214 15.6543 20.0453C15.4298 20.2734 15.3067 20.5776 15.3088 20.9005C15.3016 22.4307 14.0764 23.6682 12.5774 23.6682Z" fill="white"/>
</g>
<path fill-rule="evenodd" clip-rule="evenodd" d="M11.9396 10.911C10.8733 10.911 10.0059 11.7933 10.0059 12.8767C10.0059 13.96 10.8733 14.8402 11.9396 14.8402C13.0059 14.8402 13.8733 13.96 13.8733 12.8767C13.8733 11.7933 13.0059 10.911 11.9396 10.911ZM11.9396 16.4027C10.0254 16.4027 8.46796 14.8215 8.46796 12.8767C8.46796 10.9319 10.0254 9.34854 11.9396 9.34854C13.8538 9.34854 15.4112 10.9319 15.4112 12.8767C15.4112 14.8215 13.8538 16.4027 11.9396 16.4027Z" fill="white"/>
</svg>
