<svg width="75" height="75" viewBox="0 0 75 75" fill="none" xmlns="http://www.w3.org/2000/svg">
<path d="M8.48497 47.5229C13.1725 47.5229 16.9996 43.616 16.9996 38.763C16.9996 33.9405 13.2021 30.0337 8.48497 30.0337C3.79747 30.0337 0 33.9405 0 38.763C0 43.616 3.82714 47.5229 8.48497 47.5229Z" fill="white"/>
<path d="M56.1314 62.5704C56.517 62.2957 57.0511 62.3872 57.3477 62.7535L58.9201 64.9816C59.1871 65.3784 59.0981 65.9278 58.7421 66.233L47.2014 74.8403C46.8157 75.115 46.2817 75.0234 45.985 74.6571L44.4126 72.429C44.1456 72.0322 44.2346 71.4828 44.5906 71.1776L56.1314 62.5704Z" fill="white"/>
<path d="M43.1072 51.4297L38.5087 43.1887L36.1056 44.9895L40.7041 53.2915L43.1072 51.4297Z" fill="white"/>
<path d="M32.4268 32.1703L14.6262 0L11.2144 0.0305221L29.9941 33.9711L32.4268 32.1703Z" fill="white"/>
<path d="M49.1891 49.171C50.1978 48.408 51.3548 47.8281 52.6602 47.8281L69.1851 47.8586C72.3893 47.8586 75 50.5445 75 53.8409C75 57.1373 72.4189 59.8233 69.1851 59.8233L55.3896 59.7928L37.767 72.5815C31.5665 77.1904 27.7987 72.1237 27.7987 72.1237L13.9735 57.9004C11.6594 55.0313 12.1638 49.5984 14.9229 47.1871L34.0586 33.1775C35.9573 31.5293 38.7757 31.804 40.3778 33.7268C41.9798 35.6803 41.7128 38.6104 39.8141 40.2281L27.5613 49.4457L36.3726 58.3887L49.1891 49.171Z" fill="white"/>
</svg>
