<svg width="49" height="34" viewBox="0 0 49 34" fill="none" xmlns="http://www.w3.org/2000/svg">
<path opacity="0.2" d="M0.146886 6.85802L41.973 32.2034L48.4342 33.5798C48.4715 33.5876 48.5102 33.584 48.5456 33.5695C48.5811 33.555 48.6118 33.5302 48.6343 33.498C48.6567 33.4658 48.6699 33.4275 48.6723 33.3877C48.6747 33.348 48.6661 33.3083 48.6477 33.2734L46.6239 29.3823L4.7932 4.037C3.51674 3.27338 -0.851073 6.25977 0.146886 6.85802Z" fill="black"/>
<path d="M4.31047 0.218863C4.3748 0.233454 4.43717 0.256332 4.49614 0.286963L4.13409 0.0729543L4.0691 0.0340503L3.99484 0H3.96234H3.90201H3.79989H3.69312C3.41828 0.00896249 3.1507 0.0945961 2.91797 0.248059C2.41379 0.593244 1.99431 1.05803 1.69351 1.60476C1.39271 2.15149 1.21906 2.76477 1.18663 3.39493C1.18445 3.54713 1.20004 3.69905 1.23305 3.84728C1.23093 3.87317 1.23093 3.89921 1.23305 3.9251C1.22905 3.93939 1.22905 3.95458 1.23305 3.96887C1.24023 3.99874 1.24954 4.02801 1.26089 4.05642C1.29459 4.15472 1.34318 4.24668 1.40478 4.32879C1.47368 4.42545 1.56052 4.50652 1.66008 4.56711L2.07319 4.81517C2.00431 4.77515 1.94169 4.7243 1.88752 4.6644C2.2352 4.72484 2.59183 4.64489 2.88548 4.44067C3.38956 4.09653 3.80906 3.63265 4.10989 3.0867C4.41072 2.54075 4.5844 1.92813 4.61682 1.29863C4.63659 1.10636 4.61968 0.911896 4.56709 0.726529C4.5145 0.541163 4.42727 0.36859 4.31047 0.218863Z" fill="#6B67F1"/>
<path d="M44.628 24.5817L42.1865 29.0321L41.7687 28.784L2.0871 4.75679C2.01822 4.71677 1.9556 4.66592 1.90143 4.60602C1.6745 4.32067 1.55996 3.95538 1.58116 3.58461C1.61338 2.95384 1.78743 2.33997 2.08911 1.79308C2.3908 1.2462 2.81159 0.78179 3.31714 0.437722C3.54824 0.284437 3.81429 0.198782 4.08766 0.189663C4.16282 0.189186 4.23772 0.198996 4.31046 0.218845C4.37479 0.233436 4.43716 0.256314 4.49613 0.286945H4.52862L44.628 24.5817Z" fill="#F0F0F0"/>
<path d="M43.4026 24.7082C44.3588 24.1294 45.134 24.6012 45.134 25.7587C45.1015 26.3882 44.9279 27.0009 44.627 27.5468C44.3262 28.0928 43.9067 28.5566 43.4026 28.9008C42.4464 29.4796 41.6713 29.0126 41.6713 27.855C41.7037 27.2249 41.8774 26.6116 42.1782 26.0649C42.479 25.5181 42.8985 25.0533 43.4026 24.7082Z" fill="#6B67F1"/>
<path d="M47.1299 27.4076C47.1169 27.3875 47.1013 27.3695 47.0835 27.3541L44.874 24.8103L44.8369 24.7666V24.7374C44.5213 24.4164 44.02 24.392 43.4444 24.7374C42.9402 25.0826 42.5207 25.5474 42.2199 26.0941C41.9191 26.6408 41.7455 27.2541 41.713 27.8843C41.713 28.5555 41.973 28.9932 42.3815 29.1294H42.4047H42.53H42.5578L45.7652 29.8638C45.9594 29.8949 46.1577 29.8499 46.3222 29.7374C46.611 29.5402 46.8514 29.2745 47.0239 28.9618C47.1965 28.6492 47.2964 28.2984 47.3155 27.9378C47.3127 27.7441 47.2472 27.5572 47.1299 27.4076Z" fill="#E0E0E0"/>
<path d="M14.7774 8.42902L14.7171 8.39499C14.6511 8.36995 14.5802 8.36218 14.5106 8.37235C14.4411 8.38252 14.3749 8.41033 14.3179 8.45335C14.1399 8.57762 13.9917 8.74316 13.8846 8.93717C13.7776 9.13117 13.7146 9.3484 13.7006 9.57202C13.6955 9.644 13.7058 9.71627 13.7307 9.78357C13.7556 9.85087 13.7944 9.91152 13.8445 9.96112L13.9187 10.0049L44.2613 28.3755L45.9927 27.3298L14.7774 8.42902Z" fill="#455A64"/>
<path d="M41.8244 26.8969L44.2706 28.356L46.0019 27.3103L42.6924 25.3064C42.2993 25.7665 42.0035 26.3085 41.8244 26.8969Z" fill="#37474F"/>
<path d="M47.9979 28.6333L45.9927 26.323L45.937 26.2597C45.7972 26.1408 45.6227 26.076 45.4426 26.076C45.2626 26.076 45.0881 26.1408 44.9483 26.2597C44.5919 26.5034 44.2952 26.8316 44.0823 27.2178C43.8694 27.6039 43.7463 28.0372 43.7229 28.4825C43.6995 28.662 43.732 28.8447 43.8156 29.0033C43.8993 29.162 44.0295 29.288 44.1871 29.3628H44.266L47.2088 30.034C47.3189 30.0501 47.4309 30.0242 47.5244 29.9611C47.6867 29.8503 47.8218 29.7009 47.9185 29.5251C48.0153 29.3493 48.0711 29.1521 48.0814 28.9494C48.0937 28.8367 48.0638 28.7233 47.9979 28.6333Z" fill="#6B67F1"/>
<path opacity="0.1" d="M47.9979 28.6333L45.9927 26.323L45.937 26.2597C45.7972 26.1408 45.6227 26.076 45.4426 26.076C45.2626 26.076 45.0881 26.1408 44.9483 26.2597C44.5919 26.5034 44.2952 26.8316 44.0823 27.2178C43.8694 27.6039 43.7463 28.0372 43.7229 28.4825C43.6995 28.662 43.732 28.8447 43.8156 29.0033C43.8993 29.162 44.0295 29.288 44.1871 29.3628H44.266L47.2088 30.034C47.3189 30.0501 47.4309 30.0242 47.5244 29.9611C47.6867 29.8503 47.8218 29.7009 47.9185 29.5251C48.0153 29.3493 48.0711 29.1521 48.0814 28.9494C48.0937 28.8367 48.0638 28.7233 47.9979 28.6333Z" fill="black"/>
<path d="M48.1093 28.9494C48.099 29.1521 48.0432 29.3494 47.9464 29.5252C47.8496 29.701 47.7146 29.8503 47.5523 29.9611C47.4588 30.0243 47.3468 30.0502 47.2366 30.0341L45.7513 29.6936C45.5146 29.645 45.3614 29.4115 45.3614 29.0418C45.3784 28.7176 45.4679 28.402 45.6227 28.1207C45.7776 27.8394 45.9933 27.6001 46.2526 27.4222C46.3543 27.3378 46.4802 27.2918 46.61 27.2918C46.7397 27.2918 46.8657 27.3378 46.9674 27.4222L47.0045 27.466L48.0025 28.609C48.0422 28.6546 48.0723 28.7085 48.0907 28.7672C48.1091 28.8259 48.1154 28.888 48.1093 28.9494Z" fill="#6B67F1"/>
<path opacity="0.1" d="M47.5523 28.6333C47.8586 28.4485 48.1093 28.5992 48.1093 28.9689C48.099 29.1716 48.0432 29.3688 47.9464 29.5446C47.8496 29.7204 47.7146 29.8698 47.5523 29.9806C47.2459 30.1702 46.9953 30.0195 46.9953 29.645C47.0055 29.4423 47.0613 29.245 47.1581 29.0692C47.2549 28.8934 47.39 28.7441 47.5523 28.6333Z" fill="black"/>
<path d="M8.23732 4.4601C8.16819 4.42634 8.09169 4.41259 8.01578 4.42029C7.93987 4.42799 7.8673 4.45686 7.80564 4.50389C7.62686 4.62568 7.47814 4.7901 7.37164 4.98369C7.26515 5.17729 7.20391 5.39454 7.19294 5.61769C7.18423 5.69805 7.19646 5.77938 7.22833 5.85303C7.26021 5.92668 7.31054 5.98991 7.37397 6.03599L13.8723 9.95622C13.8223 9.90661 13.7834 9.84595 13.7585 9.77865C13.7336 9.71135 13.7233 9.63909 13.7284 9.56711C13.7424 9.34349 13.8054 9.12626 13.9125 8.93226C14.0195 8.73826 14.1678 8.5727 14.3458 8.44843C14.4027 8.40541 14.4689 8.37761 14.5384 8.36744C14.608 8.35726 14.6789 8.36504 14.7449 8.39007L8.23732 4.4601Z" fill="#FAFAFA"/>
<path d="M8.41834 4.8784C8.40628 5.10128 8.34458 5.31811 8.23818 5.51152C8.13179 5.70493 7.98365 5.86956 7.80564 5.99221C7.74357 6.03831 7.67109 6.0666 7.59536 6.07428C7.51964 6.08196 7.44332 6.06876 7.37397 6.03599C7.3109 5.98955 7.26086 5.92626 7.22902 5.8527C7.19719 5.77915 7.18473 5.698 7.19294 5.61769C7.20391 5.39454 7.26515 5.17729 7.37165 4.98369C7.47814 4.7901 7.62686 4.62568 7.80564 4.50389C7.86731 4.45686 7.93987 4.42799 8.01578 4.42029C8.09169 4.41259 8.16819 4.42634 8.23732 4.4601C8.30003 4.50689 8.3498 4.57023 8.38159 4.6437C8.41339 4.71716 8.42607 4.79814 8.41834 4.8784Z" fill="#F5F5F5"/>
<path d="M7.04905 2.13036H7.0212L4.46364 0.583659L4.4033 0.549623C4.23065 0.4791 4.04399 0.45462 3.86007 0.478391C3.67616 0.502162 3.50077 0.573438 3.34964 0.685809C2.89545 0.995767 2.51748 1.41368 2.24647 1.90556C1.97547 2.39744 1.81909 2.94939 1.79004 3.51654C1.76992 3.72061 1.80237 3.92662 1.884 4.1131C1.96563 4.29958 2.09347 4.45972 2.25421 4.57686L4.83962 6.14301C5.01445 6.22018 5.20526 6.24906 5.39379 6.22692C5.58232 6.20478 5.76229 6.13235 5.91649 6.01655C6.3712 5.70717 6.74956 5.28939 7.02063 4.79739C7.2917 4.30539 7.44777 3.75313 7.47609 3.1858C7.49756 2.98624 7.46954 2.78426 7.39473 2.59936C7.31992 2.41447 7.20086 2.25294 7.04905 2.13036Z" fill="#6B67F1"/>
<path opacity="0.05" d="M7.04905 2.13036H7.0212L4.46364 0.583659L4.4033 0.549623C4.23065 0.4791 4.04399 0.45462 3.86007 0.478391C3.67616 0.502162 3.50077 0.573438 3.34964 0.685809C2.89545 0.995767 2.51748 1.41368 2.24647 1.90556C1.97547 2.39744 1.81909 2.94939 1.79004 3.51654C1.76992 3.72061 1.80237 3.92662 1.884 4.1131C1.96563 4.29958 2.09347 4.45972 2.25421 4.57686L4.83962 6.14301C5.01445 6.22018 5.20526 6.24906 5.39379 6.22692C5.58232 6.20478 5.76229 6.13235 5.91649 6.01655C6.3712 5.70717 6.74956 5.28939 7.02063 4.79739C7.2917 4.30539 7.44777 3.75313 7.47609 3.1858C7.49756 2.98624 7.46954 2.78426 7.39473 2.59936C7.31992 2.41447 7.20086 2.25294 7.04905 2.13036Z" fill="black"/>
<path opacity="0.1" d="M5.91187 2.22278C6.77522 1.69749 7.47147 2.12064 7.47147 3.1615C7.44315 3.72883 7.28708 4.28108 7.01601 4.77308C6.74494 5.26508 6.36658 5.68286 5.91187 5.99224C5.05316 6.51267 4.35226 6.09438 4.35226 5.04866C4.38239 4.48244 4.53927 3.93158 4.81021 3.44067C5.08115 2.94975 5.45854 2.53255 5.91187 2.22278Z" fill="black"/>
<path d="M48.8195 29.606L47.7612 28.9397C47.7299 28.9189 47.6937 28.9079 47.6567 28.9079C47.6197 28.9079 47.5835 28.9189 47.5523 28.9397C47.4694 28.9959 47.4005 29.072 47.3513 29.1617C47.3021 29.2513 47.2739 29.3519 47.2691 29.4552C47.2641 29.4926 47.2692 29.5308 47.284 29.5652C47.2988 29.5997 47.3226 29.629 47.3527 29.6498L48.4064 30.3161C48.4658 30.3514 48.533 30.3698 48.6013 30.3696C48.688 30.3675 48.7717 30.3365 48.8405 30.2811C48.9092 30.2257 48.9593 30.1489 48.9836 30.0617C49.0079 29.9745 49.0051 29.8814 48.9756 29.796C48.9461 29.7106 48.8914 29.6373 48.8195 29.5866V29.606Z" fill="#455A64"/>
<path d="M48.8798 29.6401C48.8645 29.6202 48.8455 29.6037 48.8241 29.5915C48.7934 29.5823 48.7612 29.5806 48.7298 29.5865C48.6984 29.5924 48.6688 29.6057 48.6431 29.6255C48.5596 29.6815 48.49 29.7574 48.44 29.847C48.39 29.9366 48.3609 30.0374 48.3553 30.1411C48.3516 30.1776 48.3575 30.2146 48.3722 30.248C48.3869 30.2813 48.4099 30.3099 48.4388 30.3308C48.5266 30.36 48.6212 30.3574 48.7073 30.3233C48.7934 30.2892 48.866 30.2256 48.9133 30.1428C48.9606 30.06 48.9798 29.9629 48.9678 29.8672C48.9559 29.7716 48.9134 29.683 48.8473 29.6158L48.8798 29.6401Z" fill="#263238"/>
</svg>
