<svg width="65" height="61" viewBox="0 0 65 61" fill="none" xmlns="http://www.w3.org/2000/svg">
<path d="M0 61H11.7251C14.0552 57.72 16.4448 53.5791 18.7453 48.9929H9.8253C6.85693 53.3861 3.59173 57.4973 0 61ZM28.6893 24.964H22.4854C20.6599 29.3127 18.5375 33.8988 16.1331 38.4255H23.5837C25.4686 33.9582 27.2051 29.372 28.6893 24.964ZM32.4888 12.0516C32.6817 12.8085 32.8895 13.5951 33.0973 14.3818H38.4107C36.9859 10.3596 35.8876 6.87178 35.1306 4.30414C34.626 2.58248 34.2698 1.26156 34.0472 0.460097L32.4888 0L30.9156 0.474939C30.7078 1.2764 30.3516 2.59732 29.8321 4.31898C29.0752 6.88662 27.9769 10.3596 26.5521 14.3966H31.8654C32.0881 13.5951 32.2959 12.8085 32.4888 12.0516ZM36.2883 24.964C37.7725 29.372 39.509 33.9582 41.3791 38.4255H48.8445C46.4253 33.8988 44.3178 29.3127 42.4922 24.964H36.2883ZM55.1671 48.9929H46.2324C48.5328 53.5791 50.9224 57.7051 53.2525 61H64.9776C61.3859 57.4973 58.1207 53.3861 55.1671 48.9929ZM58.6105 40.5034H6.36715V46.9151H58.6105V40.5034ZM47.8501 16.4745H17.1275V22.8861H47.865V16.4745H47.8501Z" fill="white"/>
</svg>
