<svg width="75" height="75" viewBox="0 0 75 75" fill="none" xmlns="http://www.w3.org/2000/svg">
<path d="M6.25266 0H12.4741C15.7686 0 18.4707 2.78312 18.7095 6.30946L18.7267 6.81806V68.1806C18.7267 71.7731 16.1744 74.7195 12.9405 74.9799L12.4741 74.9986H6.25266C2.95808 74.9986 0.255998 72.2155 0.0171611 68.6892L0 68.1806V6.81806C0 3.22556 2.55233 0.279146 5.78624 0.0187125L6.25266 0H12.4741H6.25266ZM28.1213 0H34.3584C37.6529 0 40.355 2.78312 40.5939 6.30946L40.611 6.81806V68.1806C40.611 71.7731 38.0587 74.7195 34.8248 74.9799L34.3584 74.9986H28.1213C24.8238 74.9986 22.1244 72.2155 21.8858 68.6892L21.8687 68.1806V6.81806C21.8687 3.22556 24.4181 0.279146 27.6545 0.0187125L28.1213 0H34.3584H28.1213ZM56.6822 6.90806C59.3186 6.90806 61.7335 8.74105 62.6001 11.543L62.7442 12.0796L74.8118 64.8615C75.6116 68.3467 73.7906 71.8784 70.7086 72.9868L70.2599 73.1284L64.1229 74.7954C63.6164 74.9318 63.1068 75 62.6066 75C59.9673 75 57.555 73.164 56.6887 70.3645L56.5447 69.8285L44.4739 17.0465C43.6771 13.5549 45.4982 10.026 48.5802 8.92075L49.029 8.77961L55.1659 7.1126C55.6724 6.97624 56.182 6.90806 56.6822 6.90806ZM12.4741 5.11354H6.25266C5.48844 5.11354 4.84774 5.71959 4.7148 6.51269L4.68949 6.81806V68.1806C4.68949 69.0139 5.24529 69.7125 5.97262 69.8575L6.25266 69.8851H12.4741C13.241 69.8851 13.8796 69.279 14.012 68.4859L14.0372 68.1806V6.81806C14.0372 5.98474 13.4839 5.2861 12.7549 5.14113L12.4741 5.11354ZM34.3584 5.11354H28.1213C27.3543 5.11354 26.7158 5.71959 26.5834 6.51269L26.5582 6.81806V68.1806C26.5582 69.0139 27.1115 69.7125 27.8405 69.8575L28.1213 69.8851H34.3584C35.1254 69.8851 35.7639 69.279 35.8963 68.4859L35.9215 68.1806V6.81806C35.9215 5.98474 35.3682 5.2861 34.6392 5.14113L34.3584 5.11354ZM56.6822 12.0216L56.4899 12.0344L56.2977 12.0727L50.1638 13.7397C49.4191 13.9428 48.9337 14.698 48.9821 15.5026L49.0258 15.8056L61.0935 68.591C61.2967 69.4774 62.022 69.8865 62.6066 69.8865L62.7985 69.8732L62.988 69.8319L69.125 68.1649C69.8698 67.9619 70.3552 67.2094 70.3067 66.403L70.263 66.099L58.1922 13.3136C57.989 12.4239 57.2668 12.0216 56.6822 12.0216Z" fill="white"/>
</svg>
