<svg width="75" height="75" viewBox="0 0 75 75" fill="none" xmlns="http://www.w3.org/2000/svg">
<g clip-path="url(#clip0_1_4108)">
<path d="M55 12H57V10V2H58V10V12H60H67.5C70.5375 12 73 14.4624 73 17.5V57.5C73 60.5374 70.5374 63 67.5 63H7.5C4.46246 63 2 60.5375 2 57.5V17.5C2 14.4624 4.46243 12 7.5 12H15H17V10V2H18V10V12H20H55ZM10.121 52.1955L10.121 52.1956L8.47509 55.4876C8.47509 55.4876 8.47508 55.4876 8.47507 55.4876C7.77763 56.8825 7.8521 58.5393 8.67216 59.8661C9.4922 61.1928 10.9406 62 12.5 62H37.5C39.0594 62 40.5078 61.1928 41.3279 59.8661L41.3279 59.866C42.1479 58.5393 42.2224 56.8825 41.5249 55.4876C41.5249 55.4876 41.5249 55.4876 41.5249 55.4876L39.879 52.1956L39.879 52.1956C37.0612 46.56 31.301 43 25 43C18.6991 43 12.9389 46.56 10.121 52.1955ZM43 30V32H45H60H62V30V25V23H60H45H43V25V30ZM43 45V47H45H60H62V45V40V38H60H45H43V40V45ZM25 18C18.3726 18 13 23.3726 13 30C13 36.6274 18.3726 42 25 42C31.6274 42 37 36.6274 37 30C37 23.3726 31.6274 18 25 18Z" stroke="white" stroke-width="4"/>
<path d="M73.5 71.5V73.5H1.5V71.5H73.5Z" stroke="white" stroke-width="3"/>
</g>
<defs>
<clipPath id="clip0_1_4108">
<rect width="75" height="75" fill="white"/>
</clipPath>
</defs>
</svg>
