<svg width="75" height="75" viewBox="0 0 75 75" fill="none" xmlns="http://www.w3.org/2000/svg">
<path d="M46.2196 52.8253H47.4696V51.5753V46.3163V45.0663H46.2196H41.3149V40.0873V38.8373H40.0649H34.8685H33.6185V40.0873V45.0663H28.7137H27.4637V46.3163V51.5753V52.8253H28.7137H33.6185V57.8042V59.0542H34.8685H40.0649H41.3149V57.8042V52.8253H46.2196ZM7.79762 29.0892V28.2019L6.96007 27.9092C3.71628 26.7753 1.25 23.706 1.25 20.1807V19.0211H73.75V20.1671C73.6665 23.9022 71.3871 26.8649 68.0826 27.8885L67.2024 28.1611V29.0825V69.5783V70.8283H68.4524H73.75V73.75H1.25V70.8283H6.54762H7.79762V69.5783V29.0892ZM72.0621 14.4127H2.99239L10.413 6.90267L10.7738 6.53748V6.0241V1.25H64.5238V4.7741H62.7859L64.8232 6.89089L72.0621 14.4127ZM64.3452 29.0663V28.1236L63.4389 27.8644C60.0231 26.8876 57.5137 23.7547 57.5137 19.9837H56.2637H55.0137C55.0137 21.2563 54.4044 23.3599 53.0328 25.1358C51.6943 26.8689 49.701 28.2057 46.9295 28.2057C43.7662 28.2057 41.7898 26.8742 40.5671 25.2239C39.3032 23.5182 38.8152 21.4213 38.8152 19.9837H37.5652H36.3152C36.3152 21.488 35.7021 23.5854 34.3606 25.2889C33.0506 26.9523 31.074 28.2127 28.2789 28.2127C25.0669 28.2127 23.0607 26.6177 21.8074 24.7566C20.5098 22.8298 20.0863 20.7018 20.0863 19.9837H18.8363H17.5863C17.5863 23.7874 15.0351 26.9409 11.5745 27.889L10.6548 28.141V29.0946V69.5783V70.8283H11.9048H63.0952H64.3452V69.5783V29.0663ZM23.6869 48.9458C23.6869 41.2214 29.8705 34.9849 37.4667 34.9849C45.0628 34.9849 51.2464 41.2214 51.2464 48.9458C51.2464 56.6702 45.0628 62.9066 37.4667 62.9066C29.8705 62.9066 23.6869 56.6702 23.6869 48.9458Z" stroke="white" stroke-width="2.5"/>
</svg>
