<svg width="75" height="75" viewBox="0 0 75 75" fill="none" xmlns="http://www.w3.org/2000/svg">
<path d="M19.9087 67.6825C19.4011 64.7437 16.8324 62.5 13.7499 62.5C11.2887 62.5 9.15615 63.93 8.13735 66.0024C7.93608 65.8587 7.72105 65.7312 7.49985 65.6162V45C7.49985 44.31 6.93984 43.75 6.2499 43.75C5.55996 43.75 4.99995 44.31 4.99995 45V64.9999C2.24253 64.9999 0 67.2424 0 70C0 72.7576 2.24253 75 4.99995 75H18.75C20.8175 75 22.5 73.3174 22.5 71.25C22.5 69.5862 21.4112 68.1725 19.9087 67.6825ZM18.75 72.4999H4.99995C3.62124 72.4999 2.4999 71.3787 2.4999 69.9999C2.4999 68.621 3.62124 67.5 4.99995 67.5C6.16626 67.5 7.20249 68.1774 7.57866 69.1875C7.78989 69.7538 8.37495 70.0875 8.97246 69.9799C9.56748 69.8724 9.9999 69.3549 9.9999 68.7499C9.9999 66.6824 11.6824 64.9999 13.7499 64.9999C15.8174 64.9999 17.4999 66.6824 17.4999 68.7499C17.4999 69.4398 18.0599 69.9999 18.7499 69.9999C19.4386 69.9999 19.9998 70.561 19.9998 71.2498C19.9998 71.9386 19.4388 72.4999 18.75 72.4999Z" fill="white"/>
<path d="M73.75 10H49.9999C49.31 10 48.75 10.5601 48.75 11.25C48.75 11.9399 49.31 12.5 49.9999 12.5H72.4999V39.4825L38.3837 5.36631C38.1387 5.12124 37.8174 5.0001 37.4962 5.0001C37.1749 5.0001 36.8537 5.12139 36.6086 5.36631L2.50005 39.4812V12.5H16.2501C16.94 12.5 17.5 11.9399 17.5 11.25V6.25005C17.5 5.56011 16.94 5.0001 16.2501 5.0001H15V2.50005H22.5V5.0001H21.25C20.5601 5.0001 20.0001 5.56011 20.0001 6.25005V11.25C20.0001 11.9399 20.5601 12.5 21.25 12.5H25C25.69 12.5 26.25 11.9399 26.25 11.25C26.25 10.5601 25.69 10 25 10H22.5V7.5H23.7499C24.4399 7.5 24.9999 6.93999 24.9999 6.25005V1.24995C24.9999 0.56001 24.4399 0 23.7499 0H13.75C13.0601 0 12.5001 0.56001 12.5001 1.24995V6.2499C12.5001 6.93984 13.0601 7.49985 13.75 7.49985H15V9.9999H1.24995C0.91875 9.9999 0.6 10.1312 0.366211 10.3661C0.13125 10.6 0 10.9188 0 11.25L0.00498047 42.5C0.00498047 43.0062 0.309961 43.4612 0.777539 43.655C0.932519 43.7187 1.0938 43.75 1.25508 43.75C1.5813 43.75 1.90137 43.6226 2.13882 43.3838L37.4962 8.01372L72.8662 43.3837C73.1049 43.6225 73.4248 43.7499 73.7499 43.7499C73.9112 43.7499 74.0736 43.7187 74.2286 43.6548C74.6949 43.461 74.9998 43.0049 74.9998 42.4998V11.25C75 10.5601 74.44 10 73.75 10Z" fill="white"/>
<path d="M70 64.9999V45C70 44.31 69.44 43.75 68.7501 43.75C68.0602 43.75 67.5001 44.31 67.5001 45V65.6162C67.279 65.7312 67.0639 65.8586 66.8626 66.0024C65.8438 63.93 63.7113 62.5 61.2501 62.5C58.1676 62.5 55.5989 64.7437 55.0913 67.6825C53.5888 68.1725 52.5 69.5862 52.5 71.25C52.5 71.6912 52.5899 72.1075 52.7313 72.4999H31.2499C30.56 72.4999 30 73.0599 30 73.7499C30 74.4398 30.56 74.9998 31.2499 74.9998H56.25H61.25H69.9999C72.7575 75 75 72.7574 75 70C75 67.2426 72.7575 64.9999 70 64.9999ZM70 72.4999H61.2501H56.25C55.5612 72.4999 55 71.9387 55 71.25C55 70.5612 55.5612 70 56.25 70C56.9399 70 57.4999 69.44 57.4999 68.7501C57.4999 66.6826 59.1825 65.0001 61.25 65.0001C63.3174 65.0001 65 66.6826 65 68.7501C65 69.355 65.4325 69.8726 66.0274 69.9801C66.6211 70.0888 67.21 69.7538 67.4212 69.1876C67.7974 68.1776 68.8337 67.5001 69.9999 67.5001C71.3786 67.5001 72.5 68.6213 72.5 70.0001C72.5 71.379 71.3788 72.4999 70 72.4999Z" fill="white"/>
<path d="M42.5 25.0001C42.5 22.2425 40.2574 20.0001 37.5 20.0001C34.7424 20.0001 32.5001 22.2427 32.5001 25.0001C32.5001 27.7575 34.7424 30 37.5 30C40.2576 30 42.5 27.7575 42.5 25.0001ZM35 25.0001C35 23.6214 36.1212 22.5 37.5 22.5C38.8787 22.5 40.0001 23.6212 40.0001 25.0001C40.0001 26.3788 38.8789 27.5001 37.5 27.5001C36.1213 27.5 35 26.3788 35 25.0001Z" fill="white"/>
<path d="M61.25 42.5H51.2499C50.56 42.5 50 43.06 50 43.7499V57.5H48.75C48.0601 57.5 47.5001 58.06 47.5001 58.75C47.5001 59.4399 48.0601 59.9999 48.75 59.9999H63.75C64.44 59.9999 65 59.4399 65 58.75C65 58.06 64.44 57.5 63.75 57.5H62.5001V43.7499C62.5001 43.06 61.9401 42.5 61.25 42.5ZM60 57.5H52.5V52.5H60V57.5ZM60 50H52.5V45.0001H60V50Z" fill="white"/>
<path d="M49.9999 68.75C49.9999 68.06 49.4399 67.5 48.75 67.5H45V43.7501C45 43.0601 44.44 42.5001 43.75 42.5001H31.2501C30.5601 42.5001 30.0001 43.0601 30.0001 43.7501V67.5H26.2501C25.5602 67.5 25.0002 68.06 25.0002 68.75V73.7499C25.0002 74.4399 25.5602 74.9999 26.2501 74.9999C26.9401 74.9999 27.5001 74.4399 27.5001 73.7499V69.9999H48.75C49.4399 70.0001 49.9999 69.4401 49.9999 68.75ZM42.4999 55.0001H41.25C40.56 55.0001 40 55.5601 40 56.25C40 56.94 40.56 57.5 41.25 57.5H42.4999V67.5H32.4999V45H42.4999V55.0001Z" fill="white"/>
<path d="M23.75 42.5H13.7501C13.0601 42.5 12.5001 43.06 12.5001 43.7499V57.5H11.25C10.5601 57.5 10.0001 58.06 10.0001 58.75C10.0001 59.4399 10.5601 60 11.25 60H26.25C26.94 60 27.5 59.44 27.5 58.7501C27.5 58.0602 26.94 57.5001 26.25 57.5001H25.0001V43.7501C25.0001 43.06 24.4401 42.5 23.75 42.5ZM22.5 57.5H15V52.5H22.5V57.5ZM22.5 50H15V45.0001H22.5V50Z" fill="white"/>
</svg>
