<svg width="100" height="75" viewBox="0 0 100 75" fill="none" xmlns="http://www.w3.org/2000/svg">
<path d="M12.6287 60.6268C12.6287 56.9281 15.0124 54.2156 17.6132 54.2156C20.2139 54.2156 22.5979 56.9282 22.5979 60.6268C22.5979 64.3255 20.2142 67.0381 17.6132 67.0381C15.0122 67.0381 12.6287 64.3256 12.6287 60.6268ZM14.564 60.6268C14.564 62.4603 15.7844 64.248 17.6132 64.248C19.4418 64.248 20.6626 62.4604 20.6626 60.6268C20.6626 58.7933 19.4421 57.0056 17.6132 57.0056C15.7842 57.0056 14.564 58.7934 14.564 60.6268Z" stroke="white" stroke-width="1.5"/>
<path d="M72.2779 60.6268C72.2779 56.9281 74.6616 54.2156 77.2626 54.2156C79.8635 54.2156 82.247 56.9281 82.247 60.6268C82.247 64.3256 79.8633 67.0381 77.2626 67.0381C74.6616 67.0381 72.2779 64.3255 72.2779 60.6268ZM74.2132 60.6268C74.2132 62.4604 75.4336 64.248 77.2626 64.248C79.0916 64.248 80.3117 62.4603 80.3117 60.6268C80.3117 58.7933 79.0913 57.0056 77.2626 57.0056C75.4336 57.0056 74.2132 58.7933 74.2132 60.6268Z" stroke="white" stroke-width="1.5"/>
<path d="M7.08639 63.4436L6.9817 62.8173H6.34665H1.71766C1.33021 62.8173 0.75 62.3568 0.75 61.4222V10.5593C0.75 4.98713 4.35519 0.75 8.45777 0.75H91.5445C95.6458 0.75 99.25 4.98692 99.25 10.5593V61.4222C99.25 62.3568 98.6698 62.8173 98.2823 62.8173H88.529H87.8939L87.7893 63.4436C86.738 69.7335 82.3165 74.25 77.2625 74.25C72.2085 74.25 67.787 69.7335 66.7358 63.4436L66.6311 62.8173H65.996H28.8799H28.2448L28.1401 63.4436C27.0888 69.7335 22.6674 74.25 17.6134 74.25C12.5593 74.25 8.13765 69.7335 7.08639 63.4436ZM96.5647 38.7228H97.3147V37.9728V12.7043V11.9543H96.5647H87.2801C85.6506 11.9543 84.5926 13.5396 84.5926 15.1239V35.5532C84.5926 37.1375 85.6506 38.7228 87.2801 38.7228H96.5647ZM3.43532 56.2706H2.68532V57.0206V59.2772V60.0272H3.43532H6.15587H6.85163L6.90376 59.3334C6.95937 58.5934 7.06012 57.8714 7.20512 57.1731L7.39249 56.2706H6.47078H3.43532ZM67.6523 53.4806H68.1042L68.3154 53.0811C70.2811 49.3626 73.5957 47.0037 77.2625 47.0037C80.9293 47.0037 84.244 49.3626 86.2097 53.0808L86.4209 53.4803H86.8727H96.5647H97.3147V52.7303V49.1266V48.3766H96.5647H93.7019C93.3145 48.3766 92.7342 47.9161 92.7342 46.9816C92.7342 46.0471 93.3145 45.5866 93.7019 45.5866H96.5647H97.3147V44.8366V42.2625V41.5125H96.5647H87.2801C84.8787 41.5125 82.6573 39.0025 82.6573 35.5529V15.1236C82.6573 11.674 84.8787 9.16395 87.2801 9.16395H96.2619H97.2627L96.9817 8.20339C96.2163 5.58661 94.1417 3.53978 91.5445 3.53978H8.45777C5.12757 3.53978 2.68532 6.85158 2.68532 10.559V52.7303V53.4803H3.43532H8.0027H8.45457L8.66576 53.0808C10.6315 49.3623 13.9463 47.0034 17.6131 47.0034C23.068 47.0034 27.7939 52.2797 28.3225 59.3333L28.3745 60.0272H29.0704H65.8052H66.501L66.5531 59.3334C66.6087 58.5934 66.7095 57.8714 66.8545 57.1731L67.0419 56.2706H66.1201H35.4159C35.0285 56.2706 34.4482 55.8101 34.4482 54.8756C34.4482 53.9411 35.0284 53.4806 35.4159 53.4806H67.6523ZM87.9719 59.3332L88.0238 60.0272H88.7198H96.5647H97.3147V59.2772V57.0206V56.2706H96.5647H88.4049H87.4831L87.6705 57.1731C87.8155 57.8716 87.9165 58.5935 87.9719 59.3332ZM8.78875 60.6269C8.78875 66.4369 12.5998 71.4599 17.6131 71.4599C22.6265 71.4599 26.4373 66.4369 26.4373 60.6269C26.4373 54.8168 22.6265 49.7938 17.6131 49.7938C12.5998 49.7938 8.78875 54.8168 8.78875 60.6269ZM68.4383 60.6269C68.4383 66.4369 72.2492 71.4599 77.2625 71.4599C82.2758 71.4599 86.0867 66.4369 86.0867 60.6269C86.0867 54.8168 82.2758 49.7938 77.2625 49.7938C72.2492 49.7938 68.4383 54.8168 68.4383 60.6269Z" stroke="white" stroke-width="1.5"/>
<path d="M54.7166 12.7042V11.9542H53.9666H34.0417H33.2917V12.7042V37.9727V38.7227H34.0417H53.9666H54.7166V37.9727V12.7042ZM31.3564 12.7042V11.9542H30.6064H12.7129C11.0834 11.9542 10.0254 13.5395 10.0254 15.1238V35.5531C10.0254 37.1374 11.0834 38.7227 12.7129 38.7227H30.6064H31.3564V37.9727V12.7042ZM56.6519 37.9727V38.7227H57.4019H74.4732C76.1028 38.7227 77.1607 37.1374 77.1607 35.5531V15.1238C77.1607 13.5395 76.1027 11.9542 74.4732 11.9542H57.4019H56.6519V12.7042V37.9727ZM12.7129 9.16418H74.4732C76.8747 9.16418 79.0961 11.6742 79.0961 15.1238V35.5531C79.0961 39.0027 76.8747 41.5128 74.4732 41.5128H12.7129C10.3115 41.5128 8.0901 39.0027 8.0901 35.5531V15.1238C8.0901 11.6742 10.3115 9.16418 12.7129 9.16418Z" stroke="white" stroke-width="1.5"/>
<path d="M31.5889 53.642C31.5889 53.6418 31.5889 53.6415 31.5889 53.6413L32.0408 53.0926L32.0407 53.0926M31.5889 53.642C31.589 53.642 31.589 53.642 31.589 53.642L32.0407 53.0926M31.5889 53.642L32.0407 53.0926M31.5889 53.642L32.0407 53.0926M30.503 53.7743L30.5031 53.7742C30.8216 53.4209 31.2383 53.404 31.5632 53.6709C31.5632 53.6709 31.5632 53.6709 31.5632 53.6709C31.5635 53.6711 31.5637 53.6714 31.564 53.6716L31.5644 53.6719L31.5644 53.6719C31.5644 53.6719 31.5644 53.6719 31.5645 53.6719C31.5645 53.6719 31.5645 53.672 31.5645 53.672C31.9256 53.969 32.1621 54.6534 32.004 55.3127L32.004 55.3127C31.8507 55.9519 31.4266 56.2499 31.1263 56.2683L31.1263 56.2683C30.8279 56.2865 30.3833 56.0407 30.1961 55.4023C30.0207 54.8045 30.1755 54.1373 30.503 53.7743Z" stroke="white" stroke-width="1.5"/>
</svg>
