<svg width="75" height="52" viewBox="0 0 75 52" fill="none" xmlns="http://www.w3.org/2000/svg">
<path d="M38.9725 39.8624C46.8161 39.8624 53.1745 33.5039 53.1745 25.6603C53.1745 17.8167 46.8161 11.4582 38.9725 11.4582C31.1289 11.4582 24.7704 17.8167 24.7704 25.6603C24.7704 33.5039 31.1289 39.8624 38.9725 39.8624Z" fill="white"/>
<path d="M16.7001 48.4297L15.9571 44.404C15.7275 43.2196 11.5361 30.9386 11.3275 29.8096L9.6236 20.5707C9.40952 19.4121 13.8556 17.0449 13.0548 12.7013C13.0517 12.6848 13.0478 12.6677 13.0446 12.6512H13.0461L11.061 1.88737C10.9696 1.39208 10.4938 1.06402 9.9985 1.15542C9.50321 1.24682 9.17515 1.72258 9.26655 2.21787L11.2517 12.9826L9.96265 13.2201L7.97751 2.45606C7.88611 1.96076 7.41035 1.6327 6.91505 1.7241C6.41976 1.8155 6.0917 2.29126 6.1831 2.78656L8.16824 13.5504L6.87919 13.7878L4.89405 3.02474C4.80266 2.52945 4.32689 2.20139 3.8316 2.29279C3.33631 2.38419 3.00825 2.85995 3.09965 3.35524L5.08479 14.1191L3.79574 14.3565L1.80969 3.59358C1.71829 3.09829 1.24253 2.77023 0.747234 2.86163C0.25194 2.95303 -0.0761188 3.42879 0.01528 3.92408L2.00042 14.6879C2.00362 14.7043 2.00515 14.7215 2.0082 14.738C2.80897 19.0809 7.80737 19.7066 8.02069 20.8652L9.72461 30.1049C9.93396 31.2409 10.3894 44.2172 10.6105 45.4132L11.3355 49.3444C11.3425 49.399 11.3387 49.4523 11.3487 49.5069C11.6222 50.9913 13.0479 51.9726 14.5323 51.6991C16.0166 51.4257 16.9979 49.9999 16.7245 48.5156C16.7204 48.4858 16.7071 48.4593 16.7001 48.4297Z" fill="white"/>
<path d="M70.826 0.0147451C67.7463 -0.357869 64.3955 6.40213 63.6831 12.2912C63.1526 16.6754 67.7363 18.7629 67.5948 19.9325C67.2082 23.1309 67.0745 24.2341 66.466 29.2598C66.327 30.4066 62.8926 42.9282 62.7465 44.1361L62.2661 48.1049C62.2558 48.1587 62.2372 48.2088 62.23 48.2634C62.0488 49.7618 63.1167 51.1235 64.6151 51.3055C66.1135 51.4868 67.4752 50.4188 67.6572 48.9204C67.6612 48.8899 67.6565 48.8603 67.6587 48.8298L68.151 44.7658C68.2854 43.5667 67.9464 30.5949 68.0846 29.4551C68.7307 24.1184 68.8143 23.4247 69.2134 20.1287C69.3549 18.9592 74.3048 18.0249 74.8353 13.6405C75.547 7.75145 73.9048 0.387359 70.826 0.0147451Z" fill="white"/>
<path d="M38.9725 3.27026C26.6071 3.27026 16.5822 13.2951 16.5822 25.6605C16.5822 38.0259 26.6071 48.0508 38.9725 48.0508C51.3386 48.0508 61.3628 38.0259 61.3628 25.6605C61.3628 13.2951 51.3379 3.27026 38.9725 3.27026ZM38.9725 43.6032C29.0625 43.6032 21.0298 35.5698 21.0298 25.6605C21.0298 15.7505 29.0633 7.71783 38.9725 7.71783C48.8825 7.71783 56.9152 15.7513 56.9152 25.6605C56.9152 35.5698 48.8817 43.6032 38.9725 43.6032Z" fill="white"/>
</svg>
