<svg width="75" height="75" viewBox="0 0 75 75" fill="none" xmlns="http://www.w3.org/2000/svg">
<mask id="path-1-inside-1_1_3004" fill="white">
<path d="M70.2247 75H0V72.7832H70.2247V75ZM45.6461 68.8424H24.5787C16.1376 68.8424 9.26966 62.8202 9.26966 55.4187V30.7882C9.26966 30.1755 9.83497 29.6798 10.5337 29.6798H59.691C60.3897 29.6798 60.9551 30.1755 60.9551 30.7882V35.8374H66.7135C71.2851 35.8374 75 39.0979 75 43.1034V49.2611C75 53.2697 71.2816 56.5271 66.7135 56.5271H60.9059C60.2598 63.4144 53.6622 68.8424 45.6461 68.8424ZM11.7978 31.8965V55.4187C11.7978 61.5979 17.5316 66.6256 24.5787 66.6256H45.6461C52.6931 66.6256 58.427 61.5979 58.427 55.4187V31.8965H11.7978ZM60.9551 54.3103H66.7135C69.8876 54.3103 72.4719 52.0474 72.4719 49.2611V43.1034C72.4719 40.3202 69.8912 38.0542 66.7135 38.0542H60.9551V54.3103ZM50.4213 24.6305H47.8933V20.6804C47.8933 19.064 48.3286 17.4446 49.1503 16.0006C50.467 13.6915 50.467 10.936 49.1503 8.62685C48.3286 7.18288 47.8933 5.56342 47.8933 3.94704V3.07882H50.4249V3.95012C50.4249 5.22475 50.769 6.50246 51.415 7.63855C53.0864 10.5696 53.0864 14.064 51.415 16.9951C50.7654 18.1312 50.4249 19.4089 50.4249 20.6835L50.4213 24.6305ZM22.3315 24.6305H19.8034V20.6804C19.8034 19.064 20.2388 17.4477 21.0639 16.0006C22.3806 13.6915 22.3806 10.936 21.0639 8.62685C20.2388 7.1798 19.8034 5.56342 19.8034 3.94704V3.07882H22.3315V3.95012C22.3315 5.22475 22.6756 6.49938 23.3251 7.63855C24.9965 10.5696 24.9965 14.064 23.3251 16.9951C22.6756 18.1342 22.3315 19.4089 22.3315 20.6835V24.6305ZM36.3764 21.5517H33.8483V17.6016C33.8483 15.9852 34.2837 14.3688 35.1088 12.9218C36.4256 10.6127 36.4256 7.85714 35.1088 5.54803C34.2837 4.10099 33.8483 2.48461 33.8483 0.868227V0H36.3764V0.871305C36.3764 2.14594 36.7205 3.42057 37.3701 4.55973C39.0449 7.49076 39.0449 10.9852 37.3701 13.9163C36.7205 15.0554 36.3764 16.3301 36.3764 17.6047V21.5517Z"/>
</mask>
<path d="M70.2247 75V79H74.2247V75H70.2247ZM0 75H-4V79H0V75ZM0 72.7832V68.7832H-4V72.7832H0ZM70.2247 72.7832H74.2247V68.7832H70.2247V72.7832ZM60.9551 35.8374H56.9551V39.8374H60.9551V35.8374ZM60.9059 56.5271V52.5271H57.2636L56.9234 56.1535L60.9059 56.5271ZM11.7978 31.8965V27.8965H7.79775V31.8965H11.7978ZM58.427 31.8965H62.427V27.8965H58.427V31.8965ZM60.9551 54.3103H56.9551V58.3103H60.9551V54.3103ZM60.9551 38.0542V34.0542H56.9551V38.0542H60.9551ZM50.4213 24.6305V28.6305H54.4178L54.4213 24.6341L50.4213 24.6305ZM47.8933 24.6305H43.8933V28.6305H47.8933V24.6305ZM49.1503 16.0006L45.6755 14.0192L45.6737 14.0224L49.1503 16.0006ZM49.1503 8.62685L45.6737 10.6051L45.6755 10.6082L49.1503 8.62685ZM47.8933 3.07882V-0.921182H43.8933V3.07882H47.8933ZM50.4249 3.07882H54.4249V-0.921182H50.4249V3.07882ZM51.415 7.63855L47.9379 9.61589L47.9403 9.61995L51.415 7.63855ZM51.415 16.9951L54.8875 18.9805L54.8898 18.9765L51.415 16.9951ZM50.4249 20.6835L54.4249 20.6871V20.6835H50.4249ZM22.3315 24.6305V28.6305H26.3315V24.6305H22.3315ZM19.8034 24.6305H15.8034V28.6305H19.8034V24.6305ZM21.0639 16.0006L24.5387 17.982L21.0639 16.0006ZM21.0639 8.62685L24.5387 6.64545L21.0639 8.62685ZM19.8034 3.07882V-0.921182H15.8034V3.07882H19.8034ZM22.3315 3.07882H26.3315V-0.921182H22.3315V3.07882ZM23.3251 7.63855L19.8504 9.61995L23.3251 7.63855ZM23.3251 16.9951L19.8504 15.0137L23.3251 16.9951ZM36.3764 21.5517V25.5517H40.3764V21.5517H36.3764ZM33.8483 21.5517H29.8483V25.5517H33.8483V21.5517ZM35.1088 12.9218L38.5836 14.9032L35.1088 12.9218ZM35.1088 5.54803L38.5836 3.56663V3.56663L35.1088 5.54803ZM33.8483 0V-4H29.8483V0H33.8483ZM36.3764 0H40.3764V-4H36.3764V0ZM37.3701 4.55973L33.8953 6.54113L33.8971 6.54427L37.3701 4.55973ZM37.3701 13.9163L33.8971 11.9317L33.8953 11.9349L37.3701 13.9163ZM70.2247 71H0V79H70.2247V71ZM4 75V72.7832H-4V75H4ZM0 76.7832H70.2247V68.7832H0V76.7832ZM66.2247 72.7832V75H74.2247V72.7832H66.2247ZM45.6461 64.8424H24.5787V72.8424H45.6461V64.8424ZM24.5787 64.8424C17.8367 64.8424 13.2697 60.1334 13.2697 55.4187H5.26966C5.26966 65.507 14.4385 72.8424 24.5787 72.8424V64.8424ZM13.2697 55.4187V30.7882H5.26966V55.4187H13.2697ZM13.2697 30.7882C13.2697 32.8623 11.5341 33.6798 10.5337 33.6798V25.6798C8.13587 25.6798 5.26966 27.4887 5.26966 30.7882H13.2697ZM10.5337 33.6798H59.691V25.6798H10.5337V33.6798ZM59.691 33.6798C58.6907 33.6798 56.9551 32.8623 56.9551 30.7882H64.9551C64.9551 27.4887 62.0888 25.6798 59.691 25.6798V33.6798ZM56.9551 30.7882V35.8374H64.9551V30.7882H56.9551ZM60.9551 39.8374H66.7135V31.8374H60.9551V39.8374ZM66.7135 39.8374C69.5848 39.8374 71 41.7837 71 43.1034H79C79 36.4121 72.9854 31.8374 66.7135 31.8374V39.8374ZM71 43.1034V49.2611H79V43.1034H71ZM71 49.2611C71 50.5819 69.5837 52.5271 66.7135 52.5271V60.5271C72.9795 60.5271 79 55.9575 79 49.2611H71ZM66.7135 52.5271H60.9059V60.5271H66.7135V52.5271ZM56.9234 56.1535C56.5071 60.5908 52.0197 64.8424 45.6461 64.8424V72.8424C55.3047 72.8424 64.0125 66.2381 64.8884 56.9007L56.9234 56.1535ZM7.79775 31.8965V55.4187H15.7978V31.8965H7.79775ZM7.79775 55.4187C7.79775 64.2847 15.8325 70.6256 24.5787 70.6256V62.6256C19.2307 62.6256 15.7978 58.9111 15.7978 55.4187H7.79775ZM24.5787 70.6256H45.6461V62.6256H24.5787V70.6256ZM45.6461 70.6256C54.3922 70.6256 62.427 64.2847 62.427 55.4187H54.427C54.427 58.9111 50.994 62.6256 45.6461 62.6256V70.6256ZM62.427 55.4187V31.8965H54.427V55.4187H62.427ZM58.427 27.8965H11.7978V35.8965H58.427V27.8965ZM60.9551 58.3103H66.7135V50.3103H60.9551V58.3103ZM66.7135 58.3103C71.5851 58.3103 76.4719 54.7357 76.4719 49.2611H68.4719C68.4719 49.3619 68.434 49.5705 68.1465 49.8225C67.8515 50.081 67.3553 50.3103 66.7135 50.3103V58.3103ZM76.4719 49.2611V43.1034H68.4719V49.2611H76.4719ZM76.4719 43.1034C76.4719 37.6349 71.5919 34.0542 66.7135 34.0542V42.0542C67.3563 42.0542 67.8521 42.2838 68.1465 42.5421C68.434 42.7943 68.4719 43.0032 68.4719 43.1034H76.4719ZM66.7135 34.0542H60.9551V42.0542H66.7135V34.0542ZM56.9551 38.0542V54.3103H64.9551V38.0542H56.9551ZM50.4213 20.6305H47.8933V28.6305H50.4213V20.6305ZM51.8933 24.6305V20.6804H43.8933V24.6305H51.8933ZM51.8933 20.6804C51.8933 19.7785 52.1378 18.8383 52.6269 17.9788L45.6737 14.0224C44.5195 16.0508 43.8933 18.3495 43.8933 20.6804H51.8933ZM52.625 17.982C54.6421 14.4448 54.6421 10.1827 52.625 6.64545L45.6755 10.6082C46.2919 11.6892 46.2919 12.9382 45.6755 14.0192L52.625 17.982ZM52.6269 6.64864C52.1378 5.78914 51.8933 4.84893 51.8933 3.94704H43.8933C43.8933 6.27792 44.5195 8.57662 45.6737 10.6051L52.6269 6.64864ZM51.8933 3.94704V3.07882H43.8933V3.94704H51.8933ZM47.8933 7.07882H50.4249V-0.921182H47.8933V7.07882ZM46.4249 3.07882V3.95012H54.4249V3.07882H46.4249ZM46.4249 3.95012C46.4249 5.93962 46.96 7.89618 47.9379 9.61589L54.8921 5.6612C54.5779 5.10874 54.4249 4.50989 54.4249 3.95012H46.4249ZM47.9403 9.61995C48.9113 11.3229 48.9113 13.3108 47.9403 15.0137L54.8898 18.9765C57.2615 14.8173 57.2615 9.8163 54.8898 5.65715L47.9403 9.61995ZM47.9426 15.0096C46.9531 16.7401 46.4249 18.7008 46.4249 20.6835H54.4249C54.4249 20.1169 54.5778 19.5222 54.8875 18.9805L47.9426 15.0096ZM46.4249 20.6799L46.4213 24.627L54.4213 24.6341L54.4249 20.6871L46.4249 20.6799ZM22.3315 20.6305H19.8034V28.6305H22.3315V20.6305ZM23.8034 24.6305V20.6804H15.8034V24.6305H23.8034ZM23.8034 20.6804C23.8034 19.7808 24.0467 18.8447 24.5387 17.982L17.5891 14.0192C16.4308 16.0506 15.8034 18.3473 15.8034 20.6804H23.8034ZM24.5387 17.982C26.5557 14.4448 26.5557 10.1827 24.5387 6.64545L17.5891 10.6082C18.2055 11.6892 18.2055 12.9382 17.5891 14.0192L24.5387 17.982ZM24.5387 6.64545C24.0467 5.78275 23.8034 4.84668 23.8034 3.94704H15.8034C15.8034 6.28017 16.4308 8.57686 17.5891 10.6082L24.5387 6.64545ZM23.8034 3.94704V3.07882H15.8034V3.94704H23.8034ZM19.8034 7.07882H22.3315V-0.921182H19.8034V7.07882ZM18.3315 3.07882V3.95012H26.3315V3.07882H18.3315ZM18.3315 3.95012C18.3315 5.94247 18.8681 7.8973 19.8504 9.61995L26.7999 5.65715C26.483 5.10146 26.3315 4.50704 26.3315 3.95012H18.3315ZM19.8504 9.61995C20.8214 11.3229 20.8214 13.3108 19.8504 15.0137L26.7999 18.9765C29.1716 14.8173 29.1716 9.8163 26.7999 5.65715L19.8504 9.61995ZM19.8504 15.0137C18.8681 16.7363 18.3315 18.6912 18.3315 20.6835H26.3315C26.3315 20.1266 26.483 19.5322 26.7999 18.9765L19.8504 15.0137ZM18.3315 20.6835V24.6305H26.3315V20.6835H18.3315ZM36.3764 17.5517H33.8483V25.5517H36.3764V17.5517ZM37.8483 21.5517V17.6016H29.8483V21.5517H37.8483ZM37.8483 17.6016C37.8483 16.702 38.0917 15.7659 38.5836 14.9032L31.6341 10.9404C30.4757 12.9718 29.8483 15.2685 29.8483 17.6016H37.8483ZM38.5836 14.9032C40.6006 11.366 40.6006 7.10386 38.5836 3.56663L31.6341 7.52943C32.2505 8.61043 32.2505 9.8594 31.6341 10.9404L38.5836 14.9032ZM38.5836 3.56663C38.0917 2.70393 37.8483 1.76786 37.8483 0.868227H29.8483C29.8483 3.20135 30.4757 5.49804 31.6341 7.52943L38.5836 3.56663ZM37.8483 0.868227V0H29.8483V0.868227H37.8483ZM33.8483 4H36.3764V-4H33.8483V4ZM32.3764 0V0.871305H40.3764V0H32.3764ZM32.3764 0.871305C32.3764 2.86364 32.913 4.81848 33.8953 6.54113L40.8449 2.57833C40.528 2.02266 40.3764 1.42823 40.3764 0.871305H32.3764ZM33.8971 6.54427C34.8693 8.24558 34.8693 10.2304 33.8971 11.9317L40.8431 15.9008C43.2206 11.74 43.2206 6.73595 40.8431 2.57519L33.8971 6.54427ZM33.8953 11.9349C32.913 13.6575 32.3764 15.6123 32.3764 17.6047H40.3764C40.3764 17.0478 40.528 16.4533 40.8449 15.8977L33.8953 11.9349ZM32.3764 17.6047V21.5517H40.3764V17.6047H32.3764Z" fill="white" mask="url(#path-1-inside-1_1_3004)"/>
</svg>
