<svg width="152" height="159" viewBox="0 0 152 159" fill="none" xmlns="http://www.w3.org/2000/svg">
<path d="M10.2513 119.4C31.2791 157.372 77.7061 170.279 113.944 148.25C126.921 140.358 137.374 128.611 143.98 114.494C150.586 100.377 153.049 84.524 151.057 68.9405C149.064 53.3569 142.707 38.7423 132.788 26.9448C122.869 15.1474 109.835 6.69694 95.3325 2.66213C80.8303 -1.37267 65.512 -0.810601 51.3146 4.27726C37.1173 9.36511 24.6786 18.7502 15.5716 31.2458C6.46462 43.7414 1.0983 58.7861 0.151286 74.4776C-0.795727 90.169 2.7191 105.802 10.2513 119.4Z" fill="#E0E0E0"/>
<path d="M28.7387 17.8035C29.116 18.1362 29.5901 18.3247 30.083 18.3379C30.3622 18.3287 30.6399 18.2929 30.9129 18.231C31.2466 18.1533 32.0393 17.6724 32.2479 17.7841C32.4566 17.8958 32.0208 18.6439 31.6824 19.0568C31.1257 19.6976 30.4629 20.2275 29.7261 20.6209C28.5996 21.1941 27.9691 21.2281 27.2645 21.0338C27.0281 20.9658 26.0685 20.6209 25.6466 20.9901C25.2248 21.3593 25.3268 21.5585 25.5029 21.709C25.8306 21.8797 26.1895 21.9741 26.5552 21.9859C26.7221 21.9866 26.8844 22.0427 27.0188 22.1462C27.3665 22.4765 26.5135 23.5209 26.7731 23.9095C26.9307 24.1476 27.3665 24.0893 27.7003 24.1038C28.1823 24.1624 28.6692 24.1624 29.1513 24.1038C29.4715 24.039 29.783 23.933 30.0784 23.7881C30.8264 23.5278 31.5919 23.3265 32.3685 23.1858C32.6679 23.1584 32.9473 23.0166 33.1534 22.7872C33.3594 22.5579 33.4777 22.2571 33.4857 21.9422C33.532 21.369 33.0499 21.3447 32.4566 21.4856C31.6638 21.6702 30.7413 22.0151 30.5095 22.0539C30.2777 22.0928 30.1711 22.0539 30.2638 21.9033C30.4446 21.5925 31.3996 21.3496 31.5804 21.2864L32.7301 20.8395C33.3605 20.6015 34.0791 20.4023 34.3804 20.3003C34.892 20.1347 35.3655 19.8602 35.7711 19.494C36.2347 18.9742 35.9195 18.6779 36.332 18.2116C36.6851 17.8884 37.0859 17.6276 37.5188 17.4392C37.9483 17.2233 38.3648 16.98 38.7658 16.7106C39.5261 16.1276 39.5353 15.3796 40.1055 14.6509C40.4297 14.25 40.8113 13.9042 41.2367 13.626C41.8393 13.2179 42.6598 12.7565 43.1141 12.431L43.93 11.8481C44.2693 11.6105 44.5805 11.3317 44.8572 11.0174C45.0426 10.8134 45.2095 10.5317 45.3857 10.3519C45.5423 10.1665 45.7331 10.0161 45.9466 9.9099C46.5859 9.56527 47.1146 9.03153 47.4671 8.37489C47.8936 7.51024 47.2353 7.69483 47.1009 7.50052C46.8784 7.17021 46.4704 7.18478 46.0161 7.23821C45.0241 7.34508 43.8095 7.79198 42.6274 8.05429C40.9832 8.88009 39.3746 9.77874 37.8016 10.7503C36.4479 11.5712 35.1407 12.4407 33.8519 13.3345C34.0927 13.5036 34.3616 13.6239 34.6446 13.6891C35.3075 13.9271 36.4989 13.2034 37.3844 12.9702C37.7923 12.8585 39.044 12.363 39.0949 12.7565C39.1738 13.3685 37.7738 14.0097 37.4771 14.1409C37.2193 14.2305 36.9867 14.3857 36.8003 14.5926C36.434 15.0347 35.8407 15.6225 35.4883 15.3504C35.2658 15.1756 35.0804 14.9375 34.8208 14.8647C34.7178 14.8361 34.6085 14.8457 34.5114 14.8917C34.4143 14.9377 34.3353 15.0174 34.2877 15.1173C34.0049 15.5302 33.1983 16.1859 33.1009 15.6759C33.0407 15.3796 33.1009 14.9618 32.8691 14.8258C32.6373 14.6898 32.4334 14.7092 32.285 14.5781C32.2526 14.5489 32.234 14.5149 32.2062 14.4858C30.9268 15.4281 29.6751 16.4288 28.4652 17.4003C28.5337 17.5501 28.6263 17.6864 28.7387 17.8035Z" fill="#F5F5F5"/>
<path d="M110.314 24.0164C111.018 23.4283 111.798 22.9489 112.632 22.5931C113.026 22.4231 113.429 22.2725 113.837 22.1365C114.083 22.0491 114.338 21.9713 114.588 21.8985C114.793 21.8806 114.996 21.8465 115.195 21.7965C115.289 21.7447 115.367 21.668 115.423 21.5742C115.479 21.4804 115.51 21.3728 115.513 21.2623C115.517 21.1518 115.492 21.0423 115.442 20.9451C115.392 20.8478 115.318 20.7661 115.228 20.7084C115.16 20.6512 115.085 20.6039 115.005 20.5675C114.908 20.5277 114.804 20.5101 114.701 20.516C114.597 20.5218 114.495 20.551 114.403 20.6015C113.886 20.7848 113.344 20.8816 112.799 20.8881C110.55 20.9512 108.654 21.6993 107.769 23.7784C107.426 24.5003 107.154 25.2572 106.958 26.0372C106.925 26.3286 106.888 26.6249 106.587 26.6541C106.397 26.6541 106.309 26.7318 106.369 26.999C106.586 27.6472 107.014 28.1943 107.579 28.5437C107.874 28.799 108.184 29.0358 108.506 29.2529C108.704 29.3851 108.932 29.4602 109.166 29.4704C109.401 29.4807 109.633 29.4257 109.841 29.3112C110.078 29.1169 109.809 28.5826 109.651 28.1988C109.591 28.0531 109.517 27.9122 109.456 27.7762C109.284 27.312 109.201 26.8169 109.211 26.3189C109.222 26.0238 109.271 25.7315 109.354 25.4494C109.547 24.891 109.878 24.3964 110.314 24.0164Z" fill="#F5F5F5"/>
<path d="M78.0677 12.7321C78.2532 12.9556 78.4061 13.2519 78.5823 13.4899C78.7867 13.7637 79.027 14.0057 79.2962 14.2089C79.6039 14.4446 79.898 14.6993 80.177 14.9715C80.2129 15.0216 80.244 15.0753 80.2697 15.1318C80.3671 15.3504 80.2929 15.297 80.2697 15.4524C80.2326 15.7341 80.3949 15.9139 80.6545 16.079C80.8749 16.2281 81.0869 16.3903 81.2896 16.5648C81.6419 16.8465 82.3326 17.002 82.4717 16.6085C82.5482 16.3403 82.5903 16.0626 82.5969 15.7827C82.5926 15.3191 82.6376 14.8563 82.7313 14.4032C82.7469 14.3407 82.7593 14.2775 82.7684 14.2137C82.7684 14.102 83.0373 13.9805 83.3479 14.1797C83.5657 14.3206 83.7882 14.5003 83.9134 14.5829C84.0386 14.6655 84.0896 14.6849 84.1406 14.7238C84.1842 14.7744 84.2157 14.8351 84.2326 14.901C84.2495 14.9668 84.2513 15.0359 84.2379 15.1026C84.2353 15.1571 84.2518 15.2106 84.2843 15.2532C84.3584 15.3698 84.4419 15.3844 84.53 15.4427C84.8163 15.6318 85.1292 15.7727 85.4571 15.8604C85.5829 15.8829 85.7114 15.8829 85.8372 15.8604C85.8989 15.8373 85.9537 15.7975 85.9959 15.745C86.0381 15.6925 86.0663 15.6292 86.0776 15.5616C86.0889 15.494 86.0829 15.4244 86.0602 15.36C86.0376 15.2956 85.999 15.2387 85.9485 15.1949C85.4762 14.9567 85.0221 14.6806 84.5902 14.3691C84.3067 14.1083 84.0628 13.8036 83.8671 13.4656C83.5008 12.805 83.9551 12.7127 84.3306 12.7321C84.6275 12.7542 84.9257 12.7445 85.2207 12.703C85.6682 12.6536 86.0842 12.4383 86.3935 12.0958C86.4396 11.9812 86.4633 11.8582 86.4633 11.7339C86.4633 11.6096 86.4396 11.4866 86.3935 11.372C86.3812 11.3498 86.3673 11.3287 86.3518 11.3089C86.2125 11.1348 86.0325 11.0017 85.8293 10.9225C85.6261 10.8433 85.4068 10.8208 85.1929 10.8571C84.7293 10.8571 84.1962 10.8571 83.7094 10.8134C83.4888 10.8194 83.2682 10.8015 83.0512 10.7599C82.8954 10.688 82.7294 10.6436 82.5598 10.6288C82.2604 10.6704 81.9728 10.778 81.7161 10.9445C81.4172 11.1346 81.067 11.2166 80.7194 11.1777C80.5154 11.1534 80.1816 11.0077 80.1492 11.2749C80.1028 11.6635 80.5432 12.0472 80.6128 12.4261C80.6591 12.7127 80.3485 12.5864 80.1492 12.3484C79.9498 12.1104 79.9869 11.78 79.8154 11.5663C79.6439 11.3526 79.5095 11.4352 79.4677 11.5663C79.3936 11.7655 79.4306 12.0521 79.083 11.7898C78.8836 11.6295 78.8048 11.4303 78.5777 11.3429C78.1929 11.1923 77.3075 11.44 77.6134 12.1881C77.7247 12.4261 77.9147 12.5378 78.0677 12.7321Z" fill="#F5F5F5"/>
<path d="M76.2459 48.9602C75.9028 48.3142 75.0406 47.9304 75.2167 46.9783C75.277 46.6723 75.6803 46.41 75.5783 46.0505C75.5273 45.8514 75.3373 45.8028 75.2121 45.7056C75.0869 45.6085 74.5307 45.0207 74.6002 44.7341C74.6419 44.5544 73.1724 44.3212 73.2836 44.8653C73.4459 45.6765 72.1989 45.8368 72.7366 46.4051L72.8061 46.4731C72.7499 46.8172 72.7112 47.1642 72.6902 47.5127C72.6902 48.0761 73.4459 48.3433 73.4691 48.8291C73.4922 49.3148 74.2432 48.9845 74.4611 49.4266C74.679 49.8686 74.6234 50.7916 74.1969 50.9421C73.7704 51.0927 73.8956 52.0302 73.5989 52.2343C73.4088 52.3606 73.2141 52.4869 73.3624 52.8123C73.4552 53.0018 73.9883 52.6763 73.9744 53.1329C73.9744 53.5118 73.4042 53.5895 73.5432 53.9927C73.6591 54.3182 74.0949 54.255 74.3313 54.2453C75.3094 54.2113 76.6492 53.9976 77.3538 53.1038C77.6273 52.7637 78.1929 51.9137 77.7479 51.5348C77.5763 51.389 77.3538 51.3647 77.1916 51.1802C77.0134 50.9266 76.8756 50.6444 76.7836 50.3446C76.6373 49.8699 76.4576 49.4071 76.2459 48.9602Z" fill="#F5F5F5"/>
<path d="M1.06787 76.7312C1.35992 77.0858 1.85131 78.2905 2.27317 78.2954C3.00098 78.2954 2.23145 76.7215 2.07383 76.4835C1.91621 76.2455 0.757276 73.8215 0.780455 73.8021C0.827905 73.7739 0.866389 73.7316 0.891117 73.6807C0.915845 73.6297 0.925726 73.5723 0.919528 73.5155C0.919528 73.4183 0.530123 73.0977 0.279792 72.7577C0.196349 73.7292 0.136087 74.7007 0.0943652 75.6723C0.37251 76.0657 0.845356 76.4592 1.06787 76.7312Z" fill="#F5F5F5"/>
<path d="M105.873 122.082C106.579 120.301 107.097 118.444 107.417 116.544C107.472 116.175 107.523 115.786 107.551 115.408C107.606 114.894 107.55 114.375 107.389 113.887C107.309 113.777 107.238 113.66 107.176 113.537C107.134 113.45 107.101 113.333 107.06 113.222C107.024 113.097 106.971 112.979 106.902 112.872C106.786 112.707 106.267 112.872 106.123 113.421C106.031 113.761 105.989 114.149 105.938 114.392C105.692 115.786 104.547 116.374 103.861 117.355C102.874 118.72 103.05 120.241 102.934 121.727C102.846 122.699 102.308 124.005 102.586 124.89C103.476 127.819 105.344 123.447 105.873 122.082Z" fill="#F5F5F5"/>
<path d="M146.051 107.558C145.992 107.416 145.902 107.29 145.787 107.192C145.673 107.094 145.537 107.026 145.393 106.994C144.76 106.903 144.121 106.864 143.483 106.878C143.131 106.876 142.785 106.793 142.468 106.635C142.294 106.541 142.149 106.398 142.05 106.222C141.814 105.789 141.972 105.25 142.05 104.662C142.101 104.38 142.097 104.09 142.038 103.81C141.979 103.529 141.866 103.264 141.707 103.03C141.591 102.821 141.471 102.593 141.346 102.394C141.146 102.073 140.84 101.908 140.646 101.578C140.419 101.238 140.313 100.826 140.344 100.412C140.383 100.166 140.501 99.9415 140.678 99.7757C140.972 99.3455 141.092 98.8115 141.012 98.2893C140.947 97.9881 140.85 97.6967 140.794 97.4829C140.677 97.0837 140.536 96.6927 140.372 96.3122C140.293 96.1228 140.164 96.0014 140.085 95.8265C139.521 94.45 139.313 92.9421 139.482 91.4546C139.556 91.0223 139.728 90.5948 140.085 90.6385C140.196 90.6592 140.301 90.7113 140.386 90.7891C140.615 91.0327 140.811 91.3071 140.97 91.6052C141.114 91.8675 141.267 92.125 141.327 92.1201C142.05 92.1201 141.916 94.8695 142.94 93.8009C143.26 93.4705 143.687 93.3151 144.021 92.9702C144.16 92.8362 144.292 92.6934 144.415 92.5427C144.74 92.1104 144.981 91.6152 145.124 91.0855C145.199 90.7482 145.225 90.4011 145.203 90.0556C145.043 88.9407 144.638 87.8798 144.021 86.9565C143.893 86.8442 143.792 86.7023 143.726 86.5421C143.66 86.3819 143.631 86.2077 143.64 86.0335C143.673 84.9989 144.568 83.8767 145.416 84.2508C145.666 84.3866 145.951 84.4394 146.23 84.4021C146.51 84.3648 146.773 84.2391 146.983 84.0419C147.567 83.5562 148.068 82.9538 148.758 82.6866C149.644 82.3417 150.807 82.0114 151.54 81.2876L151.734 81.0836C151.804 77.7818 151.677 74.4787 151.354 71.1935C151.317 70.8438 151.257 70.2609 151.197 69.7654C149.258 53.4175 142.534 38.1004 131.949 25.9206C131.801 25.9206 131.643 25.9206 131.485 25.9206C130.753 25.8429 130.016 25.8429 129.283 25.9206C129.001 25.9935 128.738 26.1316 128.514 26.325C128.289 26.5183 128.109 26.7619 127.985 27.0378C127.844 27.3767 127.61 27.664 127.313 27.8636C126.947 28.0415 126.537 28.0959 126.14 28.0191C125.834 27.9899 125.241 27.917 125.325 28.4562C125.408 28.9954 126.131 29.7192 126.372 30.2147C126.915 31.3222 125.566 30.3507 125.218 30.0981C124.852 29.7989 124.437 29.5717 123.994 29.4278C123.748 29.3646 123.201 29.146 123.16 29.4618C123.209 29.8266 123.332 30.1761 123.521 30.4867C123.707 30.8996 123.73 31.0356 123.447 31.1036C123.164 31.1716 122.835 31.1959 122.52 31.2591C122.026 31.3846 121.509 31.3695 121.023 31.2154C120.378 30.9628 119.952 30.1953 119.669 29.4472C119.569 29.0577 119.369 28.7046 119.089 28.4271C118.848 28.183 118.546 28.0147 118.218 27.9413C117.583 27.8345 117.448 28.4708 117.537 29.1557C117.625 29.8407 117.022 29.9864 117.166 30.613C117.388 31.2579 117.749 31.8399 118.223 32.3132C118.575 32.7309 119.201 33.3333 119.001 33.7705C118.714 34.4214 117.88 33.8433 117.305 33.4013C116.526 32.7989 115.724 32.3278 114.94 31.7206C114.297 31.2221 113.551 30.8892 112.762 30.749C112.358 30.6762 112.089 30.885 112.535 31.4485C112.743 31.706 113.462 32.2015 113.374 32.6289C113.286 33.0564 112.358 32.8718 112.066 32.8864C111.227 32.9713 110.382 32.9452 109.549 32.8087C108.909 32.6678 108.233 32.3229 107.63 32.4201C107.347 32.458 107.071 32.5365 106.809 32.6532C106.461 32.8533 106.18 33.16 106.003 33.5324C105.979 33.5826 105.945 33.6273 105.905 33.664C105.864 33.7006 105.817 33.7286 105.766 33.7462C105.661 33.7884 105.55 33.8146 105.437 33.8239C105.216 33.7915 105.011 33.681 104.858 33.5105C104.705 33.3401 104.611 33.1199 104.593 32.8864C104.593 32.4881 104.635 32.0557 104.306 31.7983C104.119 31.6731 103.909 31.5903 103.689 31.5552C103.47 31.5201 103.246 31.5334 103.031 31.5943C102.959 31.6325 102.897 31.6881 102.849 31.7565C102.802 31.8249 102.77 31.9041 102.758 31.9877C102.693 32.3035 102.823 33.1681 102.721 33.7559C102.685 34.0842 102.535 34.387 102.299 34.606C102.085 34.7315 101.858 34.8309 101.622 34.9023C101.306 35.0614 101.057 35.3362 100.922 35.6747C100.574 36.3159 100.301 36.8988 99.6471 37.0056C98.9935 37.1125 98.5253 36.8113 97.9412 36.0341C97.5096 35.505 97.1116 34.9468 96.7498 34.3631C96.2306 33.445 97.4127 33.9551 97.7326 34.0474C98.1961 34.1882 98.6829 34.1882 99.1557 34.2902C99.5422 34.3793 99.9378 34.4168 100.333 34.402C100.648 34.402 101.2 34.3485 101.186 33.8093C101.158 32.6144 99.0028 31.1862 98.3769 30.7442C98.0756 30.5256 97.7743 30.3216 97.4498 30.1321C96.9491 29.8067 96.0915 29.2869 95.5352 28.9663C95.2261 28.7668 94.8854 28.627 94.5293 28.5534C93.9962 28.4951 93.5465 29.214 92.9995 28.0676C92.6796 27.3924 92.4756 27.1447 91.9101 26.9601C90.9004 26.629 89.8184 26.629 88.8087 26.9601C88.5307 27.0631 88.2695 27.2105 88.0346 27.3973C87.6405 27.7033 87.2141 28.3251 86.9127 28.4757C86.7211 28.5664 86.5081 28.5951 86.3008 28.5582C85.0167 28.3542 84.5114 29.5298 84.3121 31.1668C84.2564 31.604 84.2518 32.1043 84.1637 32.5269C84.1111 32.7648 84.0269 32.9937 83.9134 33.207C83.7419 33.5519 83.3154 34.334 82.9862 34.9849C82.7869 35.3832 82.5783 35.7767 82.3743 36.1993C81.7995 37.3651 81.1412 38.5552 80.4598 39.7939C79.8989 40.6606 79.6268 41.6971 79.6856 42.7425C79.8181 43.5251 80.2374 44.2224 80.8538 44.6855C81.5445 45.2733 82.2445 45.1421 82.8982 44.9187C83.8856 44.5884 84.2889 45.1179 84.7015 46.376C84.8823 46.92 85.0492 47.5758 85.4617 47.9207C85.6678 48.0831 85.9054 48.1961 86.1578 48.2515C86.4101 48.3069 86.6711 48.3034 86.922 48.2413C87.4505 48.0713 87.6544 47.4786 87.6174 46.784C87.5739 46.4955 87.5908 46.2006 87.6668 45.9196C87.7428 45.6386 87.8762 45.3783 88.0578 45.1567C88.2164 44.927 88.3156 44.6582 88.3456 44.3765C88.3757 44.0947 88.3356 43.8096 88.2293 43.5488C87.9604 42.5773 87.3578 41.3678 87.2465 40.7363C87.1746 40.3775 87.1746 40.007 87.2465 39.6482C87.314 39.3527 87.4087 39.0647 87.5293 38.7884C87.7193 38.3609 88.3591 37.5983 88.8319 36.8793C89.1398 36.4185 89.3702 35.9059 89.5134 35.3638C89.5701 35.1105 89.664 34.868 89.7915 34.6448C89.9345 34.4909 90.1183 34.3854 90.3192 34.3421C90.52 34.2988 90.7286 34.3197 90.918 34.402C91.0465 34.4513 91.1634 34.5288 91.261 34.6293C91.3585 34.7298 91.4344 34.8511 91.4836 34.9849C91.6279 35.5702 91.5463 36.1915 91.2564 36.7142C90.9922 37.2679 90.5101 37.3845 90.2087 37.8849C89.9074 38.3852 89.9167 39.2839 89.926 40.0319C89.9352 40.78 89.8796 41.6592 90.2319 42.2616C90.6955 43.0194 91.5902 42.8688 92.1928 42.8396C92.4664 42.8396 92.7723 42.8396 93.0783 42.8396C93.5203 42.8535 93.9546 42.9644 94.3531 43.1651C94.5524 43.306 94.7425 43.918 94.5246 44.0395C94.3872 44.0959 94.2411 44.1256 94.0935 44.1269C93.4955 44.19 92.8743 44.0929 92.2763 44.1269C91.8961 44.1269 91.2935 44.0929 91.2147 44.7098C91.1544 45.1956 91.5717 45.5939 91.8034 45.8951C91.9429 46.028 92.0517 46.1924 92.1216 46.3758C92.1915 46.5593 92.2206 46.757 92.2067 46.954C92.1994 47.0042 92.1819 47.0522 92.1555 47.0948C92.1291 47.1375 92.0944 47.1737 92.0537 47.2013C92.013 47.2288 91.9671 47.247 91.9192 47.2546C91.8712 47.2622 91.8223 47.2591 91.7756 47.2455C91.4562 47.1293 91.176 46.9184 90.969 46.6383C90.8253 46.4634 90.6306 46.1185 90.4313 46.2205C90.1068 46.3857 90.2597 47.5758 90.2644 47.9498C90.3325 48.5868 90.2196 49.2306 89.9399 49.8006C89.2677 50.8353 87.9697 50.7721 86.9544 50.675C86.3249 50.5886 85.7043 50.4423 85.1001 50.2378C84.6873 50.1675 84.2919 50.0123 83.9366 49.7812C83.1299 49.1254 83.6213 47.5127 83.473 46.5411C83.2922 45.3996 82.3558 46.1622 82.175 46.8326C81.8829 47.8867 82.6386 49.1545 82.2955 50.1406C82.0452 50.8255 81.2525 50.8207 80.7286 51.015C80.0147 51.287 79.63 52.0691 79.5002 52.958C79.4306 53.4438 79.0922 53.7013 78.8233 54.017C78.4571 54.4396 78.0492 54.7796 77.669 55.1585C77.5426 55.3068 77.3885 55.4264 77.2163 55.5099C77.0441 55.5935 76.8574 55.6392 76.6677 55.6443C76.4174 55.6443 76.0651 55.4257 75.8704 55.6054C75.6757 55.7852 75.7823 56.1932 75.4068 56.3341C75.0313 56.475 74.5028 56.2806 74.081 56.3341C73.7982 56.3681 73.3763 56.5624 73.6174 56.9461C73.8584 57.3299 74.4055 57.4853 74.7161 57.7039C75.3604 58.1605 75.569 58.9669 75.62 59.8364C75.6942 61.0314 75.3929 61.9689 74.3266 62.0418C73.2604 62.1146 72.2637 61.8523 71.1975 62.3284C70.2704 62.7364 70.2704 64.592 70.2286 65.6218C70.1986 66.0419 70.2942 66.4612 70.5022 66.8217C70.6108 67.163 70.7587 67.4893 70.9426 67.7932C71.093 67.9316 71.269 68.0361 71.4596 68.1005C71.6501 68.1648 71.8512 68.1875 72.0505 68.1672C72.2539 68.1521 72.4579 68.1853 72.6474 68.2643C72.8368 68.3434 73.0068 68.4663 73.1445 68.6238C73.215 68.6984 73.2927 68.7652 73.3763 68.823C73.52 68.9056 73.7333 68.4975 74.0346 68.4344C74.2189 68.4152 74.4048 68.425 74.5863 68.4635C74.762 68.5092 74.9437 68.524 75.124 68.5073C75.3048 68.4733 75.3836 68.2838 75.5134 68.2401C75.7528 68.1108 75.9608 67.9258 76.1215 67.6993C76.2822 67.4729 76.3913 67.2109 76.4406 66.9334C76.5286 66.6565 76.5889 66.3651 76.6863 66.093C76.8262 65.7949 76.9809 65.5047 77.1498 65.2235C77.2218 64.995 77.3101 64.7726 77.4141 64.558C77.6783 64.1597 78.0213 64.2374 78.3829 64.1208C78.6047 64.0507 78.8016 63.913 78.9485 63.7253C79.0955 63.5376 79.1858 63.3084 79.2081 63.0667C79.2962 62.6393 79.2869 62.1438 79.6717 61.9786C79.9869 61.8475 80.3485 62.1049 80.673 62.1244C81.2432 62.1632 81.7021 61.7552 82.1843 61.488C83.1485 60.9585 83.9088 61.2986 84.4743 62.3721C84.7131 62.8631 84.9973 63.3284 85.3227 63.7614C85.5776 64.0771 85.9068 64.2471 86.1617 64.5872C86.4816 64.9904 86.8803 65.3012 87.1909 65.6898C87.5015 66.0785 87.4551 66.8994 87.3207 67.4532C87.2697 67.6718 87.0935 68.0215 87.2419 68.2255C87.3902 68.4295 87.6313 68.2255 87.7611 68.0895C88.1783 67.6329 88.1134 67.0597 88.1273 66.4039C88.1273 66.1027 88.0995 65.7384 88.3359 65.6558C88.4524 65.6497 88.5681 65.6784 88.6697 65.7384C88.8551 65.8064 88.8458 65.1555 88.4564 64.8252C88.2475 64.6301 87.9933 64.4961 87.7193 64.4366C87.52 64.4366 87.0286 63.6642 86.871 63.4651C86.4715 63.02 86.1042 62.5442 85.7723 62.0418C85.4747 61.6531 85.2911 61.1823 85.2439 60.6865C85.2439 59.9481 85.9578 60.0259 86.3333 60.361C86.6346 60.6331 86.6531 61.0557 86.8293 61.4346C87.2094 62.2652 88.016 62.4547 88.6094 62.8919C89.0266 63.2027 89.0127 63.6059 89.1842 64.1451C89.3561 64.5412 89.4941 64.9525 89.5968 65.3741C89.5887 65.5934 89.6617 65.8075 89.8008 65.9716C89.9726 66.1888 90.1618 66.3904 90.3664 66.5739C90.5683 66.723 90.7534 66.8958 90.918 67.0888C91.0756 67.3317 91.0061 67.3026 90.9644 67.5503C90.8763 68.0846 90.8438 68.6336 91.3074 68.9347C91.771 69.2359 91.8869 68.2692 92.0769 67.8855C92.1649 67.7657 92.2249 67.626 92.2523 67.4776C92.2797 67.3291 92.2736 67.1761 92.2346 67.0305C92.1511 66.7439 91.873 66.5448 91.771 66.2728C91.5067 65.5587 92.128 65.6461 92.4339 65.4227C92.8279 65.1458 93.2498 64.6503 93.7644 65.0778C94.0611 65.3255 93.9961 65.5635 93.9591 65.923C93.9628 66.3223 94.0367 66.7175 94.1769 67.0888C94.2083 67.4794 94.291 67.8635 94.4226 68.2304C94.6351 68.6194 94.9348 68.9483 95.2959 69.1887C95.657 69.4291 96.0685 69.5737 96.4948 69.6099C96.8332 69.6099 97.1485 69.3476 97.4869 69.4448C97.6306 69.4836 97.7233 69.6197 97.8531 69.6877C98.0902 69.785 98.3461 69.8217 98.5995 69.7945C98.9379 69.7945 99.2624 69.6731 99.6008 69.6828C100.148 69.6828 100.305 69.8625 100.152 70.5232C99.8909 71.519 99.6912 72.5315 99.5544 73.5543C99.5127 73.9381 99.5869 74.8999 99.3551 75.1719C99.1233 75.4439 98.5485 74.8756 98.2842 74.7299C97.5057 74.3435 96.6446 74.1761 95.7855 74.2441C95.3409 74.2733 94.895 74.2733 94.4504 74.2441C94.0232 74.2603 93.5995 74.1581 93.222 73.9478C92.5962 73.3989 90.9783 71.8299 90.2597 72.9763C89.7962 73.7292 89.9909 75.1768 88.869 74.9193C88.35 74.7273 87.8634 74.4502 87.4273 74.0984C86.7212 73.6775 85.9755 73.334 85.2021 73.0734C84.6444 72.9121 84.1485 72.5725 83.7836 72.1019C83.2737 71.383 84.1313 71.1838 84.2472 70.4843C84.3005 70.1743 84.2811 69.8554 84.1907 69.5549C84.1002 69.2545 83.9414 68.9817 83.728 68.7599C83.3142 68.5106 82.8339 68.4099 82.3604 68.4733C82.1194 68.4733 81.8968 68.4053 81.6651 68.3955C81.3968 68.4204 81.1331 68.4842 80.8816 68.585C80.3222 68.692 79.7532 68.7344 79.1849 68.7113C78.8836 68.7113 78.5823 68.7113 78.2902 68.7113C78.1141 68.7113 77.6598 68.6481 77.516 68.7744C76.7511 69.4594 75.7962 70.1977 74.7624 70.0908C74.1134 70.0277 73.5757 69.7994 72.9081 70.0617C72.2761 70.3657 71.6978 70.7796 71.1975 71.2858C70.7618 71.6841 70.3492 72.1165 69.9412 72.5537C69.4777 73.0686 69.4777 73.7632 69.4777 74.4967C69.4827 74.933 69.3453 75.3581 69.0883 75.7014C68.7077 76.3005 68.1896 76.7899 67.5816 77.1247C66.8943 77.4298 66.3053 77.9357 65.8849 78.582C65.5129 79.2337 65.2024 79.9218 64.9578 80.6367C64.4511 82.1268 64.4824 83.7597 65.0459 85.2272C65.2128 85.6109 64.7167 86.767 64.624 87.1702C64.4315 87.9028 64.4509 88.6788 64.6797 89.3999C64.844 89.8852 65.1065 90.3276 65.4492 90.6968C66.1214 91.4255 66.5015 92.4504 67.0671 93.3297C67.5852 94.1738 68.1865 94.9585 68.8611 95.671C69.6663 96.5581 70.7354 97.1319 71.8929 97.2983C72.4418 97.383 73.0023 97.3108 73.5154 97.0895C73.7873 96.9635 74.0804 96.8958 74.3776 96.8903C74.9968 96.8657 75.6064 96.7225 76.1763 96.4677C76.4776 96.3025 76.7743 96.1082 77.0478 95.9431C77.3185 95.7378 77.6344 95.6079 77.966 95.5654C78.2976 95.523 78.634 95.5693 78.9439 95.7002C79.2148 95.8386 79.4635 96.0206 79.681 96.2394C80.1019 96.6737 80.5685 97.0566 81.0717 97.3809C81.3226 97.5048 81.5926 97.5805 81.869 97.6044C82.3728 97.6309 82.8482 97.8566 83.1995 98.2359C84.1266 99.2074 83.5657 100.514 83.0094 101.636C82.4902 102.676 82.875 103.759 83.3015 104.633C83.5101 105.051 83.6538 105.479 83.867 105.872C84.1394 106.293 84.3373 106.762 84.4511 107.256C84.5207 107.742 84.6273 108.179 84.7107 108.631C84.8474 109.559 84.8661 110.501 84.7664 111.434C84.7061 111.891 84.6227 112.347 84.5253 112.804C84.4789 113.027 84.4326 113.251 84.377 113.469C84.2825 113.881 84.157 114.284 84.0015 114.674C83.9161 114.846 83.8432 115.025 83.7836 115.208C83.6564 115.66 83.571 116.124 83.5286 116.593C83.4452 117.37 83.2783 118.73 83.2041 119.507C83.1578 119.971 83.1578 120.438 83.2041 120.901C83.5049 122.909 83.9702 124.885 84.5949 126.808C84.8591 127.722 85.0584 128.679 85.3319 129.582C85.4617 130.044 85.5405 130.554 85.7074 130.991C85.8355 131.492 85.9102 132.007 85.9299 132.526C86.0783 133.59 86.3935 134.24 87.1816 134.508C87.8727 134.652 88.5893 134.578 89.2399 134.294C90.7362 133.822 92.079 132.926 93.12 131.705C93.8035 130.85 94.3627 129.894 94.7796 128.868C95.0138 128.405 95.1973 127.917 95.3266 127.411C95.4471 126.867 95.5259 126.303 95.6836 125.764C95.9293 124.948 96.1471 124.044 96.4299 123.243C96.8935 121.985 97.1021 120.897 97.9875 119.954C98.4053 119.541 98.8432 119.15 99.2995 118.784C100.013 118.167 101.321 117.166 101.395 115.869C101.752 109.671 100.203 104.794 105.646 100.402C107.115 98.8091 109.044 96.1228 109.651 93.6017C109.938 92.4019 109.188 91.6101 108.46 91.8918C108.019 92.0685 107.568 92.2178 107.111 92.3387C106.693 92.4456 106.267 92.4844 105.845 92.5622C105.422 92.5779 105.005 92.4575 104.649 92.2173C104.461 92.1401 104.295 92.0146 104.165 91.8525C104.036 91.6904 103.947 91.4968 103.907 91.2895C103.764 90.8037 103.838 90.3422 103.736 89.8711C103.608 89.4586 103.366 89.0952 103.04 88.8267C102.414 88.124 101.902 87.3182 101.525 86.4416C101.192 85.5045 100.984 84.5237 100.908 83.527C100.795 82.8754 100.552 82.2562 100.194 81.7103C99.8753 81.1257 99.6024 80.5148 99.3783 79.8838C99.1465 79.2572 98.2889 77.0858 99.1187 76.6632C99.7677 76.328 100.199 78.2905 100.407 78.8103C100.825 79.8449 101.274 80.7922 101.738 81.7248L102.461 83.1821C102.864 83.9739 103.337 84.9503 103.523 85.3535C103.639 85.5963 103.75 85.8392 103.856 86.087C104.12 86.5409 104.321 87.0315 104.454 87.5442C104.668 89.4873 105.205 90.59 106.239 90.5463C107.166 90.5123 108.599 89.5164 109.484 89.0404C111.051 88.2032 112.541 87.2162 113.935 86.0918C114.29 85.7003 114.602 85.2667 114.862 84.7997C115.229 84.3175 115.51 83.7694 115.691 83.1821C115.769 82.9576 115.772 82.7125 115.702 82.4855C115.631 82.2585 115.491 82.0627 115.302 81.9288C115.042 81.7443 114.727 81.8511 114.514 81.6374C114.301 81.4237 114.217 80.8553 114.023 80.5396C113.638 79.9227 113.184 80.3404 112.729 80.5979C112.275 80.8553 111.339 81.4334 110.875 81.035C110.574 80.7533 110.75 80.4327 110.611 80.0635C110.472 79.6943 110.268 79.8789 110.04 79.7915C109.461 79.5778 109.252 78.6742 108.993 78.0816C108.793 77.6299 108.353 76.6243 108.529 76.0754C108.817 75.1768 109.688 76.4203 109.92 76.7458C110.268 77.0996 110.596 77.4743 110.903 77.8679C111.125 78.2037 111.436 78.4639 111.797 78.616C112.137 78.8249 112.492 79.0052 112.859 79.1552C113.142 79.228 113.434 79.1211 113.721 79.2426C113.891 79.3123 114.038 79.4301 114.148 79.5826C114.628 80.1761 115.31 80.5506 116.048 80.627C116.855 80.6562 117.699 80.4764 118.464 80.4376C119.069 80.3529 119.686 80.4332 120.253 80.6707C120.933 81.0503 121.468 81.6623 121.769 82.4049C121.991 83.0218 122.168 83.8622 122.738 84.1974C123.308 84.5325 123.725 83.1141 124.054 83.4639C124.235 83.6533 124.193 84.2168 124.207 84.4791C124.226 84.8049 124.263 85.1293 124.319 85.4506C124.43 86.1938 124.541 86.9516 124.657 87.7094C124.864 89.2696 125.166 90.8142 125.561 92.3339C125.765 93.0479 126.066 94.1312 126.669 94.3886C126.933 94.5004 127.378 94.1215 127.568 93.8543C127.747 93.553 127.881 93.2256 127.967 92.8828C128.101 92.4576 128.211 92.0245 128.296 91.5858C128.458 90.7707 128.684 89.9713 128.973 89.1958C129.12 88.8596 129.291 88.5349 129.483 88.2243C129.82 87.644 130.221 87.1075 130.679 86.6262C131.061 86.3178 131.411 85.9677 131.722 85.5818C131.842 85.4069 131.958 85.2272 132.074 85.0474C132.301 84.6989 132.546 84.3632 132.807 84.0419C132.926 83.8899 133.076 83.7686 133.247 83.6873C133.45 83.6474 133.657 83.6295 133.864 83.6339C134.276 83.5707 134.415 83.2258 134.763 83.0364C135.111 82.8469 135.435 83.1578 135.644 83.425C136.223 84.1779 136.186 85.368 136.242 86.3396C136.274 86.8253 136.288 87.4617 136.733 87.5297C137.178 87.5977 137.452 87.3208 137.79 87.7191C138.129 88.1174 138.138 88.9384 138.328 89.5067C138.518 90.0751 138.926 90.2937 138.963 90.9106C138.991 91.304 138.833 91.3623 138.676 91.6635C138.615 91.7947 138.584 91.9382 138.584 92.0837C138.584 92.2291 138.615 92.3727 138.676 92.5039C138.771 92.8548 138.771 93.2265 138.676 93.5774C138.532 93.8823 138.439 94.211 138.402 94.5489C138.401 94.6447 138.428 94.7384 138.481 94.8169C138.533 94.8953 138.608 94.9545 138.694 94.9861C138.844 95.0865 138.973 95.218 139.073 95.3725C139.172 95.5271 139.241 95.7014 139.274 95.8848C139.315 96.1277 139.343 96.3705 139.366 96.56C139.391 96.8339 139.444 97.1042 139.524 97.3663C139.561 97.4489 139.598 97.5169 139.635 97.5898C139.731 97.868 139.759 98.1667 139.719 98.4593C139.715 98.5565 139.689 98.6514 139.643 98.736C139.597 98.8205 139.532 98.8922 139.454 98.9451C139.315 99.0034 139.144 98.9062 138.991 98.7702C138.754 98.5759 138.397 98.2844 138.18 98.1144C138.053 98.0203 137.91 97.9557 137.758 97.925C136.979 97.8327 137.758 99.8194 137.934 100.14C138.11 100.461 138.263 100.626 138.397 100.874C138.534 101.158 138.611 101.469 138.625 101.787C138.774 102.456 138.989 103.107 139.264 103.73C139.471 104.322 139.746 104.885 140.085 105.406C140.245 105.639 140.43 105.852 140.636 106.042C140.697 106.095 141.285 106.45 141.281 106.479C141.058 108.83 143.01 107.451 143.766 108.213C144.35 108.893 145.124 108.699 145.879 108.655C146.079 108.643 146.278 108.613 146.473 108.568C146.547 108.369 146.612 108.175 146.686 107.975C146.417 107.903 146.148 107.81 146.051 107.558ZM102.331 65.1555C101.648 65.03 100.982 64.8128 100.352 64.5094C99.4246 64.1354 97.9412 64.4366 97.0094 64.6066C96.5502 64.7133 96.0734 64.7033 95.6187 64.5775C94.6915 64.2568 95.3405 62.0563 95.7716 61.0168C95.9587 60.4555 96.2502 59.9388 96.6293 59.4964C97.3663 58.8115 98.7849 59.817 98.5392 60.0744C98.2935 60.3319 98.618 60.6282 98.6643 60.9148C98.7107 61.2014 98.9657 61.4783 99.2392 61.2306C99.5127 60.9828 99.2392 59.715 100.101 59.2875C100.203 59.2389 100.31 59.1904 100.426 59.1466C101.311 58.8115 101.733 59.3409 101.557 60.5068C101.508 60.7846 101.508 61.0693 101.557 61.3471C101.789 62.547 102.92 62.7413 102.925 62.8724C102.929 63.0036 103.351 63.1833 103.676 63.6302C104 64.0771 103.286 65.2478 102.331 65.1555ZM112.242 69.1533C112.029 70.0326 111.033 70.1831 110.101 69.6391C109.169 69.095 109.174 67.4677 109.215 66.4136C109.257 65.3595 107.713 64.2957 107.584 63.0959C107.352 60.9682 109.104 59.4235 110.342 59.5838C111.297 59.7101 110.597 61.1625 110.091 62.1195C109.92 62.4547 110.064 62.7704 110.365 63.2319C110.991 64.2034 111.821 64.6552 112.219 65.1021C112.618 65.549 112.094 66.0736 111.575 66.1999C111.056 66.3262 112.511 68.0312 112.242 69.1485V69.1533Z" fill="#F5F5F5"/>
<path d="M46.4148 123.729C46.7671 123.053 47.8334 122.422 48.6075 122.126C49.2148 121.892 49.6135 121.897 50.0585 121.154C50.5045 120.248 50.6897 119.225 50.5916 118.21C50.4943 117.545 50.8002 116.909 50.7307 116.432C50.6612 115.956 50.2671 114.543 50.4386 113.285C50.6704 111.342 52.3764 110.224 52.6777 108.199C52.8678 106.936 51.6718 105.658 50.8234 105.192C49.9751 104.726 49.0479 103.045 48.042 103.011H47.7175C46.7254 102.977 45.3161 101.554 44.338 101.097C44.1172 100.999 43.8913 100.915 43.6612 100.844C42.6738 100.534 41.5751 99.222 41.1069 98.0076C40.6757 96.8806 40.1287 95.8071 39.3453 95.297C38.2837 94.6121 36.7817 95.4768 35.9102 94.2041C35.5585 93.6441 35.1067 93.1608 34.5797 92.7808C34.0268 92.4395 33.5382 91.995 33.138 91.4692C32.5725 90.6289 32.0301 91.2166 31.3533 90.8523C30.9638 90.6434 30.8294 90.4151 30.3566 90.3665C29.7514 90.3692 29.1464 90.34 28.544 90.2791C28.0572 90.2014 27.8903 89.9245 27.5102 89.5845C26.6433 88.8121 25.1923 89.2784 24.5758 90.0702C24.2791 90.4588 24.1493 91.0709 23.8572 91.4158C23.2639 92.1201 22.04 91.4595 21.3122 90.998C20.7394 90.6416 20.2499 90.1553 19.8798 89.5748C19.444 88.8607 19.0963 88.6615 19.1612 87.7774C19.2076 87.1411 19.3698 86.3202 18.9572 85.7372C18.7771 85.5414 18.5611 85.3858 18.3221 85.2798C18.0831 85.1738 17.8261 85.1195 17.5665 85.1203C17.1771 85.0766 16.6394 85.2272 16.2917 84.9795C16.0892 84.8172 15.9323 84.6007 15.8377 84.3527C15.743 84.1047 15.7141 83.8345 15.7539 83.5707C15.8606 83.2404 16.2175 83.0558 16.3844 82.7887C16.4942 82.6475 16.5705 82.481 16.6069 82.3029C16.6069 82.2106 16.5467 81.8172 16.5652 81.788C16.9546 81.1079 16.8202 80.6902 16.4539 80.5007C15.8003 80.1704 14.6414 80.7679 14.4374 81.6471C14.2334 82.5264 12.8381 83.051 11.9758 82.6187C10.293 81.7346 9.63011 78.3148 10.2838 76.0609C10.5804 75.0262 11.7255 73.6321 12.6248 73.5689C13.348 73.5058 14.1036 73.8604 14.9427 73.9721C15.2811 74.0498 15.2811 73.7972 15.2857 73.5446C15.2857 73.1366 16.0692 73.1949 16.6301 73.1949C17.191 73.1949 18.438 73.4912 18.9758 74.4384C19.2016 74.9039 19.3818 75.3921 19.5135 75.8957C19.838 76.9547 21.1407 77.6299 20.9321 76.4932C20.8069 75.7791 20.5102 74.8708 20.348 74.0644C20.1301 72.9326 21.0109 71.5044 21.7387 70.9555C22.1865 70.6494 22.6139 70.3118 23.0182 69.9451C23.4075 69.6207 23.6884 69.1751 23.8202 68.6725C23.8897 68.0701 23.5281 67.492 23.6115 66.8314C23.6486 66.3734 23.7798 65.9293 23.9963 65.5296C24.3498 64.8743 24.8697 64.3345 25.4983 63.9703C26.0639 63.6691 27.0235 63.8197 27.3526 63.0376C27.6817 62.2555 27.7281 61.7552 28.3817 61.1529C28.7877 60.7931 29.2404 60.4954 29.7261 60.2688C30.5003 59.8899 30.0274 61.2694 30.9453 61.2063C31.8969 60.9895 32.8002 60.5839 33.6062 60.0113C34.4917 59.4333 34.9181 58.4035 34.6678 58.0683C34.4175 57.7331 33.546 59.4867 32.6791 59.2341C32.5872 59.2053 32.4987 59.1662 32.4148 59.1175C31.6268 58.6318 31.8539 57.2182 31.6963 57.2376C31.5387 57.2571 31.5665 57.0142 31.7797 56.9267C31.993 56.8393 32.3685 55.2946 31.4552 55.6152C31.2892 55.6748 31.1267 55.7446 30.9685 55.8241C30.0691 56.2418 30.0089 55.5035 30.9036 55.0711C32.3268 54.3765 33.9678 54.3182 35.5393 54.0025C36.4665 53.8081 36.7817 54.3425 36.1744 55.3772C35.5671 56.4118 35.2473 57.1065 35.9148 57.2911C36.8095 57.5339 37.9268 57.1599 37.9175 57.5388C37.9175 57.7817 37.9175 58.0246 38.2373 57.7865C38.7241 57.4562 39.1645 58.3014 39.6003 57.7088C39.6881 57.5493 39.7344 57.3684 39.7344 57.1842C39.7344 57 39.6881 56.8191 39.6003 56.6596C39.3824 56.1398 39.1367 55.2023 38.585 55.1489C38.0334 55.0954 38.0195 53.6381 38.3996 52.4723L38.5109 52.108C38.84 50.9324 37.5234 49.8978 36.8837 49.2226C34.997 47.2309 35.7618 47.1727 35.0062 44.5107C34.7234 43.5392 33.8983 43.6363 33.0917 44.4232C32.6652 44.841 32.2387 45.1373 31.9327 45.0742C31.1446 44.9139 31.8632 42.4365 31.3533 42.1596C31.0751 42.0042 30.6903 41.9264 30.5744 41.4115C30.4029 40.4983 29.587 40.1291 28.748 40.2408C27.9089 40.3526 27.0049 41.7758 26.9725 42.6696C26.94 43.5634 26.0453 44.8799 26.2678 45.5259C26.4903 46.172 26.7314 47.7993 26.0268 48.6882C25.5956 49.2274 25.0162 49.6257 24.636 50.1795C23.9778 51.151 24.548 52.7735 24.1307 53.3224C24.0884 53.3967 24.0323 53.4614 23.9658 53.5128C23.8993 53.5641 23.8237 53.6011 23.7434 53.6214C23.6631 53.6418 23.5798 53.6452 23.4982 53.6313C23.4167 53.6175 23.3386 53.5868 23.2685 53.541C23.0161 53.3417 22.804 53.0918 22.6449 52.8057C22.4857 52.5196 22.3825 52.2032 22.3413 51.8748C22.3043 50.4564 22.9023 49.6598 21.7851 49.276C20.3088 48.7796 18.9401 47.984 17.7566 46.9346C17.2142 46.4489 17.3579 45.8174 17.293 44.9916C17.2281 44.1658 16.5791 43.9083 17.5665 42.864C18.1831 42.2082 19.0639 41.771 19.5182 40.7557C19.9725 39.7405 19.0824 39.6336 19.7407 38.8613C20.399 38.0889 21.697 38.5018 22.3506 38.2589C22.5274 38.2149 22.6938 38.1336 22.8396 38.02C22.9854 37.9064 23.1077 37.7629 23.199 37.5983C23.5606 36.9037 23.0228 36.8357 22.944 36.4713C22.944 36.3547 23.1294 36.2965 23.338 36.2722C23.622 36.2725 23.9029 36.2113 24.1632 36.0924C24.3277 35.9881 24.4698 35.8492 24.5804 35.6844C24.7056 35.495 24.7056 35.3444 24.8632 35.1646C25.0025 35.0249 25.1784 34.9318 25.3685 34.8975C25.755 34.8716 26.1308 34.7536 26.4672 34.5526C27.0717 34.252 27.5898 33.7895 27.9692 33.2119C28.2152 32.8093 28.3735 32.3549 28.4327 31.8809C28.3864 31.6283 28.085 31.638 28.1546 31.2494C28.3771 29.9718 29.6983 30.0544 30.1387 29.9913C30.8109 29.899 31.6082 29.7581 31.2652 31.0162C31.1076 31.5749 30.8016 32.9204 31.6036 32.2258C32.0672 31.8275 32.2201 31.6332 32.4287 32.0412C32.5511 32.2014 32.6317 32.3922 32.6626 32.5949C32.6934 32.7975 32.6736 33.0051 32.6049 33.1973C32.5428 33.4017 32.4406 33.5903 32.3049 33.7509C32.1692 33.9115 32.0029 34.0406 31.8168 34.13C31.3162 34.4408 30.5976 36.2236 29.8235 36.311C29.6983 36.311 29.5685 36.311 29.448 36.3547C28.6645 36.4665 28.4837 38.3318 29.2764 38.0258C30.0691 37.7197 30.8804 38.2929 31.3254 38.9973C31.9513 39.9688 32.9433 41.0423 33.4811 41.0812C34.2877 41.1346 33.9678 39.2693 34.3758 39.1382C34.6092 39.0507 34.8557 39.0079 35.1036 39.0119C35.2334 39.0119 35.4281 37.948 35.4327 37.8363C35.4449 37.5216 35.3709 37.2098 35.2195 36.9377C34.9274 36.4519 34.4268 36.3839 34.3248 35.6504C34.2135 34.8295 35.0619 34.1931 35.4466 34.4894C35.6295 34.7195 35.7468 34.999 35.785 35.2958C35.9195 35.8204 36.2996 36.1362 36.4989 36.0536C36.6328 35.9996 36.7544 35.9168 36.8559 35.8107C37.1387 35.5095 37.1711 35.1161 37.4075 34.8003C37.7877 34.2903 38.2234 34.4797 38.5897 33.9939C38.6618 33.9246 38.7181 33.839 38.7542 33.7436C38.7903 33.6483 38.8054 33.5456 38.7982 33.4432C38.7911 33.3409 38.762 33.2416 38.713 33.1527C38.664 33.0639 38.5965 32.9878 38.5155 32.9301C37.9592 32.4007 37.3056 32.0655 36.7724 31.5797C36.6629 31.4967 36.5576 31.4075 36.4572 31.3125C36.2996 31.1377 36.3274 30.5062 36.4572 30.0496C36.5417 29.7874 36.6022 29.5174 36.638 29.2432C36.6403 29.0781 36.6106 28.9143 36.5509 28.7615C36.4911 28.6087 36.4025 28.4702 36.2903 28.3543C36.1052 28.0785 35.8889 27.8273 35.646 27.6062C35.2473 27.2613 34.2552 27.1204 33.9632 26.4695C33.6711 25.8186 33.5413 25.0122 32.9989 25.0122C32.934 25.0122 32.7115 25.2017 32.6142 25.2308C32.497 25.2726 32.3698 25.2726 32.2526 25.2308C32.0347 25.1482 31.9234 24.9296 31.7427 24.8033C31.5294 24.6633 31.2828 24.589 31.0311 24.589C30.7794 24.589 30.5327 24.6633 30.3195 24.8033C30.1087 24.9213 29.8903 25.0235 29.6658 25.1094C29.2833 25.1942 28.8933 25.2365 28.5023 25.2357C27.8845 25.4509 27.3084 25.7799 26.8009 26.2072C26.4389 26.4785 26.1184 26.8061 25.8506 27.1787C25.4473 27.7811 25.0764 28.7672 25.4566 28.9129C25.8367 29.0586 26.5552 28.9129 27.0281 28.9809C27.5009 29.0489 28.5023 29.0975 27.9831 30.1516C27.5844 30.9531 26.7453 30.6373 26.5321 31.6089C26.4625 31.9295 26.5321 32.2112 26.3188 32.5804C26.1045 32.8866 25.8501 33.1596 25.5632 33.3916C25.3171 33.5721 25.0583 33.7329 24.789 33.8725C24.446 34.0668 24.0288 33.9308 24.1354 33.4596C24.2188 33.0807 24.599 32.8087 24.738 32.4249C24.765 32.3692 24.7808 32.3082 24.7844 32.2458C24.7879 32.1834 24.7793 32.1208 24.7588 32.0621C24.7384 32.0033 24.7067 31.9496 24.6656 31.9042C24.6246 31.8589 24.5751 31.8228 24.5202 31.7983C24.4198 31.7404 24.3121 31.6979 24.2003 31.672C23.9703 31.5866 23.7798 31.413 23.6672 31.1862C23.6079 31.0429 23.5644 30.893 23.5374 30.7393C23.4864 30.4673 23.3705 30.205 23.3149 29.9087C23.3001 29.6169 23.3409 29.3248 23.4348 29.0497C23.5287 28.7745 23.6739 28.5216 23.8619 28.3057C24.0056 28.1794 24.1725 28.0677 24.3625 27.8976C24.7464 27.533 25.1 27.1349 25.4195 26.7075C26.1149 25.7943 26.3466 24.8762 25.6698 24.8811C24.993 24.8859 23.8155 25.634 23.2314 26.761C22.948 27.4386 22.6082 28.0887 22.2162 28.704C21.7943 29.2529 21.2566 29.6367 20.8625 30.1904C20.4685 30.7442 20.4546 31.23 20.1625 31.774C19.8705 32.3181 19.787 32.1626 19.4579 32.3326C18.7162 32.7115 18.6513 33.9745 17.9188 34.4797C17.6898 34.6072 17.4363 34.6786 17.1771 34.6886C16.7674 34.7618 16.3468 34.7267 15.9533 34.5866C15.8467 34.538 15.6983 34.4846 15.8096 34.232C15.9718 33.8677 16.3241 33.8094 16.5467 33.6685C17.242 33.2313 17.9837 32.0218 18.0023 31.3611C18.0023 30.9239 17.6361 30.9094 17.446 30.7005C17.2768 30.4522 17.1735 30.1613 17.1466 29.8575C17.1197 29.5537 17.1702 29.2478 17.293 28.9712C16.0043 30.6131 14.7866 32.2986 13.64 34.028C13.7101 34.0381 13.7757 34.0698 13.8285 34.1191C13.8814 34.1684 13.919 34.2331 13.9367 34.3048C13.9924 34.5186 13.8718 34.7566 13.6864 35.0675C13.5676 35.2583 13.4622 35.458 13.3712 35.665C13.2182 35.9953 12.5738 37.234 12.2215 36.9231C12.133 36.8355 12.0523 36.7395 11.9804 36.6365C5.49045 47.2482 1.50652 59.3273 0.358612 71.8736C0.471329 71.853 0.587257 71.8647 0.694152 71.9075C0.801047 71.9502 0.894936 72.0224 0.965895 72.1165C1.58245 72.8063 1.81887 74.4822 2.44006 75.1768C3.4692 76.3329 4.66059 77.7708 5.16589 79.33C5.49502 80.3453 5.95396 81.856 6.72813 82.4875C8.23475 83.7116 10.052 84.7317 11.7116 84.7657C13.3712 84.7997 14.8222 87.9717 16.4725 87.2577C16.6718 87.1702 17.3718 88.6567 17.4738 88.8558C17.8747 89.5642 18.4114 90.1778 19.05 90.658C19.7002 91.1533 20.3978 91.5766 21.1314 91.921C22.4526 92.6108 24.0195 93.6309 23.5003 95.7779C23.1804 97.07 22.5082 98.2602 22.04 99.4989C21.5718 100.738 21.1824 102.127 21.7155 103.506C22.2486 104.886 23.1943 105.891 23.7321 107.213C24.2698 108.534 23.8711 110.127 24.4274 111.585C25.1182 113.396 26.3513 113.839 27.8857 114.698C29.0772 115.306 30.0224 116.34 30.5513 117.613C31.8442 120.583 32.8641 123.675 33.597 126.847C34.5519 130.777 35.2195 134.921 36.9811 138.54C37.782 140.33 38.8808 141.957 40.2261 143.344C41.1254 144.223 42.0804 144.373 42.2334 142.858C42.3214 141.916 41.7049 141.051 41.4638 140.172C41.2228 139.292 41.6354 138.603 41.7188 137.719C41.7883 136.99 41.2969 135.81 41.844 135.29C42.391 134.77 43.0771 135.241 43.434 134.493C43.8976 133.546 42.9195 132.968 42.8453 132.176C42.7711 131.384 44.0181 131.525 44.4863 130.879C44.7784 130.471 44.7181 129.908 44.9499 129.446C45.1261 129.091 45.3254 129.053 45.5711 128.815C45.9921 128.313 46.2897 127.711 46.438 127.061C46.7579 126.012 45.9188 124.686 46.4148 123.729ZM15.7771 57.8691C16.6162 57.2182 18.1414 55.7123 18.8228 56.203C19.1524 56.5392 19.3989 56.9542 19.5414 57.4125C19.9168 58.3063 21.0851 58.7435 21.7433 59.1758C22.4016 59.6081 21.3539 60.2056 21.1685 60.9003C20.9831 61.5949 20.4731 61.8184 20.538 61.42C20.5751 61.182 20.5798 60.9926 20.2414 61.0946C19.7778 61.2354 19.9122 60.8906 20.0837 60.5117C20.3155 59.987 19.1566 59.3847 18.7208 60.4582C18.6077 60.7514 18.5117 61.0515 18.4334 61.3569C18.1182 62.4693 17.0798 62.3284 17.3996 61.216C17.4414 61.08 17.4877 60.9391 17.5387 60.7983C17.9235 59.7053 17.7241 58.3306 16.8526 58.3306C15.8559 58.316 14.8778 58.5589 15.7771 57.8691Z" fill="#F5F5F5"/>
<path d="M22.6288 23.8269C22.7261 24.2641 23.3056 23.9532 23.4354 23.7832C23.5652 23.6132 24.2791 22.5834 24.0751 22.0928C23.9778 21.8547 23.7321 21.8742 23.4632 22.0005C23.1155 22.3454 22.7818 22.7 22.4433 23.0497C22.4738 23.3159 22.5361 23.577 22.6288 23.8269Z" fill="#F5F5F5"/>
<path d="M69.9968 52.618C70.2147 53.4147 71.0399 52.9823 71.4895 52.8657C71.7804 52.7507 72.043 52.5688 72.258 52.3334C72.473 52.098 72.6349 51.8152 72.7319 51.5056C72.8659 51.0223 72.828 50.5046 72.6253 50.0483C72.4306 49.6306 71.8929 48.8922 71.4664 49.1691C71.2948 49.276 71.3319 49.514 71.1882 49.6549C71.0445 49.7957 70.618 49.6549 70.3909 49.6937C69.7465 49.8152 70.2054 50.5584 70.2889 50.9664C70.3378 51.2468 70.3055 51.5361 70.1962 51.7971C70.1081 52.04 69.9134 52.3168 69.9968 52.618Z" fill="#F5F5F5"/>
<path d="M83.5981 65.1944C84.0339 64.1889 83.3942 61.0994 82.9445 62.1778C82.866 62.3763 82.8025 62.581 82.7545 62.7899C82.467 63.9557 83.1578 66.2048 83.5981 65.1944Z" fill="#F5F5F5"/>
<path d="M149.523 97.7404C149.987 97.0603 150.107 96.0985 149.379 95.9382C148.652 95.7779 148.267 96.56 147.692 97.1429C147 97.8216 146.249 98.4315 145.448 98.9645C144.985 99.2948 144.211 98.8625 143.993 99.7563C143.827 100.548 143.882 101.372 144.15 102.132C144.256 102.698 144.476 103.235 144.795 103.706C145.462 104.497 146.538 104.91 147.521 104.036C147.677 103.897 147.812 103.733 147.919 103.55C148.095 103.244 148.323 102.617 148.559 102.243C148.856 101.204 149.129 100.155 149.384 99.1054C149.277 98.8886 149.233 98.6437 149.258 98.4009C149.282 98.1582 149.375 97.9285 149.523 97.7404Z" fill="#F5F5F5"/>
<path d="M24.6499 81.5791C23.9329 81.4703 23.2519 81.1802 22.6658 80.7339C22.0863 80.3307 21.4003 79.8498 20.7512 80.1024C20.2877 80.2919 20.8347 80.8796 21.1407 81.1371C21.367 81.3147 21.6039 81.4769 21.8499 81.6228C22.2486 81.8852 22.7771 82.3758 23.0877 82.5944C23.2633 82.7155 23.4711 82.775 23.681 82.7644C24.5062 82.7304 25.3685 82.2349 26.1797 82.9247C26.3698 83.0898 26.6757 83.561 26.9307 83.5367H26.9771C27.2506 83.4444 27.2181 82.9344 27.1115 82.6624C26.6943 81.5986 25.3685 81.6714 24.6499 81.5791Z" fill="#F5F5F5"/>
<path d="M86.6995 68.2595C86.7411 68.1549 86.7622 68.0424 86.7613 67.929C86.7604 67.8156 86.7376 67.7036 86.6943 67.5996C86.651 67.4957 86.588 67.402 86.5093 67.3243C86.4305 67.2465 86.3375 67.1863 86.2359 67.1471C85.9856 67.0063 85.9253 67.3172 85.8975 67.6815C85.8604 68.1478 86.4074 68.9445 86.6995 68.2595Z" fill="#F5F5F5"/>
<path d="M79.3101 65.1555C79.6578 64.8058 79.6068 64.422 78.6147 64.422C78.4571 64.422 78.2068 64.6746 78.0399 64.9709C77.8035 65.3984 78.7213 65.7482 79.3101 65.1555Z" fill="#F5F5F5"/>
<path d="M67.2618 35.5241C67.8366 34.4506 66.6545 32.6872 66.1121 32.7407C65.783 32.7747 65.4538 33.0758 65.185 33.1779C64.8322 33.234 64.4751 33.2535 64.1187 33.2361C63.53 33.275 62.9088 34.1105 62.5148 33.5033C62.1207 32.8961 61.6293 34.742 62.1763 35.8544C63.4326 38.4387 66.3949 37.1611 67.2618 35.5241Z" fill="#F5F5F5"/>
<path d="M23.9639 37.3797C23.5003 38.3901 23.338 39.3227 23.7738 39.585C24.2096 39.8473 25.4102 39.1818 26.2354 38.9973C27.4221 38.7252 26.5043 38.1035 25.7718 37.2388C25.2943 36.6656 24.4414 36.3741 23.9639 37.3797Z" fill="#F5F5F5"/>
<path d="M60.8691 23.0497C61.5181 22.6028 62.6631 21.6847 62.4823 20.4169C62.3757 19.6591 61.9817 19.3628 62.0188 18.5273C62.0393 18.2143 62.105 17.9064 62.2135 17.6141C62.4485 17.1421 62.7214 16.6919 63.0294 16.2685C63.1078 16.1467 63.1597 16.0082 63.1814 15.8629C63.203 15.7177 63.1938 15.5692 63.1545 15.4281C62.9969 14.8501 62.4823 14.7724 62.2274 14.408C60.9618 12.5524 65.6346 9.31726 65.2406 8.4526C65.1535 8.30867 65.0177 8.20455 64.8605 8.16115C64.5476 8.04815 64.2218 7.97954 63.8916 7.95713C63.7024 7.94919 63.5132 7.97213 63.3307 8.02513C63.0614 8.15129 62.827 8.3468 62.6492 8.59348C62.2923 9.01123 61.8426 9.46784 61.7221 9.31726C61.6757 9.25897 61.6572 9.1181 61.5552 8.93351C61.2724 8.40403 61.2168 8.79749 60.8274 8.99666C60.6373 9.08895 59.9883 9.1181 59.979 8.51089C59.9698 7.90369 60.6049 7.30621 60.7949 6.99046C60.9293 6.75542 61.1214 6.5625 61.3512 6.43184C61.6803 6.26668 61.6896 5.46031 61.2168 4.97455C60.7772 4.54631 60.2362 4.2494 59.6499 4.11476C58.5341 3.79899 57.3491 3.88977 56.289 4.37221C55.671 4.6231 55.0879 4.95965 54.5552 5.37288C53.781 5.97036 52.9837 7.39365 52.1029 8.07371C51.9154 8.23589 51.6861 8.3359 51.4442 8.36099C51.2023 8.38608 50.9588 8.33511 50.7446 8.21458C49.9843 7.94255 49.0108 7.60252 47.5552 9.05009C46.6605 9.94875 47.2261 10.0556 46.8228 10.9057C46.4195 11.7558 45.4598 11.5226 45.089 11.6683C44.8993 11.7436 44.7201 11.8448 44.5559 11.9695C44.1633 12.3725 43.909 12.9003 43.8327 13.4705C43.8327 13.66 43.7771 13.8203 43.2486 14.2623C42.5741 14.8013 41.8559 15.2776 41.1022 15.6856C40.4745 16.0249 39.9591 16.5548 39.6234 17.206C39.2619 17.8764 39.4983 17.8715 39.6791 18.0998C39.7695 18.2182 39.8343 18.3558 39.8691 18.503C39.934 18.7702 39.9201 19.4745 40.2261 19.6105C40.5321 19.7466 41.538 19.3385 42.2844 19.0908C43.5499 18.6682 44.7413 18.3913 45.2698 19.4988C45.4445 19.8832 45.5242 20.3075 45.5016 20.7327C45.5016 21.5682 44.9499 23.0594 44.644 23.8852C44.4312 24.3172 44.3502 24.8073 44.4122 25.2891C44.6579 26.0712 45.5387 26.11 45.8029 26.9941C46.0022 27.6888 45.7102 28.6408 45.2559 29.4812C44.7552 30.4139 44.1804 30.7296 43.6195 31.5117C43.0585 32.2938 43.1837 33.1924 43.0261 34.0134C42.8525 35.0131 42.8604 36.0381 43.0493 37.0348C43.2331 38.1032 43.4887 39.1567 43.8142 40.1874C43.9182 40.5867 44.0893 40.9634 44.3195 41.2998C44.6903 41.7855 45.789 41.9701 46.5724 41.8195C47.1011 41.7191 47.587 41.4492 47.9632 41.0472C48.8579 40.0465 48.7605 38.4289 49.1685 37.1611C49.295 36.6798 49.5226 36.2341 49.8346 35.8568C50.1466 35.4794 50.5351 35.1799 50.9718 34.98C51.7181 34.6206 52.7009 34.4068 53.3592 33.6442C53.8969 33.0176 54.2539 32.0169 54.8194 31.4437C55.5797 30.6762 56.7016 30.7685 57.5221 30.443C58.083 30.2196 59.2141 29.6804 59.3764 28.8254C59.4552 28.3397 59.3022 28.1114 59.534 27.679C59.6954 27.4335 59.9162 27.2373 60.1737 27.1107C60.2664 27.0573 60.438 27.0184 60.6002 26.9553C60.8366 26.8581 60.9479 26.2752 60.7949 25.9837C60.6883 25.7797 60.5631 25.5903 60.5121 25.4542C60.1274 24.405 60.0949 23.5841 60.8691 23.0497Z" fill="#F5F5F5"/>
<path d="M22.193 26.6103C22.536 26.3577 22.9579 26.0469 22.8095 25.8574C22.7724 25.7894 22.6658 25.7845 22.6195 25.7263C22.5731 25.668 22.0585 25.6242 21.1731 26.0517C20.2877 26.4792 20.0142 27.3195 19.3883 27.5673C18.7625 27.815 19.1658 29.0246 19.6804 29.3743C20.4499 29.8941 21.4976 29.0197 22.1095 28.1696C22.8837 27.0961 21.7062 26.9795 22.193 26.6103Z" fill="#F5F5F5"/>
<path opacity="0.2" d="M105.915 13.1791C60.3777 -9.16595 46.3082 23.4141 68.3651 49.1011C90.422 74.7882 132.681 89.0696 140.683 75.8763C148.684 62.683 139.756 29.7824 105.915 13.1791Z" fill="white"/>
<g opacity="0.05">
<path d="M37.1201 119.255C0.0341282 86.393 23.593 13.3588 63.4234 1.09334C61.977 1.34593 60.5307 1.63253 59.0797 1.97742C46.8894 4.88028 35.5726 10.895 26.1359 19.4866C16.6992 28.0782 9.43503 38.9804 4.98948 51.2235C0.543938 63.4667 -0.945195 76.6713 0.654522 89.6631C2.25424 102.655 6.89322 115.031 14.1589 125.691C21.4246 136.35 31.0917 144.964 42.3005 150.764C53.5094 156.564 65.9125 159.372 78.4067 158.937C90.901 158.503 103.099 154.839 113.916 148.273C124.733 141.707 133.834 132.441 140.409 121.3C128.857 136.407 76.0373 153.739 37.1201 119.255Z" fill="black"/>
</g>
</svg>
