<svg width="75" height="65" viewBox="0 0 75 65" fill="none" xmlns="http://www.w3.org/2000/svg">
<path d="M26.7857 9.71429H26.3715L26.0786 10.0072L21.0144 15.0714H1V10.7143C1 8.36095 2.18674 5.9239 4.05532 4.05532C5.9239 2.18674 8.36095 1 10.7143 1H64.2857C66.6391 1 69.0761 2.18674 70.9447 4.05532C72.8133 5.9239 74 8.36095 74 10.7143V15.0714H53.9856L48.9214 10.0072L48.6285 9.71429H48.2143H26.7857ZM1 21.0893H20.4286V22.4765C20.3709 22.5633 20.2964 22.6723 20.2063 22.7976C19.9612 23.1385 19.6068 23.5913 19.1692 24.0434C18.2602 24.9825 17.1627 25.7421 16.0534 25.7857H5.35714C4.08399 25.7857 2.99321 25.0231 2.15199 24.1023C1.74258 23.6542 1.42384 23.2019 1.20739 22.8603C1.12046 22.7232 1.0511 22.6056 1 22.5155V21.0893ZM54.5714 21.0893H74V22.4829C73.9416 22.5732 73.8652 22.6879 73.772 22.8202C73.527 23.1684 73.1733 23.6292 72.7368 24.0859C71.8227 25.0425 70.7335 25.7857 69.6429 25.7857H58.9286C57.8391 25.7857 56.7498 25.0427 55.8353 24.0858C55.3987 23.629 55.0447 23.1682 54.7995 22.8199C54.7064 22.6876 54.6299 22.573 54.5714 22.4827V21.0893ZM1 45.5357C1 41.1829 4.28319 38.5 8.03571 38.5H17.75V41.8572H8.03571V42.8572C8.03571 41.8572 8.03521 41.8572 8.03471 41.8572L8.03363 41.8572L8.03129 41.8572L8.02584 41.8572L8.0119 41.8574C8.00129 41.8575 7.98804 41.8578 7.97232 41.8584C7.94091 41.8594 7.89946 41.8613 7.84937 41.8649C7.74954 41.8721 7.61346 41.8858 7.45279 41.9126C7.13618 41.9654 6.69875 42.0728 6.24921 42.2975C5.79576 42.5243 5.31189 42.8801 4.94362 43.4325C4.57117 43.9911 4.35714 44.6911 4.35714 45.5357C4.35714 46.3804 4.57117 47.0803 4.94362 47.639C5.31189 48.1914 5.79576 48.5472 6.24922 48.7739C6.69875 48.9987 7.13618 49.1061 7.45279 49.1588C7.61346 49.1856 7.74955 49.1994 7.84937 49.2065C7.89946 49.2101 7.94091 49.212 7.97232 49.2131C7.98804 49.2136 8.00129 49.2139 8.0119 49.2141L8.02584 49.2143L8.03129 49.2143L8.03363 49.2143L8.03471 49.2143C8.03521 49.2143 8.03571 49.2143 8.03571 48.2143V49.2143H13.3929C17.005 49.2143 20.4286 52.0188 20.4286 56.0826C20.4286 60.4649 17.0445 63.2857 13.3929 63.2857H3.67857V59.9286H13.3929V58.9286C13.3929 59.9286 13.3934 59.9286 13.3939 59.9286L13.3949 59.9286L13.3973 59.9286L13.4027 59.9285L13.4167 59.9284C13.4273 59.9282 13.4405 59.9279 13.4563 59.9274C13.4877 59.9263 13.5291 59.9244 13.5792 59.9208C13.679 59.9137 13.8151 59.8999 13.9758 59.8731C14.2924 59.8204 14.7298 59.713 15.1794 59.4882C15.6328 59.2615 16.1167 58.9057 16.485 58.3533C16.8574 57.7946 17.0714 57.0946 17.0714 56.25C17.0714 55.4054 16.8574 54.7054 16.485 54.1468C16.1167 53.5944 15.6328 53.2386 15.1794 53.0118C14.7298 52.7871 14.2924 52.6797 13.9758 52.6269C13.8151 52.6001 13.679 52.5863 13.5792 52.5792C13.5291 52.5756 13.4877 52.5737 13.4563 52.5726C13.4479 52.5724 13.4402 52.5722 13.4333 52.572C13.4272 52.5718 13.4216 52.5717 13.4167 52.5717L13.4027 52.5715L13.3973 52.5714L13.3949 52.5714L13.3939 52.5714C13.3934 52.5714 13.3929 52.5714 13.3929 53.5714V52.5714H8.03571C6.17036 52.5714 4.41076 51.9463 3.12863 50.7803C1.86129 49.6278 1 47.8935 1 45.5357ZM27.7857 45.5366V45.5357L27.7858 45.5288C27.786 45.5191 27.7863 45.5023 27.7871 45.4788C27.7887 45.4317 27.792 45.3581 27.7989 45.2617C27.8127 45.0685 27.8407 44.7861 27.8977 44.4445C28.0123 43.7567 28.2397 42.8548 28.6846 41.9651C29.1275 41.0792 29.7762 40.2238 30.7305 39.5876C31.6785 38.9556 32.9875 38.5 34.8214 38.5H40.1786C42.0125 38.5 43.3215 38.9556 44.2695 39.5876C45.2238 40.2238 45.8725 41.0792 46.3154 41.9651C46.7603 42.8548 46.9877 43.7567 47.1023 44.4445C47.1593 44.7861 47.1873 45.0685 47.2011 45.2617C47.208 45.3581 47.2113 45.4317 47.2129 45.4788C47.2137 45.5023 47.214 45.5191 47.2142 45.5288L47.2143 45.5357V45.5366V45.5373V45.5378L47.2143 45.5382V56.2475L47.2143 56.2479V56.2484V56.2491V56.25L47.2142 56.2569C47.214 56.2666 47.2137 56.2834 47.2129 56.3069C47.2113 56.354 47.208 56.4276 47.2011 56.524C47.1873 56.7172 47.1593 56.9996 47.1023 57.3412C46.9877 58.029 46.7603 58.9309 46.3154 59.8207C45.8725 60.7065 45.2238 61.5619 44.2695 62.1981C43.3215 62.8301 42.0125 63.2857 40.1786 63.2857H34.8214C32.9875 63.2857 31.6785 62.8301 30.7305 62.1981C29.7762 61.5619 29.1275 60.7065 28.6846 59.8207C28.2397 58.9309 28.0123 58.029 27.8977 57.3412C27.8407 56.9996 27.8127 56.7172 27.7989 56.524C27.792 56.4276 27.7887 56.354 27.7871 56.3069C27.7863 56.2834 27.786 56.2666 27.7858 56.2569L27.7857 56.25V56.2491L27.7857 56.2484L27.7857 56.2479V45.5378L27.7857 45.5373L27.7857 45.5366ZM54.5714 45.5357C54.5714 41.1829 57.8546 38.5 61.6071 38.5H71.3214V41.8572H61.6071V42.8572C61.6071 41.8572 61.6066 41.8572 61.6061 41.8572L61.6051 41.8572L61.6027 41.8572L61.5973 41.8572L61.5833 41.8574C61.5784 41.8574 61.5729 41.8576 61.5668 41.8577C61.5598 41.8579 61.5521 41.8581 61.5437 41.8584C61.5123 41.8594 61.4709 41.8613 61.4208 41.8649C61.321 41.8721 61.1849 41.8858 61.0242 41.9126C60.7076 41.9654 60.2702 42.0728 59.8206 42.2975C59.3672 42.5243 58.8833 42.8801 58.515 43.4325C58.1426 43.9911 57.9286 44.6911 57.9286 45.5357C57.9286 46.3804 58.1426 47.0803 58.515 47.639C58.8833 48.1914 59.3672 48.5472 59.8206 48.7739C60.2702 48.9987 60.7076 49.1061 61.0242 49.1588C61.1849 49.1856 61.321 49.1994 61.4208 49.2065C61.4709 49.2101 61.5123 49.212 61.5437 49.2131C61.5595 49.2136 61.5727 49.2139 61.5833 49.2141L61.5973 49.2143L61.6027 49.2143L61.6051 49.2143L61.6061 49.2143C61.6066 49.2143 61.6071 49.2143 61.6071 48.2143V49.2143H66.9643C70.5765 49.2143 74 52.0188 74 56.0826C74 60.4649 70.6159 63.2857 66.9643 63.2857H57.25V59.9286H66.9643V58.9286C66.9643 59.9286 66.9648 59.9286 66.9653 59.9286L66.9664 59.9286L66.9687 59.9286L66.9742 59.9285L66.9881 59.9284C66.9987 59.9282 67.012 59.9279 67.0277 59.9274C67.0399 59.927 67.0536 59.9264 67.0688 59.9257C67.0926 59.9246 67.12 59.923 67.1506 59.9208C67.2505 59.9137 67.3865 59.8999 67.5472 59.8731C67.8638 59.8204 68.3013 59.713 68.7508 59.4882C69.2042 59.2615 69.6881 58.9057 70.0564 58.3533C70.4288 57.7946 70.6429 57.0946 70.6429 56.25C70.6429 55.4054 70.4288 54.7054 70.0564 54.1468C69.6881 53.5944 69.2042 53.2386 68.7508 53.0118C68.3013 52.7871 67.8638 52.6797 67.5472 52.6269C67.3865 52.6001 67.2505 52.5863 67.1506 52.5792C67.1005 52.5756 67.0591 52.5737 67.0277 52.5726C67.0219 52.5725 67.0165 52.5723 67.0114 52.5722C67.0026 52.5719 66.9948 52.5718 66.9881 52.5717L66.9742 52.5715L66.9687 52.5714L66.9664 52.5714L66.9653 52.5714C66.9648 52.5714 66.9643 52.5714 66.9643 53.5714V52.5714H61.6071C59.7418 52.5714 57.9822 51.9463 56.7001 50.7803C55.4327 49.6278 54.5714 47.8935 54.5714 45.5357ZM31.1429 46.874C31.1429 46.8745 31.1429 46.875 32.1429 46.875H31.1429V54.9107H32.1429C31.1429 54.9107 31.1429 54.9112 31.1429 54.9118L31.1429 54.9129L31.1429 54.9154L31.1429 54.9216L31.1431 54.9384C31.1433 54.9515 31.1437 54.9685 31.1444 54.9892C31.1458 55.0304 31.1484 55.0862 31.1532 55.1546C31.163 55.2911 31.182 55.4795 31.2192 55.7029C31.2929 56.1451 31.4422 56.7499 31.7507 57.3669C32.0611 57.9877 32.5424 58.639 33.2832 59.1328C34.0302 59.6308 34.9813 59.9286 36.1607 59.9286H38.8393C40.0187 59.9286 40.9698 59.6308 41.7168 59.1328C42.4576 58.639 42.9389 57.9877 43.2493 57.3669C43.5578 56.7499 43.7071 56.1451 43.7808 55.7029C43.818 55.4795 43.837 55.2911 43.8468 55.1546C43.8516 55.0862 43.8542 55.0304 43.8556 54.9892C43.8563 54.9685 43.8567 54.9515 43.8569 54.9384L43.8571 54.9216L43.8571 54.9154L43.8571 54.9129L43.8571 54.9118C43.8571 54.9112 43.8571 54.9107 42.8571 54.9107H43.8571V46.875H42.8571C43.8571 46.875 43.8571 46.8745 43.8571 46.874L43.8571 46.8729L43.8571 46.8703L43.8571 46.8642L43.8569 46.8474C43.8568 46.8408 43.8566 46.8332 43.8564 46.8247C43.8562 46.8162 43.8559 46.8068 43.8556 46.7966C43.8542 46.7553 43.8516 46.6995 43.8468 46.6311C43.837 46.4947 43.818 46.3063 43.7808 46.0828C43.7071 45.6407 43.5578 45.0358 43.2493 44.4189C42.9389 43.798 42.4576 43.1467 41.7168 42.6529C40.9698 42.1549 40.0187 41.8572 38.8393 41.8572H36.1607C34.9813 41.8572 34.0302 42.1549 33.2832 42.6529C32.5424 43.1467 32.0611 43.798 31.7507 44.4189C31.4422 45.0358 31.2929 45.6407 31.2192 46.0828C31.182 46.3063 31.163 46.4947 31.1532 46.6311C31.1484 46.6995 31.1458 46.7553 31.1444 46.7966C31.1437 46.8172 31.1433 46.8342 31.1431 46.8474L31.1429 46.8642L31.1429 46.8703L31.1429 46.8729L31.1429 46.874Z" stroke="white" stroke-width="2"/>
</svg>
