<svg width="113" height="115" viewBox="0 0 113 115" fill="none" xmlns="http://www.w3.org/2000/svg">
<path d="M111.236 36.227L107.867 34.2671V24.2282C107.867 24.2282 104.141 22.1296 104.073 22.1296C104.006 22.1296 100.279 24.2282 100.279 24.2282V28.2463L96.4851 26.0342L92.6936 28.2463V32.0676L88.8996 34.2797V27.6031L87.0014 26.4983L85.1056 27.6031V32.0273L83.2074 30.9225L79.4134 33.1346V29.7647L77.5176 28.6599L73.7236 30.872V36.4515L71.8279 35.3467V33.1346L68.0339 30.9225L64.2399 33.1346V30.92L58.5476 27.6031L54.7536 29.8152V25.391L50.9696 23.1688L47.1756 25.3809V31.5304L45.2774 32.6352V28.2135L41.4784 26.009L37.6819 28.2135V34.8498L31.9872 31.5405V27.1163L28.1932 24.9042L24.3992 27.1163V29.6588L22.5034 28.554L18.7094 30.7661V33.465L14.9154 35.6771V27.5779L11.1214 25.3658L6.18848 28.2463V66.1698H111.236V36.227Z" fill="#F5F5F5"/>
<path d="M6.48321 66.1698C6.64306 66.1698 6.77045 66.3313 6.77045 66.1698V5.99916C6.80386 5.46857 6.95832 4.95297 7.22176 4.49265C7.4852 4.03234 7.85048 3.63978 8.28904 3.34565L12.69 0.772854C13.0397 0.568544 13.3569 0.52062 13.5767 0.654304C13.7965 0.787989 13.9188 1.08058 13.9188 1.4892V6.81893C13.9255 6.89152 13.9588 6.95896 14.0122 7.00807C14.0656 7.05717 14.1351 7.08438 14.2073 7.08438C14.2795 7.08438 14.3491 7.05717 14.4025 7.00807C14.4558 6.95896 14.4891 6.89152 14.4958 6.81893V1.4892C14.4958 0.863658 14.271 0.389457 13.8639 0.152356C13.4568 -0.0847449 12.9397 -0.0443875 12.4027 0.268384L8.0093 2.8437C7.48023 3.18535 7.04008 3.65025 6.72585 4.19934C6.41161 4.74842 6.23247 5.36565 6.20347 5.99916V66.1698C6.19598 66.3313 6.32586 66.1698 6.48321 66.1698Z" fill="black"/>
<path d="M13.2545 5.57793C13.5763 5.41247 13.9324 5.32623 14.2935 5.32623C14.6547 5.32623 15.0107 5.41247 15.3326 5.57793C15.4493 5.63235 15.5496 5.71705 15.6233 5.8234C15.697 5.92974 15.7415 6.05393 15.7522 6.18329V6.61209C15.74 6.74237 15.6939 6.86706 15.6184 6.97342C15.5429 7.07978 15.4408 7.16399 15.3226 7.21746C15.0003 7.38155 14.6444 7.46702 14.2835 7.46702C13.9226 7.46702 13.5667 7.38155 13.2445 7.21746C13.1273 7.16253 13.0261 7.07792 12.9508 6.97184C12.8755 6.86577 12.8287 6.74184 12.8149 6.61209V6.18329C12.8279 6.05194 12.8756 5.92651 12.9529 5.82005C13.0302 5.71359 13.1343 5.62999 13.2545 5.57793Z" fill="#455A64"/>
<path d="M13.2545 6.01683C12.6825 6.34978 12.6825 6.89208 13.2545 7.22755C13.5767 7.39164 13.9326 7.47712 14.2935 7.47712C14.6544 7.47712 15.0103 7.39164 15.3325 7.22755C15.9045 6.89208 15.9045 6.34978 15.3325 6.01683C15.0107 5.85137 14.6547 5.76512 14.2935 5.76512C13.9323 5.76512 13.5763 5.85137 13.2545 6.01683Z" fill="#37474F"/>
<path d="M12.8623 10.1207H15.7247V6.75586C15.713 6.62871 15.6679 6.507 15.5942 6.40327C15.5204 6.29953 15.4206 6.21751 15.3051 6.16563C14.9913 6.00596 14.6448 5.92279 14.2935 5.92279C13.9422 5.92279 13.5957 6.00596 13.2819 6.16563C13.1664 6.21751 13.0666 6.29953 12.9929 6.40327C12.9191 6.507 12.874 6.62871 12.8623 6.75586V10.1207Z" fill="#006EFF"/>
<path opacity="0.7" d="M12.8623 10.1207H15.7247V6.75586C15.713 6.62871 15.6679 6.507 15.5942 6.40327C15.5204 6.29953 15.4206 6.21751 15.3051 6.16563C14.9913 6.00596 14.6448 5.92279 14.2935 5.92279C13.9422 5.92279 13.5957 6.00596 13.2819 6.16563C13.1664 6.21751 13.0666 6.29953 12.9929 6.40327C12.9191 6.507 12.874 6.62871 12.8623 6.75586V10.1207Z" fill="white"/>
<path d="M15.3051 10.7109C15.8645 10.3855 15.8645 9.85583 15.3051 9.53045C14.9913 9.37078 14.6448 9.28761 14.2935 9.28761C13.9422 9.28761 13.5957 9.37078 13.2819 9.53045C12.7249 9.85583 12.7249 10.3855 13.2819 10.7109C13.5957 10.8706 13.9422 10.9537 14.2935 10.9537C14.6448 10.9537 14.9913 10.8706 15.3051 10.7109Z" fill="#006EFF"/>
<path opacity="0.5" d="M15.3051 10.7109C15.8645 10.3855 15.8645 9.85583 15.3051 9.53045C14.9913 9.37078 14.6448 9.28761 14.2935 9.28761C13.9422 9.28761 13.5957 9.37078 13.2819 9.53045C12.7249 9.85583 12.7249 10.3855 13.2819 10.7109C13.5957 10.8706 13.9422 10.9537 14.2935 10.9537C14.6448 10.9537 14.9913 10.8706 15.3051 10.7109Z" fill="white"/>
<path opacity="0.2" d="M13.4343 7.24268C13.4343 7.07107 13.4847 6.90331 13.5791 6.76062C13.6735 6.61793 13.8077 6.50672 13.9647 6.44104C14.1217 6.37537 14.2945 6.35819 14.4611 6.39167C14.6278 6.42515 14.7809 6.50778 14.9011 6.62913C15.0212 6.75048 15.1031 6.90509 15.1362 7.0734C15.1694 7.24172 15.1523 7.41618 15.0873 7.57473C15.0223 7.73328 14.9122 7.8688 14.7709 7.96414C14.6296 8.05948 14.4635 8.11037 14.2935 8.11037C14.0656 8.11037 13.8471 8.01895 13.686 7.85623C13.5248 7.69351 13.4343 7.47281 13.4343 7.24268Z" fill="white"/>
<path opacity="0.2" d="M12.8623 8.28693C13.0236 8.51903 13.2379 8.70849 13.487 8.83929C13.7361 8.97009 14.0127 9.03837 14.2935 9.03837C14.5743 9.03837 14.8509 8.97009 15.1 8.83929C15.3491 8.70849 15.5634 8.51903 15.7247 8.28693V6.77352C15.713 6.64636 15.6679 6.52466 15.5942 6.42092C15.5204 6.31719 15.4206 6.23516 15.3051 6.18329C14.9913 6.02362 14.6448 5.94045 14.2935 5.94045C13.9422 5.94045 13.5957 6.02362 13.2819 6.18329C13.1664 6.23516 13.0666 6.31719 12.9929 6.42092C12.9191 6.52466 12.874 6.64636 12.8623 6.77352V8.28693Z" fill="white"/>
<path opacity="0.4" d="M13.8939 7.2427C13.8934 7.16278 13.9164 7.0845 13.96 7.0178C14.0036 6.9511 14.0659 6.89898 14.1388 6.86805C14.2118 6.83712 14.2922 6.82877 14.3699 6.84405C14.4476 6.85934 14.5191 6.89757 14.5752 6.95391C14.6313 7.01025 14.6696 7.08216 14.6853 7.16051C14.7009 7.23887 14.6931 7.32014 14.6629 7.39403C14.6328 7.46792 14.5816 7.5311 14.5158 7.57556C14.45 7.62002 14.3726 7.64375 14.2935 7.64375C14.1879 7.64376 14.0867 7.60158 14.0118 7.52644C13.9369 7.4513 13.8945 7.3493 13.8939 7.2427Z" fill="white"/>
<path d="M13.2545 9.38918C13.5763 9.22373 13.9324 9.13748 14.2935 9.13748C14.6547 9.13748 15.0107 9.22373 15.3326 9.38918C15.4493 9.4436 15.5496 9.5283 15.6233 9.63465C15.697 9.74099 15.7415 9.86518 15.7522 9.99454V10.4233C15.7403 10.5537 15.6942 10.6785 15.6187 10.7849C15.5432 10.8913 15.441 10.9755 15.3226 11.0287C15.0003 11.1928 14.6444 11.2783 14.2835 11.2783C13.9226 11.2783 13.5667 11.1928 13.2445 11.0287C13.1264 10.975 13.0244 10.8908 12.949 10.7844C12.8735 10.6781 12.8273 10.5535 12.8149 10.4233V9.99454C12.8279 9.86319 12.8756 9.73776 12.9529 9.6313C13.0302 9.52484 13.1343 9.44124 13.2545 9.38918Z" fill="#455A64"/>
<path d="M13.2545 9.81799C12.6825 10.1509 12.6825 10.6932 13.2545 11.0287C13.5767 11.1928 13.9326 11.2783 14.2935 11.2783C14.6544 11.2783 15.0103 11.1928 15.3325 11.0287C15.9045 10.6932 15.9045 10.1509 15.3325 9.81799C15.0107 9.65254 14.6547 9.56629 14.2935 9.56629C13.9323 9.56629 13.5763 9.65254 13.2545 9.81799Z" fill="#37474F"/>
<path d="M110.942 66.1698C110.782 66.1698 110.655 66.3313 110.655 66.1698V5.99916C110.621 5.46857 110.467 4.95297 110.203 4.49265C109.94 4.03234 109.575 3.63978 109.136 3.34565L104.735 0.772854C104.385 0.568544 104.068 0.52062 103.848 0.654304C103.629 0.787989 103.506 1.08058 103.506 1.4892V6.81893C103.499 6.89152 103.466 6.95896 103.413 7.00807C103.359 7.05717 103.29 7.08438 103.218 7.08438C103.145 7.08438 103.076 7.05717 103.023 7.00807C102.969 6.95896 102.936 6.89152 102.929 6.81893V1.4892C102.929 0.863658 103.154 0.389457 103.561 0.152356C103.968 -0.0847449 104.485 -0.0443875 105.022 0.268384L109.416 2.8437C109.945 3.18535 110.385 3.65025 110.699 4.19934C111.013 4.74842 111.193 5.36565 111.222 5.99916V66.1698C111.229 66.3313 111.099 66.1698 110.942 66.1698Z" fill="black"/>
<path d="M104.171 5.57793C103.849 5.41247 103.493 5.32623 103.131 5.32623C102.77 5.32623 102.414 5.41247 102.092 5.57793C101.974 5.63096 101.872 5.71505 101.796 5.8215C101.72 5.92795 101.674 6.05286 101.663 6.18329V6.61209C101.675 6.74237 101.721 6.86706 101.797 6.97342C101.872 7.07978 101.974 7.16399 102.092 7.21746C102.415 7.38155 102.771 7.46702 103.131 7.46702C103.492 7.46702 103.848 7.38155 104.171 7.21746C104.288 7.16253 104.389 7.07792 104.464 6.97184C104.539 6.86577 104.586 6.74184 104.6 6.61209V6.18329C104.588 6.05302 104.542 5.92833 104.466 5.82197C104.391 5.71561 104.289 5.63139 104.171 5.57793Z" fill="#455A64"/>
<path d="M104.171 6.01683C104.743 6.34978 104.743 6.89208 104.171 7.22755C103.848 7.39164 103.493 7.47712 103.132 7.47712C102.771 7.47712 102.415 7.39164 102.093 7.22755C101.521 6.89208 101.521 6.34978 102.093 6.01683C102.415 5.85137 102.771 5.76512 103.132 5.76512C103.493 5.76512 103.849 5.85137 104.171 6.01683Z" fill="#37474F"/>
<path d="M104.563 10.1207H101.7V6.75586C101.712 6.62871 101.757 6.507 101.831 6.40327C101.905 6.29953 102.004 6.21751 102.12 6.16563C102.434 6.00596 102.78 5.92279 103.131 5.92279C103.483 5.92279 103.829 6.00596 104.143 6.16563C104.259 6.21751 104.358 6.29953 104.432 6.40327C104.506 6.507 104.551 6.62871 104.563 6.75586V10.1207Z" fill="#006EFF"/>
<path opacity="0.7" d="M104.563 10.1207H101.7V6.75586C101.712 6.62871 101.757 6.507 101.831 6.40327C101.905 6.29953 102.004 6.21751 102.12 6.16563C102.434 6.00596 102.78 5.92279 103.131 5.92279C103.483 5.92279 103.829 6.00596 104.143 6.16563C104.259 6.21751 104.358 6.29953 104.432 6.40327C104.506 6.507 104.551 6.62871 104.563 6.75586V10.1207Z" fill="white"/>
<path d="M102.12 10.7109C101.56 10.3855 101.56 9.85583 102.12 9.53045C102.434 9.37078 102.78 9.28761 103.131 9.28761C103.483 9.28761 103.829 9.37078 104.143 9.53045C104.7 9.85583 104.7 10.3855 104.143 10.7109C103.829 10.8706 103.483 10.9537 103.131 10.9537C102.78 10.9537 102.434 10.8706 102.12 10.7109Z" fill="#006EFF"/>
<path opacity="0.5" d="M102.12 10.7109C101.56 10.3855 101.56 9.85583 102.12 9.53045C102.434 9.37078 102.78 9.28761 103.131 9.28761C103.483 9.28761 103.829 9.37078 104.143 9.53045C104.7 9.85583 104.7 10.3855 104.143 10.7109C103.829 10.8706 103.483 10.9537 103.131 10.9537C102.78 10.9537 102.434 10.8706 102.12 10.7109Z" fill="white"/>
<path opacity="0.2" d="M103.991 7.24268C103.991 7.07107 103.94 6.90331 103.846 6.76062C103.751 6.61793 103.617 6.50672 103.46 6.44104C103.303 6.37537 103.131 6.35819 102.964 6.39167C102.797 6.42515 102.644 6.50778 102.524 6.62913C102.404 6.75048 102.322 6.90509 102.289 7.0734C102.256 7.24172 102.273 7.41618 102.338 7.57473C102.403 7.73328 102.513 7.8688 102.654 7.96414C102.795 8.05948 102.962 8.11037 103.131 8.11037C103.359 8.11037 103.578 8.01895 103.739 7.85623C103.9 7.69351 103.991 7.47281 103.991 7.24268Z" fill="white"/>
<path opacity="0.2" d="M104.563 8.28693C104.401 8.51903 104.187 8.70849 103.938 8.83929C103.689 8.97009 103.412 9.03837 103.131 9.03837C102.851 9.03837 102.574 8.97009 102.325 8.83929C102.076 8.70849 101.862 8.51903 101.7 8.28693V6.77352C101.712 6.64636 101.757 6.52466 101.831 6.42092C101.905 6.31719 102.004 6.23516 102.12 6.18329C102.434 6.02362 102.78 5.94045 103.131 5.94045C103.483 5.94045 103.829 6.02362 104.143 6.18329C104.259 6.23516 104.358 6.31719 104.432 6.42092C104.506 6.52466 104.551 6.64636 104.563 6.77352V8.28693Z" fill="white"/>
<path opacity="0.4" d="M103.531 7.2427C103.532 7.16278 103.509 7.0845 103.465 7.0178C103.421 6.9511 103.359 6.89898 103.286 6.86805C103.213 6.83712 103.133 6.82877 103.055 6.84405C102.977 6.85934 102.906 6.89757 102.85 6.95391C102.794 7.01025 102.755 7.08216 102.74 7.16051C102.724 7.23887 102.732 7.32014 102.762 7.39403C102.792 7.46792 102.843 7.5311 102.909 7.57556C102.975 7.62002 103.052 7.64375 103.131 7.64375C103.237 7.64376 103.338 7.60158 103.413 7.52644C103.488 7.4513 103.53 7.3493 103.531 7.2427Z" fill="white"/>
<path d="M104.171 9.38918C103.849 9.22373 103.493 9.13748 103.131 9.13748C102.77 9.13748 102.414 9.22373 102.092 9.38918C101.974 9.44221 101.872 9.52631 101.796 9.63275C101.72 9.7392 101.674 9.86411 101.663 9.99454V10.4233C101.675 10.5537 101.721 10.6785 101.796 10.7849C101.872 10.8913 101.974 10.9755 102.092 11.0287C102.415 11.1928 102.771 11.2783 103.131 11.2783C103.492 11.2783 103.848 11.1928 104.171 11.0287C104.289 10.975 104.391 10.8908 104.466 10.7844C104.541 10.6781 104.588 10.5535 104.6 10.4233V9.99454C104.588 9.86427 104.542 9.73958 104.466 9.63322C104.391 9.52686 104.289 9.44264 104.171 9.38918Z" fill="#455A64"/>
<path d="M104.171 9.81799C104.743 10.1509 104.743 10.6932 104.171 11.0287C103.848 11.1928 103.493 11.2783 103.132 11.2783C102.771 11.2783 102.415 11.1928 102.093 11.0287C101.521 10.6932 101.521 10.1509 102.093 9.81799C102.415 9.65254 102.771 9.56629 103.132 9.56629C103.493 9.56629 103.849 9.65254 104.171 9.81799Z" fill="#37474F"/>
<path d="M94.5394 16.2676C94.5394 15.4352 95.4411 14.8551 96.4652 14.7542C97.6691 14.6382 98.5258 15.1805 98.5532 16.139C99.3425 15.8136 100.172 16.023 100.109 16.8957C100.314 16.6435 101.081 16.6636 101.358 16.7292C101.508 16.7721 101.646 16.847 101.764 16.9488C101.882 17.0507 101.977 17.1771 102.043 17.3194C102.109 17.4588 102.135 17.6148 102.115 17.7684C102.575 17.6171 103.614 17.5162 103.881 17.95C104.345 18.7067 102.487 18.7294 102.112 18.5024C102.033 19.0901 100.037 19.1885 99.5523 18.6437C99.1752 19.0271 98.6332 19.1128 98.0537 19.1481C97.0546 19.2062 96.4602 18.8682 95.6909 18.4722C94.8517 19.1885 93.403 19.2011 92.6462 18.3814C92.4539 18.5655 91.9244 18.6336 91.4997 18.5201C91.22 18.452 91.1551 18.3309 91.1551 18.3309C90.9909 18.4028 90.8191 18.4553 90.643 18.4873C90.0935 18.6033 89.0745 18.4873 89.5041 17.9828C89.767 17.7964 90.0897 17.7163 90.4083 17.7583C90.6455 17.2841 91.6071 16.8326 92.1566 17.2362C92.1816 16.6687 92.6812 16.2172 93.4305 16.1062C93.6802 16.0658 94.2572 16.0305 94.5394 16.2676Z" fill="#F5F5F5"/>
<path d="M17.7503 17.6373C17.7503 16.8049 18.6545 16.2273 19.676 16.1239C20.8824 16.0104 21.7366 16.5527 21.7666 17.5112C22.5534 17.1833 23.3851 17.3926 23.3227 18.2679C23.5275 18.0308 24.2943 18.0358 24.5715 18.1039C24.7216 18.146 24.8608 18.2206 24.9794 18.3225C25.0981 18.4244 25.1932 18.5513 25.2584 18.6941C25.3239 18.833 25.349 18.9879 25.3308 19.1406C25.7879 18.9893 26.8294 18.8884 27.0942 19.3222C27.5613 20.0789 25.703 20.1041 25.3283 19.8746C25.2484 20.4648 23.2502 20.5607 22.7682 20.0159C22.3885 20.4018 21.8465 20.485 21.2696 20.5203C20.2705 20.5809 19.676 20.2429 18.9042 19.8443C18.0675 20.5632 16.6164 20.5758 15.8621 19.7561C15.6697 19.9377 15.1377 20.0083 14.7131 19.8923C14.4334 19.8267 14.3684 19.7056 14.3684 19.7056C14.208 19.7758 14.0405 19.8283 13.8689 19.862C13.3219 19.978 12.3028 19.862 12.7299 19.3575C12.9935 19.1724 13.3156 19.0924 13.6341 19.133C13.8839 18.6588 14.833 18.2099 15.3825 18.6109C15.405 18.0358 15.9245 17.5868 16.6588 17.4708C16.8786 17.4355 17.4681 17.4027 17.7503 17.6373Z" fill="#F5F5F5"/>
<path d="M82.2866 51.9863C82.2949 51.9964 82.3029 52.0066 82.3107 52.0169C82.3026 52.0068 82.2945 51.9966 82.2866 51.9863Z" fill="#006EFF"/>
<g opacity="0.15">
<path d="M101.87 57.2205C101.732 57.0412 101.558 56.8935 101.36 56.7871C101.161 56.6807 100.943 56.618 100.719 56.6032C100.494 56.5884 100.269 56.6219 100.059 56.7013C99.8484 56.7808 99.657 56.9045 99.4973 57.0642C99.3752 57.1856 99.2709 57.324 99.1876 57.4753C99.0164 57.3144 98.8121 57.1938 98.5892 57.1223C98.3663 57.0508 98.1305 57.03 97.8988 57.0616C97.5374 57.1246 97.2048 57.3007 96.9479 57.565C96.6911 57.8294 96.5231 58.1686 96.4676 58.5347C96.6716 58.2568 96.9457 58.0393 97.2613 57.9048C97.5768 57.7702 97.9223 57.7235 98.2618 57.7697C98.6012 57.8158 98.9223 57.9529 99.1914 58.1669C99.4606 58.3809 99.668 58.6638 99.792 58.9862C99.8019 58.8813 99.8019 58.7758 99.792 58.6709C99.7611 58.4207 99.684 58.1786 99.5648 57.9571C99.6182 57.8865 99.6767 57.8199 99.7396 57.7578C100.038 57.4557 100.429 57.2647 100.848 57.2162C101.268 57.1676 101.692 57.2643 102.05 57.4904C102 57.3944 101.939 57.3039 101.87 57.2205Z" fill="black"/>
<path d="M80.4175 55.9089C80.5236 55.7703 80.6577 55.656 80.8108 55.5737C80.964 55.4914 81.1327 55.4429 81.3058 55.4314C81.479 55.42 81.6525 55.4458 81.815 55.5073C81.9775 55.5687 82.1252 55.6644 82.2483 55.7878C82.3421 55.8817 82.422 55.9887 82.4856 56.1056C82.6181 55.9809 82.7766 55.8876 82.9495 55.8326C83.1223 55.7776 83.3052 55.7623 83.4846 55.7878C83.7632 55.8357 84.0197 55.9712 84.2175 56.1751C84.4154 56.3789 84.5443 56.6406 84.5861 56.9229C84.4299 56.7082 84.2196 56.5397 83.977 56.4349C83.7344 56.3302 83.4685 56.293 83.2068 56.3272C82.9452 56.3615 82.6974 56.4659 82.4893 56.6297C82.2812 56.7934 82.1203 57.0105 82.0235 57.2584C82.0155 57.1745 82.0155 57.09 82.0235 57.0061C82.0463 56.8132 82.1056 56.6265 82.1983 56.4563C82.1575 56.4006 82.1124 56.3483 82.0635 56.2999C81.8335 56.067 81.532 55.9199 81.2085 55.8827C80.8849 55.8456 80.5584 55.9207 80.2826 56.0956C80.3205 56.0284 80.3657 55.9658 80.4175 55.9089Z" fill="black"/>
<path d="M110.682 80.3658C110.635 80.3684 110.587 80.3684 110.54 80.3658C110.587 80.3583 110.635 80.3583 110.682 80.3658Z" fill="black"/>
<path d="M6.68803 87.2794C5.32928 87.5922 6.34585 83.7254 7.27249 83.1175C4.36767 82.6257 5.5241 80.2244 6.1835 79.5862C4.30023 79.2054 3.96055 76.9605 5.86629 75.7699C5.45667 75.6362 4.86721 75.0132 5.27933 73.8983C5.76388 72.5943 7.68961 72.453 8.21162 72.4026C7.79701 72.3042 6.57563 70.8135 7.73706 69.5876C7.4493 69.8043 7.12995 69.9745 6.79044 70.0921C6.59426 70.1584 6.38697 70.1845 6.18068 70.1689C5.9744 70.1533 5.77327 70.0963 5.58904 70.0013C5.36176 69.8701 4.50005 69.0327 5.33928 68.1297C3.20375 68.1852 4.72235 65.2038 6.3958 65.3047C5.62152 64.8128 5.00209 64.2276 5.28682 63.1758C5.41297 62.7748 5.64063 62.4139 5.94729 62.129C6.25394 61.8441 6.62895 61.645 7.03521 61.5514C5.70644 60.7947 4.92716 59.758 5.53659 58.5246C5.41722 58.5946 5.30288 58.673 5.19441 58.7592C5.07809 58.8472 4.96945 58.945 4.86971 59.0518C4.56552 59.4004 4.35102 59.8194 4.24517 60.2716C4.13932 60.7238 4.14536 61.1954 4.26277 61.6448C3.69329 61.7129 1.51531 62.8757 1.68015 65.4964C1.69253 65.8839 1.83325 66.256 2.07978 66.5532C0.331399 67.1056 -0.278039 69.6456 1.18561 70.8412C-0.185624 71.4264 -0.487845 73.9286 0.920855 74.6248C0.353878 75.8531 1.69264 76.8596 2.84658 76.6729C2.387 77.1118 2.58182 77.8231 2.93649 78.262C3.05258 78.4287 3.19131 78.5782 3.34861 78.7059L3.28617 78.6656L3.32863 78.6984C1.14565 78.1939 1.58025 81.7529 3.17627 82.0909C0.885887 82.9082 0.965813 87.9529 4.69987 89.5495V89.5621H8.71366C7.65464 89.2241 6.73299 88.4775 6.68803 87.2794Z" fill="black"/>
<path d="M22.6932 60.1742C22.5813 59.9769 22.4292 59.8058 22.247 59.6722C22.0648 59.5385 21.8567 59.4454 21.6363 59.3989C21.4158 59.3525 21.1882 59.3537 20.9683 59.4025C20.7483 59.4514 20.5412 59.5468 20.3604 59.6824C20.2221 59.7841 20.0999 59.9066 19.9982 60.0456C19.8491 59.8616 19.6617 59.7131 19.4493 59.6107C19.2369 59.5082 19.0048 59.4543 18.7694 59.4528C18.4051 59.4622 18.0536 59.59 17.7669 59.8172C17.4803 60.0444 17.2739 60.3589 17.1783 60.714C17.355 60.5318 17.5655 60.3865 17.7978 60.2865C18.0301 60.1866 18.2796 60.1338 18.5321 60.1313C18.9634 60.1427 19.3797 60.2934 19.72 60.5612C20.0603 60.829 20.3066 61.1999 20.4228 61.6195C20.4401 61.5153 20.4485 61.4099 20.4478 61.3042C20.4482 61.0511 20.4007 60.8003 20.308 60.5652C20.3688 60.5026 20.4339 60.4445 20.5028 60.3911C20.8399 60.1348 21.2532 60.0014 21.6751 60.0129C22.097 60.0244 22.5026 60.1799 22.8256 60.4542C22.7908 60.3567 22.7465 60.2629 22.6932 60.1742Z" fill="black"/>
<path d="M31.4452 55.8433C31.5095 55.6346 31.6249 55.4457 31.7807 55.2939C31.9364 55.1421 32.1275 55.0324 32.3363 54.9749C32.5451 54.9173 32.7649 54.9138 32.9754 54.9646C33.1859 55.0154 33.3803 55.119 33.5407 55.2657C33.6308 55.0952 33.7557 54.9461 33.9073 54.8282C34.0589 54.7103 34.2337 54.6264 34.4199 54.5821C34.7023 54.5228 34.9962 54.5596 35.2557 54.687C35.5151 54.8143 35.7254 55.0249 35.8536 55.2859C35.6861 55.1743 35.498 55.0978 35.3007 55.0609C35.1033 55.0241 34.9006 55.0277 34.7047 55.0715C34.3636 55.1588 34.0581 55.3516 33.831 55.623C33.604 55.8944 33.4666 56.2307 33.4383 56.5849C33.407 56.5035 33.3844 56.4189 33.3709 56.3326C33.3321 56.1319 33.3321 55.9255 33.3709 55.7248C33.3132 55.6872 33.2531 55.6535 33.191 55.6239C32.881 55.4839 32.5333 55.4534 32.204 55.5371C31.8746 55.6208 31.5827 55.8139 31.3752 56.0855C31.3903 56.0026 31.4138 55.9214 31.4452 55.8433Z" fill="black"/>
<path d="M8.52885 64.7624C8.61459 64.6533 8.72235 64.5638 8.84497 64.5C8.96759 64.4362 9.10225 64.3995 9.24 64.3924C9.37775 64.3852 9.51543 64.4078 9.64389 64.4585C9.77234 64.5093 9.88862 64.587 9.985 64.6867C10.0595 64.7609 10.1226 64.8459 10.1723 64.9389C10.2779 64.8401 10.404 64.7662 10.5414 64.7225C10.6787 64.6789 10.824 64.6667 10.9666 64.6867C11.1885 64.7275 11.3919 64.838 11.548 65.0024C11.704 65.1668 11.8048 65.3767 11.8358 65.6023C11.7125 65.4306 11.5459 65.2953 11.3533 65.2106C11.1607 65.1258 10.9492 65.0947 10.7406 65.1204C10.5321 65.1462 10.3342 65.2279 10.1675 65.3569C10.0008 65.486 9.87139 65.6579 9.79268 65.8545C9.78649 65.79 9.78649 65.7249 9.79268 65.6603C9.81355 65.507 9.86268 65.359 9.93755 65.224C9.90529 65.1805 9.87025 65.1392 9.83264 65.1004C9.6513 64.9126 9.41232 64.7925 9.15469 64.7595C8.89705 64.7265 8.63594 64.7826 8.41395 64.9188C8.44664 64.8626 8.48515 64.8102 8.52885 64.7624Z" fill="black"/>
</g>
<path d="M58.5926 115C88.5775 115 112.885 101.698 112.885 85.2892C112.885 68.8804 88.5775 55.5785 58.5926 55.5785C28.6078 55.5785 4.30023 68.8804 4.30023 85.2892C4.30023 101.698 28.6078 115 58.5926 115Z" fill="#006EFF"/>
<path opacity="0.6" d="M58.5926 115C88.5775 115 112.885 101.698 112.885 85.2892C112.885 68.8804 88.5775 55.5785 58.5926 55.5785C28.6078 55.5785 4.30023 68.8804 4.30023 85.2892C4.30023 101.698 28.6078 115 58.5926 115Z" fill="white"/>
<path opacity="0.2" d="M38.174 106.449C48.8522 106.449 57.5086 101.402 57.5086 95.1768C57.5086 88.9513 48.8522 83.9045 38.174 83.9045C27.4957 83.9045 18.8393 88.9513 18.8393 95.1768C18.8393 101.402 27.4957 106.449 38.174 106.449Z" fill="#006EFF"/>
<path opacity="0.2" d="M79.7231 104.328C89.9379 104.328 98.2185 99.5002 98.2185 93.5448C98.2185 87.5895 89.9379 82.7618 79.7231 82.7618C69.5084 82.7618 61.2277 87.5895 61.2277 93.5448C61.2277 99.5002 69.5084 104.328 79.7231 104.328Z" fill="#006EFF"/>
<path d="M29.4445 44.7323C28.7402 46.894 28.5354 49.8956 28.2456 54.8217C27.9609 59.6394 27.861 63.9476 27.5138 69.3227C27.0143 70.6041 26.3549 71.9435 25.9128 77.8382C25.6905 80.8246 25.6355 84.5174 25.3233 87.6753L25.0911 89.5873C25.4932 91.8246 28.7327 92.0264 29.1673 90.7047C29.4537 89.9745 29.6898 89.2253 29.8741 88.4623C30.9506 84.2147 32.6591 78.3956 33.6856 75.2376C34.4849 72.7884 36.6704 63.9804 38.1265 58.918L40.1646 69.0301C40.1646 69.0301 39.4828 70.2585 40.7691 77.0033C41.3735 80.1688 41.8106 81.0769 42.3676 85.4607C42.4275 85.9375 42.8047 86.2174 42.8172 86.6942C42.8172 86.8329 43.1794 87.2894 44.4956 87.4862C45.8119 87.6829 47.1857 86.7698 47.1757 86.5756C46.9259 81.6116 47.2881 73.5653 47.313 70.2283C47.383 62.0231 47.313 49.1616 46.9808 43.9302L29.4445 44.7323Z" fill="#B16668"/>
<path d="M54.5064 92.6191C54.5913 92.6191 54.7412 93.5347 54.3041 93.9383C53.8045 94.4075 52.3059 95.1995 50.2753 94.9901C48.2447 94.7808 47.6802 94.3948 46.856 93.7289C46.0317 93.063 45.2699 92.377 44.3583 92.2004C43.5065 92.039 42.2102 91.7338 41.9305 91.4765C41.6508 91.2192 41.6558 90.0463 41.6558 90.0463L54.5064 92.6191Z" fill="#263238"/>
<path d="M42.2752 84.9436C42.196 84.9486 42.1206 84.9796 42.0606 85.032C42.0006 85.0844 41.9592 85.1553 41.943 85.2337C41.8905 85.5591 41.8506 86.4949 41.7332 87.0372C41.5781 88.1712 41.5672 89.3206 41.7007 90.4575C41.8281 91.0578 43.589 91.3781 44.4781 91.6934C45.3673 92.0087 46.0542 92.4501 46.9908 93.1942C48.0732 94.0191 49.3939 94.4622 50.7498 94.4554C52.3009 94.3974 54.0343 93.8374 54.414 93.0984C54.8835 92.1853 54.931 91.3327 52.5981 90.3087C52.1585 90.1195 50.7923 89.3628 50.2603 89.0475C49.6761 88.7099 49.1271 88.3136 48.6218 87.8645C48.4098 87.6764 48.2072 87.4778 48.0149 87.2692C47.8633 87.0763 47.749 86.8565 47.6777 86.621C47.5303 86.1972 47.5728 85.7306 47.4879 85.2892C47.4873 85.2474 47.4722 85.2071 47.4453 85.1753C47.4184 85.1435 47.3813 85.1222 47.3405 85.1151C46.97 85.0274 46.5855 85.0188 46.2115 85.0899C45.8243 85.1382 45.4449 85.2365 45.0826 85.3825C44.8777 85.4378 44.6973 85.5614 44.5705 85.7331C44.5035 85.8682 44.4725 86.0186 44.4806 86.1695C44.4919 86.3198 44.4919 86.4707 44.4806 86.621C44.4792 86.6761 44.4599 86.7293 44.4257 86.7723C44.3508 86.853 44.2234 86.7925 44.1559 86.7345C43.9231 86.5073 43.7085 86.2619 43.514 86.0005C43.3991 85.8668 42.9096 85.7937 42.7647 85.6902C42.6262 85.6137 42.4919 85.5295 42.3626 85.438C42.2277 85.3119 42.2877 85.1303 42.2752 84.9436Z" fill="#37474F"/>
<path d="M46.9908 93.1942C46.642 92.9078 46.2767 92.6425 45.8968 92.3997C45.8968 92.3997 48.3795 93.3052 49.451 92.5208C50.1404 92.0163 49.7882 91.4311 49.7658 91.2445C49.7433 91.0578 51.4592 90.1951 52.1411 90.0943C52.3359 90.1951 52.4982 90.2759 52.5981 90.3187C54.931 91.3277 54.8835 92.1954 54.414 93.1085C54.0343 93.8475 52.7855 94.4529 50.7773 94.5109C49.4076 94.4955 48.0795 94.0336 46.9908 93.1942Z" fill="#455A64"/>
<path d="M49.5609 90.6971C51.0096 91.2318 50.4077 91.5194 50.008 91.59C49.6084 91.6606 47.5553 90.5432 46.0517 89.4132C44.4756 88.2454 43.1119 86.9842 42.5274 86.5453C42.3126 86.3839 42.0778 86.1846 41.868 85.9979C41.898 85.6776 41.918 85.3875 41.943 85.2412C41.9879 84.9688 42.3026 84.8805 42.3026 84.8805L42.3676 85.4582C42.4932 85.5552 42.638 85.624 42.7922 85.66C43.0552 85.7237 43.3015 85.8441 43.514 86.0131C43.7085 86.2745 43.9231 86.5199 44.1559 86.7471C45.4522 88.3059 48.1148 90.1598 49.5609 90.6971Z" fill="#263238"/>
<path d="M49.9006 91.3806C49.874 91.3812 49.8477 91.3743 49.8248 91.3605C49.8018 91.3468 49.7832 91.3268 49.771 91.3029C49.7587 91.2789 49.7534 91.252 49.7556 91.2252C49.7577 91.1984 49.7673 91.1727 49.7832 91.1511C50.1109 90.7879 50.5119 90.4998 50.9591 90.3062C51.4063 90.1126 51.8894 90.0179 52.3758 90.0286C52.4104 90.0352 52.4413 90.0544 52.4626 90.0826C52.484 90.1108 52.4943 90.146 52.4915 90.1814C52.4887 90.2167 52.473 90.2498 52.4475 90.2743C52.422 90.2987 52.3885 90.3127 52.3534 90.3137C51.3668 90.2355 50.3177 90.919 50.008 91.3226C49.9952 91.3395 49.9791 91.3533 49.9605 91.3634C49.942 91.3734 49.9216 91.3792 49.9006 91.3806Z" fill="#F0F0F0"/>
<path d="M48.6293 90.7047C48.5962 90.7068 48.5634 90.6969 48.5369 90.6769C48.507 90.6543 48.4871 90.6207 48.4815 90.5835C48.4759 90.5462 48.485 90.5082 48.5069 90.4777C48.8264 90.1076 49.2206 89.8108 49.663 89.6072C50.1054 89.4036 50.5858 89.2979 51.072 89.2972C51.0906 89.2978 51.1089 89.3022 51.1258 89.3101C51.1427 89.3179 51.1579 89.3291 51.1704 89.343C51.183 89.3569 51.1927 89.3731 51.1989 89.3908C51.2052 89.4085 51.2079 89.4273 51.2069 89.446C51.206 89.4649 51.2013 89.4834 51.1933 89.5005C51.1852 89.5176 51.1739 89.5329 51.16 89.5455C51.146 89.5582 51.1298 89.5679 51.1121 89.5742C51.0945 89.5805 51.0758 89.5832 51.0571 89.5822C50.6183 89.587 50.1853 89.6842 49.7858 89.8675C49.3863 90.0508 49.029 90.3161 48.7367 90.6466C48.7238 90.6634 48.7076 90.6772 48.6891 90.6872C48.6706 90.6972 48.6502 90.7031 48.6293 90.7047Z" fill="#F0F0F0"/>
<path d="M47.4504 89.9303C47.4172 89.9303 47.3848 89.9197 47.358 89.9C47.3287 89.8762 47.3097 89.8419 47.3051 89.8042C47.3004 89.7666 47.3104 89.7286 47.333 89.6982C47.6609 89.3355 48.062 89.0478 48.5092 88.8547C48.9564 88.6615 49.4393 88.5673 49.9256 88.5783C49.9629 88.5815 49.9975 88.5995 50.0218 88.6283C50.0462 88.6571 50.0582 88.6944 50.0555 88.7322C50.0542 88.751 50.0493 88.7693 50.0409 88.7862C50.0325 88.803 50.0209 88.8179 50.0067 88.8302C49.9925 88.8424 49.976 88.8516 49.9582 88.8573C49.9404 88.863 49.9217 88.8651 49.9031 88.8633C48.9165 88.7851 47.8675 89.4687 47.5578 89.8723C47.545 89.8891 47.5288 89.903 47.5103 89.913C47.4918 89.923 47.4713 89.9289 47.4504 89.9303Z" fill="#F0F0F0"/>
<path d="M46.4088 89.2266C46.376 89.2296 46.3432 89.2207 46.3164 89.2013C46.301 89.1907 46.2878 89.1771 46.2776 89.1613C46.2675 89.1455 46.2606 89.1277 46.2573 89.1091C46.2541 89.0906 46.2545 89.0715 46.2587 89.0531C46.2628 89.0347 46.2706 89.0174 46.2815 89.0021C46.5943 88.6261 46.9828 88.3219 47.4213 88.1096C47.8598 87.8973 48.338 87.782 48.8241 87.7712C48.8442 87.7685 48.8647 87.7701 48.8841 87.776C48.9035 87.782 48.9215 87.792 48.9367 87.8055C48.952 87.819 48.9642 87.8356 48.9726 87.8543C48.981 87.8729 48.9853 87.8932 48.9853 87.9137C48.9853 87.9342 48.981 87.9544 48.9726 87.9731C48.9642 87.9917 48.952 88.0084 48.9367 88.0218C48.9215 88.0353 48.9035 88.0454 48.8841 88.0513C48.8647 88.0572 48.8442 88.0589 48.8241 88.0562C47.825 88.0209 46.826 88.7498 46.5237 89.166C46.5112 89.185 46.494 89.2006 46.474 89.2111C46.4539 89.2217 46.4315 89.227 46.4088 89.2266Z" fill="#F0F0F0"/>
<path d="M45.2849 88.3967C45.2529 88.3994 45.221 88.3904 45.195 88.3715C45.1795 88.3609 45.1663 88.3473 45.1562 88.3315C45.146 88.3156 45.1391 88.2979 45.1358 88.2793C45.1326 88.2607 45.133 88.2417 45.1372 88.2233C45.1413 88.2049 45.1491 88.1876 45.16 88.1722C45.6595 87.4281 46.8884 86.8783 47.9474 86.9111C47.9852 86.9127 48.0207 86.9295 48.0463 86.9576C48.0718 86.9858 48.0852 87.023 48.0835 87.0611C48.0819 87.0993 48.0653 87.1352 48.0374 87.161C48.0096 87.1867 47.9727 87.2003 47.9349 87.1986C46.9833 87.1583 45.8419 87.6652 45.3923 88.3261C45.3814 88.3458 45.3659 88.3625 45.3472 88.3748C45.3285 88.3871 45.3071 88.3947 45.2849 88.3967Z" fill="#F0F0F0"/>
<path d="M29.0099 97.7118C28.8675 99.1142 28.6103 100.037 28.0783 100.839C27.5463 101.642 26.6021 101.848 25.6705 101.573C24.7388 101.299 23.5549 100.587 23.3401 99.3614C23.1253 98.1355 23.2153 97.3082 23.4875 96.0142L29.0099 97.7118Z" fill="#263238"/>
<path d="M25.3233 87.6653C24.9886 87.7586 24.8238 89.6831 24.5116 91.5598C24.1819 93.5776 23.7997 94.1704 23.5125 95.8225C23.1803 97.7092 23.2852 98.3449 23.8922 99.5279C24.4991 100.711 26.782 101.939 28.0034 100.348C29.0024 99.0511 29.0624 97.7774 29.0624 95.878C29.0498 94.3693 29.1215 92.8611 29.2772 91.3605C29.4171 89.9429 30.2063 88.6237 29.8741 88.4522C29.9366 88.4825 29.6244 89.4259 29.5944 89.5066C29.5465 89.6897 29.4707 89.8641 29.3696 90.0236C29.1748 90.2759 29.1048 89.8446 29.1198 89.6806C29.1198 89.4006 29.2347 89.1761 29.0274 88.9365C28.8659 88.7764 28.6727 88.6526 28.4604 88.5733C28.236 88.4703 28.0016 88.3908 27.7611 88.3362C27.2678 88.2351 26.7658 88.1844 26.2625 88.1849C26.1544 88.1741 26.0453 88.188 25.9433 88.2255C25.8412 88.2631 25.7489 88.3233 25.673 88.4018C25.6436 88.4463 25.6225 88.4959 25.6106 88.5481C25.5656 88.7322 25.5781 88.9264 25.5306 89.1106C25.5306 89.161 25.4907 89.2972 25.4407 89.325C25.3908 89.3527 25.3108 89.325 25.3083 89.2997C25.3058 89.2745 25.2709 87.9932 25.3233 87.6653Z" fill="#37474F"/>
<path d="M23.6199 95.1768C23.5699 95.4492 23.3052 97.1493 23.7797 97.4999C24.2943 97.8757 24.6489 96.4657 24.6489 96.4657C24.6489 96.4657 25.8978 96.1378 27.6786 97.0181C27.5712 97.3082 27.806 98.2919 28.3131 98.1078C28.8201 97.9236 29.0624 96.0672 29.0624 96.042C29.0624 97.8631 28.9725 99.0864 28.0033 100.348C26.782 101.939 24.5066 100.706 23.8921 99.5279C23.2777 98.3499 23.1803 97.7092 23.5125 95.8225C23.545 95.6333 23.5799 95.3458 23.6199 95.1768Z" fill="#455A64"/>
<path d="M24.7838 96.5918C24.7464 97.2779 24.1494 97.0156 24.0995 96.047C24.0245 94.5941 24.4441 93.227 24.5116 91.5598C24.8213 89.6781 24.9337 87.6779 25.3233 87.6653C25.2934 87.9932 25.3033 89.2997 25.3033 89.2997C25.121 90.7072 24.6789 92.3467 24.6689 93.8072C24.6614 95.0936 24.8238 95.9058 24.7838 96.5918Z" fill="#263238"/>
<path d="M27.4688 96.9903C27.6262 96.3219 27.851 96.1403 28.0433 94.8665C28.2356 93.5927 29.0424 91.3352 29.3621 89.9681C29.4545 89.5418 29.8616 88.4547 29.8616 88.4547C30.1114 88.5834 29.8342 89.3678 29.6119 90.2204C29.3896 91.0729 29.2322 91.5875 29.0724 92.4022C28.6652 94.0215 28.5378 95.7544 28.2781 96.6902C28.0183 97.626 27.3115 97.6588 27.4688 96.9903Z" fill="#263238"/>
<path d="M27.6212 97.0307C27.6031 97.0271 27.5854 97.0212 27.5688 97.0131C26.6527 96.5296 25.6017 96.3731 24.5865 96.5691C24.5681 96.5732 24.5492 96.5736 24.5306 96.5702C24.5121 96.5668 24.4945 96.5597 24.4787 96.5494C24.4629 96.5391 24.4493 96.5257 24.4386 96.5101C24.428 96.4944 24.4205 96.4767 24.4167 96.4582C24.4123 96.4394 24.4116 96.42 24.4148 96.401C24.418 96.382 24.4249 96.3639 24.4352 96.3476C24.4454 96.3314 24.4588 96.3174 24.4745 96.3065C24.4902 96.2956 24.5079 96.288 24.5266 96.2841C25.6132 96.0692 26.7401 96.2403 27.7161 96.7684C27.7325 96.778 27.7468 96.7909 27.7583 96.8061C27.7697 96.8214 27.778 96.8389 27.7826 96.8574C27.7873 96.876 27.7882 96.8953 27.7854 96.9142C27.7825 96.9332 27.776 96.9513 27.7661 96.9677C27.7503 96.991 27.7284 97.0093 27.7027 97.0204C27.6771 97.0316 27.6488 97.0352 27.6212 97.0307Z" fill="#F0F0F0"/>
<path d="M28.0758 95.6838C28.0592 95.6814 28.0432 95.6763 28.0283 95.6686C28.0133 95.6686 26.3199 94.7808 24.549 95.1087C24.5114 95.1154 24.4726 95.1071 24.4409 95.0854C24.4092 95.0637 24.387 95.0305 24.3792 94.9927C24.3733 94.9543 24.3821 94.9151 24.404 94.8832C24.4258 94.8513 24.459 94.8291 24.4966 94.8211C26.3699 94.4756 28.0958 95.3761 28.1632 95.4114C28.1968 95.4296 28.222 95.4604 28.2332 95.4973C28.2445 95.5341 28.2408 95.574 28.2231 95.6081C28.2094 95.6346 28.1879 95.6562 28.1615 95.6698C28.135 95.6833 28.1051 95.6882 28.0758 95.6838Z" fill="#F0F0F0"/>
<path d="M24.3992 93.9862C24.3718 93.9824 24.3461 93.9706 24.3252 93.9522C24.3044 93.9338 24.2893 93.9097 24.2818 93.8828C24.2709 93.8457 24.2751 93.8057 24.2933 93.7717C24.3116 93.7377 24.3425 93.7123 24.3792 93.7012C26.1501 93.1841 28.4055 94.1124 28.4779 94.1552C28.5109 94.1747 28.535 94.2066 28.5448 94.2439C28.5546 94.2813 28.5494 94.321 28.5304 94.3545C28.5102 94.3869 28.4786 94.4103 28.442 94.4202C28.4054 94.43 28.3665 94.4255 28.333 94.4075C28.3156 94.4075 26.1076 93.4994 24.4591 93.9812C24.4399 93.9879 24.4193 93.9896 24.3992 93.9862Z" fill="#F0F0F0"/>
<path d="M24.7439 92.768C24.7122 92.7624 24.6832 92.7464 24.6615 92.7224C24.6399 92.6985 24.6267 92.6679 24.6241 92.6355C24.6215 92.6031 24.6297 92.5708 24.6473 92.5437C24.6649 92.5165 24.691 92.496 24.7214 92.4855C26.6721 91.8776 28.5953 93.0303 28.6603 93.0732C28.6767 93.0838 28.6908 93.0975 28.702 93.1136C28.7131 93.1298 28.721 93.148 28.7252 93.1672C28.7293 93.1864 28.7297 93.2062 28.7263 93.2256C28.7229 93.2449 28.7157 93.2634 28.7052 93.28C28.6947 93.2966 28.6811 93.3109 28.6651 93.3221C28.6491 93.3334 28.6311 93.3413 28.6121 93.3455C28.5931 93.3497 28.5734 93.3501 28.5543 93.3467C28.5351 93.3432 28.5168 93.336 28.5004 93.3254C28.4854 93.3254 26.6221 92.2105 24.8063 92.773C24.7855 92.7776 24.7637 92.7759 24.7439 92.768Z" fill="#F0F0F0"/>
<path d="M24.9212 91.2722C24.8895 91.2667 24.8605 91.2507 24.8389 91.2267C24.8172 91.2027 24.804 91.1721 24.8014 91.1398C24.7989 91.1074 24.807 91.0751 24.8246 91.0479C24.8422 91.0207 24.8683 91.0003 24.8987 90.9897C26.7245 90.3919 28.7876 91.5724 28.86 91.6203C28.8932 91.641 28.9168 91.6742 28.9257 91.7125C28.9346 91.7508 28.928 91.7911 28.9075 91.8246C28.887 91.858 28.8541 91.8819 28.8162 91.8909C28.7782 91.8999 28.7383 91.8933 28.7052 91.8725C28.6877 91.8599 26.6846 90.7173 24.9861 91.2722C24.9648 91.2773 24.9425 91.2773 24.9212 91.2722Z" fill="#EBEBEB"/>
<path d="M38.174 59.6596L39.8749 68.7199C39.8749 68.7199 39.8449 70.768 40.0372 73.3912C40.2296 76.0145 40.9739 79.6063 41.6083 82.3759C42.4799 82.8644 43.4608 83.1195 44.4576 83.1168C45.4544 83.1142 46.434 82.8539 47.303 82.3607C47.303 82.3607 47.4604 71.9762 47.4854 68.286C47.5203 63.5314 47.348 49.7518 47.0358 43.9151L28.8026 44.7727C28.8026 44.7727 28.1857 46.8965 27.9784 51.583C27.7711 56.2695 27.299 68.9696 27.299 68.9696C25.8004 73.5098 25.718 76.3979 25.4782 84.6737C27.2765 87.1027 30.7708 85.8466 30.7708 85.8466C30.7708 85.8466 33.4158 77.3286 34.1751 74.8239C35.0668 71.8753 37.3147 62.4644 38.1715 59.647" fill="#455A64"/>
<path d="M45.8169 53.273L46.1241 60.3028C46.1816 61.4454 46.2765 67.547 46.254 68.6745C46.2315 69.8019 45.9068 78.9202 46.0492 81.2131C46.3264 78.6604 46.6961 70.8184 46.7835 68.513C46.7835 66.195 46.756 64.4495 46.5212 60.5046C46.4099 58.0834 46.1748 55.6697 45.8169 53.273Z" fill="#37474F"/>
<path d="M34.9245 52.4633C34.6447 55.079 32.8414 65.7208 32.4443 68.3087C32.0471 70.8967 29.3396 81.0769 29.0224 83.6951C29.5394 81.1147 32.5392 71.0026 32.9613 68.397C33.3834 65.7914 34.847 55.0941 34.9245 52.4633Z" fill="#37474F"/>
<path d="M40.1846 50.6977L38.1864 59.6596L39.8874 68.7199L39.0956 61.1251L41.0288 51.8529C41.0288 51.8529 44.4257 51.1517 44.7754 48.6369C43.007 50.8238 40.1846 50.6977 40.1846 50.6977Z" fill="#37474F"/>
<path d="M46.1816 17.9072C45.1151 16.3509 43.3767 15.8313 40.8865 16.2424L46.9733 28.8945C47.2121 26.9696 47.3464 25.0329 47.3755 23.0931C47.383 20.765 47.2481 19.4635 46.1816 17.9072Z" fill="#37474F"/>
<path d="M47.303 44.0009C43.9062 50.1176 31.4702 50.226 28.333 46.2029C28.7559 43.3665 29.0327 40.5099 29.1623 37.6446C29.2597 35.1853 27.9809 30.9628 28.0858 27.8654C28.1907 24.768 29.3946 22.7829 29.3946 22.7829C29.3946 22.7829 33.6107 18.452 36.4506 17.2892C41.1962 15.3445 43.3192 16.704 43.3192 16.704C44.5681 17.0748 47.373 21.5192 47.373 24.8335C47.373 29.0812 47.303 44.0009 47.303 44.0009Z" fill="#EBEBEB"/>
<path d="M35.0968 6.35478C34.6929 6.12451 34.2369 6.00372 33.773 6.00417C33.261 6.00417 33.0862 6.00417 32.6266 6.3346C32.3652 6.52103 32.1769 6.79418 32.0946 7.10644C31.9737 7.53553 32.0074 7.99398 32.1895 8.40041C32.3344 8.7838 32.1345 9.08649 32.0097 9.4497C31.9284 9.67207 31.9108 9.91307 31.959 10.1451C32.0072 10.377 32.1191 10.5906 32.2819 10.7613C32.5816 11.0665 33.0037 11.3238 33.1736 11.735C33.3784 12.2218 33.321 12.7691 33.5233 13.2711C33.697 13.6705 33.9378 14.0366 34.2351 14.3532C34.4261 14.5952 34.5934 14.8554 34.7346 15.13C34.887 15.3823 35.2092 15.4933 35.4265 15.6673C35.5014 15.7278 35.6763 15.9775 35.7837 15.9473C35.941 15.9069 35.8461 15.4176 35.8436 15.3091C35.8436 14.8854 35.8436 14.4616 35.8161 14.0479L35.7337 12.3958C35.7337 12.3958 36.7803 10.9606 36.8977 9.78265C37.0475 8.26924 36.7328 7.64622 36.7328 7.64622C36.2033 7.24265 35.6838 6.69025 35.0968 6.35478Z" fill="#263238"/>
<path d="M36.6853 8.77121C36.638 9.56404 36.8028 10.3551 37.1624 11.0615C37.4746 11.6669 38.0391 12.4892 38.7135 12.7086C38.9599 12.7802 39.2101 12.8383 39.4628 12.8826C40.3089 13.045 41.1794 13.0261 42.0179 12.8272C42.6423 12.6834 43.2668 12.4665 43.7063 11.9696C44.0032 11.6635 44.2654 11.3251 44.4881 10.9606C44.5556 10.8269 44.5606 10.6832 44.6305 10.5495C44.7978 10.2342 45.1051 9.95419 45.21 9.61115C45.2652 9.30167 45.2795 8.98613 45.2524 8.67284C45.2524 8.32728 45.4822 8.07504 45.5022 7.73705C45.5401 7.43197 45.4664 7.1234 45.2949 6.86936C45.1994 6.71193 45.0926 6.56186 44.9752 6.42038C44.7871 6.25287 44.5738 6.11665 44.3433 6.01681C44.1385 5.89825 43.9586 5.73935 43.7538 5.62332C43.2526 5.34595 42.7234 5.12356 42.1753 4.95994C41.396 4.73248 40.5747 4.69274 39.7775 4.84391C38.9557 4.99778 38.1415 5.66368 37.632 6.30435C37.0735 7.00923 36.7431 7.87038 36.6853 8.77121Z" fill="#263238"/>
<path d="M33.7355 14.7164C34.6922 15.0947 35.1243 14.4793 35.1243 14.4793L34.7971 18.5655C35.921 20.0158 38.6036 21.7941 40.5767 21.5318C41.6358 21.3905 41.7931 20.4472 40.7641 19.0296L40.9464 17.6902C41.4979 17.744 42.0533 17.744 42.6049 17.6902C43.6739 17.5238 44.5056 16.7368 44.8278 15.5689C45.3448 13.6898 45.165 10.3502 44.578 6.77351C43.3841 5.83267 38.8333 6.15301 36.3207 7.75722C36.5979 9.29333 36.6154 9.73727 36.453 10.6756C36.2907 11.6139 35.9535 12.0452 35.6738 12.0856C35.1617 12.1612 35.0843 11.6013 34.7571 11.2532C34.4299 10.9051 33.1786 10.7008 32.6441 11.8384C32.1096 12.976 33.0037 14.4263 33.7355 14.7164Z" fill="#C8856A"/>
<path d="M40.9489 17.6902C39.2455 17.5162 37.0974 16.7065 36.5529 15.9246C36.2389 15.4833 35.9868 15.0003 35.8036 14.4894C35.8036 14.4894 35.8336 15.5639 36.2457 16.255C36.6579 16.9461 38.1914 18.1442 40.8615 18.3309L40.9489 17.6902Z" fill="#AF6152"/>
<path d="M44.4757 4.03918C44.3098 3.96388 44.1717 3.83765 44.081 3.67849C43.9312 3.39599 43.8737 3.09078 43.6564 2.84359C43.5087 2.65778 43.3222 2.50719 43.1102 2.40255C42.8982 2.2979 42.666 2.2418 42.43 2.23823C41.9905 2.23823 41.5758 2.50812 41.1412 2.57622C40.6692 2.65189 40.4719 2.43245 40.1097 2.20544C39.6551 1.92041 38.9008 1.92546 38.3938 2.08184C38.1628 2.14745 37.9483 2.26179 37.7644 2.41731C37.597 2.5737 37.5146 2.80828 37.2948 2.92178C36.9226 3.12862 36.3432 2.8789 35.941 2.84611C35.2342 2.78558 34.6647 3.00754 34.5174 3.60282C34.4549 3.85505 34.4499 4.05936 34.39 4.29142C34.3606 4.38815 34.3123 4.47795 34.2479 4.5555C34.1836 4.63305 34.1045 4.69678 34.0153 4.74292C33.8514 4.82085 33.7048 4.93139 33.5842 5.06792C33.4636 5.20444 33.3715 5.36415 33.3135 5.53746C33.238 5.77603 33.2305 6.03124 33.2919 6.27389C33.3533 6.51655 33.4811 6.73686 33.6606 6.90962C34.0028 7.19717 34.6148 7.41409 35.0693 7.28797C35.1268 7.6865 35.6113 7.97153 35.991 8.01693C36.2044 8.0611 36.4245 8.0611 36.6379 8.01693C36.7128 7.99675 37.2873 7.74452 37.2249 7.63101C37.3379 7.8233 37.4967 7.98401 37.6869 8.09855C37.8771 8.21308 38.0926 8.2778 38.3138 8.28682C38.5808 8.30829 38.8485 8.25714 39.0892 8.1387C39.3299 8.02026 39.5348 7.83886 39.6826 7.61335C39.5702 7.79244 39.8699 8.05981 39.9923 8.14557C40.1997 8.27292 40.4365 8.34335 40.6792 8.34988C40.8864 8.36063 41.0926 8.31562 41.277 8.21945C41.4613 8.12328 41.617 7.9794 41.7282 7.80253C41.82 7.66885 41.9489 7.56548 42.0986 7.50537C42.2483 7.44525 42.4122 7.43105 42.5699 7.46454C42.8666 7.55519 43.1742 7.60442 43.4841 7.61083C43.6926 7.60891 43.8965 7.54844 44.0729 7.43618C44.2494 7.32393 44.3914 7.16432 44.4832 6.9752C44.5872 6.72367 44.5996 6.44306 44.5181 6.18318C44.7854 6.61198 45.6146 6.77846 45.6945 6.13273C45.6654 6.16004 45.6295 6.17894 45.5906 6.18747C45.5517 6.19599 45.5113 6.19383 45.4736 6.1812C45.4358 6.16858 45.4021 6.14595 45.3759 6.11569C45.3498 6.08543 45.3321 6.04863 45.3249 6.00914C45.2849 5.78717 45.5147 5.55764 45.5597 5.34828C45.5965 5.13961 45.5653 4.92449 45.4708 4.73526C45.3762 4.54603 45.2233 4.39293 45.0351 4.29899C44.8678 4.19809 44.663 4.13251 44.4757 4.03918Z" fill="#263238"/>
<path d="M40.3794 10.9783C40.3745 11.0768 40.3411 11.1717 40.2834 11.2513C40.2256 11.3309 40.146 11.3916 40.0544 11.426C39.9628 11.4603 39.8632 11.4668 39.768 11.4445C39.6728 11.4223 39.5862 11.3724 39.5188 11.3009C39.4514 11.2295 39.4062 11.1396 39.3889 11.0425C39.3716 10.9454 39.3828 10.8453 39.4212 10.7546C39.4597 10.6639 39.5236 10.5865 39.6051 10.5321C39.6866 10.4777 39.7822 10.4487 39.8799 10.4486C40.0155 10.4525 40.144 10.5104 40.2376 10.6096C40.3311 10.7088 40.3821 10.8413 40.3794 10.9783Z" fill="#263238"/>
<path d="M39.9798 9.13441L38.8134 9.52032C38.7648 9.35974 38.7799 9.18639 38.8553 9.03678C38.9308 8.88717 39.0608 8.77297 39.218 8.71822C39.295 8.6928 39.3764 8.68349 39.4571 8.69085C39.5378 8.69821 39.6162 8.72208 39.6875 8.76102C39.7587 8.79996 39.8214 8.85315 39.8717 8.91734C39.9219 8.98153 39.9587 9.05539 39.9798 9.13441Z" fill="#263238"/>
<path d="M44.4257 9.27313L43.2393 8.92C43.2576 8.84026 43.292 8.76519 43.3404 8.69949C43.3887 8.63378 43.45 8.57886 43.5203 8.53814C43.5906 8.49742 43.6685 8.47179 43.7491 8.46285C43.8297 8.4539 43.9112 8.46184 43.9886 8.48616C44.1473 8.53592 44.2812 8.64526 44.3625 8.79167C44.4438 8.93807 44.4664 9.11039 44.4257 9.27313Z" fill="#263238"/>
<path d="M44.3458 10.7361C44.3414 10.8348 44.3084 10.93 44.2509 11.0099C44.1934 11.0899 44.1139 11.151 44.0223 11.1857C43.9307 11.2204 43.8311 11.2272 43.7357 11.2053C43.6403 11.1833 43.5534 11.1336 43.4858 11.0622C43.4182 10.9908 43.3728 10.901 43.3553 10.8038C43.3377 10.7066 43.3489 10.6064 43.3872 10.5155C43.4256 10.4246 43.4896 10.3471 43.5712 10.2927C43.6528 10.2382 43.7484 10.2091 43.8462 10.209C43.9138 10.2089 43.9806 10.2226 44.0427 10.2494C44.1048 10.2762 44.1609 10.3154 44.2076 10.3646C44.2543 10.4139 44.2906 10.4722 44.3144 10.5361C44.3381 10.5999 44.3488 10.668 44.3458 10.7361Z" fill="#263238"/>
<path d="M40.0497 13.9218L41.7032 14.5726C41.6655 14.6848 41.6059 14.7881 41.5278 14.8765C41.4498 14.9649 41.3549 15.0365 41.2489 15.0871C41.1428 15.1377 41.0278 15.1663 40.9106 15.171C40.7934 15.1758 40.6765 15.1567 40.5668 15.1149C40.3444 15.0223 40.1663 14.8462 40.0699 14.6237C39.9735 14.4012 39.9663 14.1496 40.0497 13.9218Z" fill="#AF6152"/>
<path d="M39.9998 14.1816C39.9841 14.3778 40.0306 14.5739 40.1325 14.7417C40.2344 14.9094 40.3865 15.0401 40.5668 15.1149C40.7583 15.1879 40.9697 15.1879 41.1612 15.1149C41.0775 14.8627 40.9233 14.6404 40.7172 14.4747C40.5111 14.3091 40.2619 14.2073 39.9998 14.1816Z" fill="#F28F8F"/>
<path d="M42.977 11.9266C42.722 11.4761 42.4215 11.0535 42.0804 10.6655C42.0629 10.6453 42.0429 10.6302 42.0279 10.6125C42.0269 10.6096 42.0253 10.6069 42.0231 10.6047C42.021 10.6025 42.0183 10.6009 42.0154 10.5999C41.8208 10.3731 41.5573 10.2179 41.2661 10.1585L41.366 11.0161L41.6508 13.4224L43.4966 12.8549C43.3242 12.5295 43.1519 12.2167 42.977 11.9266Z" fill="#AF6152"/>
<path d="M45.9443 30.9351C45.9443 30.9351 36.6753 25.3481 34.9844 24.3896C32.8589 23.1789 31.1654 22.1548 30.1639 23.0931C29.2747 23.9255 28.8201 24.9041 29.0274 27.2827C29.1598 28.7961 29.8342 29.8252 31.8248 31.3967C33.8155 32.9681 42.0504 36.4212 43.6464 36.8576C47.0383 37.7833 47.2456 37.8488 49.2387 36.116" fill="#C8856A"/>
<path d="M29.8966 22.2834C30.6959 21.8445 31.9722 22.2557 33.8754 23.4639C35.7787 24.6721 42.3676 28.7759 42.3676 28.7759C42.5302 30.3197 42.2419 31.8778 41.5384 33.2582C40.3695 35.5283 39.7176 35.6746 39.7176 35.6746C39.7176 35.6746 32.162 32.3249 31.3203 31.8583C30.4786 31.3916 28.99 30.3802 28.4904 28.7608C27.9909 27.1415 27.5213 23.9608 29.8966 22.2834Z" fill="#37474F"/>
<path d="M78.2969 83.453L78.709 78.9884L72.8394 78.2317C72.8394 78.2317 73.0092 80.585 73.0117 82.3356C73.0117 84.0306 73.0117 84.7444 72.4398 85.7004C71.8678 86.6563 70.4216 87.8797 68.8231 88.5204C67.2246 89.161 65.7035 90.0338 66.1381 90.9494C66.5727 91.865 68.963 92.2988 70.002 92.0794C71.0411 91.8599 73.3564 90.6215 74.5353 89.7437C75.7142 88.8659 77.655 88.4522 78.1045 88.258C78.5541 88.0638 78.6615 87.4231 78.6465 86.3587C78.5908 85.3836 78.474 84.4131 78.2969 83.453Z" fill="#FFA8A7"/>
<path d="M70.1868 40.9085C69.9795 43.9353 70.7014 52.6198 70.9162 58.971C71.0161 61.9676 71.5506 66.2253 71.6655 67.547C71.9652 71.3053 72.7919 79.9066 72.7919 79.9066C72.7919 79.9066 75.9165 81.1677 78.7165 80.0453C79.1885 75.3285 80.8395 68.6266 79.5981 64.6161L81.6088 42.2706L70.1868 40.9085Z" fill="#455A64"/>
<path d="M77.3303 64.4773C77.1979 63.2792 77.4626 52.0699 77.4651 51.9564H77.2154C77.2154 52.4179 76.9481 63.2943 77.083 64.5101C77.1333 64.8912 77.2042 65.2693 77.2953 65.6426C77.7505 67.5625 77.9339 69.5378 77.8398 71.5096C77.7574 74.032 77.6025 77.8634 77.4976 80.4059L77.7474 80.3555C77.8523 77.8104 77.9971 74.0168 78.0871 71.5273C78.1818 69.5335 77.9968 67.5362 77.5376 65.5947C77.4485 65.2263 77.3793 64.8533 77.3303 64.4773Z" fill="#37474F"/>
<path d="M79.5907 64.6286L80.7321 51.9412C76.6784 51.3787 73.846 49.3331 73.1017 47.6532C73.2806 48.6444 73.7035 49.5743 74.3316 50.3571C74.9597 51.1399 75.7727 51.7506 76.6958 52.1329C76.6958 52.1329 77.6375 59.9295 78.0871 62.6637C78.5366 65.3979 79.1261 66.7625 79.8929 71.2145C80.1227 68.7577 80.1452 66.4245 79.5907 64.6286Z" fill="#37474F"/>
<path d="M65.8234 91.02C65.7434 91.02 65.636 91.9104 66.0731 92.2812C66.5727 92.7074 68.0713 93.3986 70.0095 93.1161C71.9477 92.8336 72.9942 92.2105 73.756 91.5446C74.5178 90.8787 75.6018 89.9354 76.4785 89.726C77.2953 89.5318 78.6191 89.0475 78.8763 88.7902C79.1336 88.533 79.0786 87.4029 79.0786 87.4029L65.8234 91.02Z" fill="#263238"/>
<path d="M78.2969 83.4529C78.3737 83.4901 78.442 83.5432 78.497 83.6088C78.5521 83.6745 78.5929 83.7511 78.6166 83.8338C78.6815 84.144 78.6915 84.5426 78.8264 85.0521C79.0162 85.7583 79.1611 87.2137 79.0612 87.7939C78.9613 88.374 77.1954 88.8962 76.3487 89.2342C75.3537 89.6908 74.4325 90.2962 73.6162 91.0301C72.712 91.8019 70.8013 92.5939 69.5325 92.6318C67.5968 92.6898 66.3329 92.1803 65.9358 91.4866C65.5911 90.8863 65.8833 90.0009 66.3754 89.5646C67.0547 88.9592 67.899 88.5733 68.7082 88.1571C69.9571 87.5089 71.3758 86.7093 72.165 85.4885C72.5002 84.9672 72.6741 84.3569 72.6646 83.7354C72.6553 83.6398 72.6672 83.5433 72.6995 83.4529C72.7486 83.3789 72.8141 83.3176 72.8909 83.2738C72.9677 83.23 73.0535 83.2049 73.1416 83.2007C74.0883 83.0443 74.9275 83.4529 75.8192 83.7833C76.0345 83.8395 76.2257 83.9653 76.3637 84.1415C76.6134 84.5224 76.3087 85.0294 76.3911 85.4758C76.3951 85.5054 76.4053 85.5339 76.4211 85.5591C76.481 85.6499 76.6234 85.6272 76.7183 85.5717C77.0605 85.3674 77.1554 84.926 77.3527 84.5804C77.5097 84.3064 77.74 84.0826 78.0171 83.9347C78.1035 83.892 78.1928 83.8557 78.2844 83.8262C78.2844 83.8262 78.3069 83.4529 78.2969 83.4529Z" fill="#37474F"/>
<path d="M67.7391 88.6591C70.5465 88.8104 71.3808 91.1108 71.5156 92.1904C70.8814 92.4424 70.2125 92.5947 69.5325 92.6419C67.5968 92.6999 66.253 92.1929 65.8559 91.4992C65.3913 90.6845 65.7635 89.4486 67.7391 88.6591Z" fill="#FAFAFA"/>
<path d="M71.6055 89.0021C71.6376 89.0023 71.6687 88.9906 71.693 88.9693C71.7067 88.9577 71.7181 88.9434 71.7263 88.9272C71.7346 88.9111 71.7395 88.8935 71.7409 88.8754C71.7423 88.8573 71.7401 88.8391 71.7345 88.8219C71.7288 88.8047 71.7198 88.7888 71.7079 88.7751C71.3108 88.3009 70.2268 87.4862 69.2102 87.6148C69.1925 87.6171 69.1754 87.623 69.16 87.6319C69.1445 87.6409 69.1309 87.6529 69.12 87.6672C69.1091 87.6815 69.1011 87.6978 69.0964 87.7152C69.0918 87.7326 69.0906 87.7508 69.0929 87.7687C69.0951 87.7866 69.1009 87.8038 69.1098 87.8195C69.1187 87.8351 69.1306 87.8488 69.1447 87.8598C69.1589 87.8708 69.175 87.8789 69.1923 87.8836C69.2095 87.8883 69.2275 87.8895 69.2452 87.8872C70.1943 87.7712 71.1859 88.5784 71.4931 88.9542C71.5066 88.9709 71.5238 88.9839 71.5434 88.9923C71.563 89.0007 71.5843 89.004 71.6055 89.0021Z" fill="#F0F0F0"/>
<path d="M72.8019 88.2782C72.8336 88.2782 72.8644 88.2675 72.8894 88.2479C72.9032 88.2363 72.9145 88.222 72.9227 88.2058C72.931 88.1897 72.9359 88.1721 72.9373 88.154C72.9387 88.1359 72.9365 88.1177 72.9309 88.1005C72.9252 88.0833 72.9162 88.0673 72.9044 88.0537C72.5072 87.577 71.4207 86.7623 70.4067 86.8909C70.3889 86.8932 70.3719 86.899 70.3564 86.908C70.3409 86.917 70.3273 86.929 70.3164 86.9433C70.3055 86.9576 70.2975 86.9739 70.2928 86.9913C70.2882 87.0087 70.287 87.0269 70.2893 87.0448C70.2916 87.0626 70.2973 87.0799 70.3062 87.0955C70.3151 87.1112 70.327 87.1249 70.3411 87.1359C70.3553 87.1469 70.3714 87.155 70.3887 87.1597C70.4059 87.1644 70.4239 87.1656 70.4416 87.1633C71.3907 87.0473 72.3823 87.8544 72.6895 88.2303C72.703 88.2469 72.7202 88.26 72.7398 88.2684C72.7594 88.2767 72.7808 88.2801 72.8019 88.2782Z" fill="#F0F0F0"/>
<path d="M73.9084 87.4534C73.9398 87.4536 73.9701 87.4419 73.9933 87.4206C74.0073 87.4091 74.0189 87.3949 74.0273 87.3789C74.0358 87.3629 74.041 87.3453 74.0426 87.3272C74.0442 87.3091 74.0423 87.2908 74.0368 87.2735C74.0314 87.2562 74.0225 87.2402 74.0108 87.2263C73.6137 86.7521 72.5247 85.9374 71.5131 86.0661C71.4954 86.0682 71.4782 86.074 71.4626 86.0829C71.4471 86.0919 71.4334 86.1038 71.4225 86.1182C71.4116 86.1325 71.4036 86.1489 71.399 86.1663C71.3944 86.1838 71.3933 86.202 71.3957 86.2199C71.4007 86.2559 71.4195 86.2885 71.4479 86.3106C71.4764 86.3328 71.5124 86.3428 71.5481 86.3385C72.4947 86.2225 73.4888 87.0296 73.796 87.4054C73.81 87.4215 73.8273 87.4341 73.8468 87.4424C73.8662 87.4507 73.8873 87.4545 73.9084 87.4534Z" fill="#F0F0F0"/>
<path d="M74.93 86.4646C74.9601 86.4649 74.9894 86.4542 75.0124 86.4343C75.0265 86.4231 75.0383 86.409 75.047 86.3931C75.0557 86.3771 75.0611 86.3596 75.063 86.3415C75.0648 86.3234 75.0631 86.3051 75.0578 86.2877C75.0526 86.2703 75.0439 86.2541 75.0324 86.2401C74.4854 85.5666 73.3164 84.9411 72.2999 85.0672C72.2656 85.0736 72.2349 85.093 72.2143 85.1214C72.1936 85.1498 72.1843 85.1851 72.1885 85.2201C72.1926 85.2551 72.2098 85.2872 72.2365 85.3098C72.2632 85.3325 72.2975 85.3441 72.3324 85.3422C73.249 85.2261 74.3305 85.8189 74.83 86.4142C74.8419 86.4295 74.8571 86.4421 74.8744 86.4508C74.8916 86.4595 74.9106 86.4642 74.93 86.4646Z" fill="#F0F0F0"/>
<path d="M72.6546 78.6756C73.7885 79.4828 77.0205 80.2294 78.8813 78.9278L78.5591 81.2989C77.4402 82.0556 74.1357 82.3482 72.8269 80.8524L72.6546 78.6756Z" fill="#37474F"/>
<path d="M88.7397 87.5745L88.8546 82.3356L83.04 82.555L83.8967 87.8519C83.8967 87.8519 84.2339 90.001 84.3088 90.5206C84.489 92.009 84.5907 93.506 84.6135 95.0053C84.6385 96.9803 84.7384 98.8116 85.2754 99.7221C85.8124 100.633 86.3969 100.774 87.2736 100.479C88.1502 100.184 89.2218 99.1874 89.5589 97.6185C89.8961 96.0496 89.4291 93.7315 89.2342 93.2018C89.0394 92.6722 88.7697 89.5066 88.7397 87.5745Z" fill="#FFA8A7"/>
<path d="M87.9554 42.4723L76.466 42.4118C76.8432 45.3301 79.5082 65.1533 80.1027 68.503C80.6971 71.8526 83.3047 84.989 83.3047 84.989C83.3047 84.989 83.9217 85.9728 85.8799 85.8517C88.0803 85.7155 88.9295 84.8175 88.9295 84.8175C88.9295 84.8175 89.3566 77.7549 89.3991 73.6132C89.4471 70.9984 89.1164 68.3904 88.4175 65.8721C88.4175 65.8721 88.7097 58.3202 88.7023 53.2604C88.6948 48.2006 88.6648 46.5989 87.9554 42.4723Z" fill="#455A64"/>
<path d="M84.1464 97.4671C84.2064 98.8544 84.4087 99.775 84.8833 100.595C85.3578 101.415 86.2795 101.684 87.2161 101.462C88.1528 101.241 89.3566 100.625 89.6414 99.4446C89.9261 98.2642 90.096 97.4394 89.8911 96.153L84.1464 97.4671Z" fill="#263238"/>
<path d="M88.7397 87.5744C89.1219 87.6123 88.9895 89.446 89.1893 91.31C89.3966 93.3077 89.6714 94.1048 89.8587 95.7443C90.0735 97.6159 89.7538 98.4458 89.0869 99.5657C88.42 100.686 86.0897 101.755 84.9857 100.118C84.079 98.7838 84.0615 97.3183 84.1739 95.4543C84.2888 93.5272 84.1215 92.2282 83.9866 90.7677C83.8467 89.2543 83.562 87.9931 83.8967 87.8544C83.8967 87.8544 84.1215 89.0046 84.2064 89.2442C84.2439 89.3476 84.3887 89.61 84.4562 89.2215C84.4762 89.1055 84.4562 88.8381 84.4562 88.7171C84.4886 88.3942 84.686 88.3463 84.8133 88.2756C85.3285 88.0385 85.8909 87.9246 86.4568 87.9427C87.2061 87.9427 87.858 87.9427 88.2726 88.1596C88.5224 88.2933 88.5224 88.5329 88.5374 88.77C88.5649 89.0525 88.5674 89.2266 88.6373 89.1711C88.7747 89.0651 88.6848 87.7737 88.7397 87.5744Z" fill="#37474F"/>
<path d="M89.9511 96.8214C90.0047 97.8252 89.7358 98.8196 89.1843 99.6565C88.5174 100.774 86.0097 101.846 84.8983 100.209C84.3438 99.3942 84.2064 98.4432 84.149 97.4671C84.8483 96.2311 88.8921 95.7494 89.9511 96.8214Z" fill="#FAFAFA"/>
<path d="M85.0157 95.4492C85.0321 95.4477 85.0481 95.4435 85.0631 95.4366C85.0806 95.4366 86.8689 94.7203 88.5949 95.1516C88.6131 95.1562 88.632 95.1572 88.6506 95.1544C88.6691 95.1517 88.687 95.1453 88.7031 95.1356C88.7192 95.1258 88.7333 95.113 88.7445 95.0978C88.7557 95.0826 88.7638 95.0653 88.7684 95.0469C88.773 95.0285 88.774 95.0094 88.7713 94.9906C88.7685 94.9719 88.7622 94.9539 88.7526 94.9376C88.7429 94.9213 88.7302 94.9071 88.7152 94.8958C88.7001 94.8845 88.683 94.8762 88.6648 94.8716C86.839 94.4176 85.0132 95.144 84.9457 95.1768C84.9285 95.1841 84.9129 95.195 84.8999 95.2086C84.8869 95.2223 84.8769 95.2384 84.8703 95.2562C84.8638 95.2739 84.8609 95.2928 84.8618 95.3116C84.8627 95.3305 84.8675 95.349 84.8758 95.366C84.8879 95.3926 84.9078 95.4148 84.9328 95.4297C84.9578 95.4446 84.9867 95.4514 85.0157 95.4492Z" fill="#F0F0F0"/>
<path d="M88.5299 93.7567C88.5569 93.7543 88.5827 93.7443 88.6043 93.7278C88.626 93.7113 88.6426 93.689 88.6523 93.6634C88.6652 93.6276 88.6635 93.5881 88.6475 93.5536C88.6316 93.5191 88.6028 93.4924 88.5674 93.4793C86.8514 92.8638 84.9257 93.7113 84.8533 93.7492C84.8364 93.7572 84.8212 93.7687 84.8088 93.7827C84.7963 93.7968 84.7868 93.8133 84.7807 93.8312C84.7746 93.849 84.7722 93.868 84.7735 93.8868C84.7748 93.9056 84.7799 93.924 84.7883 93.9409C84.806 93.9746 84.8358 94.0002 84.8715 94.0124C84.9073 94.0246 84.9464 94.0225 84.9807 94.0064C84.9982 94.0064 86.8739 93.1741 88.4774 93.7542C88.4946 93.7588 88.5124 93.7597 88.5299 93.7567Z" fill="#F0F0F0"/>
<path d="M88.4899 92.4426C88.5167 92.4403 88.5422 92.4303 88.5635 92.4137C88.5847 92.3972 88.6008 92.3748 88.6098 92.3493C88.6228 92.3138 88.6215 92.2746 88.6061 92.2401C88.5906 92.2057 88.5624 92.1787 88.5274 92.1652C86.6417 91.4513 84.8108 92.3846 84.7434 92.4174C84.727 92.4263 84.7125 92.4385 84.7009 92.4532C84.6893 92.468 84.6808 92.4849 84.6759 92.5031C84.6709 92.5213 84.6698 92.5403 84.6724 92.5589C84.675 92.5776 84.6813 92.5955 84.691 92.6116C84.7103 92.645 84.7418 92.6692 84.7788 92.6792C84.8158 92.6891 84.8551 92.6838 84.8883 92.6646C84.9033 92.6646 86.6716 91.7616 88.4275 92.425C88.446 92.4372 88.4678 92.4434 88.4899 92.4426Z" fill="#F0F0F0"/>
<path d="M88.4125 91.1486C88.4447 91.146 88.475 91.1325 88.4986 91.1102C88.5221 91.0879 88.5375 91.0582 88.5421 91.026C88.5468 90.9937 88.5404 90.9608 88.5241 90.9327C88.5078 90.9046 88.4826 90.8829 88.4525 90.8712C86.6866 90.1725 84.7184 91.1234 84.6435 91.1688C84.6104 91.1872 84.5858 91.2181 84.5753 91.2548C84.5648 91.2914 84.5691 91.3308 84.5873 91.3643C84.6055 91.3977 84.6361 91.4225 84.6724 91.4331C84.7087 91.4438 84.7477 91.4394 84.7809 91.421C84.7983 91.421 86.7091 90.4903 88.3501 91.1385C88.3701 91.1455 88.3913 91.1489 88.4125 91.1486Z" fill="#EBEBEB"/>
<path d="M82.9401 83.4151C84.129 84.1012 87.3635 84.5098 89.0494 83.0216L88.972 85.4128C87.9529 86.2704 84.7534 86.9262 83.3272 85.5616L82.9401 83.4151Z" fill="#37474F"/>
<path d="M88.2427 69.1865C88.1627 68.5383 88.0878 68.0263 88.0154 67.5319C87.7656 65.8747 87.5433 64.3108 87.2336 58.0604C87.1187 55.7071 87.1087 53.8935 87.0987 52.2918C87.0812 49.0481 87.0688 46.6922 86.232 42.4547H85.9823C86.774 46.4375 86.834 48.7605 86.854 51.7041C85.3179 51.6411 84.4412 50.1529 84.1065 47.0302C83.7468 43.7259 83.3847 41.4659 83.3797 41.4457L83.1299 41.4861C83.1299 41.5088 83.4971 43.7562 83.8542 47.058C84.2064 50.2941 85.1905 51.8958 86.8515 51.9614C86.8515 52.0699 86.8515 52.1758 86.8515 52.2868C86.8515 53.8885 86.8714 55.7071 86.9863 58.0655C87.2985 64.3285 87.5283 65.8999 87.7706 67.5596C87.843 68.0641 87.918 68.5686 87.9954 69.2092C88.5511 74.1369 88.7181 79.1014 88.4949 84.0558H88.7447C88.9661 79.0938 88.7982 74.1218 88.2427 69.1865Z" fill="#37474F"/>
<path d="M75.3147 15.4731C73.6262 15.6598 71.4507 17.327 68.456 21.2089C65.5562 24.9672 63.6654 27.4038 63.6654 27.4038L68.3811 31.9214L74.1383 24.9723L75.3147 15.4731Z" fill="#FFA8A7"/>
<path d="M77.5276 15.4277C75.0973 14.8829 73.2465 15.4731 71.6305 17.2135C69.7723 19.2163 65.1365 25.3834 65.1365 25.3834C66.1789 25.9652 67.1476 26.6724 68.0214 27.4896C69.1603 28.6398 69.7448 30.3474 69.7448 30.3474L74.2406 24.6242L77.5276 15.4277Z" fill="#37474F"/>
<path d="M70.2019 23.9608C70.2144 20.6464 73.1991 16.1895 74.3705 15.8187C74.3705 15.8187 76.3687 14.4566 80.8221 16.4039C83.4871 17.5667 87.9305 20.818 87.9305 20.818C88.3368 22.8495 88.5873 24.9096 88.6798 26.9801C88.7772 30.075 87.5758 34.2949 87.6807 36.7592C87.7856 39.2236 87.9855 41.703 88.4575 45.315C85.5127 49.3382 73.3215 49.1187 70.1319 43.0046C70.1494 38.1364 70.2019 27.5072 70.2019 23.9608Z" fill="#006EFF"/>
<path d="M72.0027 9.00329C71.4682 7.83544 71.9103 5.88567 71.9103 5.88567C71.6452 6.27629 71.4687 6.72108 71.3931 7.18842C71.3176 7.65576 71.3449 8.13416 71.4732 8.58963C70.3667 7.29818 70.579 4.70016 72.8169 3.23216C75.7792 1.28995 81.5589 0.931774 82.8077 5.11131C83.7693 5.2576 84.3263 6.37248 84.2389 8.688C84.1515 11.0035 82.8427 13.9849 83.075 15.0645C83.3073 16.1441 83.6295 16.4165 83.6295 16.4165C83.3283 16.368 83.0434 16.2459 82.7996 16.0609C82.5558 15.8758 82.3605 15.6333 82.2307 15.3546C82.3409 15.831 82.4965 16.2956 82.6953 16.7419H74.5903L72.0027 9.00329Z" fill="#263238"/>
<path d="M85.9223 5.18192C85.9626 4.90213 85.9218 4.61656 85.8049 4.35963C85.6878 4.10344 85.5301 3.86828 85.3379 3.66347C85.1463 3.43975 84.915 3.25412 84.656 3.11612C84.6019 3.08931 84.546 3.06655 84.4887 3.04801C83.8767 2.09204 82.7403 1.42362 81.7037 1.93566C79.3059 3.19683 82.2657 6.89964 84.2913 5.77972C84.4763 5.64608 84.63 5.4732 84.7418 5.27319C84.8535 5.07319 84.9206 4.85091 84.9382 4.62196C85.0016 4.68382 85.0593 4.75136 85.1106 4.82375C85.1892 4.93726 85.2538 5.06009 85.3029 5.18949C85.393 5.41375 85.455 5.64844 85.4877 5.88818C85.5619 5.52644 85.5559 5.15261 85.4702 4.79348C85.3828 4.44106 85.1727 4.13218 84.8783 3.92327C85.1336 4.04218 85.3596 4.21672 85.5401 4.43435C85.7206 4.65197 85.8512 4.90728 85.9223 5.18192Z" fill="#263238"/>
<path d="M82.975 14.0606C82.0284 14.4087 81.6513 13.8083 81.6513 13.8083L81.971 17.8138C80.8345 19.2062 78.162 21.0197 76.2263 20.712C75.1947 20.5455 75.0648 19.6123 76.1089 18.2502L75.9465 16.9638C75.3102 16.9918 74.6727 16.9487 74.0458 16.8352C73.519 16.6936 73.0441 16.4011 72.6785 15.9928C72.3128 15.5846 72.072 15.0782 71.9852 14.5348C71.7529 13.2484 71.7579 10.1535 72.2949 7.21997C72.4148 6.56668 72.8369 5.59809 73.3314 5.17686C73.4638 5.73682 73.5238 6.24886 74.9949 6.41029C76.6184 6.58938 79.0986 4.82121 80.2176 6.09752C79.9683 6.29395 79.77 6.54848 79.6395 6.8393C79.509 7.13012 79.4502 7.44855 79.4683 7.76731C79.4883 8.67284 80.2176 9.60863 80.2975 10.1736C80.4349 11.1019 80.7571 11.5256 81.0243 11.5735C81.5239 11.6618 81.6163 11.1145 81.946 10.7815C82.2757 10.4486 83.5071 10.2771 84.0016 11.4096C84.4961 12.5421 83.7019 13.7932 82.975 14.0606Z" fill="#FFA8A7"/>
<path d="M80.3425 15.6597C80.7646 14.9938 80.8195 13.942 80.8195 13.942C80.6304 14.4378 80.374 14.9047 80.0577 15.3293C79.5057 16.086 77.61 16.8427 75.9365 16.9638L76.019 17.5616C78.4442 17.3674 79.9428 16.2979 80.3425 15.6597Z" fill="#F28F8F"/>
<path d="M73.3215 12.1688L75.1398 12.6985L75.467 9.4926C74.7401 9.58089 74.0258 10.8093 73.3215 12.1688Z" fill="#F28F8F"/>
<path d="M76.5435 10.4057C76.5435 10.5055 76.5728 10.603 76.6276 10.686C76.6825 10.7689 76.7606 10.8336 76.8518 10.8718C76.9431 10.91 77.0436 10.92 77.1405 10.9005C77.2374 10.881 77.3264 10.833 77.3962 10.7624C77.4661 10.6919 77.5137 10.602 77.5329 10.5041C77.5522 10.4063 77.5423 10.3048 77.5045 10.2127C77.4667 10.1205 77.4027 10.0417 77.3205 9.98627C77.2384 9.93083 77.1418 9.90125 77.043 9.90125C76.9105 9.90125 76.7835 9.9544 76.6898 10.049C76.5961 10.1436 76.5435 10.2719 76.5435 10.4057Z" fill="#263238"/>
<path d="M76.9756 8.60476L78.112 9.00329C78.1619 8.84667 78.1496 8.67663 78.0779 8.52893C78.0062 8.38123 77.8805 8.26736 77.7274 8.21127C77.6525 8.18521 77.5732 8.17478 77.4942 8.18061C77.4152 8.18645 77.3382 8.20844 77.2679 8.24524C77.1976 8.28204 77.1354 8.33288 77.0852 8.39468C77.0349 8.45649 76.9976 8.52796 76.9756 8.60476Z" fill="#263238"/>
<path d="M72.6071 8.66277L73.776 8.33739C73.7589 8.25946 73.7263 8.18587 73.6801 8.1211C73.6339 8.05634 73.5751 8.00176 73.5073 7.96069C73.4395 7.91962 73.3642 7.89293 73.2858 7.88224C73.2075 7.87154 73.1278 7.87708 73.0517 7.8985C72.895 7.94454 72.7617 8.04934 72.679 8.19143C72.5964 8.33352 72.5707 8.50214 72.6071 8.66277Z" fill="#263238"/>
<path d="M72.6621 10.1005C72.6621 10.2003 72.6914 10.2978 72.7462 10.3808C72.8011 10.4637 72.8791 10.5284 72.9704 10.5666C73.0617 10.6048 73.1621 10.6148 73.259 10.5953C73.3559 10.5758 73.445 10.5278 73.5148 10.4572C73.5847 10.3867 73.6323 10.2968 73.6515 10.1989C73.6708 10.1011 73.6609 9.99965 73.6231 9.90747C73.5853 9.81529 73.5213 9.7365 73.4391 9.68107C73.357 9.62564 73.2604 9.59605 73.1616 9.59605C73.0291 9.59605 72.902 9.6492 72.8084 9.74381C72.7147 9.83841 72.6621 9.96673 72.6621 10.1005Z" fill="#263238"/>
<path d="M76.6808 13.2837L75.0449 13.879C75.0787 13.9899 75.1344 14.0928 75.2085 14.1814C75.2827 14.2701 75.3738 14.3428 75.4764 14.395C75.579 14.4473 75.691 14.4782 75.8057 14.4857C75.9204 14.4932 76.0354 14.4773 76.1438 14.4389C76.3642 14.3543 76.5434 14.1865 76.6436 13.9709C76.7438 13.7554 76.7571 13.509 76.6808 13.2837Z" fill="#B16668"/>
<path d="M76.7233 13.541C76.7343 13.7335 76.684 13.9246 76.5798 14.0862C76.4755 14.2477 76.3227 14.3714 76.1438 14.4389C75.9573 14.5109 75.7509 14.5109 75.5644 14.4389C75.6493 14.1911 75.8044 13.9739 76.0104 13.8143C76.2164 13.6547 76.4643 13.5596 76.7233 13.541Z" fill="#F28F8F"/>
<path d="M85.9373 22.2229C87.2486 20.6515 88.2352 20.538 90.056 24.261C92.4288 29.1089 93.1807 30.5164 94.5094 34.1864C95.5085 36.961 95.531 37.1426 94.437 39.4833C93.8276 40.7849 90.2434 47.4666 89.1519 48.6924C88.4275 49.5097 87.4609 51.0685 86.6966 51.7193C86.6966 51.7193 84.9033 51.8101 84.3238 48.5638C84.3238 48.5638 83.8618 48.1754 82.8477 48.6344C82.1458 48.9523 81.2292 49.0885 80.7571 48.7025C80.2851 48.3166 81.2816 48.0013 81.7712 47.6331C82.4747 47.0371 83.3005 46.6063 84.189 46.3719C85.4578 46.0389 85.7051 45.7035 86.6866 44.1901C87.8681 42.3563 89.0894 37.7303 89.0894 37.7303L86.1871 31.7801C83.4396 26.1956 84.6285 23.7943 85.9373 22.2229Z" fill="#FFA8A7"/>
<path d="M84.3038 24.3719C84.8783 21.5166 86.9239 20.6742 87.6832 20.7498C88.4425 20.8255 89.6339 22.1926 90.3583 23.8221C91.4697 26.3141 93.7951 31.9768 93.7951 31.9768C93.2598 33.2037 92.3221 34.2068 91.14 34.817C89.1144 35.8991 88.0004 36.0101 88.0004 36.0101C88.0004 36.0101 87.1163 34.4538 85.9748 32.0651C84.8334 29.6764 83.8593 26.5866 84.3038 24.3719Z" fill="#37474F"/>
<path d="M89.0869 37.7127C89.4411 37.2741 89.8814 36.9143 90.38 36.656C90.8787 36.3977 91.4249 36.2465 91.9843 36.2119C90.8828 35.8133 89.594 36.285 88.8297 37.1931L89.0869 37.7127Z" fill="#F28F8F"/>
<path d="M58.0531 22.2835C57.9957 22.7249 58.3254 23.2647 58.9797 23.8246C59.839 24.5612 64.3947 27.2096 64.3947 27.2096L68.3911 31.9214C67.8586 32.5503 67.2827 33.1403 66.6676 33.687C65.9608 34.2974 65.1915 34.5522 63.2983 33.4121C60.4983 31.7448 52.9103 24.1778 52.9103 24.1778L53.6597 23.1007L58.0531 22.2835Z" fill="#FFA8A7"/>
<path d="M49.2462 36.116C51.132 34.3251 51.7439 33.4549 54.1742 30.08C55.2925 28.5577 56.3008 26.9561 57.1914 25.2876C57.6335 24.5132 58.5526 22.6643 58.5476 22.2885C58.5163 21.1916 58.4288 20.0971 58.2854 19.0094C58.2723 18.8637 58.2186 18.7246 58.1305 18.6084C57.9582 18.399 57.646 18.3561 57.4437 18.1846C57.2413 18.0131 57.1939 17.7684 57.029 17.607C56.8067 17.4403 56.5298 17.3655 56.2548 17.3977C56.1705 17.4065 56.0853 17.397 56.005 17.3699C55.9284 17.3256 55.8586 17.2704 55.7977 17.206C55.3181 16.7822 54.6437 17.0849 54.2991 17.5313L54.9659 18.1695C54.3227 18.2599 53.6938 18.4346 53.0952 18.6891L53.6597 23.1007L52.9103 24.1777C51.147 26.1376 45.9443 30.9326 45.9443 30.9326" fill="#C8856A"/>
<path d="M52.4982 18.7194C53.2743 18.6456 54.0563 18.6625 54.8286 18.7698C55.2657 18.8682 55.2182 19.4685 54.6338 19.6678C55.6328 19.6678 56.2023 19.7712 56.5145 19.9755C56.593 20.0346 56.6468 20.1212 56.6653 20.2182C56.6838 20.3153 56.6656 20.4159 56.6144 20.5001C56.4295 20.6603 56.2035 20.7643 55.9625 20.8003C56.1024 20.818 56.6669 20.8583 56.6894 21.2442C56.7143 21.6856 55.9151 21.7487 55.3681 21.8067C55.8526 21.8849 55.9625 22.6088 55.0808 22.793C54.1992 22.9771 53.6572 23.1032 53.6572 23.1032L52.9078 24.1803C52.8316 24.1628 52.7602 24.1284 52.6989 24.0795C52.6375 24.0307 52.5877 23.9685 52.5532 23.8977C52.5323 23.8203 52.5038 23.7451 52.4683 23.6733C52.3758 23.5295 52.1885 23.4765 52.0761 23.3454C51.9612 23.1683 51.9191 22.9529 51.9587 22.745C51.9984 22.538 51.9667 22.3235 51.8688 22.1371C51.7564 21.9782 51.5491 21.9076 51.4442 21.7437C51.3636 21.5652 51.3434 21.3648 51.3867 21.1736C51.4085 21.0784 51.4098 20.9795 51.3904 20.8838C51.371 20.788 51.3314 20.6976 51.2744 20.6187C51.2094 20.5531 51.1245 20.5153 51.067 20.4446C51.0193 20.3563 50.998 20.2557 51.006 20.1554C51.014 20.055 51.0509 19.9592 51.112 19.8796C51.2886 19.5892 51.5076 19.3273 51.7614 19.1028C51.9525 18.8885 52.2146 18.7522 52.4982 18.7194Z" fill="#FFA8A7"/>
<path d="M54.6337 19.6678C54.384 19.7031 54.1042 19.7207 53.8395 19.7359C53.5747 19.751 53.31 19.7535 53.0502 19.7788C52.9899 19.7819 52.9303 19.793 52.8729 19.8115C52.8157 19.8359 52.7613 19.8664 52.7105 19.9024C52.5981 19.9705 52.4932 20.0512 52.3858 20.1294L51.7489 20.6086C51.9307 20.412 52.1233 20.2259 52.3259 20.0512C52.4283 19.9629 52.5332 19.8822 52.6431 19.7989C52.7014 19.7581 52.7633 19.7227 52.8279 19.693C52.8958 19.6698 52.9663 19.6554 53.0377 19.6501C53.3045 19.6312 53.5721 19.6262 53.8395 19.635C54.1042 19.6375 54.369 19.6526 54.6337 19.6678Z" fill="#F28F8F"/>
<path d="M55.965 20.8003C55.3281 20.8609 54.6912 20.876 54.0543 20.8936H53.8045C53.7689 20.8892 53.7328 20.8892 53.6971 20.8936C53.6607 20.9035 53.6249 20.9153 53.5897 20.929C53.4449 20.9845 53.3025 21.0576 53.1576 21.1232L52.2984 21.5469C52.5617 21.3644 52.8343 21.196 53.1152 21.0425C53.2557 20.9616 53.4008 20.8892 53.5498 20.8255L53.6672 20.7852C53.7104 20.7738 53.7549 20.7678 53.7995 20.7675H54.0493C54.6837 20.765 55.3231 20.7574 55.965 20.8003Z" fill="#F28F8F"/>
<path d="M55.3631 21.779C55.1133 21.8143 54.8636 21.832 54.6313 21.8521C54.399 21.8723 54.1317 21.8824 53.9044 21.9152C53.7922 21.9398 53.686 21.987 53.5922 22.0539L53.2775 22.2431C53.0702 22.3718 52.8629 22.4953 52.6481 22.629C52.8295 22.4625 53.0196 22.3059 53.2176 22.1599C53.315 22.0842 53.4199 22.0161 53.5223 21.948C53.6295 21.8723 53.7498 21.8175 53.877 21.7866C54.1258 21.7591 54.3761 21.7482 54.6263 21.7538C54.8735 21.7563 55.1183 21.7639 55.3631 21.779Z" fill="#F28F8F"/>
<path d="M52.6006 18.7143C52.803 18.3637 53.1651 17.6802 53.4149 17.5793C53.8096 17.473 54.2122 17.3996 54.6188 17.3598C54.8136 17.3397 55.3456 17.5591 55.6179 17.6373C55.8901 17.7155 55.7777 18.1418 55.1008 18.2578C54.424 18.3738 53.9519 18.3864 53.7771 18.4419C53.6022 18.4974 53.1002 18.6942 53.1002 18.6942L52.6006 18.7143Z" fill="#F28F8F"/>
<path d="M55.5105 15.2083C55.4442 15.2083 55.3807 15.1817 55.3339 15.1344C55.287 15.0871 55.2607 15.023 55.2607 14.9561L55.1008 11.8183C55.1008 11.7514 55.1272 11.6872 55.174 11.6399C55.2208 11.5926 55.2844 11.566 55.3506 11.566C55.4143 11.5659 55.4757 11.5904 55.5221 11.6345C55.5686 11.6785 55.5966 11.7389 55.6004 11.8031L55.7552 14.9586C55.7553 15.0233 55.7307 15.0857 55.6866 15.1326C55.6424 15.1796 55.582 15.2076 55.518 15.2108L55.5105 15.2083Z" fill="#E0E0E0"/>
<path d="M52.9104 16.0533C52.868 16.0543 52.826 16.0445 52.7884 16.0246C52.7508 16.0047 52.7189 15.9755 52.6956 15.9398L50.9696 13.2434C50.9518 13.2156 50.9395 13.1844 50.9335 13.1518C50.9275 13.1192 50.928 13.0857 50.9348 13.0533C50.9417 13.0209 50.9548 12.9901 50.9734 12.9628C50.992 12.9354 51.0158 12.9121 51.0433 12.894C51.0709 12.876 51.1017 12.8636 51.134 12.8576C51.1663 12.8515 51.1994 12.852 51.2316 12.8589C51.2637 12.8658 51.2941 12.879 51.3212 12.8978C51.3483 12.9166 51.3714 12.9406 51.3893 12.9684L53.1127 15.6648C53.1483 15.7211 53.1605 15.7893 53.1464 15.8545C53.1324 15.9198 53.0933 15.9767 53.0377 16.0129C53.0002 16.0389 52.9559 16.053 52.9104 16.0533Z" fill="#E0E0E0"/>
<path d="M51.0746 18.1014C51.0339 18.1007 50.9939 18.0912 50.9572 18.0737L48.2397 16.6662C48.1827 16.6346 48.1402 16.5819 48.1211 16.5192C48.1021 16.4565 48.1079 16.3887 48.1375 16.3303C48.1671 16.2719 48.218 16.2274 48.2795 16.2063C48.341 16.1852 48.4083 16.1891 48.467 16.2172L51.187 17.6196C51.2453 17.6503 51.2894 17.703 51.3095 17.7663C51.3296 17.8296 51.3242 17.8984 51.2944 17.9576C51.2745 17.9998 51.2434 18.0356 51.2046 18.061C51.1658 18.0863 51.1208 18.1003 51.0746 18.1014Z" fill="#E0E0E0"/>
<path d="M63.2084 24.3846C63.1677 24.3841 63.1276 24.3746 63.091 24.3568L60.3435 22.9368C60.2845 22.906 60.2401 22.8528 60.22 22.789C60.1998 22.7251 60.2056 22.6558 60.2361 22.5962C60.2666 22.5367 60.3192 22.4918 60.3825 22.4715C60.4457 22.4511 60.5143 22.457 60.5733 22.4878L63.3208 23.9079C63.3791 23.9385 63.4232 23.9913 63.4433 24.0546C63.4634 24.1178 63.458 24.1866 63.4282 24.2459C63.4076 24.2871 63.3762 24.3218 63.3375 24.3463C63.2987 24.3707 63.2541 24.384 63.2084 24.3846Z" fill="#E0E0E0"/>
<path d="M61.0478 20.2656C60.9837 20.2657 60.922 20.2408 60.8755 20.1962C60.829 20.1516 60.8013 20.0906 60.7981 20.026C60.798 19.9612 60.8226 19.8989 60.8668 19.8519C60.9109 19.805 60.9713 19.777 61.0354 19.7737L64.2399 19.6098C64.2737 19.6081 64.3076 19.6133 64.3393 19.6252C64.3711 19.6371 64.4001 19.6554 64.4246 19.679C64.4492 19.7026 64.4687 19.731 64.482 19.7625C64.4954 19.7939 64.5022 19.8278 64.5022 19.862C64.5022 19.9289 64.4758 19.9931 64.429 20.0404C64.3822 20.0877 64.3186 20.1142 64.2524 20.1142L61.0478 20.2757V20.2656Z" fill="#E0E0E0"/>
<path d="M60.2111 17.6398C60.1685 17.6406 60.1264 17.6303 60.0888 17.61C60.0512 17.5897 60.0194 17.56 59.9963 17.5238C59.9607 17.4675 59.9485 17.3993 59.9626 17.3341C59.9766 17.2688 60.0157 17.2119 60.0713 17.1757L62.6789 15.4731C62.7345 15.4356 62.8026 15.422 62.8682 15.4353C62.9338 15.4485 62.9914 15.4875 63.0285 15.5437C63.0656 15.5999 63.0791 15.6687 63.066 15.7349C63.0529 15.8011 63.0142 15.8594 62.9586 15.8968L60.351 17.5994C60.3091 17.6259 60.2606 17.6399 60.2111 17.6398Z" fill="#E0E0E0"/>
<path d="M58.183 15.7884C58.1422 15.789 58.1019 15.7795 58.0656 15.7607C58.0362 15.7457 58.0099 15.725 57.9884 15.6997C57.967 15.6745 57.9506 15.6452 57.9404 15.6135C57.9302 15.5819 57.9263 15.5485 57.9289 15.5153C57.9315 15.4821 57.9406 15.4498 57.9557 15.4202L59.4044 12.5749C59.4194 12.5454 59.4401 12.5192 59.4652 12.4977C59.4903 12.4763 59.5193 12.4601 59.5507 12.45C59.582 12.4399 59.615 12.4362 59.6477 12.439C59.6805 12.4419 59.7124 12.4512 59.7416 12.4665C59.8004 12.4967 59.845 12.5492 59.8656 12.6126C59.8862 12.6759 59.8811 12.7449 59.8515 12.8045L58.4003 15.6522C58.3796 15.6926 58.3485 15.7266 58.3102 15.7505C58.272 15.7745 58.228 15.7876 58.183 15.7884Z" fill="#E0E0E0"/>
</svg>
