<svg width="75" height="75" viewBox="0 0 75 75" fill="none" xmlns="http://www.w3.org/2000/svg">
<path d="M64.0165 10.9835C56.9336 3.90076 47.5165 0 37.5 0C27.4835 0 18.0664 3.90076 10.9835 10.9835C3.90076 18.0664 0 27.4835 0 37.5C0 47.5165 3.90076 56.9336 10.9835 64.0165C18.0664 71.0992 27.4833 75 37.5 75C47.5167 75 56.9336 71.0992 64.0165 64.0165C71.0992 56.9336 75 47.5167 75 37.5C75 27.4833 71.0992 18.0664 64.0165 10.9835ZM62.4094 62.4094C55.7559 69.063 46.9095 72.7273 37.5 72.7273C28.0905 72.7273 19.2441 69.063 12.5906 62.4094C5.93697 55.7559 2.27273 46.9095 2.27273 37.5C2.27273 28.0905 5.93697 19.2441 12.5906 12.5906C19.2441 5.93697 28.0905 2.27273 37.5 2.27273C46.9095 2.27273 55.7559 5.93697 62.4094 12.5906C69.063 19.2441 72.7273 28.0905 72.7273 37.5C72.7273 46.9095 69.063 55.7559 62.4094 62.4094Z" fill="white"/>
<path d="M60.588 14.412C54.4211 8.24488 46.2215 4.84851 37.5 4.84851C28.7785 4.84851 20.5789 8.24488 14.4118 14.412C8.24484 20.579 4.84848 28.7785 4.84848 37.5C4.84848 46.2215 8.24484 54.4211 14.4118 60.5882C20.5789 66.7552 28.7785 70.1515 37.5 70.1515C46.2215 70.1515 54.4211 66.7552 60.588 60.5881C66.755 54.4209 70.1515 46.2215 70.1515 37.5C70.1515 28.7785 66.7551 20.579 60.588 14.412ZM38.6364 67.8555V65.3788C38.6364 64.7512 38.1276 64.2425 37.5 64.2425C36.8724 64.2425 36.3636 64.7512 36.3636 65.3788V67.8553C20.5147 67.2694 7.7306 54.4853 7.14469 38.6364H9.62121C10.2488 38.6364 10.7576 38.1276 10.7576 37.5C10.7576 36.8725 10.2488 36.3637 9.62121 36.3637H7.14469C7.7306 20.5147 20.5147 7.73063 36.3636 7.14472V9.62124C36.3636 10.2488 36.8724 10.7576 37.5 10.7576C38.1276 10.7576 38.6364 10.2488 38.6364 9.62124V7.14472C54.4853 7.73063 67.2694 20.5147 67.8553 36.3637H65.3788C64.7512 36.3637 64.2424 36.8725 64.2424 37.5C64.2424 38.1276 64.7512 38.6364 65.3788 38.6364H67.8553C67.2694 54.4853 54.4853 67.2694 38.6364 67.8555Z" fill="white"/>
<path d="M58.1061 36.3636H46.3771L54.2492 22.2974C54.4977 21.8535 54.4208 21.2986 54.0611 20.9389C53.7012 20.5792 53.1462 20.5023 52.7026 20.7509L38.6364 28.6242V16.8939C38.6364 16.2664 38.1276 15.7576 37.5 15.7576C36.8724 15.7576 36.3636 16.2664 36.3636 16.8939V29.8962L34.1976 31.1086C34.0482 31.1862 33.9011 31.2673 33.758 31.3547L33.7277 31.3717C33.6829 31.3968 33.6412 31.4253 33.6012 31.4553C33.4927 31.5256 33.3861 31.5983 33.2817 31.6742L28.6068 26.9994C28.163 26.5556 27.4435 26.5556 26.9998 26.9994C26.5561 27.4432 26.5561 28.1626 26.9998 28.6064L31.6747 33.2812C31.4659 33.5688 31.2782 33.8723 31.113 34.1895C31.107 34.1995 31.1003 34.2088 31.0945 34.2191L29.8942 36.3636H16.8939C16.2664 36.3636 15.7576 36.8724 15.7576 37.5C15.7576 38.1276 16.2664 38.6364 16.8939 38.6364H28.6223L20.7508 52.7026C20.5024 53.1464 20.5792 53.7012 20.9388 54.0609C21.1574 54.2797 21.4485 54.3939 21.7427 54.3939C21.9323 54.3939 22.1232 54.3465 22.2971 54.2492L36.3636 46.3818V58.1061C36.3636 58.7336 36.8724 59.2424 37.5 59.2424C38.1276 59.2424 38.6364 58.7336 38.6364 58.1061V45.1106L40.9638 43.8088C40.9807 43.7992 40.9965 43.7883 41.0127 43.778C41.2571 43.6408 41.4927 43.4895 41.7185 43.3256L46.3933 48.0005C46.6151 48.2224 46.9061 48.3333 47.1968 48.3333C47.4876 48.3333 47.7785 48.2224 48.0003 48.0005C48.4441 47.5567 48.4441 46.8371 48.0003 46.3935L43.3254 41.7186C43.5388 41.4248 43.73 41.1145 43.8977 40.7897C43.9026 40.7815 43.9086 40.7742 43.9133 40.7657L45.1051 38.6364H58.1061C58.7336 38.6364 59.2424 38.1276 59.2424 37.5C59.2424 36.8724 58.7336 36.3636 58.1061 36.3636ZM34.9098 33.3145L35.2927 33.1001C35.9571 32.7654 36.7067 32.5758 37.5 32.5758C40.2151 32.5758 42.4242 34.7847 42.4242 37.5C42.4242 40.2153 40.2151 42.4242 37.5 42.4242C34.7848 42.4242 32.5758 40.2153 32.5758 37.5C32.5758 35.7345 33.5101 34.1839 34.9098 33.3145ZM44.3579 35.318C43.6512 33.1023 41.8989 31.3497 39.6835 30.6427L50.3003 24.7001L44.3579 35.318ZM30.642 39.6815C31.3491 41.8997 33.1044 43.6539 35.3232 44.3597L24.6985 50.3023L30.642 39.6815Z" fill="white"/>
<path d="M37.5 39.8485C38.795 39.8485 39.8485 38.795 39.8485 37.5C39.8485 36.205 38.795 35.1515 37.5 35.1515C36.205 35.1515 35.1515 36.205 35.1515 37.5C35.1515 38.795 36.205 39.8485 37.5 39.8485ZM37.5 37.4242C37.5418 37.4242 37.5758 37.4582 37.5758 37.5C37.5758 37.5418 37.5418 37.5757 37.5 37.5757C37.4582 37.5757 37.4242 37.5418 37.4242 37.5C37.4242 37.4582 37.4582 37.4242 37.5 37.4242Z" fill="white"/>
</svg>
