<svg width="73" height="168" viewBox="0 0 73 168" fill="none" xmlns="http://www.w3.org/2000/svg">
<path d="M2.26523 45.1544L12.0766 41.3828L13.3273 28.8496C13.3273 28.8496 7.19869 30.4466 5.85994 32.5775C3.70126 36.0142 2.01045 40.9847 2.26523 45.1544Z" fill="#6B67F1"/>
<path opacity="0.5" d="M2.26523 45.1544L12.0766 41.3828L13.3273 28.8496C13.3273 28.8496 7.19869 30.4466 5.85994 32.5775C3.70126 36.0142 2.01045 40.9847 2.26523 45.1544Z" fill="black"/>
<path d="M27.5903 24.9663C30.3234 25.243 33.5336 27.7235 34.1868 28.9515C35.3866 31.199 36.3872 59.202 33.7236 61.8815C30.4022 65.2405 15.259 70.8032 8.9914 69.847C3.81705 69.0606 0.866242 65.0657 0.236241 63.5367C-0.80604 60.998 4.94272 36.32 6.88831 33.7765C10.0615 29.6457 24.1068 24.6266 27.5903 24.9663Z" fill="#6B67F1"/>
<path opacity="0.3" d="M27.5901 24.9663C30.3232 25.243 33.5334 27.7234 34.1866 28.9515C35.3864 31.1989 36.387 59.202 33.7234 61.8814C30.402 65.2405 15.2588 70.8032 8.9912 69.847C3.81685 69.0606 0.866043 65.0657 0.236042 63.5367C-0.806239 60.998 5.22973 35.5385 7.18458 32.9949C10.3439 28.8496 24.1066 24.6265 27.5901 24.9663Z" fill="black"/>
<path d="M11.9004 53.3383C12.716 47.3055 13.1154 41.2189 13.0955 35.1259C13.341 33.3396 11.7382 29.6796 11.7382 29.6796C9.71853 30.7281 8.06014 31.8639 7.19852 32.9901C5.25756 35.5336 -0.773769 60.9834 0.249982 63.5318C0.282409 63.6095 0.319468 63.7017 0.365791 63.7939V63.8231C0.412115 63.9153 0.46307 64.0124 0.518658 64.1094L0.546453 64.1531C0.602042 64.2551 0.666894 64.3619 0.73638 64.4735C0.746689 64.4845 0.754591 64.4978 0.759541 64.5123L1.00506 64.8715C1.19035 65.1288 1.40344 65.4055 1.64432 65.6919C1.76476 65.8278 1.88984 65.9734 2.02418 66.1142C3.50772 67.7044 5.359 68.865 7.39771 69.4829C10.7191 69.3081 10.7793 61.6339 11.9004 53.3383Z" fill="#6B67F1"/>
<path opacity="0.4" d="M13.0956 35.1259C13.3412 33.3396 11.7384 29.6796 11.7384 29.6796C9.71865 30.7281 8.06026 31.8639 7.19864 32.9901C7.12238 33.0942 7.05422 33.2046 6.99482 33.3202C6.99482 33.8395 7.81475 35.1016 8.38453 35.6355C9.80033 36.9 11.3822 37.9446 13.0817 38.7373C13.0956 36.4753 13.0956 35.1259 13.0956 35.1259Z" fill="black"/>
<path d="M3.25653 50.2075C3.37697 50.1589 5.21138 49.0474 5.41984 48.9648C5.78116 48.8241 10.3811 52.984 10.7748 53.6442C11.0482 54.1004 9.2508 64.9007 9.00529 65.3376C8.91264 65.4929 6.92999 66.42 6.84197 66.5802C6.59646 67.0171 1.74638 62.7649 1.49623 61.8524C1.24608 60.9398 2.71917 50.4016 3.25653 50.2075Z" fill="#6B67F1"/>
<path opacity="0.18" d="M3.25653 50.2075C3.37697 50.1589 5.21138 49.0474 5.41984 48.9648C5.78116 48.8241 10.3811 52.984 10.7748 53.6442C11.0482 54.1004 9.2508 64.9007 9.00529 65.3376C8.91264 65.4929 6.92999 66.42 6.84197 66.5802C6.59646 67.0171 1.74638 62.7649 1.49623 61.8524C1.24608 60.9398 2.71917 50.4016 3.25653 50.2075Z" fill="black"/>
<path d="M8.61153 54.8722C8.88484 55.3285 7.09212 66.1288 6.84197 66.5656C6.59182 67.0025 1.72785 62.7504 1.51476 61.8572C1.30167 60.9641 2.7377 50.421 3.27506 50.2075C3.62248 50.0521 8.21778 54.2121 8.61153 54.8722Z" fill="#6B67F1"/>
<path opacity="0.4" d="M5.41522 48.9503C5.2114 49.0279 3.37698 50.1492 3.25654 50.1929C3.6225 50.0521 8.2178 54.2121 8.61155 54.8722L10.7795 53.6296C10.3811 52.9694 5.78118 48.8095 5.41522 48.9503Z" fill="black"/>
<path opacity="0.3" d="M8.61153 54.8722C8.88484 55.3285 7.09212 66.1288 6.84197 66.5656C6.59182 67.0025 1.72785 62.7504 1.51476 61.8572C1.30167 60.9641 2.7377 50.421 3.27506 50.2075C3.62248 50.0521 8.21778 54.2121 8.61153 54.8722Z" fill="black"/>
<path d="M10.7795 53.6296C10.4367 53.3286 9.2508 53.8092 8.72271 54.1829C8.19462 54.5567 7.43955 56.5177 6.14712 56.6828C4.85469 56.8478 3.31675 54.9159 3.07587 53.7703C2.83498 52.6248 2.66359 50.256 3.35844 49.5085C4.05329 48.7609 5.15116 48.4406 5.97109 49.0473C6.79102 49.6541 10.7795 52.6054 10.7795 53.6296Z" fill="#6B67F1"/>
<path opacity="0.1" d="M10.7795 53.6296C10.4367 53.3286 9.2508 53.8092 8.72271 54.1829C8.19462 54.5567 7.43955 56.5177 6.14712 56.6828C4.85469 56.8478 3.31675 54.9159 3.07587 53.7703C2.83498 52.6248 2.66359 50.256 3.35844 49.5085C4.05329 48.7609 5.15116 48.4406 5.97109 49.0473C6.79102 49.6541 10.7795 52.6054 10.7795 53.6296Z" fill="black"/>
<path d="M5.09094 53.8286C5.22315 53.9397 5.32372 54.0867 5.38172 54.2536C5.43971 54.4205 5.45289 54.6009 5.41984 54.7751C5.41361 54.8457 5.38931 54.9131 5.34951 54.9704C5.3097 55.0277 5.25587 55.0726 5.1937 55.1005C5.13153 55.1283 5.06333 55.138 4.99632 55.1286C4.9293 55.1192 4.86596 55.091 4.813 55.0469C4.68079 54.9358 4.58021 54.7888 4.52222 54.6219C4.46423 54.455 4.45104 54.2746 4.4841 54.1004C4.56285 53.7558 4.83153 53.6344 5.09094 53.8286Z" fill="#37474F"/>
<path d="M13.0586 38.7373C13.0586 38.7373 13.4941 37.6888 9.44537 34.4366C6.77714 32.2911 6.45287 32.7328 5.09559 35.3492C4.32662 36.8345 3.51132 38.6742 2.26522 45.1544C1.72323 45.0767 1.49161 43.2759 2.44588 39.4217C3.92823 33.461 5.63294 30.4029 8.80611 28.8787C16.9035 24.9955 22.3372 23.6363 27.3355 24.6751C31.9957 25.6459 34.9836 27.4613 34.7473 31.8785C34.7427 31.8785 27.9192 39.5771 13.0586 38.7373Z" fill="#6B67F1"/>
<path opacity="0.35" d="M13.0586 38.7373C13.0586 38.7373 13.4941 37.6888 9.44537 34.4366C6.77714 32.2911 6.45287 32.7328 5.09559 35.3492C4.32662 36.8345 3.51132 38.6742 2.26522 45.1544C1.72323 45.0767 1.49161 43.2759 2.44588 39.4217C3.92823 33.461 5.63294 30.4029 8.80611 28.8787C16.9035 24.9955 22.3372 23.6363 27.3355 24.6751C31.9957 25.6459 34.9836 27.4613 34.7473 31.8785C34.7427 31.8785 27.9192 39.5771 13.0586 38.7373Z" fill="black"/>
<path d="M18.8861 154.987C19.2706 153.448 17.8809 152.414 17.2416 151.497C16.2457 150.08 16.0326 147.939 16.0975 146.298C16.1808 144.26 16.0002 142.789 17.237 140.988C18.7008 138.857 20.7252 136.372 27.4282 130.358L19.7153 121.368C17.9504 124.135 13.4061 133.901 13.4061 133.901L13.0957 134.508C12.3678 135.49 11.4878 136.336 10.4923 137.013L10.0291 137.241C9.25083 137.775 7.29597 138.294 7.24965 140.255C7.20332 142.216 7.90744 142.726 8.67178 144.362C9.29483 145.419 9.58339 146.656 9.49634 147.895C9.49634 149.468 9.35737 150.143 9.29252 151.555C9.24156 152.74 10.219 154.507 12.285 155.361C15.3609 156.608 18.5016 156.511 18.8861 154.987Z" fill="#F28F8F"/>
<path d="M6.18882 140.265C5.22701 141.566 4.40665 142.976 3.74294 144.468L5.75338 147.769L7.64338 144.595C6.895 143.264 6.40097 141.793 6.18882 140.265Z" fill="#263238"/>
<path d="M5.75338 147.774L8.6764 147.672C8.82888 147.018 8.74818 146.327 8.44941 145.73C8.24473 145.312 7.97196 144.934 7.64338 144.614L5.75338 147.774Z" fill="black"/>
<path d="M6.80028 139.561C6.56777 139.731 6.36944 139.947 6.2166 140.197C6.06837 140.512 6.15638 142.532 6.73079 143.532C7.3052 144.532 8.25484 145.604 8.45403 147.007C8.65322 148.41 8.03249 150.512 8.48182 152.473C8.93116 154.434 10.5849 156.725 14.3464 157.395C17.0332 157.88 18.0523 157.366 18.9787 156.788C19.3493 155.541 19.3262 155.21 17.8855 154.089C16.4448 152.968 6.80028 139.561 6.80028 139.561Z" fill="#263238"/>
<path d="M11.9978 134.629C10.7332 136.139 10.2792 136.721 9.14426 137.377C7.75456 138.173 7.47661 138.503 6.80029 139.561C6.47139 141.236 6.76323 141.944 8.12051 144.153C9.02095 145.457 9.42105 147.068 9.24154 148.667C9.13037 151.118 8.28265 152.245 10.9601 154.856C13.0447 156.895 17.7419 157.21 19.0621 155.905C20.2666 152.604 17.4593 152.735 16.9174 149.162C16.5473 147.211 16.6492 145.193 17.2138 143.294C17.4902 142.422 17.8357 141.576 18.2469 140.765C18.7101 139.949 19.1502 139.362 18.8027 138.906L18.0847 139.794C17.3945 139.93 15.7685 139.478 14.6938 138.483C12.1368 136.095 13.1096 134.508 13.1096 134.508L13.406 133.901C13.1513 133.547 12.7112 133.775 11.9978 134.629Z" fill="#37474F"/>
<path d="M43.8082 57.7167C44.3131 62.5707 46.2634 68.7111 47.0787 80.1958C47.843 90.9621 48.158 96.5734 47.2686 101.879C46.9536 103.767 45.9762 105.956 44.1556 108.699C38.4578 117.295 27.3541 130.741 27.3541 130.741C27.3541 130.741 24.9406 130.605 22.101 127.969C20.4485 126.376 19.4615 124.165 19.354 121.814C19.354 121.814 19.7014 119.815 24.4496 111.873C29.1978 103.932 30.0408 95.1754 30.0408 95.1754L28.2759 60.6242C35.1642 61.5611 40.4868 60.401 43.8082 57.7167Z" fill="#263238"/>
<path d="M22.101 127.969C20.4485 126.376 19.4615 124.165 19.354 121.814C19.354 121.814 19.7014 119.815 24.4496 111.873C29.1978 103.932 30.0408 95.1754 30.0408 95.1754L28.6882 68.7256C34.1405 68.0315 41.7005 68.4053 41.7005 68.4053C41.7005 72.1817 40.774 76.8222 35.6784 79.4385C35.6784 79.4385 35.9888 98.015 35.9286 103.447C35.8822 107.587 34.4184 118.082 33.7236 122.824C30.1937 127.319 27.368 130.741 27.368 130.741C27.368 130.741 24.9406 130.605 22.101 127.969Z" fill="black"/>
<path d="M30.6292 148.162L30.6894 147.332L32.005 130.435L20.8873 132.974L22.8839 146.643L22.9441 147.352C22.9441 147.352 22.9441 150.808 27.859 151.196C30.3837 151.395 30.6292 148.162 30.6292 148.162Z" fill="#F28F8F"/>
<path d="M24.167 163.37L28.0397 161.987L28.2944 158.065L24.3523 159.497L24.167 163.37Z" fill="black"/>
<path d="M20.7437 154.414C20.5352 155.871 21.4524 161.443 21.4524 161.443L24.167 163.385L24.3523 159.501C24.3523 159.501 25.0981 160.244 25.8486 162.326C26.5527 164.268 27.141 165.758 28.9244 166.807C30.7079 167.855 32.6303 168.18 35.3264 167.909C37.2303 167.714 38.4254 166.884 38.7589 166.375C38.8649 166.118 38.9125 165.839 38.8979 165.559L20.7437 154.414Z" fill="#263238"/>
<path d="M30.6986 147.332C31.2221 147.332 31.1619 147.847 31.7039 151.123C32.1023 153.55 33.7838 158.744 35.2986 160.564C36.6281 162.161 39.2129 162.734 38.9072 165.554C37.6796 167.19 33.5475 167.676 31.1619 166.923C28.1231 165.952 27.2012 164.302 26.0663 161.123C25.1676 158.574 24.306 158.273 23.0275 157.215C22.1797 156.521 21.0263 155.516 20.7113 154.414C20.7113 152.026 21.61 150.502 21.9481 149.308C22.2631 148.191 22.1519 146.789 22.8746 146.643L22.9348 147.352C22.9348 147.352 23.5278 149.293 26.9511 149.497C30.3744 149.701 30.6106 148.162 30.6106 148.162L30.6986 147.332Z" fill="#37474F"/>
<path d="M43.8082 57.7167C43.8082 57.7167 44.4845 63.9881 42.4185 69.5994C40.6211 74.4534 37.397 77.1329 34.0803 78.1619C34.0803 78.1619 34.4369 100.384 34.6315 103.481C34.8261 106.578 33.7653 117.737 32.9036 125.076C32.042 132.416 31.7687 134.93 31.7687 134.93C31.7687 134.93 30.2632 136.532 26.2099 136.459C22.1566 136.386 20.9058 134.518 20.9058 134.518C20.9058 134.518 18.5896 125.906 18.7286 119.222C18.7888 115.393 19.6551 113.519 19.0807 109.699C18.5063 105.879 14.1194 88.7875 13.5218 80.7443C12.9243 72.7011 14.4483 65.6967 19.9794 57.7215C25.4965 61.9397 38.5227 61.4446 43.8082 57.7167Z" fill="#263238"/>
<path d="M22.2446 59.0418C19.2474 63.192 14.8328 71.8177 17.3435 84.5208C18.0569 88.1322 18.7703 91.6174 19.4605 94.991C21.0772 102.889 22.3558 109.121 22.4762 111.495C22.5004 112.826 22.3948 114.157 22.1612 115.465C21.6538 118.556 21.5494 121.704 21.8508 124.824C22.2307 128.872 22.8329 133.134 23.273 136.022C23.1016 135.969 22.9441 135.911 22.8097 135.848C22.3743 132.964 21.7952 128.814 21.42 124.868C21.11 121.711 21.216 118.524 21.735 115.397C21.9627 114.117 22.0652 112.816 22.0408 111.514C21.9203 109.184 20.651 102.966 19.0344 95.0881C18.3441 91.7145 17.6446 88.2293 16.922 84.613C14.402 71.8226 18.7749 63.095 21.8369 58.8477L22.2446 59.0418Z" fill="black"/>
<path d="M36.1602 28.1457C39.287 28.0195 41.8811 29.0728 44.327 32.1843C46.9443 35.519 50.2055 39.4654 54.0874 43.9797L62.4256 38.8004L66.516 44.6252C66.516 44.6252 57.9832 51.9063 54.7128 53.4839C52.2669 54.6829 51.5442 53.581 49.4458 51.7413C47.1296 49.7026 40.1811 42.9506 40.1811 42.9506L36.1602 28.1457Z" fill="#F28F8F"/>
<path d="M54.0874 43.9797C52.2344 44.9893 50.9513 46.2028 50.6594 47.8144C50.5761 45.2951 52.9247 43.8098 53.5778 43.3778L54.0874 43.9797Z" fill="#B16668"/>
<path d="M71.7876 25.3207L67.3684 42.97C67.2834 43.2563 67.0934 43.4955 66.8403 43.6351L57.4783 47.8435L57.1169 48.0037L61.7076 29.6699L61.6706 29.6408C61.6558 29.6271 61.645 29.6095 61.6393 29.5898C61.6336 29.5701 61.6332 29.5491 61.6381 29.5292C61.6502 29.4966 61.6689 29.4672 61.6929 29.4429C61.7169 29.4186 61.7456 29.4 61.7771 29.3884L71.5051 25.0197H71.5328C71.5656 24.9987 71.6033 24.9876 71.6417 24.9876C71.6801 24.9876 71.7178 24.9987 71.7506 25.0197C71.7816 25.062 71.8014 25.1121 71.808 25.165C71.8145 25.2178 71.8074 25.2716 71.7876 25.3207Z" fill="#6B67F1"/>
<path opacity="0.3" d="M71.7876 25.3207L67.3684 42.97C67.2834 43.2563 67.0934 43.4955 66.8403 43.6351L57.4783 47.8435L57.1169 48.0037L61.7076 29.6699L61.6706 29.6408C61.6558 29.6271 61.645 29.6095 61.6393 29.5898C61.6336 29.5701 61.6332 29.5491 61.6381 29.5292C61.6502 29.4966 61.6689 29.4672 61.6929 29.4429C61.7169 29.4186 61.7456 29.4 61.7771 29.3884L71.5051 25.0197H71.5328C71.5656 24.9987 71.6033 24.9876 71.6417 24.9876C71.6801 24.9876 71.7178 24.9987 71.7506 25.0197C71.7816 25.062 71.8014 25.1121 71.808 25.165C71.8145 25.2178 71.8074 25.2716 71.7876 25.3207Z" fill="black"/>
<path d="M61.4436 29.6844L71.7599 25.2527L72.098 25.6167L61.615 29.8689L61.4436 29.6844Z" fill="#F5F5F5"/>
<path d="M61.4065 29.4757C61.3953 29.5201 61.3962 29.5669 61.4094 29.6108C61.4225 29.6546 61.4472 29.6936 61.4806 29.7233C61.5726 29.8053 61.6839 29.8599 61.8029 29.8813C61.9219 29.9026 62.0442 29.89 62.157 29.8446L72.1721 25.7284C72.2082 25.7071 72.2489 25.696 72.2903 25.696C72.3316 25.696 72.3723 25.7071 72.4084 25.7284C72.437 25.7709 72.4554 25.8201 72.4619 25.8716C72.4683 25.9232 72.4627 25.9757 72.4454 26.0245L68.0262 43.6738C67.9851 43.8149 67.9165 43.9456 67.8248 44.0575C67.7331 44.1695 67.6203 44.2603 67.4934 44.3243L57.4783 48.4454C57.3651 48.4896 57.2426 48.5012 57.1237 48.479C57.0048 48.4568 56.8937 48.4016 56.802 48.3192C56.7702 48.2882 56.7466 48.2491 56.7336 48.2057C56.7206 48.1623 56.7186 48.1161 56.7278 48.0716L61.4065 29.4757Z" fill="#6B67F1"/>
<path opacity="0.2" d="M61.4065 29.4757C61.3953 29.5201 61.3962 29.5669 61.4094 29.6108C61.4225 29.6546 61.4472 29.6936 61.4806 29.7233C61.5726 29.8053 61.6839 29.8599 61.8029 29.8813C61.9219 29.9026 62.0442 29.89 62.157 29.8446L72.1721 25.7284C72.2082 25.7071 72.2489 25.696 72.2903 25.696C72.3316 25.696 72.3723 25.7071 72.4084 25.7284C72.437 25.7709 72.4554 25.8201 72.4619 25.8716C72.4683 25.9232 72.4627 25.9757 72.4454 26.0245L68.0262 43.6738C67.9851 43.8149 67.9165 43.9456 67.8248 44.0575C67.7331 44.1695 67.6203 44.2603 67.4934 44.3243L57.4783 48.4454C57.3651 48.4896 57.2426 48.5012 57.1237 48.479C57.0048 48.4568 56.8937 48.4016 56.802 48.3192C56.7702 48.2882 56.7466 48.2491 56.7336 48.2057C56.7206 48.1623 56.7186 48.1161 56.7278 48.0716L61.4065 29.4757Z" fill="black"/>
<path opacity="0.3" d="M61.7864 29.8787C61.6718 29.8604 61.5653 29.8062 61.4806 29.7233C61.4472 29.6936 61.4225 29.6546 61.4093 29.6108C61.3962 29.567 61.3952 29.5202 61.4065 29.4758L56.7417 48.0911C56.7325 48.1355 56.7345 48.1817 56.7475 48.2251C56.7605 48.2686 56.784 48.3077 56.8158 48.3386C56.8988 48.424 57.0062 48.4786 57.1216 48.494L61.7864 29.8787Z" fill="black"/>
<path d="M62.157 29.8447C62.0442 29.89 61.9219 29.9027 61.8029 29.8813C61.6839 29.8599 61.5725 29.8054 61.4806 29.7233C61.3324 29.5631 61.3926 29.3495 61.615 29.2379L71.3429 24.8692C71.4587 24.8159 71.5467 24.8256 71.5977 24.8692C71.6159 24.8857 71.6329 24.9036 71.6487 24.9226L71.7228 25.0052C71.69 24.9841 71.6523 24.973 71.6139 24.973C71.5755 24.973 71.5378 24.9841 71.5051 25.0052L61.7771 29.3738C61.7456 29.3854 61.7169 29.404 61.6929 29.4283C61.6689 29.4526 61.6502 29.482 61.6381 29.5146C61.6332 29.5345 61.6336 29.5555 61.6393 29.5752C61.645 29.5949 61.6558 29.6126 61.6706 29.6262L61.7076 29.6553C61.7615 29.6808 61.8199 29.694 61.879 29.694C61.9381 29.694 61.9965 29.6808 62.0504 29.6553L72.047 25.5488C72.0851 25.528 72.1282 25.5193 72.1709 25.5236C72.2137 25.5279 72.2543 25.5451 72.2879 25.5731L72.3389 25.6313L72.413 25.709C72.3769 25.6877 72.3362 25.6766 72.2949 25.6766C72.2535 25.6766 72.2128 25.6877 72.1767 25.709L62.157 29.8301V29.8447Z" fill="#6B67F1"/>
<path d="M62.157 36.354C61.8559 37.5626 61.9161 38.548 62.3237 39.1353C62.7314 39.7227 63.4401 39.8343 64.3203 39.4557C65.378 38.9256 66.2922 38.1262 66.9793 37.1306C67.792 36.0643 68.3922 34.8379 68.7442 33.524C69.0499 32.3154 68.9897 31.33 68.582 30.7427V30.7184L68.5496 30.6747C68.1327 30.1505 67.4425 30.0582 66.604 30.4223C65.5479 30.9464 64.635 31.741 63.9497 32.7328L63.8941 32.8105C63.1013 33.8625 62.5113 35.066 62.157 36.354ZM66.0945 31.0873L66.3215 30.966H66.3493L65.8304 33.0386C65.7038 33.0904 65.5737 33.1325 65.4413 33.1648H65.3811C65.1836 33.2033 64.981 33.2033 64.7835 33.1648C64.8993 32.9076 65.0198 32.6794 65.1448 32.427C65.3952 31.9329 65.7153 31.4812 66.0945 31.0873ZM65.0337 32.3542C64.8993 32.6066 64.7696 32.8736 64.6445 33.1503H64.5751H64.5287C64.3968 33.0932 64.2771 33.009 64.1767 32.9027C64.5924 32.3518 65.077 31.8621 65.6173 31.4465C65.4033 31.7348 65.2083 32.0381 65.0337 32.3542ZM65.9879 33.2134C66.1472 33.1395 66.3019 33.0552 66.4512 32.961L66.5207 32.9124C66.7865 32.7321 67.0389 32.5309 67.2757 32.3105C67.2408 32.9322 67.1461 33.5485 66.9932 34.1502L65.6034 34.7424L65.9879 33.2134ZM66.9144 34.4657C66.7343 35.1467 66.5083 35.8134 66.2381 36.4607C66.0407 36.4214 65.8379 36.4214 65.6405 36.4607H65.5756C65.4368 36.4872 65.3004 36.5262 65.168 36.5772L65.5432 35.0628L66.9144 34.4657ZM64.941 36.6549C64.7829 36.7242 64.6283 36.8019 64.4778 36.8879L64.4083 36.9316C64.1419 37.1009 63.888 37.2907 63.6486 37.4995C63.689 36.9064 63.7805 36.3183 63.9219 35.7423L65.3116 35.1502L64.941 36.6549ZM64.0145 35.4317C64.1888 34.7693 64.407 34.1205 64.6677 33.4901C64.873 33.5283 65.0831 33.5283 65.2884 33.4901H65.3533C65.4956 33.4567 65.635 33.4113 65.7702 33.3542L65.3904 34.8735L64.0145 35.4317ZM66.831 30.7912C67.0441 30.8543 67.1877 31.1164 67.2479 31.563C67.2704 31.7237 67.2813 31.886 67.2804 32.0484C67.0544 32.2621 66.8128 32.4569 66.5577 32.6309L66.4882 32.6746C66.3568 32.7605 66.2207 32.8383 66.0806 32.9076L66.5948 30.8446H66.6179C66.6881 30.8231 66.7592 30.8053 66.831 30.7912ZM67.2479 30.7233C67.4189 30.7073 67.5912 30.7322 67.7516 30.7961C67.9121 30.86 68.0567 30.9612 68.1744 31.0922C67.9984 31.3154 67.8177 31.5242 67.6324 31.7183L67.5676 31.7911L67.4749 31.8785C67.4765 31.6967 67.4657 31.515 67.4425 31.3349C67.4139 31.1144 67.3413 30.9026 67.2294 30.7135L67.2479 30.7233ZM68.2763 31.2087C68.6098 31.6941 68.6701 32.5241 68.4431 33.5192L67.1738 34.0628C67.3328 33.4273 67.4321 32.777 67.4703 32.1212C67.512 32.0775 67.5583 32.0387 67.6 31.9902L67.6741 31.9174C67.8594 31.7038 68.0632 31.4708 68.2578 31.2184L68.2763 31.2087ZM68.3643 33.8298C68.0468 34.9226 67.5396 35.9445 66.8681 36.8442C66.7689 36.7232 66.6476 36.6242 66.5114 36.553H66.4651L66.3724 36.519C66.6641 35.8338 66.9057 35.1263 67.0951 34.4026L68.3643 33.8298ZM66.6643 37.116C66.2673 37.622 65.8113 38.0737 65.307 38.4606C65.5209 38.1597 65.7144 37.8434 65.886 37.5141C66.0065 37.2908 66.1223 37.0287 66.2381 36.8054L66.2983 36.8297H66.3446C66.463 36.9061 66.5654 37.0068 66.6457 37.1258L66.6643 37.116ZM64.8113 38.781L64.5843 38.9023L65.1031 36.8394C65.2261 36.7959 65.3514 36.7603 65.4784 36.7326H65.5386C65.7285 36.7024 65.9222 36.7123 66.1084 36.7617C66.0065 36.9898 65.8999 37.2131 65.7887 37.4219C65.5309 37.9286 65.1996 38.3904 64.8067 38.7907L64.8113 38.781ZM64.0933 39.0868C63.8848 39.0237 63.7366 38.7616 63.6764 38.315C63.6529 38.1267 63.6421 37.9369 63.644 37.7471C63.8737 37.5449 64.1167 37.36 64.3712 37.1937L64.4407 37.1549C64.5797 37.0724 64.7187 36.9996 64.853 36.9364L64.3295 39.0431H64.3017C64.2319 39.0659 64.1608 39.0838 64.0887 39.0965L64.0933 39.0868ZM63.6764 39.1547C63.4942 39.1721 63.3106 39.1432 63.1413 39.0706C62.972 38.9979 62.8218 38.8836 62.7036 38.7373C62.8874 38.5102 63.0823 38.2931 63.2873 38.0869L63.3521 38.0189L63.4494 37.9267C63.4467 38.1329 63.4591 38.3389 63.4865 38.5431C63.5066 38.7614 63.5697 38.973 63.6717 39.1645L63.6764 39.1547ZM62.6063 38.5917C62.2929 37.8902 62.2465 37.09 62.4766 36.354L63.7505 35.8103C63.5967 36.4188 63.4989 37.0413 63.4587 37.6694L63.3243 37.7956L63.2548 37.8684C63.024 38.0996 62.806 38.3443 62.6017 38.6014L62.6063 38.5917ZM62.5554 36.0433C62.8619 34.9923 63.3433 34.0063 63.9775 33.1309C64.0907 33.2486 64.2244 33.3425 64.3712 33.4075H64.4176L64.5148 33.4318C64.2402 34.0967 64.0111 34.7812 63.8293 35.4802L62.5554 36.0433Z" fill="#6B67F1"/>
<path d="M59.5536 44.9796L59.2756 45.0961L59.8037 43.004L60.2345 42.8147C60.4522 42.7225 60.6978 42.7079 60.5356 43.2613V43.3147C60.5088 43.499 60.4378 43.6732 60.3292 43.8209C60.2207 43.9686 60.0781 44.085 59.9149 44.1593L59.7528 44.2273L59.5536 44.9796ZM60.0168 43.7758C60.0909 43.7467 60.1975 43.6593 60.253 43.4215V43.3972C60.3133 43.1594 60.2299 43.1545 60.1558 43.1885L59.9844 43.2613L59.8361 43.8535L60.0168 43.7758Z" fill="#6B67F1"/>
<path d="M61.4343 42.2953L61.2397 44.237L60.9479 44.3632L60.9942 43.936L60.67 44.0768L60.4939 44.5622L60.1974 44.6932L61.0544 42.4507L61.4343 42.2953ZM60.8089 43.6982L61.0266 43.6059L61.11 42.8778L60.8089 43.6982Z" fill="#6B67F1"/>
<path d="M61.6798 42.7468V42.7176C61.7164 42.5396 61.7913 42.3727 61.8989 42.2296C62.0065 42.0866 62.1439 41.9713 62.3005 41.8924C62.6248 41.7517 62.7128 41.9216 62.5878 42.4118V42.4701L62.3144 42.5866C62.3839 42.3147 62.3608 42.2079 62.2218 42.2662C62.1638 42.2958 62.1129 42.3386 62.0728 42.3915C62.0327 42.4444 62.0045 42.5061 61.9902 42.572C61.9531 42.7225 61.9902 42.7856 62.1523 42.7468C62.4256 42.6836 62.5322 42.7759 62.4349 43.1642V43.1933C62.3987 43.376 62.3219 43.5473 62.2109 43.6931C62.0998 43.839 61.9576 43.9555 61.7956 44.0331C61.4853 44.169 61.3741 44.0331 61.4992 43.5137L61.7354 43.4118C61.6705 43.6739 61.7076 43.7564 61.8373 43.6981C61.9009 43.6669 61.9568 43.621 62.001 43.5638C62.0451 43.5067 62.0763 43.4397 62.0921 43.3681C62.1292 43.2176 62.0921 43.1593 61.9207 43.1982C61.6798 43.2273 61.5872 43.1254 61.6798 42.7468Z" fill="#6B67F1"/>
<path d="M62.7499 42.2856V42.2565C62.7865 42.0784 62.8614 41.9115 62.969 41.7685C63.0766 41.6254 63.214 41.5101 63.3706 41.4313C63.6949 41.2954 63.7829 41.4604 63.6578 41.9507V42.0089L63.3845 42.1254C63.454 41.8536 63.4309 41.7468 63.2919 41.8099C63.2339 41.8394 63.183 41.8823 63.1429 41.9352C63.1028 41.9881 63.0746 42.0498 63.0603 42.1157C63.0232 42.2662 63.0603 42.3341 63.2224 42.2904C63.4957 42.2273 63.6023 42.3196 63.505 42.7079V42.737C63.4688 42.9197 63.392 43.0909 63.281 43.2368C63.1699 43.3827 63.0277 43.4992 62.8657 43.5768C62.5553 43.7127 62.4442 43.5768 62.5692 43.0574V43.0331L62.8425 42.9166C62.7777 43.1787 62.8425 43.2612 62.9445 43.2079C63.008 43.1767 63.064 43.1307 63.1081 43.0735C63.1523 43.0164 63.1834 42.9494 63.1992 42.8778C63.2363 42.7273 63.1992 42.6642 63.0278 42.7079C62.7499 42.7661 62.6619 42.6642 62.7499 42.2856Z" fill="#6B67F1"/>
<path d="M63.7505 43.1739L63.4772 43.2904L64.0006 41.1983L64.4361 41.009C64.6538 40.9168 64.8761 40.9022 64.7372 41.4556V41.509C64.7095 41.693 64.6382 41.8667 64.5297 42.0143C64.4213 42.1619 64.2792 42.2786 64.1164 42.3536L63.9543 42.4215L63.7505 43.1739ZM64.2137 41.9701C64.2925 41.941 64.399 41.8536 64.4546 41.6157V41.5915C64.5148 41.3536 64.4268 41.3488 64.3527 41.3827L64.1813 41.4556L64.0331 42.0478L64.2137 41.9701Z" fill="#6B67F1"/>
<path d="M64.7094 41.8779L64.7372 41.7662C64.9178 41.043 65.1541 40.6692 65.4969 40.5236C65.8397 40.378 65.9277 40.611 65.747 41.3342L65.7193 41.441C65.5386 42.1691 65.3023 42.538 64.9549 42.6885C64.6075 42.839 64.5148 42.6011 64.7094 41.8779ZM65.0615 42.3099C65.2282 42.2371 65.3348 41.9798 65.4413 41.5624L65.4645 41.4556C65.571 41.0381 65.5849 40.8246 65.4135 40.8974C65.2421 40.9702 65.1356 41.2226 65.029 41.6449L65.0012 41.7517C64.8993 42.1691 64.8901 42.3827 65.0568 42.3099H65.0615Z" fill="#6B67F1"/>
<path d="M65.9045 42.2467L65.6312 42.3681L66.1547 40.2711L66.5901 40.0867C66.8078 39.9945 67.0534 39.975 66.8866 40.5333V40.5867C66.8336 40.842 66.7094 41.0751 66.5299 41.2565V41.9846L66.2334 42.1108V41.4361L66.0898 41.4944L65.9045 42.2467ZM66.3678 41.0478C66.4315 41.0124 66.4864 40.962 66.5282 40.9005C66.57 40.839 66.5976 40.7681 66.6087 40.6934V40.6643C66.6689 40.4265 66.5809 40.4216 66.5067 40.4556L66.3353 40.5284L66.1871 41.1206L66.3678 41.0478Z" fill="#6B67F1"/>
<path d="M67.1738 41.7031L66.9005 41.8196L67.3313 40.1013L67.0256 40.2323L67.1182 39.8585L68.003 39.4751L67.9104 39.8537L67.6046 39.9848L67.1738 41.7031Z" fill="#6B67F1"/>
<g opacity="0.2">
<path d="M62.1569 36.354C61.8558 37.5626 61.9161 38.548 62.3237 39.1353C62.7314 39.7227 63.4401 39.8343 64.3202 39.4557C65.378 38.9256 66.2922 38.1262 66.9792 37.1306C67.792 36.0643 68.3922 34.8379 68.7442 33.524C69.0499 32.3154 68.9897 31.33 68.582 30.7427V30.7184L68.5496 30.6747C68.1327 30.1505 67.4425 30.0582 66.604 30.4223C65.5479 30.9464 64.635 31.741 63.9497 32.7328L63.8941 32.8105C63.1013 33.8625 62.5113 35.066 62.1569 36.354ZM66.0944 31.0873L66.3214 30.966H66.3492L65.8304 33.0386C65.7037 33.0904 65.5737 33.1325 65.4413 33.1648H65.3811C65.1836 33.2033 64.981 33.2033 64.7835 33.1648C64.8993 32.9076 65.0197 32.6794 65.1448 32.427C65.3951 31.9329 65.7153 31.4812 66.0944 31.0873ZM65.0336 32.3542C64.8993 32.6066 64.7696 32.8736 64.6445 33.1503H64.575H64.5287C64.3968 33.0932 64.2771 33.009 64.1766 32.9027C64.5924 32.3518 65.077 31.8621 65.6173 31.4465C65.4032 31.7348 65.2082 32.0381 65.0336 32.3542ZM65.9879 33.2134C66.1472 33.1395 66.3019 33.0552 66.4511 32.961L66.5206 32.9124C66.7865 32.7321 67.0389 32.5309 67.2757 32.3105C67.2408 32.9322 67.1461 33.5485 66.9931 34.1502L65.6034 34.7424L65.9879 33.2134ZM66.9144 34.4657C66.7343 35.1467 66.5083 35.8134 66.238 36.4607C66.0406 36.4214 65.8379 36.4214 65.6405 36.4607H65.5756C65.4368 36.4872 65.3004 36.5262 65.168 36.5772L65.5432 35.0628L66.9144 34.4657ZM64.941 36.6549C64.7828 36.7242 64.6282 36.8019 64.4777 36.8879L64.4083 36.9316C64.1419 37.1009 63.888 37.2907 63.6486 37.4995C63.689 36.9064 63.7805 36.3183 63.9219 35.7423L65.3116 35.1502L64.941 36.6549ZM64.0145 35.4317C64.1888 34.7693 64.407 34.1205 64.6677 33.4901C64.873 33.5283 65.0831 33.5283 65.2884 33.4901H65.3533C65.4955 33.4567 65.635 33.4113 65.7702 33.3542L65.3903 34.8735L64.0145 35.4317ZM66.831 30.7912C67.0441 30.8543 67.1877 31.1164 67.2479 31.563C67.2704 31.7237 67.2812 31.886 67.2803 32.0484C67.0544 32.2621 66.8128 32.4569 66.5577 32.6309L66.4882 32.6746C66.3568 32.7605 66.2207 32.8383 66.0805 32.9076L66.5947 30.8446H66.6179C66.688 30.8231 66.7592 30.8053 66.831 30.7912ZM67.2479 30.7233C67.4189 30.7073 67.5911 30.7322 67.7516 30.7961C67.9121 30.86 68.0566 30.9612 68.1744 31.0922C67.9983 31.3154 67.8177 31.5242 67.6324 31.7183L67.5675 31.7911L67.4749 31.8785C67.4765 31.6967 67.4657 31.515 67.4425 31.3349C67.4139 31.1144 67.3413 30.9026 67.2294 30.7135L67.2479 30.7233ZM68.2763 31.2087C68.6098 31.6941 68.67 32.5241 68.443 33.5192L67.1738 34.0628C67.3327 33.4273 67.432 32.777 67.4703 32.1212C67.5119 32.0775 67.5583 32.0387 67.6 31.9902L67.6741 31.9174C67.8594 31.7038 68.0632 31.4708 68.2578 31.2184L68.2763 31.2087ZM68.3643 33.8298C68.0468 34.9226 67.5396 35.9445 66.868 36.8442C66.7688 36.7232 66.6476 36.6242 66.5114 36.553H66.465L66.3724 36.519C66.6641 35.8338 66.9057 35.1263 67.095 34.4026L68.3643 33.8298ZM66.6642 37.116C66.2673 37.622 65.8113 38.0737 65.3069 38.4606C65.5208 38.1597 65.7143 37.8434 65.886 37.5141C66.0064 37.2908 66.1222 37.0287 66.238 36.8054L66.2983 36.8297H66.3446C66.463 36.9061 66.5654 37.0068 66.6457 37.1258L66.6642 37.116ZM64.8113 38.781L64.5843 38.9023L65.1031 36.8394C65.226 36.7959 65.3513 36.7603 65.4783 36.7326H65.5386C65.7284 36.7024 65.9222 36.7123 66.1083 36.7617C66.0064 36.9898 65.8999 37.2131 65.7887 37.4219C65.5309 37.9286 65.1996 38.3904 64.8066 38.7907L64.8113 38.781ZM64.0933 39.0868C63.8848 39.0237 63.7366 38.7616 63.6764 38.315C63.6529 38.1267 63.642 37.9369 63.6439 37.7471C63.8736 37.5449 64.1167 37.36 64.3712 37.1937L64.4407 37.1549C64.5797 37.0724 64.7186 36.9996 64.853 36.9364L64.3295 39.0431H64.3017C64.2319 39.0659 64.1607 39.0838 64.0886 39.0965L64.0933 39.0868ZM63.6764 39.1547C63.4941 39.1721 63.3106 39.1432 63.1413 39.0706C62.9719 38.9979 62.8218 38.8836 62.7036 38.7373C62.8874 38.5102 63.0822 38.2931 63.2872 38.0869L63.3521 38.0189L63.4494 37.9267C63.4467 38.1329 63.4591 38.3389 63.4864 38.5431C63.5066 38.7614 63.5696 38.973 63.6717 39.1645L63.6764 39.1547ZM62.6063 38.5917C62.2929 37.8902 62.2465 37.09 62.4766 36.354L63.7505 35.8103C63.5966 36.4188 63.4989 37.0413 63.4586 37.6694L63.3243 37.7956L63.2548 37.8684C63.024 38.0996 62.8059 38.3443 62.6016 38.6014L62.6063 38.5917ZM62.5553 36.0433C62.8619 34.9923 63.3433 34.0063 63.9775 33.1309C64.0907 33.2486 64.2243 33.3425 64.3712 33.4075H64.4175L64.5148 33.4318C64.2402 34.0967 64.011 34.7812 63.8292 35.4802L62.5553 36.0433Z" fill="white"/>
<path d="M59.5536 44.9796L59.2756 45.0961L59.8037 43.004L60.2345 42.8147C60.4522 42.7225 60.6978 42.7079 60.5356 43.2613V43.3147C60.5088 43.499 60.4378 43.6732 60.3292 43.8209C60.2207 43.9686 60.0781 44.085 59.9149 44.1593L59.7528 44.2273L59.5536 44.9796ZM60.0168 43.7758C60.0909 43.7467 60.1975 43.6593 60.253 43.4215V43.3972C60.3133 43.1594 60.2299 43.1545 60.1558 43.1885L59.9844 43.2613L59.8361 43.8535L60.0168 43.7758Z" fill="white"/>
<path d="M61.4343 42.2953L61.2397 44.237L60.9479 44.3632L60.9942 43.936L60.67 44.0768L60.4939 44.5622L60.1974 44.6932L61.0544 42.4507L61.4343 42.2953ZM60.8089 43.6982L61.0266 43.6059L61.11 42.8778L60.8089 43.6982Z" fill="white"/>
<path d="M61.6798 42.7468V42.7176C61.7164 42.5396 61.7913 42.3727 61.8989 42.2296C62.0065 42.0866 62.1439 41.9713 62.3006 41.8924C62.6248 41.7517 62.7129 41.9216 62.5878 42.4118V42.4701L62.3145 42.5866C62.384 42.3147 62.3608 42.2079 62.2218 42.2662C62.1638 42.2958 62.1129 42.3386 62.0728 42.3915C62.0328 42.4444 62.0045 42.5061 61.9902 42.572C61.9532 42.7225 61.9902 42.7856 62.1523 42.7468C62.4256 42.6836 62.5322 42.7759 62.4349 43.1642V43.1933C62.3987 43.376 62.322 43.5473 62.2109 43.6931C62.0999 43.839 61.9576 43.9555 61.7957 44.0331C61.4853 44.169 61.3741 44.0331 61.4992 43.5137L61.7354 43.4118C61.6706 43.6739 61.7076 43.7564 61.8373 43.6981C61.9009 43.6669 61.9569 43.621 62.001 43.5638C62.0451 43.5067 62.0763 43.4397 62.0921 43.3681C62.1292 43.2176 62.0921 43.1593 61.9207 43.1982C61.6798 43.2273 61.5872 43.1254 61.6798 42.7468Z" fill="white"/>
<path d="M62.7499 42.2856V42.2565C62.7865 42.0784 62.8614 41.9115 62.969 41.7685C63.0766 41.6254 63.214 41.5101 63.3706 41.4313C63.6949 41.2954 63.7829 41.4604 63.6578 41.9507V42.0089L63.3845 42.1254C63.454 41.8536 63.4309 41.7468 63.2919 41.8099C63.2339 41.8394 63.183 41.8823 63.1429 41.9352C63.1028 41.9881 63.0746 42.0498 63.0603 42.1157C63.0232 42.2662 63.0603 42.3341 63.2224 42.2904C63.4957 42.2273 63.6023 42.3196 63.505 42.7079V42.737C63.4688 42.9197 63.392 43.0909 63.281 43.2368C63.1699 43.3827 63.0277 43.4992 62.8657 43.5768C62.5553 43.7127 62.4442 43.5768 62.5692 43.0574V43.0331L62.8425 42.9166C62.7777 43.1787 62.8425 43.2612 62.9445 43.2079C63.008 43.1767 63.064 43.1307 63.1081 43.0735C63.1523 43.0164 63.1834 42.9494 63.1992 42.8778C63.2363 42.7273 63.1992 42.6642 63.0278 42.7079C62.7499 42.7661 62.6619 42.6642 62.7499 42.2856Z" fill="white"/>
<path d="M63.7505 43.1739L63.4772 43.2904L64.0006 41.1983L64.4361 41.009C64.6538 40.9168 64.8761 40.9022 64.7372 41.4556V41.509C64.7095 41.693 64.6382 41.8667 64.5297 42.0143C64.4213 42.1619 64.2792 42.2786 64.1164 42.3536L63.9543 42.4215L63.7505 43.1739ZM64.2137 41.9701C64.2925 41.941 64.399 41.8536 64.4546 41.6157V41.5915C64.5148 41.3536 64.4268 41.3488 64.3527 41.3827L64.1813 41.4556L64.0331 42.0478L64.2137 41.9701Z" fill="white"/>
<path d="M64.7094 41.8779L64.7372 41.7662C64.9178 41.043 65.1541 40.6692 65.4969 40.5236C65.8397 40.378 65.9277 40.611 65.747 41.3342L65.7193 41.441C65.5386 42.1691 65.3023 42.538 64.9549 42.6885C64.6075 42.839 64.5148 42.6011 64.7094 41.8779ZM65.0615 42.3099C65.2282 42.2371 65.3348 41.9798 65.4413 41.5624L65.4645 41.4556C65.571 41.0381 65.5849 40.8246 65.4135 40.8974C65.2421 40.9702 65.1356 41.2226 65.029 41.6449L65.0012 41.7517C64.8993 42.1691 64.8901 42.3827 65.0568 42.3099H65.0615Z" fill="white"/>
<path d="M65.9045 42.2468L65.6312 42.3682L66.1547 40.2712L66.5901 40.0867C66.8078 39.9945 67.0534 39.9751 66.8866 40.5333V40.5867C66.8336 40.8421 66.7094 41.0752 66.5299 41.2566V41.9847L66.2334 42.1109V41.4362L66.0898 41.4944L65.9045 42.2468ZM66.3678 41.0479C66.4315 41.0125 66.4864 40.9621 66.5282 40.9005C66.57 40.839 66.5976 40.7681 66.6087 40.6935V40.6644C66.6689 40.4265 66.5809 40.4217 66.5067 40.4557L66.3353 40.5285L66.1871 41.1207L66.3678 41.0479Z" fill="white"/>
<path d="M67.1738 41.7031L66.9005 41.8196L67.3313 40.1013L67.0256 40.2323L67.1182 39.8585L68.003 39.4751L67.9104 39.8537L67.6046 39.9848L67.1738 41.7031Z" fill="white"/>
</g>
<path d="M71.4634 36.3054C72.1443 35.3055 72.0795 35.1696 71.7089 34.6599C71.4292 34.2531 71.061 33.9221 70.6348 33.6942C70.2087 33.4663 69.7368 33.348 69.2584 33.3493C68.4153 33.3784 67.5676 33.3493 67.1321 33.5969C66.6967 33.8444 67.0719 34.7861 68.1651 35.0531C69.893 35.456 69.8837 35.9462 69.8837 35.9462C69.1481 35.7707 68.4044 35.6346 67.6556 35.5385C66.8021 35.6052 65.9549 35.7415 65.1217 35.9462C64.3944 36.0676 64.2508 37.0529 65.4876 37.4024L64.1535 37.6306C63.2271 37.7908 62.9028 38.3102 63.6393 38.9169C63.8776 39.1219 64.1742 39.238 64.4824 39.247C64.4824 39.247 63.4865 39.247 63.4679 39.5916C63.4123 40.5624 64.0284 40.8488 66.0389 41.4556C67.9567 42.0332 68.3551 43.1157 67.9752 43.8826C67.9752 43.8826 68.7442 43.3972 69.4298 42.9118C69.9347 42.5429 70.3563 42.1351 70.1339 41.31C70.1339 41.31 71.2271 41.31 71.292 40.6207C71.3097 40.1002 71.2196 39.5819 71.0279 39.1014C71.2237 38.9836 71.384 38.8106 71.4905 38.6021C71.5969 38.3935 71.6453 38.1578 71.6301 37.9218C71.6309 37.4708 71.4892 37.0322 71.2271 36.6743L71.4634 36.3054Z" fill="#F28F8F"/>
<path d="M65.483 37.3782C65.8807 37.2906 66.2857 37.2451 66.692 37.2422C67.1011 37.3044 67.4982 37.4338 67.8687 37.6257C68.6043 37.9586 69.3124 38.3548 69.9856 38.8101C69.2126 38.5967 68.458 38.3158 67.7297 37.9703C67.3868 37.7874 67.0286 37.6379 66.6596 37.5238C66.2983 37.4655 65.8767 37.4558 65.483 37.3782Z" fill="#B16668"/>
<path d="M64.4778 39.2227C64.9045 39.0943 65.3551 39.0793 65.7887 39.179C66.2167 39.2744 66.6354 39.4109 67.0395 39.5868C67.8415 39.9268 68.607 40.3548 69.3232 40.8634C68.5025 40.5964 67.6954 40.2853 66.9051 39.9314C66.1457 39.5374 65.3222 39.2969 64.4778 39.2227Z" fill="#B16668"/>
<path d="M15.7593 45.9941C15.7593 45.9941 18.1125 45.1447 19.2845 40.1693C19.8219 37.9073 19.4003 34.8298 18.8583 31.2329L25.5011 29.1311C25.5011 29.1311 27.6552 28.7865 32.3663 28.471L36.1602 28.1652C36.1602 28.1652 42.1823 33.592 44.8459 38.2713C45.9206 40.1596 47.2871 44.0185 44.5633 48.7415C44.415 52.1782 43.8082 57.741 43.8082 57.741C43.8082 57.741 41.228 61.8572 32.6211 61.8572C20.2758 61.8087 18.9602 57.6536 18.9602 57.6536C19.1177 53.9451 16.6487 49.6687 15.7593 45.9941Z" fill="#6B67F1"/>
<path opacity="0.6" d="M15.7593 45.9941C15.7593 45.9941 18.1125 45.1447 19.2845 40.1693C19.8219 37.9073 19.4003 34.8298 18.8583 31.2329L25.5011 29.1311C25.5011 29.1311 27.6552 28.7865 32.3663 28.471L36.1602 28.1652C36.1602 28.1652 42.1823 33.592 44.8459 38.2713C45.9206 40.1596 47.2871 44.0185 44.5633 48.7415C44.415 52.1782 43.8082 57.741 43.8082 57.741C43.8082 57.741 41.228 61.8572 32.6211 61.8572C20.2758 61.8087 18.9602 57.6536 18.9602 57.6536C19.1177 53.9451 16.6487 49.6687 15.7593 45.9941Z" fill="white"/>
<path opacity="0.2" d="M35.734 49.523C35.734 49.523 33.6263 52.4355 28.9245 51.7268C24.2226 51.0181 23.2174 47.3581 23.2174 47.3581C23.2174 47.3581 23.046 52.1296 28.665 52.9451C34.2007 53.7363 35.734 49.523 35.734 49.523Z" fill="#6B67F1"/>
<path d="M22.3604 3.57937C23.0919 2.77037 24.0513 2.22778 25.0981 2.03092C26.0987 1.84161 26.7009 1.89501 27.6644 1.54552C28.628 1.19603 29.3923 0.623245 30.3049 0.293169C32.32 -0.439794 34.65 0.259191 36.2528 1.74939C36.957 2.40468 37.6055 3.20561 38.5273 3.44346C38.9884 3.50184 39.4527 3.52616 39.917 3.51626C40.6509 3.6071 41.3515 3.88811 41.9557 4.33389C42.5598 4.77967 43.0485 5.37618 43.3774 6.0695C43.8972 7.14997 44.1759 8.34002 44.1927 9.54986C44.2344 10.7488 43.7712 11.8313 43.7665 13.0157C43.8353 13.8849 44.1589 14.7106 44.693 15.3796C45.3327 16.1993 45.8056 17.1475 46.0827 18.1658C46.3228 19.0411 46.3514 19.9652 46.1661 20.855C46.0674 21.2977 45.8643 21.7074 45.5754 22.0466C45.2865 22.3858 44.921 22.6437 44.5123 22.7966C44.687 22.3831 44.7623 21.9311 44.7316 21.48C44.7009 21.029 44.5652 20.5927 44.3363 20.2094C44.3898 20.6177 44.3653 21.033 44.2643 21.4313C44.1633 21.8297 43.9878 22.203 43.748 22.5296C43.2647 23.1795 42.6672 23.7265 41.9877 24.1412C40.49 25.1938 38.7181 25.7347 36.9153 25.6896C35.0623 25.5585 33.1816 24.7576 31.287 25.1411C30.7649 25.2739 30.2499 25.4359 29.7444 25.6265C28.8702 25.9126 27.9696 26.1013 27.0576 26.1896C25.6679 26.3303 23.815 26.2138 22.5828 25.442C22.0601 25.1607 21.6653 24.6737 21.4849 24.0878C21.4111 24.3553 21.3903 24.6359 21.4238 24.9122C21.4572 25.1885 21.5442 25.4547 21.6794 25.6945C20.8353 25.5872 20.0224 25.2939 19.2942 24.8337C18.566 24.3736 17.9391 23.7571 17.4547 23.0247C16.9817 22.2804 16.7247 21.4083 16.7148 20.5141C16.7049 19.6199 16.9426 18.7418 17.3991 17.9862C17.0529 18.2212 16.7409 18.5073 16.4727 18.8357C16.3387 19.0003 16.239 19.1923 16.1799 19.3996C16.1209 19.6069 16.1039 19.8249 16.1299 20.0395C15.8256 19.506 15.6591 18.8987 15.6469 18.2774C15.6347 17.6561 15.7772 17.0421 16.0604 16.496C16.4113 15.915 16.8351 15.3861 17.3204 14.9233C17.9597 14.2534 18.6036 13.5059 18.7703 12.5691C18.8236 12.1194 18.8236 11.6645 18.7703 11.2148C18.7002 10.5182 18.7425 9.81427 18.8954 9.13241C19.0552 8.51541 19.4177 7.97734 19.9191 7.61309C20.0535 7.51116 21.5497 6.69567 21.5683 6.83159C21.4868 6.26154 21.5149 5.68017 21.651 5.12167C21.787 4.56317 22.0282 4.0388 22.3604 3.57937Z" fill="#263238"/>
<path d="M21.6609 15.1029C22.8931 14.6612 23.903 15.1709 24.5145 16.5252C25.0425 17.7095 26.2516 17.3358 26.02 15.5204C28.8365 12.8895 25.7142 11.0449 28.0489 8.48684C29.5035 6.88985 32.4867 7.42865 33.6541 8.48684C34.0025 7.89349 34.5322 7.44107 35.1571 7.20312C35.782 6.96518 36.4653 6.95571 37.0959 7.17624C38.3421 7.66164 39.1203 8.5014 39.6669 10.3508C40.2413 12.2924 39.5789 12.6176 39.8429 13.9719C40.0812 14.9305 40.2653 15.903 40.3942 16.8844C40.9871 22.3063 39.1666 24.447 37.8093 25.4372C36.5621 26.3438 35.0637 26.7927 33.5476 26.7138V29.4709C33.5476 29.4709 35.0577 31.898 35.0901 37.6015C35.0901 37.6015 33.0751 36.5676 29.3738 34.3929C25.5753 32.1601 24.4311 29.9903 24.4311 29.9903V20.8259C24.13 21.5394 22.7078 22.2821 21.3367 21.0249C19.6134 19.4376 19.4883 15.8893 21.6609 15.1029Z" fill="#F28F8F"/>
<path d="M33.6541 8.49654C33.983 6.93353 36.0814 5.61323 38.3652 6.55491C40.4266 7.42379 40.9686 9.05961 40.9315 12.6856C40.9037 15.3796 41.1261 15.6611 41.7422 16.1126C40.3525 16.2824 39.7086 15.1029 39.6252 13.5593C39.5418 12.0157 39.7688 8.88486 37.5036 7.86551C36.8693 7.58579 36.1732 7.49667 35.4933 7.60813C34.8134 7.71958 34.1765 8.0272 33.6541 8.49654Z" fill="#6B67F1"/>
<path d="M38.9211 12.472L37.0172 11.5837C37.0657 11.4505 37.1398 11.3291 37.2348 11.2271C37.3298 11.125 37.4437 11.0445 37.5696 10.9903C37.6955 10.9362 37.8306 10.9097 37.9667 10.9124C38.1027 10.9151 38.2368 10.947 38.3606 11.0061C38.6164 11.1275 38.8176 11.3478 38.9221 11.621C39.0265 11.8942 39.0262 12.1991 38.9211 12.472Z" fill="#263238"/>
<path d="M30.9581 11.7342L29.1515 12.8215C29.0814 12.7024 29.0347 12.5699 29.0142 12.4317C28.9938 12.2934 28.9999 12.1523 29.0323 12.0166C29.0647 11.8809 29.1226 11.7534 29.2028 11.6415C29.2829 11.5297 29.3836 11.4357 29.4989 11.3653C29.7408 11.2188 30.0272 11.1754 30.2989 11.244C30.5705 11.3127 30.8065 11.4882 30.9581 11.7342Z" fill="#263238"/>
<path d="M32.2551 19.9958L35.2198 20.7627C35.1687 20.9795 35.0748 21.1827 34.9442 21.3593C34.8137 21.5358 34.6493 21.6818 34.4618 21.7878C34.2742 21.8939 34.0675 21.9576 33.8551 21.975C33.6426 21.9924 33.429 21.9631 33.2279 21.8889C33.0443 21.8334 32.8732 21.74 32.7244 21.6142C32.5757 21.4885 32.4525 21.3329 32.3619 21.1566C32.2713 20.9803 32.2151 20.7868 32.1968 20.5875C32.1785 20.3881 32.1983 20.187 32.2551 19.9958Z" fill="#B16668"/>
<path d="M34.071 21.918C33.9999 21.5084 33.7861 21.141 33.4711 20.8871C33.1562 20.6333 32.7624 20.5111 32.3663 20.5443C32.318 20.5512 32.27 20.561 32.2227 20.5735C32.2324 20.877 32.3355 21.1691 32.5167 21.4062C32.6979 21.6433 32.9474 21.8126 33.2279 21.8889C33.5024 21.9709 33.7919 21.9809 34.071 21.918Z" fill="#FFC4C3"/>
<path d="M33.4086 13.4137L34.2934 18.792L37.2766 17.7969C36.012 14.6757 34.071 13.1176 33.4086 13.4137Z" fill="#B16668"/>
<path d="M31.5278 14.7437C31.5278 14.9242 31.4768 15.1006 31.3811 15.2507C31.2854 15.4007 31.1494 15.5177 30.9902 15.5868C30.8311 15.6559 30.656 15.6739 30.4871 15.6387C30.3181 15.6035 30.1629 15.5166 30.0411 15.389C29.9194 15.2613 29.8364 15.0987 29.8028 14.9217C29.7692 14.7447 29.7864 14.5612 29.8524 14.3945C29.9183 14.2277 30.0299 14.0852 30.1731 13.9849C30.3163 13.8846 30.4847 13.8311 30.657 13.8311C30.8876 13.8324 31.1084 13.929 31.2714 14.0998C31.4345 14.2707 31.5266 14.5021 31.5278 14.7437Z" fill="#263238"/>
<path d="M38.5134 14.5592C38.5134 14.7409 38.462 14.9184 38.3655 15.0694C38.2691 15.2204 38.1321 15.338 37.9719 15.4073C37.8116 15.4766 37.6353 15.4944 37.4654 15.4586C37.2954 15.4228 37.1394 15.335 37.0172 15.2062C36.8949 15.0774 36.8119 14.9135 36.7787 14.7352C36.7454 14.5569 36.7634 14.3723 36.8304 14.2048C36.8973 14.0372 37.0103 13.8943 37.1549 13.7941C37.2995 13.6938 37.4692 13.6408 37.6425 13.6418C37.7573 13.6418 37.8709 13.6656 37.9769 13.7117C38.0828 13.7579 38.1791 13.8256 38.26 13.9108C38.3409 13.9961 38.405 14.0972 38.4485 14.2085C38.492 14.3198 38.514 14.439 38.5134 14.5592Z" fill="#263238"/>
<path d="M33.5475 26.7138C31.6158 26.5294 28.3407 26.3012 26.8213 23.9762C26.8213 23.9762 26.9881 25.3353 28.9198 26.4566C30.2817 27.2429 33.5521 27.6701 33.5521 27.6701L33.5475 26.7138Z" fill="#B16668"/>
<path d="M24.13 29.5146C24.13 29.5146 26.789 33.0435 27.317 40.9847C28.2111 54.5373 17.7744 61.032 17.7744 61.032C17.6092 58.8231 17.5551 56.6066 17.6123 54.3917C17.6123 54.3917 22.4253 49.0522 21.9064 43.5962C21.2116 36.3151 19.9099 32.8493 18.8306 31.1456C18.8306 31.1456 21.7397 29.5971 24.13 29.5146Z" fill="#6B67F1"/>
<path opacity="0.2" d="M24.13 29.5146C24.13 29.5146 26.789 33.0435 27.317 40.9847C28.2111 54.5373 17.7744 61.032 17.7744 61.032C17.6092 58.8231 17.5551 56.6066 17.6123 54.3917C17.6123 54.3917 22.4253 49.0522 21.9064 43.5962C21.2116 36.3151 19.9099 32.8493 18.8306 31.1456C18.8306 31.1456 21.7397 29.5971 24.13 29.5146Z" fill="black"/>
<path d="M36.1834 28.2185C35.5256 27.3885 34.2239 27.3691 33.5522 27.4225V29.4418C33.9545 29.546 34.301 29.813 34.5157 30.1844C34.979 30.8689 36.4011 33.2328 36.4011 33.2328L38.3374 32.4658C38.3374 32.4658 37.0867 29.3641 36.1834 28.2185Z" fill="#263238"/>
<path d="M35.5256 27.3449C34.9116 26.9977 34.2374 26.7831 33.5429 26.7138V27.505C34.1358 27.573 35.2013 27.7963 35.7386 28.5292C36.276 29.2622 38.342 32.4659 38.342 32.4659L38.8053 31.9805C37.9853 30.4272 36.3547 27.9419 35.5256 27.3449Z" fill="#455A64"/>
<path d="M39.9634 32.6892H39.8893H39.8291L39.7596 32.7134H39.704L39.6391 32.7474L39.5882 32.7765L39.5233 32.8202L39.4724 32.8591L39.4121 32.9125L39.3705 32.9561L39.3241 33.0095C39.3144 33.0278 39.3019 33.0441 39.2871 33.0581L39.2593 33.1018V33.126V33.1552L39.2222 33.2134L39.1944 33.2619C39.1944 33.2911 39.162 33.3251 39.1435 33.359L39.1157 33.427V33.4658V33.5095C39.1157 33.5435 39.1157 33.5775 39.0786 33.6163V33.6648C39.0786 33.7279 39.0416 33.7862 39.0277 33.8541C38.9701 34.1137 38.939 34.3789 38.935 34.6454C38.9305 35.7867 39.2927 36.8963 39.9634 37.7956C40.0421 37.8927 40.1209 37.9849 40.2043 38.0723L40.2413 38.1063L40.3016 38.1646L40.3479 38.2034L40.3942 38.2471L40.4498 38.2859L40.4915 38.3199L40.5471 38.3587L40.5888 38.3878L40.6444 38.4218L40.6907 38.4509L40.7416 38.4752L40.8065 38.5092H40.8389L41.3021 38.3636C41.056 38.2568 40.8325 38.1001 40.6444 37.9024C40.1454 37.3459 39.7788 36.6738 39.5744 35.9409C39.3699 35.2079 39.3334 34.4348 39.4677 33.6843C39.5042 33.458 39.5837 33.2417 39.7015 33.0483C39.8193 32.8548 39.9729 32.6882 40.1533 32.5581H39.9634V32.6892Z" fill="#263238"/>
<path d="M40.4266 32.3251C40.3579 32.3329 40.2897 32.3459 40.2228 32.3639L39.7595 32.5096C39.9661 32.4534 40.1829 32.4534 40.3895 32.5096L40.4266 32.3251Z" fill="#37474F"/>
<path d="M40.7138 38.6208H40.6814L40.6165 38.5868L40.5656 38.5626H40.5331L40.4775 38.5286L40.4359 38.4995L40.3803 38.4606L40.3386 38.4266L40.283 38.3878L40.2367 38.3441L40.1903 38.3053L40.1255 38.247C40.1159 38.2345 40.105 38.2231 40.0931 38.2131C40.0111 38.1288 39.9337 38.0396 39.8614 37.9461C39.6501 37.6808 39.4712 37.3889 39.3287 37.0772C39.203 36.8125 39.1007 36.5363 39.023 36.252C38.8886 35.7795 38.8215 35.2888 38.8238 34.7958V34.7715C38.8281 34.5067 38.8591 34.2431 38.9164 33.9852C38.9164 33.9269 38.9442 33.8687 38.9628 33.8104V33.7862C38.9754 33.7399 38.9909 33.6945 39.0091 33.6503V33.6211C39.0108 33.6066 39.0108 33.5919 39.0091 33.5774L39.0369 33.5192L39.0647 33.4561L39.1017 33.393L39.1295 33.3396L39.1712 33.2813L39.2222 33.2085L39.2592 33.16L39.3009 33.1115L39.3426 33.0726L39.375 33.0435H39.3982L39.4399 33.0095L39.4955 32.9755L39.5603 32.9416H39.6159L39.6854 32.9173H39.7456H39.8198H40.0143H40.0931H40.1533H40.1996L40.2506 32.7037C40.044 32.6476 39.8271 32.6476 39.6206 32.7037L39.5325 32.7328C39.4482 32.7678 39.3675 32.8117 39.2917 32.8639L39.2268 32.9173C39.1898 32.9464 39.1573 32.9852 39.1203 33.0192L39.0832 33.0629L39.0369 33.1163L38.9952 33.1746L38.9489 33.2377L38.8886 33.3347L38.8609 33.3881C38.8609 33.4173 38.8284 33.4464 38.8145 33.4804V33.524C38.8145 33.5726 38.7728 33.6163 38.7543 33.6697V33.7036L38.7126 33.8298V33.8784C38.6944 33.9342 38.679 33.9909 38.6663 34.0483C38.5824 34.425 38.5528 34.8128 38.5783 35.1987C38.5884 35.4037 38.6101 35.6079 38.6431 35.8103C38.6431 35.9122 38.6802 36.0142 38.7034 36.1161C38.7734 36.4189 38.8648 36.7158 38.9767 37.0044C39.1897 37.5497 39.5047 38.0448 39.9031 38.4606C40.053 38.6151 40.2211 38.7489 40.4034 38.8587L40.7045 38.7664L40.7138 38.6208Z" fill="#455A64"/>
<path d="M41.1909 33.4561C41.6458 33.9643 41.9797 34.5777 42.1657 35.2466C42.3516 35.9154 42.3843 36.6208 42.261 37.3054C41.9738 38.548 41.0242 38.8393 40.144 37.9558C39.6887 37.448 39.3541 36.8347 39.1674 36.1659C38.9806 35.4971 38.947 34.7916 39.0693 34.1066C39.3565 32.8639 40.3062 32.5727 41.1909 33.4561Z" fill="#6B67F1"/>
<path d="M42.8215 38.1257C43.0021 37.1145 42.9528 36.0728 42.6776 35.0853C42.4023 34.0977 41.9089 33.192 41.2372 32.4416C40.5841 31.7863 39.9124 31.5679 39.3426 31.7426C39.1851 31.7912 38.5551 31.9805 38.4161 32.0339C37.851 32.2038 37.3924 32.7717 37.1793 33.6891C36.9987 34.7004 37.048 35.742 37.3232 36.7295C37.5985 37.7171 38.0919 38.6228 38.7636 39.3732C39.4167 40.0285 40.093 40.2469 40.6582 40.0722L41.5847 39.781C42.1498 39.6111 42.6084 39.0431 42.8215 38.1257Z" fill="#6B67F1"/>
<path opacity="0.35" d="M42.8215 38.1257C43.0021 37.1145 42.9528 36.0728 42.6776 35.0853C42.4023 34.0977 41.9089 33.192 41.2372 32.4416C40.5841 31.7863 39.9124 31.5679 39.3426 31.7426C39.1851 31.7912 38.5551 31.9805 38.4161 32.0339C37.851 32.2038 37.3924 32.7717 37.1793 33.6891C36.9987 34.7004 37.048 35.742 37.3232 36.7295C37.5985 37.7171 38.0919 38.6228 38.7636 39.3732C39.4167 40.0285 40.093 40.2469 40.6582 40.0722L41.5847 39.781C42.1498 39.6111 42.6084 39.0431 42.8215 38.1257Z" fill="black"/>
<path opacity="0.1" d="M40.2922 32.7328C40.9654 33.4833 41.4601 34.3897 41.7362 35.3781C42.0123 36.3666 42.0619 37.4094 41.8811 38.4218C41.4503 40.2566 40.0514 40.6838 38.745 39.3926C38.0768 38.6394 37.5872 37.7319 37.316 36.7435C37.0448 35.7552 36.9995 34.7138 37.1839 33.7037C37.5869 31.8543 38.9905 31.4222 40.2922 32.7328Z" fill="black"/>
<path d="M41.8812 38.4169C42.0611 37.4057 42.0114 36.3643 41.7362 35.3768C41.461 34.3894 40.9679 33.4837 40.2969 32.7328C39.6437 32.0824 38.9674 31.864 38.3976 32.0387L37.9344 32.1795C37.3693 32.3542 36.9107 32.9173 36.6976 33.8347C36.5144 34.8471 36.5621 35.8904 36.8365 36.8799C37.111 37.8693 37.6047 38.7768 38.2772 39.5285C38.9304 40.1838 39.6067 40.4023 40.1718 40.2275L40.6351 40.0819C41.2095 39.8974 41.6681 39.3344 41.8812 38.4169Z" fill="#F0F0F0"/>
<path d="M39.8244 32.8736C40.497 33.6234 40.9911 34.529 41.2664 35.5168C41.5417 36.5046 41.5904 37.5465 41.4087 38.5577C40.9825 40.3974 39.5557 40.8246 38.2772 39.5285C37.6045 38.7778 37.1105 37.8713 36.8352 36.8828C36.5599 35.8942 36.5112 34.8516 36.6929 33.8396C37.1191 31.995 38.5227 31.5679 39.8244 32.8736Z" fill="#E0E0E0"/>
<path d="M41.6125 38.6111C41.7961 37.5644 41.7425 36.4872 41.456 35.4662C41.1696 34.4452 40.6583 33.5089 39.9634 32.7328C39.624 32.3694 39.1988 32.1065 38.7312 31.9708C38.4475 31.8903 38.1486 31.8903 37.8649 31.9708C37.7074 32.0193 37.0728 32.2086 36.9384 32.262C36.2945 32.461 35.7896 33.1018 35.5487 34.0726C35.3611 35.1204 35.4113 36.1997 35.6954 37.2234C35.9795 38.2471 36.4894 39.1864 37.184 39.9654C37.5229 40.327 37.946 40.5897 38.4115 40.7275C38.698 40.8104 39.0006 40.8104 39.287 40.7275L40.2135 40.4411C40.8898 40.2275 41.3855 39.5868 41.6125 38.6111Z" fill="#455A64"/>
<path d="M38.4162 40.7275C37.949 40.5905 37.5242 40.3277 37.1839 39.9654C36.487 39.1868 35.975 38.2471 35.6893 37.2224C35.4036 36.1978 35.3523 35.117 35.5395 34.0677C35.8591 32.6891 36.7439 31.9756 37.7908 32.2426C38.257 32.3787 38.6805 32.6416 39.0184 33.0047C39.7153 33.7833 40.2273 34.723 40.513 35.7476C40.7987 36.7723 40.8501 37.853 40.6628 38.9023C40.3478 40.276 39.4631 40.9847 38.4162 40.7275Z" fill="#37474F"/>
<path d="M38.2633 38.6014C38.0299 38.5336 37.8176 38.4031 37.6472 38.2228C37.2995 37.8335 37.0441 37.364 36.9017 36.8521C36.7592 36.3403 36.7337 35.8005 36.8273 35.2764C36.9848 34.592 37.4295 34.2328 37.9529 34.3638C38.1851 34.4338 38.3958 34.566 38.5644 34.7473C38.9114 35.136 39.1664 35.6048 39.3088 36.1157C39.4512 36.6267 39.4771 37.1655 39.3843 37.6889C39.2268 38.3781 38.7867 38.7373 38.2633 38.6014Z" fill="#263238"/>
<path d="M24.4403 29.9903V26.7867C24.0736 27.1332 23.7372 27.5133 23.4351 27.9225C22.7495 28.8399 23.5092 31.0194 24.1855 31.6359C24.0947 31.3609 24.0704 31.0666 24.1148 30.7794C24.1593 30.4922 24.2711 30.2211 24.4403 29.9903Z" fill="#263238"/>
<path d="M24.4403 27.0245V26.1896C23.7446 26.7099 23.095 27.2947 22.4994 27.937C21.963 28.545 21.5936 29.2938 21.4305 30.104C21.2674 30.9141 21.3166 31.7555 21.5729 32.5387C21.8549 33.4818 22.2372 34.3887 22.7124 35.2424L25.5567 34.024C25.5567 34.024 23.5741 30.7912 23.4583 29.136C23.4578 28.7289 23.5461 28.3271 23.7162 27.9612C23.8864 27.5953 24.1341 27.2749 24.4403 27.0245Z" fill="#455A64"/>
<path d="M30.3095 40.1402C30.3314 38.958 30.0874 37.787 29.5973 36.7219C29.1072 35.6569 28.3848 34.7277 27.4884 34.0095C27.0543 33.6781 26.5447 33.4722 26.0107 33.4124C25.6921 33.3837 25.3719 33.4458 25.0842 33.592L24.0975 34.0774C23.4258 34.4221 22.9858 35.2181 22.907 36.3249C22.8855 37.507 23.1296 38.6778 23.6197 39.7428C24.1097 40.8078 24.832 41.7371 25.7281 42.4555C26.1625 42.7863 26.672 42.9921 27.2058 43.0526C27.534 43.0834 27.864 43.0197 28.1601 42.8681L29.1329 42.3827C29.7722 42.0478 30.2354 41.2469 30.3095 40.1402Z" fill="#455A64"/>
<path d="M27.1873 43.0623C26.6534 43.0019 26.144 42.796 25.7096 42.4653C24.8135 41.7468 24.0912 40.8175 23.6012 39.7525C23.1111 38.6876 22.867 37.5167 22.8885 36.3346C22.9997 34.7667 23.8427 33.8153 25.0333 33.9076C25.5736 33.9647 26.0898 34.1707 26.5295 34.5046C27.4193 35.2263 28.1346 36.1573 28.6175 37.2224C29.1003 38.2874 29.3372 39.4566 29.3089 40.6353C29.2163 42.2031 28.3825 43.1545 27.1873 43.0623Z" fill="#37474F"/>
<path d="M29.0959 40.6207C29.12 39.4796 28.8862 38.3487 28.4136 37.3203C27.9411 36.292 27.2431 35.3953 26.3767 34.7036C25.5521 34.1162 24.7739 34.0046 24.1856 34.3055L23.7223 34.5482C23.1294 34.8492 22.7264 35.553 22.6522 36.5967C22.63 37.7368 22.8646 38.8663 23.3371 39.8935C23.8095 40.9208 24.5065 41.8168 25.3714 42.5089C26.2006 43.1011 26.9742 43.2079 27.5672 42.9118L28.0304 42.6642C28.6234 42.3681 29.0217 41.6594 29.0959 40.6207Z" fill="#F0F0F0"/>
<path d="M25.8902 34.9512C26.7535 35.6448 27.4493 36.5412 27.9216 37.568C28.3939 38.5949 28.6295 39.7237 28.6094 40.8634C28.4612 42.9507 27.002 43.6885 25.3668 42.5089C24.501 41.8209 23.802 40.9289 23.3264 39.9051C22.8508 38.8813 22.6119 37.7546 22.6291 36.6161C22.7773 34.5095 24.2365 33.7716 25.8902 34.9512Z" fill="#E0E0E0"/>
<path d="M28.6095 40.8634C28.6295 39.7237 28.3939 38.5949 27.9216 37.568C27.4494 36.5412 26.7536 35.6448 25.8903 34.9512C25.0657 34.3638 24.2875 34.2522 23.6992 34.5483L22.7171 35.0337C22.1242 35.3298 21.7258 36.0336 21.6517 37.0772C21.6283 38.2175 21.8624 39.3475 22.335 40.3749C22.8075 41.4024 23.5051 42.2982 24.3709 42.9895C25.1954 43.5817 25.969 43.6885 26.5573 43.3924L27.544 42.907C28.1323 42.6157 28.5354 41.907 28.6095 40.8634Z" fill="#6B67F1"/>
<path opacity="0.35" d="M28.6095 40.8634C28.6295 39.7237 28.3939 38.5949 27.9216 37.568C27.4494 36.5412 26.7536 35.6448 25.8903 34.9512C25.0657 34.3638 24.2875 34.2522 23.6992 34.5483L22.7171 35.0337C22.1242 35.3298 21.7258 36.0336 21.6517 37.0772C21.6283 38.2175 21.8624 39.3475 22.335 40.3749C22.8075 41.4024 23.5051 42.2982 24.3709 42.9895C25.1954 43.5817 25.969 43.6885 26.5573 43.3924L27.544 42.907C28.1323 42.6157 28.5354 41.907 28.6095 40.8634Z" fill="black"/>
<path d="M24.9082 35.4463C25.7715 36.1399 26.4673 37.0363 26.9396 38.0632C27.4119 39.0901 27.6475 40.2188 27.6274 41.3585C27.4792 43.4458 26.02 44.1836 24.3847 43.0041C23.5177 42.3153 22.8182 41.4217 22.3433 40.3959C21.8683 39.3702 21.6313 38.2414 21.6516 37.1015C21.7999 35.0046 23.2591 34.2668 24.9082 35.4463Z" fill="#6B67F1"/>
<path d="M24.4403 37.485C24.8944 37.8489 25.2603 38.3198 25.5082 38.8595C25.7561 39.3993 25.879 39.9927 25.8671 40.5916C25.793 41.6886 25.024 42.0769 24.1577 41.4556C23.7036 41.0918 23.3378 40.6208 23.0899 40.0811C22.842 39.5413 22.719 38.9479 22.731 38.349C22.8236 37.252 23.5741 36.8685 24.4403 37.485Z" fill="#263238"/>
<path d="M25.2649 38.5577L24.2133 39.5285L23.2035 37.3345C23.3959 37.2578 23.6045 37.2367 23.8075 37.2734C24.0104 37.3101 24.2002 37.4033 24.3569 37.5432C24.7243 37.8108 25.0336 38.1565 25.2649 38.5577Z" fill="#455A64"/>
<path d="M25.793 40.6304C25.8 40.8455 25.7517 41.0585 25.653 41.2473C25.5544 41.436 25.4091 41.5935 25.2324 41.7032L24.2133 39.5285L25.2649 38.5577C25.6337 39.1782 25.8176 39.8999 25.793 40.6304Z" fill="#37474F"/>
<path d="M25.2325 41.7032C25.0408 41.78 24.8329 41.8012 24.6306 41.7644C24.4284 41.7277 24.2394 41.6344 24.0836 41.4944C23.7067 41.2185 23.3908 40.861 23.1572 40.446L24.2133 39.5286L25.2325 41.7032Z" fill="#455A64"/>
<path d="M24.2133 39.5285L23.1711 40.4653C22.8061 39.8485 22.6225 39.1327 22.643 38.4072C22.6379 38.1925 22.687 37.9802 22.7855 37.7918C22.8839 37.6034 23.0281 37.4456 23.2035 37.3345L24.2133 39.5285Z" fill="#37474F"/>
<path d="M47.4909 72.4488C47.4797 72.3903 47.4475 72.3386 47.4009 72.3043C47.3544 72.27 47.2971 72.2557 47.2408 72.2643C47.1844 72.275 47.1344 72.3085 47.1014 72.3575C47.0685 72.4066 47.0553 72.4673 47.0648 72.5264C47.301 73.9827 46.8841 74.8321 46.2309 75.3127C45.3045 76.0068 43.5303 76.1767 42.4463 75.2107C39.5742 72.6332 39.287 66.4103 39.0276 61.4446C38.9932 59.7393 38.8384 58.039 38.5644 56.3576C38.6071 54.0638 39.1675 51.8133 40.1996 49.79L40.6165 48.9697C42.2425 45.7854 43.5256 43.2662 42.7983 38.6548C42.7882 38.5958 42.7562 38.5433 42.7094 38.5088C42.6626 38.4743 42.6047 38.4605 42.5482 38.4704C42.5205 38.4751 42.4939 38.4855 42.4701 38.501C42.4462 38.5165 42.4255 38.5368 42.4092 38.5607C42.3928 38.5846 42.3811 38.6116 42.3748 38.6403C42.3684 38.6689 42.3675 38.6986 42.3722 38.7276C43.0763 43.1885 41.8858 45.5233 40.2367 48.7561L39.8197 49.5765C38.8682 51.4593 38.3003 53.5288 38.1521 55.6537C37.1283 54.1975 35.5904 53.251 34.0941 52.3287C33.4688 51.9404 32.8758 51.5715 32.3292 51.1735C30.0964 49.5473 27.8358 47.4844 26.4091 43.407C26.3882 43.3512 26.3478 43.306 26.296 43.2807C26.2443 43.2554 26.1852 43.252 26.1311 43.271C26.078 43.2928 26.0352 43.3355 26.0118 43.3899C25.9885 43.4444 25.9864 43.5062 26.006 43.5623C27.4745 47.7319 29.7953 49.8726 32.0837 51.5229C32.6396 51.9258 33.2418 52.2996 33.8764 52.6928C35.5163 53.7073 37.2117 54.7606 38.1475 56.445C38.4195 58.0972 38.5744 59.7684 38.6107 61.4446C38.8747 66.4929 39.2036 72.7789 42.1776 75.5214C42.4851 75.7965 42.8416 76.005 43.2264 76.135C43.6112 76.265 44.0168 76.3138 44.4197 76.2786C45.1191 76.2712 45.8033 76.0631 46.3977 75.6767C47.301 75.0991 47.6948 73.7108 47.4909 72.4488Z" fill="#F5F5F5"/>
<path d="M27.1734 85.778L27.5116 71.8857L8.8895 59.7311L8.55133 73.6185L27.1734 85.778Z" fill="black"/>
<path d="M26.9928 72.0119L26.6268 85.4334C25.661 85.6347 24.7815 86.1533 24.1161 86.9138L24.4542 73.5943C24.4542 73.5943 24.987 73.0555 26.9928 72.0119Z" fill="#F5F5F5"/>
<path d="M23.9493 74.5651C23.9788 74.1793 24.0949 73.8063 24.2881 73.4765C24.4813 73.1467 24.7462 72.8694 25.0611 72.6672L26.9557 71.6041C27.5533 71.2692 28.0212 71.575 28.0026 72.2837L27.6413 85.511L27.1781 85.778L27.4977 72.7448C27.4977 72.3177 27.229 72.1381 26.8723 72.3371L25.1213 73.3079C24.9266 73.4305 24.7636 73.6013 24.6465 73.8052C24.5294 74.0091 24.4618 74.2401 24.4496 74.4777L24.1207 87.4963L23.5926 87.7973L23.9493 74.5651Z" fill="#263238"/>
<path d="M23.5926 87.7876L4.97053 75.6524L5.32722 62.43C5.35674 62.0442 5.47283 61.6712 5.66603 61.3414C5.85924 61.0116 6.12409 60.7342 6.43899 60.532L8.33363 59.4641C8.44302 59.3862 8.57044 59.3405 8.70249 59.332C8.83454 59.3234 8.96635 59.3523 9.08407 59.4156L27.7108 71.5507C27.5915 71.4897 27.4589 71.4625 27.3265 71.4719C27.194 71.4813 27.0661 71.5269 26.9557 71.6041L25.0611 72.6672C24.7462 72.8694 24.4813 73.1467 24.2881 73.4765C24.0949 73.8063 23.9788 74.1793 23.9493 74.5651L23.5926 87.7876Z" fill="#37474F"/>
<path d="M24.2875 73.4729C24.4778 73.1415 24.7436 72.8646 25.0611 72.6672L26.9557 71.6041C27.0661 71.5269 27.194 71.4813 27.3265 71.4719C27.4589 71.4625 27.5915 71.4897 27.7108 71.5507L9.08408 59.4156C8.96636 59.3523 8.83455 59.3234 8.7025 59.332C8.57045 59.3405 8.44303 59.3862 8.33363 59.4641L6.439 60.532C6.12848 60.7238 5.86886 60.9942 5.68392 61.3184L24.2875 73.4729Z" fill="#455A64"/>
<path d="M8.10665 62.9299C9.06919 61.9742 10.2571 61.304 11.5485 60.9883L12.4147 61.5514C11.1256 61.8694 9.93969 62.5393 8.97754 63.493L8.10665 62.9299Z" fill="#FAFAFA"/>
<path d="M20.4195 70.9634C21.3833 70.0095 22.5707 69.3397 23.8613 69.0218L24.7276 69.5849C23.437 69.9028 22.2496 70.5726 21.2857 71.5265L20.4195 70.9634Z" fill="#FAFAFA"/>
<path d="M21.5266 74.6622L21.0958 74.3806C21.0958 74.3806 21.1467 74.6525 21.2486 74.7301C21.3505 74.8078 21.5266 74.6622 21.5266 74.6622Z" fill="black"/>
<path d="M21.4339 75.0699C21.3634 75.0513 21.2973 75.0174 21.24 74.9706C21.1826 74.9237 21.1352 74.8648 21.1008 74.7977C21.0663 74.7306 21.0456 74.6566 21.04 74.5807C21.0343 74.5047 21.0439 74.4283 21.068 74.3564C21.2069 73.7739 21.5312 73.5603 21.4478 73.3855C21.3644 73.2108 18.636 74.7641 18.636 74.7641L20.79 75.531L21.4339 75.0699Z" fill="#6B67F1"/>
<path opacity="0.3" d="M21.4339 75.0699C21.3634 75.0513 21.2973 75.0174 21.24 74.9706C21.1826 74.9237 21.1352 74.8648 21.1008 74.7977C21.0663 74.7306 21.0456 74.6566 21.04 74.5807C21.0343 74.5047 21.0439 74.4283 21.068 74.3564C21.2069 73.7739 21.5312 73.5603 21.4478 73.3855C21.3644 73.2108 18.636 74.7641 18.636 74.7641L20.79 75.531L21.4339 75.0699Z" fill="black"/>
<path d="M3.24725 64.522H3.21945V64.8472L2.80717 78.759L20.2943 88.8603C20.5676 89.035 20.7946 88.9671 20.7993 88.7049V88.2195L21.1884 75.2107L21.1004 75.167L3.24725 64.522Z" fill="#6B67F1"/>
<path opacity="0.2" d="M3.24725 64.522H3.21945V64.8472L2.80717 78.759L20.2943 88.8603C20.5676 89.035 20.7946 88.9671 20.7993 88.7049V88.2195L21.1884 75.2107L21.1004 75.167L3.24725 64.522Z" fill="black"/>
<path d="M17.3991 75.633L17.64 76.4873L20.5816 74.8321C20.5306 74.2642 20.5816 73.8613 20.9012 73.6137L17.3991 75.633Z" fill="#455A64"/>
<path d="M20.7947 75.1524L20.4102 88.0351C20.4011 88.1568 20.3644 88.2745 20.3031 88.3783C20.2419 88.4821 20.1579 88.5692 20.0581 88.6322L17.1629 90.2583L17.5937 77.2251C17.6923 77.1254 17.7699 77.0053 17.8218 76.8724C17.8736 76.7396 17.8985 76.5968 17.8948 76.4533C17.8438 76.0262 18.1079 76.2252 18.1079 76.2252L20.5816 74.8321C20.702 75.1573 20.7947 75.1524 20.7947 75.1524Z" fill="#EBEBEB"/>
<path d="M17.4038 75.8902C17.4038 76.0262 17.4362 76.1087 17.4872 76.0747L17.5798 76.0262C17.6817 75.9679 17.7605 76.1329 17.7512 76.3951C17.7582 76.5009 17.7446 76.6071 17.7111 76.7073C17.6777 76.8074 17.6251 76.8994 17.5566 76.9775L17.464 77.0309C17.4084 77.0601 17.3621 77.2639 17.3575 77.4824L0.407657 66.4054C0.407657 66.2743 0.407657 66.0802 0.407657 66.0802C0.425051 66.0263 0.459333 65.9801 0.504936 65.9491L0.597584 65.8957C0.666072 65.8184 0.719002 65.7274 0.753223 65.6281C0.787444 65.5289 0.802256 65.4235 0.796775 65.3181C0.796775 65.0511 0.72729 64.8861 0.625379 64.9443L0.532731 64.9977C0.477143 65.0269 0.440083 64.9443 0.444715 64.8133L17.4038 75.8902Z" fill="#6B67F1"/>
<path opacity="0.25" d="M17.4038 75.8902C17.4038 76.0262 17.4362 76.1087 17.4872 76.0747L17.5798 76.0262C17.6817 75.9679 17.7605 76.1329 17.7512 76.3951C17.7582 76.5009 17.7446 76.6071 17.7111 76.7073C17.6777 76.8074 17.6251 76.8994 17.5566 76.9775L17.464 77.0309C17.4084 77.0601 17.3621 77.2639 17.3575 77.4824L0.407657 66.4054C0.407657 66.2743 0.407657 66.0802 0.407657 66.0802C0.425051 66.0263 0.459333 65.9801 0.504936 65.9491L0.597584 65.8957C0.666072 65.8184 0.719002 65.7274 0.753223 65.6281C0.787444 65.5289 0.802256 65.4235 0.796775 65.3181C0.796775 65.0511 0.72729 64.8861 0.625379 64.9443L0.532731 64.9977C0.477143 65.0269 0.440083 64.9443 0.444715 64.8133L17.4038 75.8902Z" fill="white"/>
<path d="M0.444706 66.0948H0.416913V66.42L0 80.3026L16.4541 90.9815C16.7275 91.1563 16.9544 91.0883 16.9637 90.8262V90.3408L17.5798 77.2009L0.444706 66.0948Z" fill="#6B67F1"/>
<path opacity="0.4" d="M0.444706 66.0948H0.416913V66.42L0 80.3026L16.4541 90.9815C16.7275 91.1563 16.9544 91.0883 16.9637 90.8262V90.3408L17.5798 77.2009L0.444706 66.0948Z" fill="white"/>
<path d="M0.449338 65.0463L17.4501 76.0795L17.5798 75.2835L0.634632 64.2842C0.541473 64.3868 0.481508 64.5176 0.463235 64.658L0.449338 65.0463Z" fill="#6B67F1"/>
<path opacity="0.4" d="M0.449338 65.0463L17.4501 76.0795L17.5798 75.2835L0.634632 64.2842C0.541473 64.3868 0.481508 64.5176 0.463235 64.658L0.449338 65.0463Z" fill="white"/>
<path d="M4.61382 62.129C4.60159 62.1264 4.58899 62.1264 4.57676 62.129H4.52117H4.48875C4.45337 62.1243 4.41757 62.1243 4.3822 62.129H4.26639L4.14132 62.1727C4.11525 62.178 4.09021 62.1879 4.0672 62.2018L4.00698 62.2261L3.87264 62.294L1.35264 63.7163C1.08018 63.8546 0.83624 64.0475 0.634623 64.2842L17.5798 75.2835L21.5636 73.1283L4.61845 62.1339L4.61382 62.129Z" fill="#6B67F1"/>
<g opacity="0.7">
<path d="M4.61382 62.129C4.60159 62.1264 4.58899 62.1264 4.57676 62.129H4.52117H4.48875C4.45337 62.1243 4.41757 62.1243 4.3822 62.129H4.26639L4.14132 62.1727C4.11525 62.178 4.09021 62.1879 4.0672 62.2018L4.00698 62.2261L3.87264 62.294L1.35264 63.7163C1.08018 63.8546 0.83624 64.0475 0.634623 64.2842L17.5798 75.2835L21.5636 73.1283L4.61845 62.1339L4.61382 62.129Z" fill="white"/>
</g>
<path d="M16.1761 74.3709L14.1333 73.0458C15.2601 72.0083 16.5993 71.256 18.0476 70.8469L20.0905 72.172C18.6422 72.5812 17.303 73.3335 16.1761 74.3709Z" fill="#FAFAFA"/>
<path d="M4.79911 66.9879L2.75624 65.6579C3.88203 64.6216 5.2195 63.8693 6.66595 63.459L8.70882 64.7696C7.26008 65.184 5.92213 65.9432 4.79911 66.9879Z" fill="#FAFAFA"/>
<path d="M18.2747 74.701L18.46 75.0602C18.1961 75.1956 17.9697 75.3995 17.8022 75.6524C17.9061 75.7004 17.9911 75.7844 18.0431 75.8902C18.1175 76.0517 18.151 76.2306 18.1403 76.4096C18.1334 76.6191 18.0878 76.8251 18.006 77.0164V77.0552C17.9511 77.1673 17.8678 77.2614 17.7651 77.327L17.4038 89.6661V90.0835V90.6174C17.4065 90.6618 17.3976 90.706 17.378 90.7454C17.3584 90.7848 17.3289 90.8177 17.2926 90.8407L16.8942 91.064C16.9307 91.0409 16.9606 91.008 16.9809 90.9688C17.0013 90.9295 17.0113 90.8854 17.01 90.8407L17.0517 89.4282L17.4038 77.4921C17.4038 77.2736 17.4547 77.0649 17.5103 77.0358L17.5984 76.9873C17.6566 76.9453 17.6991 76.8836 17.7188 76.8125C17.7685 76.6827 17.7952 76.5446 17.7975 76.4048C17.7975 76.1426 17.7281 75.9776 17.6261 76.0358L17.5335 76.0892C17.4825 76.1184 17.4455 76.0358 17.4501 75.8999V75.6669C17.4177 75.3951 17.8068 74.9631 18.2747 74.701Z" fill="#6B67F1"/>
<path opacity="0.6" d="M18.2747 74.701L18.46 75.0602C18.1961 75.1956 17.9697 75.3995 17.8022 75.6524C17.9061 75.7004 17.9911 75.7844 18.0431 75.8902C18.1175 76.0517 18.151 76.2306 18.1403 76.4096C18.1334 76.6191 18.0878 76.8251 18.006 77.0164V77.0552C17.9511 77.1673 17.8678 77.2614 17.7651 77.327L17.4038 89.6661V90.0835V90.6174C17.4065 90.6618 17.3976 90.706 17.378 90.7454C17.3584 90.7848 17.3289 90.8177 17.2926 90.8407L16.8942 91.064C16.9307 91.0409 16.9606 91.008 16.9809 90.9688C17.0013 90.9295 17.0113 90.8854 17.01 90.8407L17.0517 89.4282L17.4038 77.4921C17.4038 77.2736 17.4547 77.0649 17.5103 77.0358L17.5984 76.9873C17.6566 76.9453 17.6991 76.8836 17.7188 76.8125C17.7685 76.6827 17.7952 76.5446 17.7975 76.4048C17.7975 76.1426 17.7281 75.9776 17.6261 76.0358L17.5335 76.0892C17.4825 76.1184 17.4455 76.0358 17.4501 75.8999V75.6669C17.4177 75.3951 17.8068 74.9631 18.2747 74.701Z" fill="white"/>
<path d="M18.4599 75.0602L20.9707 73.6428C21.0047 73.6205 21.0403 73.601 21.0772 73.5846L21.1652 73.5457C21.0456 73.6593 20.9512 73.799 20.8888 73.9551C20.8264 74.1111 20.7974 74.2795 20.8039 74.4486C20.7942 74.616 20.8262 74.7833 20.8966 74.934C20.9551 75.0533 21.0543 75.1451 21.1745 75.1912V75.3174L20.8178 87.2487C20.8178 87.2487 20.8178 87.5594 20.8178 87.9331C20.8178 87.9963 20.8178 88.0642 20.8178 88.1322C20.8178 88.3312 20.8178 88.5351 20.8178 88.7098C20.8141 88.7487 20.8017 88.7861 20.7816 88.819C20.7615 88.8519 20.7342 88.8794 20.702 88.8991L20.8132 88.836L21.1004 88.671C21.1306 88.6534 21.1561 88.6282 21.1747 88.5977C21.1933 88.5672 21.2044 88.5323 21.2069 88.4962C21.2069 88.4283 21.2069 88.3555 21.2069 88.2826C21.2092 88.239 21.2092 88.1952 21.2069 88.1516C21.2069 88.0691 21.2069 87.9914 21.2069 87.9186C21.2069 87.8458 21.2069 87.8215 21.2069 87.7778V87.6759C21.2069 87.5691 21.2069 87.5011 21.2069 87.5011L21.4849 78.0212L21.5729 74.9971C21.5729 74.7835 21.5451 74.6282 21.4941 74.6476L21.4061 74.701C21.2949 74.7641 21.2116 74.5991 21.2208 74.3369C21.2115 74.2449 21.2249 74.1519 21.2597 74.0669C21.2946 73.9819 21.3498 73.9077 21.42 73.8515L21.5266 73.7884C21.5868 73.7593 21.6331 73.7011 21.6285 73.6622C21.6311 73.6397 21.6311 73.6168 21.6285 73.5943C21.6285 73.5554 21.6285 73.502 21.6285 73.4438C21.6285 73.3855 21.6285 73.3273 21.6285 73.2593C21.6322 73.2225 21.6236 73.1854 21.6042 73.1544C21.5848 73.1234 21.5557 73.1005 21.5219 73.0894H21.4617H21.4339C21.3985 73.0847 21.3627 73.0847 21.3274 73.0894C21.2889 73.0849 21.25 73.0849 21.2116 73.0894L21.0819 73.1283L21.0077 73.1574L20.9522 73.1865L20.8132 73.2545L18.2932 74.6719L18.4599 75.0602Z" fill="#6B67F1"/>
<path opacity="0.6" d="M18.4599 75.0602L20.9707 73.6428C21.0047 73.6205 21.0403 73.601 21.0772 73.5846L21.1652 73.5457C21.0456 73.6593 20.9512 73.799 20.8888 73.9551C20.8264 74.1111 20.7974 74.2795 20.8039 74.4486C20.7942 74.616 20.8262 74.7833 20.8966 74.934C20.9551 75.0533 21.0543 75.1451 21.1745 75.1912V75.3174L20.8178 87.2487C20.8178 87.2487 20.8178 87.5594 20.8178 87.9331C20.8178 87.9963 20.8178 88.0642 20.8178 88.1322C20.8178 88.3312 20.8178 88.5351 20.8178 88.7098C20.8141 88.7487 20.8017 88.7861 20.7816 88.819C20.7615 88.8519 20.7342 88.8794 20.702 88.8991L20.8132 88.836L21.1004 88.671C21.1306 88.6534 21.1561 88.6282 21.1747 88.5977C21.1933 88.5672 21.2044 88.5323 21.2069 88.4962C21.2069 88.4283 21.2069 88.3555 21.2069 88.2826C21.2092 88.239 21.2092 88.1952 21.2069 88.1516C21.2069 88.0691 21.2069 87.9914 21.2069 87.9186C21.2069 87.8458 21.2069 87.8215 21.2069 87.7778V87.6759C21.2069 87.5691 21.2069 87.5011 21.2069 87.5011L21.4849 78.0212L21.5729 74.9971C21.5729 74.7835 21.5451 74.6282 21.4941 74.6476L21.4061 74.701C21.2949 74.7641 21.2116 74.5991 21.2208 74.3369C21.2115 74.2449 21.2249 74.1519 21.2597 74.0669C21.2946 73.9819 21.3498 73.9077 21.42 73.8515L21.5266 73.7884C21.5868 73.7593 21.6331 73.7011 21.6285 73.6622C21.6311 73.6397 21.6311 73.6168 21.6285 73.5943C21.6285 73.5554 21.6285 73.502 21.6285 73.4438C21.6285 73.3855 21.6285 73.3273 21.6285 73.2593C21.6322 73.2225 21.6236 73.1854 21.6042 73.1544C21.5848 73.1234 21.5557 73.1005 21.5219 73.0894H21.4617H21.4339C21.3985 73.0847 21.3627 73.0847 21.3274 73.0894C21.2889 73.0849 21.25 73.0849 21.2116 73.0894L21.0819 73.1283L21.0077 73.1574L20.9522 73.1865L20.8132 73.2545L18.2932 74.6719L18.4599 75.0602Z" fill="white"/>
<path d="M18.8305 31.1455C12.4888 32.4173 12.0163 34.2085 10.2421 41.1206C8.3892 48.3143 7.80552 50.4841 6.92074 53.6441C6.03596 56.8041 5.87846 57.8332 5.8553 60.8669C5.82287 66.1482 5.93868 70.3615 5.8553 74.8175C5.8553 75.5844 5.39206 77.0213 5.18824 78.7008C4.99608 80.8486 5.00694 83.0111 5.22066 85.1566C5.37816 86.0547 6.50846 87.6808 7.72214 88.7632C8.2178 89.2049 10.6637 89.6903 11.6921 89.6903C11.9886 89.6936 12.2819 89.6247 12.5487 89.4891C12.8156 89.3535 13.0488 89.1548 13.23 88.9088L11.2983 87.6565C11.0678 86.6008 10.9512 85.5212 10.9509 84.4382C11.0065 83.0257 11.8264 83.3218 12.0117 84.3363C12.197 85.3508 12.4332 86.5012 12.8316 87.0934C13.23 87.6856 14.1796 88.0642 14.138 87.0934C14.0963 86.1226 14.138 83.3412 14.0129 82.6083C13.5496 80.2638 12.1599 76.9387 12.1599 75.434C12.1599 72.4681 14.5549 59.5709 14.5549 59.5709C14.5549 59.5709 17.9643 48.7464 18.724 46.0766C19.3586 43.7418 21.0494 36.3637 18.8305 31.1455Z" fill="#F28F8F"/>
</svg>
